<?xml version="1.0" encoding="UTF-8" standalone="no"?>
<!-- Created with Inkscape (http://www.inkscape.org/) -->

<svg
   xmlns:dc="http://purl.org/dc/elements/1.1/"
   xmlns:cc="http://creativecommons.org/ns#"
   xmlns:rdf="http://www.w3.org/1999/02/22-rdf-syntax-ns#"
   xmlns:svg="http://www.w3.org/2000/svg"
   xmlns="http://www.w3.org/2000/svg"
   xmlns:sodipodi="http://sodipodi.sourceforge.net/DTD/sodipodi-0.dtd"
   xmlns:inkscape="http://www.inkscape.org/namespaces/inkscape"
   id="svg2"
   version="1.1"
   inkscape:version="0.91 r"
   width="479.02499"
   height="266.17499"
   viewBox="0 0 479.02499 266.17499"
   sodipodi:docname="Tanglebox-Path.svg">
  <metadata
     id="metadata8">
    <rdf:RDF>
      <cc:Work
         rdf:about="">
        <dc:format>image/svg+xml</dc:format>
        <dc:type
           rdf:resource="http://purl.org/dc/dcmitype/StillImage" />
        <dc:title></dc:title>
      </cc:Work>
    </rdf:RDF>
  </metadata>
  <defs
     id="defs6" />
  <sodipodi:namedview
     pagecolor="#ffffff"
     bordercolor="#666666"
     borderopacity="1"
     objecttolerance="10"
     gridtolerance="10"
     guidetolerance="10"
     inkscape:pageopacity="0"
     inkscape:pageshadow="2"
     inkscape:window-width="1600"
     inkscape:window-height="848"
     id="namedview4"
     showgrid="false"
     inkscape:zoom="1.3045125"
     inkscape:cx="235.67874"
     inkscape:cy="145.25235"
     inkscape:window-x="0"
     inkscape:window-y="0"
     inkscape:window-maximized="1"
     inkscape:current-layer="svg2" />
  <path
     style="fill:none;fill-rule:evenodd;stroke:#ff0000;stroke-width:8;stroke-linecap:round;stroke-linejoin:round;stroke-miterlimit:4;stroke-dasharray:none;stroke-opacity:1"
     d="m 234.13216,178.78165 c 1.21506,-5.89893 24.59035,-11.64529 41.62045,-9.29597 9.96133,1.37418 28.24977,13.98752 27.97629,37.27321 -0.29735,25.31845 -40.78942,42.92286 -83.50147,42.64462 -35.22859,-0.22949 -71.34687,-14.94982 -72.81042,-49.90873 -1.11637,-26.6658 39.30101,-43.43301 42.04892,-41.08769 3.07426,2.62386 -4.71247,5.64278 -6.62881,3.38682 -1.37533,-1.61907 -3.98133,-5.2094 -3.80711,-5.97309 1.49805,-6.56686 4.9225,-30.64778 -3.85622,-30.68258 -4.79789,-0.019 -9.65682,6.75352 -10.09418,6.72943 -2.66053,-0.14651 -11.04499,0.20774 -10.9229,-0.16656 1.71455,-5.25632 6.9003,-9.18653 6.8992,-1.99357 -0.002,11.18967 -2.1736,21.11092 -1.06477,31.90088 4.08551,39.75594 40.5071,73.72645 66.27497,73.28565 23.15306,-0.39606 44.60612,-11.16794 44.80034,-42.95101 0.0235,-3.85079 -1.04157,-17.07931 -3.68809,-21.45443 -5.09685,-8.42592 -11.84682,-15.6602 -13.9407,-12.65394 -3.28733,4.71974 -12.70737,7.35297 -12.77491,3.40454 -0.29594,-17.30201 -1.88741,-53.68543 -3.13721,-55.38566 -1.00901,-1.37266 -11.27523,11.31417 -11.12996,10.09302 1.06405,-8.94455 -15.57576,-89.086618 -81.60923,-90.163426 C 71.163273,24.582593 36.957442,97.88892 37.681177,146.60908 c 0.403812,27.18369 14.321744,87.02455 57.194947,86.74675 32.737996,-0.21213 42.218696,-39.57674 43.109276,-67.07335 0.27173,-8.38952 7.64589,-9.87976 6.64325,-9.89963 -2.60697,-0.0517 -6.25083,6.6697 -7.79168,6.55358 -5.0889,-0.38349 -4.44221,-21.35505 -4.41501,-22.17598 0.21652,-6.53445 -19.09758,6.14849 -19.12158,14.43295 -0.0134,4.63184 2.43349,8.88187 7.84038,8.91721 6.84901,0.0448 11.29039,-8.75622 11.3201,-11.02632 0.10395,-7.94394 0.28818,-23.86885 -0.88882,-25.01435 -3.33791,-3.24857 -16.48745,0.20429 -24.52955,12.71441 -8.60751,13.38967 -3.96619,20.9811 -50.934752,19.64747 C 43.813985,160.08275 8.2492339,140.77253 8.6093599,113.97619 9.1332474,74.994648 40.097644,32.405782 83.924618,31.347406 123.00275,30.403709 155.61872,44.4389 156.94147,67.858649 158.59712,97.172543 100.5583,123.23824 87.320804,123.13218 l -31.961325,-0.25607 c 23.471752,-0.47064 19.943696,-18.33418 20.042809,-14.15222 l 1.533974,64.72396 c 0.111548,4.7066 10.018936,3.75282 14.726396,3.81903 7.061549,0.0993 13.275502,-2.61317 15.409932,-11.2372 -0.37881,28.85183 -15.093006,45.48686 -43.878412,44.92819 -30.474573,-0.59146 -49.218216,-36.29852 -47.8942,-58.37363 3.130212,-52.18958 41.747466,-77.646237 90.872602,-78.06161 41.18479,-0.348234 92.96437,36.00414 95.83003,72.46031 0.3724,4.73754 23.28496,-0.78326 23.15887,-15.81516 -0.0613,-7.30603 -4.96658,-7.93324 -9.55614,-8.02145 -7.41279,-0.14247 -15.66265,5.35456 -16.04641,14.74588 -0.32197,7.87915 0.56516,10.19967 12.55018,10.31891 0.75342,0.007 2.51474,18.08101 -0.69467,17.14854 -6.85276,-1.99101 -20.21909,6.65519 -20.29932,12.04875 -0.0576,3.86921 0.76294,8.09516 5.11399,8.67629 5.12524,0.68453 12.06069,-5.24735 19.92433,-5.151 7.83014,0.0959 11.22539,5.44671 10.98378,12.89558 -0.25047,7.72229 -6.49741,13.20661 -25.69297,12.50541 -38.60186,-1.4101 -57.79311,-22.91643 -59.43331,-61.32417 -1.02543,-24.01197 39.31703,-71.684619 77.43123,-73.75561 15.29787,-0.831232 50.00167,14.035519 50.43809,34.18263 0.12906,5.95786 -17.87733,27.96344 -9.54957,33.07115 9.48108,5.81509 24.17819,-9.28933 23.89675,-17.30516 -0.44127,-12.56789 -28.16466,-3.92402 -26.06344,18.77969 0.35512,3.83705 7.51463,13.3963 15.31107,13.45257 6.58753,0.0475 12.88845,-4.16411 14.59583,-6.95185 0.27879,-0.45521 2.36049,4.30434 2.19232,7.39292 -1.8998,34.89094 -50.18698,62.64324 -92.7561,63.10164 C 169.37357,217.28145 76.675454,194.20403 76.633372,171.64511 76.612042,160.2107 73.80401,132.41868 75.309741,109.28609 77.727024,72.149305 151.76692,34.137736 207.25202,34.404321 280.34431,34.755503 308.99324,93.30952 309.1554,111.6812 c 4.3e-4,0.0484 7.96181,-3.27329 8.6077,-1.05364 0,0 -18.19899,0.58339 -21.00685,-0.0709 0.10242,-2.38062 11.69811,-6.769 11.8485,-4.78065 0.70236,9.28648 -7.54889,38.70367 -1.63299,44.05768 11.517,10.42314 26.84684,-13.71226 19.98761,-22.88045 -9.57123,-12.7931 -28.01255,13.38762 -27.6597,26.51792 0.88668,32.99566 25.34697,55.96035 50.1695,56.22432 50.40213,0.53599 48.04478,-58.41773 56.91441,-58.42705 0.11807,-1.3e-4 -3.92193,0.12526 -3.99426,0.031 l -18.47135,-24.07077 c -0.40828,-0.53205 -5.65808,-0.15146 -6.26808,-0.18569 m -9.15156,9.57564 c -0.16544,6.09679 -4.67377,14.49674 -14.05733,14.60601 -2.53917,0.0296 -8.34024,-3.55623 -8.58279,-9.63779 -0.42898,-10.75569 7.67711,-15.88065 11.65208,-15.94446 7.3628,-0.1182 11.09364,7.08472 10.98804,10.97624 z m 9.29144,14.24435 c 0.4705,0.0415 4.49311,0.11093 5.09634,-0.82342 l 16.56618,-25.65973 c 0.32276,-0.49993 6.97451,-0.20782 6.43485,-0.37279 -7.02077,-2.14608 3.99042,-10.52432 3.04724,-21.96026 C 407.7164,87.278778 394.52,78.45375 373.86308,79.276289 c -20.91251,0.832717 -38.22672,30.494661 -37.79499,70.025111 0.51255,46.93083 14.00135,89.24494 46.23857,88.50856 47.71926,-1.09003 55.4487,-79.82485 55.31954,-102.64792 -0.43172,-76.28606 -46.96589,-104.3939 -92.64058,-105.133949 -54.84179,-0.88858 -75.50586,14.535943 -74.45937,33.602882 0.57807,10.532446 19.53291,24.489196 39.0617,24.521084 10.23727,0.01672 28.11185,-6.204199 29.05805,-26.565503"
     id="path4140"
     inkscape:connector-curvature="0"
     sodipodi:nodetypes="csssssssssssssssssssssssssssssssssssscssscssssssssssssssssssssssssssssscsssssssscssssscsssssssssssc" />
</svg>
