<?xml version="1.0" encoding="UTF-8" standalone="no"?>
<!-- Created with Inkscape (http://www.inkscape.org/) -->

<svg
   xmlns:dc="http://purl.org/dc/elements/1.1/"
   xmlns:cc="http://creativecommons.org/ns#"
   xmlns:rdf="http://www.w3.org/1999/02/22-rdf-syntax-ns#"
   xmlns:svg="http://www.w3.org/2000/svg"
   xmlns="http://www.w3.org/2000/svg"
   xmlns:sodipodi="http://sodipodi.sourceforge.net/DTD/sodipodi-0.dtd"
   xmlns:inkscape="http://www.inkscape.org/namespaces/inkscape"
   id="svg2"
   version="1.1"
   inkscape:version="0.91 r"
   width="479.02499"
   height="266.17499"
   viewBox="0 0 479.02499 266.17499"
   sodipodi:docname="Tanglebox-Path-Intersections.svg">
  <metadata
     id="metadata8">
    <rdf:RDF>
      <cc:Work
         rdf:about="">
        <dc:format>image/svg+xml</dc:format>
        <dc:type
           rdf:resource="http://purl.org/dc/dcmitype/StillImage" />
        <dc:title />
      </cc:Work>
    </rdf:RDF>
  </metadata>
  <defs
     id="defs6" />
  <sodipodi:namedview
     pagecolor="#ffffff"
     bordercolor="#666666"
     borderopacity="1"
     objecttolerance="10"
     gridtolerance="10"
     guidetolerance="10"
     inkscape:pageopacity="0"
     inkscape:pageshadow="2"
     inkscape:window-width="1600"
     inkscape:window-height="848"
     id="namedview4"
     showgrid="false"
     inkscape:zoom="1.8107727"
     inkscape:cx="245.56988"
     inkscape:cy="112.14379"
     inkscape:window-x="0"
     inkscape:window-y="0"
     inkscape:window-maximized="1"
     inkscape:current-layer="svg2" />
  <path
     style="color:#000000;clip-rule:nonzero;display:inline;overflow:visible;visibility:visible;opacity:1;isolation:auto;mix-blend-mode:normal;color-interpolation:sRGB;color-interpolation-filters:linearRGB;solid-color:#000000;solid-opacity:1;fill:#0000ff;fill-opacity:1;fill-rule:nonzero;stroke:#0000ff;stroke-width:1;stroke-linecap:round;stroke-linejoin:round;stroke-miterlimit:4;stroke-dasharray:none;stroke-opacity:1;color-rendering:auto;image-rendering:auto;shape-rendering:auto;text-rendering:auto;enable-background:accumulate"
     d="M 117.29492 24.970703 C 113.41246 25.975939 109.66641 27.202475 106.05664 28.628906 C 101.87488 28.087339 97.592864 27.67853 93.201172 27.46875 A 13.464966 13.232813 0 0 0 92.398438 31.931641 A 13.464966 13.232813 0 0 0 97.029297 41.894531 C 100.26383 40.019039 103.63503 38.318992 107.16211 36.837891 C 110.69504 37.361968 114.10528 38.013404 117.36328 38.789062 A 13.464966 13.232813 0 0 0 119.32812 31.931641 A 13.464966 13.232813 0 0 0 117.29492 24.970703 z M 273.23242 44.839844 C 272.17493 46.078651 271.2337 47.361381 270.42383 48.6875 C 269.36186 47.987016 268.27642 47.302028 267.17188 46.628906 A 10.259274 10.082391 0 0 0 262.88867 53.3125 C 264.39068 54.226836 265.86388 55.160475 267.2793 56.128906 C 266.74645 58.27486 266.49375 60.475099 266.51562 62.707031 A 10.259274 10.082391 0 0 0 273.01367 64.996094 A 10.259274 10.082391 0 0 0 274.81445 64.830078 C 274.64709 64.312248 274.54259 63.832233 274.51953 63.412109 C 274.48703 62.819073 274.64911 62.279228 274.66211 61.699219 C 275.58395 62.468492 276.48318 63.246726 277.37109 64.029297 A 10.259274 10.082391 0 0 0 282.73438 58.097656 C 280.83951 56.436671 278.8544 54.809015 276.79492 53.21875 C 277.76067 51.505852 279.07176 49.866461 280.74609 48.296875 A 10.259274 10.082391 0 0 0 273.23242 44.839844 z M 212.1543 62.501953 A 10.259274 10.082391 0 0 0 204.88281 65.994141 C 205.59883 67.122382 206.29547 68.25711 206.96289 69.400391 C 205.48685 69.802032 204.02039 70.268624 202.56055 70.771484 A 10.259274 10.082391 0 0 0 202.39453 72.558594 A 10.259274 10.082391 0 0 0 204.47461 78.625 C 206.60177 77.854605 208.73291 77.194455 210.85742 76.677734 C 211.8361 78.663015 212.74545 80.64097 213.58984 82.59375 A 10.259274 10.082391 0 0 0 220.67578 78.839844 C 220.16562 77.673548 219.64121 76.502166 219.08594 75.322266 C 219.27596 75.309416 219.47049 75.258357 219.66016 75.248047 C 220.50343 75.202226 221.46979 75.228087 222.51953 75.3125 A 10.259274 10.082391 0 0 0 222.91211 72.558594 A 10.259274 10.082391 0 0 0 221.34766 67.230469 C 220.6234 67.219983 219.9106 67.224444 219.22461 67.261719 C 217.87574 67.335009 216.53726 67.590951 215.19336 67.763672 C 214.85154 67.14673 214.57233 66.532301 214.2168 65.916016 C 213.55791 64.773898 212.86701 63.635935 212.1543 62.501953 z M 151.99219 74.980469 C 151.36437 76.961108 150.45891 78.950581 149.28711 80.939453 C 146.76572 79.752643 144.21216 78.656031 141.63867 77.654297 A 10.259274 10.082391 0 0 0 138.7832 84.630859 A 10.259274 10.082391 0 0 0 138.80859 85.150391 C 140.69796 85.887288 142.57987 86.672236 144.44531 87.515625 C 143.41037 88.695995 142.28359 89.861165 141.10742 91.013672 A 10.259274 10.082391 0 0 0 148.78125 94.703125 C 149.79794 93.628325 150.78686 92.539675 151.70898 91.421875 C 151.77068 91.347095 151.8157 91.264465 151.87695 91.189453 C 152.89874 91.739394 153.908 92.311204 154.9082 92.896484 A 10.259274 10.082391 0 0 0 159.18164 86.121094 C 158.26314 85.582254 157.33862 85.052653 156.4043 84.539062 C 157.15331 83.233964 157.83065 81.905359 158.41992 80.552734 A 10.259274 10.082391 0 0 0 151.99219 74.980469 z M 53.095703 75.914062 C 51.126398 79.294133 49.307402 82.742977 47.634766 86.238281 C 45.334351 87.722177 43.117055 89.313425 40.990234 91.013672 C 39.860421 91.91688 38.765612 92.860269 37.691406 93.826172 A 13.464966 13.232813 0 0 0 49.773438 102.02734 C 51.020065 98.601911 52.408122 95.191336 53.941406 91.824219 C 56.953801 90.007954 60.141478 88.395446 63.462891 86.953125 A 13.464966 13.232813 0 0 0 53.095703 75.914062 z M 79.410156 109.04688 L 79.414062 109.18555 C 79.428813 109.10958 79.417656 109.09427 79.410156 109.04688 z M 38.660156 143.1543 A 10.259274 10.082391 0 0 0 33.6875 144.42188 C 33.683203 145.09548 33.679021 145.76964 33.6875 146.43555 C 33.184218 146.0909 32.674658 145.76625 32.167969 145.4375 A 10.259274 10.082391 0 0 0 28.419922 152.70703 C 30.400412 154.11394 32.389247 155.41194 34.373047 156.60352 C 34.571352 158.56642 34.825984 160.60624 35.126953 162.69531 A 10.259274 10.082391 0 0 0 38.660156 163.32031 A 10.259274 10.082391 0 0 0 43.240234 162.24609 C 43.179314 161.84587 43.103931 161.4309 43.046875 161.03516 C 43.50285 161.22866 43.953898 161.40861 44.404297 161.58789 A 10.259274 10.082391 0 0 0 48.832031 154.43945 C 46.749236 153.63634 44.438642 152.61778 42.03125 151.40625 C 41.928005 149.80443 41.702663 147.96397 41.681641 146.54883 C 41.667284 145.58238 41.672153 144.60268 41.6875 143.61523 A 10.259274 10.082391 0 0 0 38.660156 143.1543 z M 263.97656 159.04102 A 9.3793697 9.217658 0 0 0 257.72852 164.10352 C 258.09573 164.54095 258.4717 165.00304 258.8418 165.44727 C 258.27845 165.5048 257.72156 165.57351 257.16211 165.63867 A 9.3793697 9.217658 0 0 0 256.84961 167.97656 A 9.3793697 9.217658 0 0 0 258.74023 173.50781 C 260.52203 173.31843 262.32225 173.16419 264.12695 173.08398 C 264.44573 173.7921 264.90403 175.30836 265.3418 177.14453 A 9.3793697 9.217658 0 0 0 266.22852 177.19531 A 9.3793697 9.217658 0 0 0 273.01953 174.32812 C 272.93349 173.97082 272.85255 173.60981 272.75586 173.25977 C 273.11403 173.29117 273.48338 173.30904 273.84961 173.33008 A 9.3793697 9.217658 0 0 0 275.60742 167.97656 A 9.3793697 9.217658 0 0 0 275.22461 165.39648 C 273.02247 165.14167 270.76108 165.01496 268.47656 164.97852 C 267.01089 162.82959 265.50244 160.79665 263.97656 159.04102 z M 162.67383 160.96484 A 10.259274 10.082391 0 0 0 156.16211 163.26367 C 156.46869 165.77137 156.90483 168.24748 157.43359 170.69727 C 155.96842 172.04466 154.54176 173.42992 153.20898 174.93164 A 10.259274 10.082391 0 0 0 159.22266 180.5293 C 159.46774 180.26217 159.71132 179.99505 159.95508 179.72656 C 160.08194 180.10535 160.22005 180.47877 160.35156 180.85547 A 10.259274 10.082391 0 0 0 162.67383 181.12891 A 10.259274 10.082391 0 0 0 168.3457 179.43945 C 167.64297 177.53801 166.9996 175.6132 166.44336 173.66016 C 167.40571 172.90109 168.29448 172.04346 169.28906 171.3457 C 170.44742 170.53305 171.59762 169.80105 172.73828 169.10742 A 10.259274 10.082391 0 0 0 168.16602 162.5332 C 167.01928 163.23737 165.8646 163.97655 164.69531 164.79688 C 164.64411 164.83277 164.59611 164.88378 164.54492 164.91992 C 164.34928 163.68024 164.09918 162.44946 163.9707 161.19922 C 163.96583 161.15179 163.96568 161.10408 163.96094 161.05664 A 10.259274 10.082391 0 0 0 162.67383 160.96484 z M 100.87891 181.54102 C 100.28816 183.67934 99.574111 185.67961 98.736328 187.54297 C 96.958886 186.64334 95.160436 185.74592 93.597656 184.83398 C 92.96354 184.46396 92.393975 184.09166 91.806641 183.7207 A 13.464966 13.232813 0 0 0 86.761719 190.02734 C 87.666314 190.60463 88.595159 191.17657 89.564453 191.74219 C 91.136054 192.65927 92.909761 193.53681 94.638672 194.42383 C 94.041446 195.18793 93.546455 196.07449 92.888672 196.76562 C 91.323303 198.41036 89.56907 199.87002 87.621094 201.13867 A 13.464966 13.232813 0 0 0 93.667969 206.64844 C 95.474804 205.34492 97.151358 203.89117 98.683594 202.28125 C 99.949108 200.95158 101.08023 199.49865 102.14648 197.99023 C 104.9301 199.21752 107.85374 200.40343 110.8418 201.56445 A 13.464966 13.232813 0 0 0 112.82617 194.67188 A 13.464966 13.232813 0 0 0 112.7793 193.73047 C 110.43346 192.806 108.13261 191.87138 105.94141 190.91602 C 106.82591 188.95683 107.59288 186.89987 108.25781 184.76172 A 13.464966 13.232813 0 0 0 100.87891 181.54102 z M 150.66797 198.26758 A 10.259274 10.082391 0 0 0 143.54688 201.10547 C 143.63866 201.96264 143.74931 202.81026 143.85156 203.66211 C 143.19987 203.48924 142.55568 203.30209 141.9082 203.12109 A 10.259274 10.082391 0 0 0 140.4082 208.34961 A 10.259274 10.082391 0 0 0 140.83789 211.21484 C 142.44485 211.67764 144.05209 212.12939 145.66016 212.54297 C 146.25836 214.43948 146.97827 216.26059 147.78906 218.02148 A 10.259274 10.082391 0 0 0 150.66797 218.43164 A 10.259274 10.082391 0 0 0 156.0625 216.91016 C 155.6707 216.17651 155.29494 215.43178 154.94922 214.66602 C 155.99018 214.90512 157.01626 215.13015 158.04297 215.35742 A 10.259274 10.082391 0 0 0 160.92773 208.34961 A 10.259274 10.082391 0 0 0 160.89648 207.74219 C 158.05005 207.13419 155.15863 206.4926 152.17383 205.77539 C 151.788 203.71524 151.50851 201.58421 151.41406 199.32812 C 151.39953 198.98103 151.39864 198.63699 151.40234 198.29297 A 10.259274 10.082391 0 0 0 150.66797 198.26758 z M 346.86914 198.78711 A 10.259274 10.082391 0 0 0 339.60742 202.41016 C 339.81599 203.05586 340.02236 203.70483 340.24023 204.33984 C 339.6881 204.19515 339.13848 204.03563 338.58984 203.86719 A 10.259274 10.082391 0 0 0 337.24219 208.83789 A 10.259274 10.082391 0 0 0 337.78125 212.03125 C 339.74309 212.55835 341.72783 212.97552 343.73242 213.24805 C 344.62844 215.1987 345.59924 217.07252 346.62891 218.87695 A 10.259274 10.082391 0 0 0 347.50195 218.91992 A 10.259274 10.082391 0 0 0 354.38867 216.29297 C 353.84925 215.3815 353.31923 214.44755 352.80664 213.47266 C 354.15488 213.41343 355.46848 213.3083 356.75391 213.16992 A 10.259274 10.082391 0 0 0 357.75977 208.83789 A 10.259274 10.082391 0 0 0 357.08008 205.26172 C 354.72772 205.5673 352.21705 205.72408 349.51172 205.69531 C 349.42632 205.6944 349.34129 205.66556 349.25586 205.66406 C 348.39712 203.47365 347.60582 201.17053 346.86914 198.78711 z M 186.13086 200.42383 A 13.305095 13.075698 0 0 0 175.57422 208.50781 C 176.18911 209.29449 176.80275 210.08334 177.4375 210.8457 C 176.63637 210.71875 175.79088 210.56647 174.97266 210.42969 A 13.305095 13.075698 0 0 0 174.61523 213.36523 A 13.305095 13.075698 0 0 0 175.83594 218.80273 C 179.56305 219.402 183.08906 219.88046 186.34961 220.2168 C 188.4051 222.12549 190.51453 223.90597 192.6582 225.56836 A 13.305095 13.075698 0 0 0 201.22461 213.36523 A 13.305095 13.075698 0 0 0 201.19922 212.86328 C 199.94955 212.92489 198.7036 212.96518 197.46484 212.97852 C 195.50758 212.99962 192.49357 212.65005 189.80859 212.41797 C 189.17028 211.79167 188.51231 211.21196 187.88672 210.55859 C 187.27337 209.91801 186.69934 209.21322 186.09961 208.54883 C 190.71253 209.48999 195.61728 210.09173 200.83984 210.30664 A 13.305095 13.075698 0 0 0 194.02734 201.75586 C 191.26348 201.4306 188.62786 200.9887 186.13086 200.42383 z "
     id="path4459" />
  <path
     style="color:#000000;clip-rule:nonzero;display:inline;overflow:visible;visibility:visible;opacity:1;isolation:auto;mix-blend-mode:normal;color-interpolation:sRGB;color-interpolation-filters:linearRGB;solid-color:#000000;solid-opacity:1;fill:#00ff00;fill-opacity:1;fill-rule:nonzero;stroke:#00ffff;stroke-width:1;stroke-linecap:round;stroke-linejoin:round;stroke-miterlimit:4;stroke-dasharray:none;stroke-opacity:1;color-rendering:auto;image-rendering:auto;shape-rendering:auto;text-rendering:auto;enable-background:accumulate"
     d="M 171.08984 26.904297 A 13.218419 12.990518 0 0 0 168.07422 34.302734 C 168.71293 34.547804 169.35423 34.789909 169.98047 35.050781 C 169.33998 35.2019 168.70031 35.361644 168.06055 35.519531 A 13.218419 12.990518 0 0 0 170.81836 43.117188 C 174.25054 42.294215 177.68445 41.567089 181.10156 40.947266 C 183.56769 42.590846 185.89488 44.379436 188.10352 46.277344 A 13.218419 12.990518 0 0 0 193.33789 40.425781 C 192.91617 40.06208 192.49431 39.698563 192.06445 39.341797 C 192.65386 39.27643 193.23868 39.224276 193.82617 39.164062 A 13.218419 12.990518 0 0 0 194.48047 35.181641 A 13.218419 12.990518 0 0 0 193.78711 31.0625 C 190.04731 31.423673 186.26924 31.918289 182.47266 32.539062 C 178.90998 30.390368 175.11835 28.492275 171.08984 26.904297 z M 101.62891 65.613281 C 99.173349 67.41545 96.808811 69.257777 94.574219 71.148438 C 90.862482 71.486928 87.230071 71.995887 83.667969 72.638672 A 13.464966 13.232813 0 0 0 82.646484 77.666016 A 13.464966 13.232813 0 0 0 83.074219 80.912109 C 83.681275 80.790989 84.279519 80.656583 84.892578 80.544922 C 84.408165 81.091063 83.937908 81.639731 83.476562 82.191406 A 13.464966 13.232813 0 0 0 88.751953 88.742188 C 91.402256 85.406733 94.550875 82.092564 98.154297 78.851562 C 100.80206 78.66992 103.48053 78.546491 106.20703 78.523438 C 107.30833 78.514126 108.42231 78.543052 109.54297 78.589844 A 13.464966 13.232813 0 0 0 109.57617 77.666016 A 13.464966 13.232813 0 0 0 101.62891 65.613281 z M 297.3457 74.095703 A 12.53554 12.319411 0 0 0 290.48047 78.367188 C 290.88642 78.914942 291.30084 79.462649 291.69141 80.009766 C 291.08425 79.735601 290.48551 79.453162 289.89453 79.164062 A 12.53554 12.319411 0 0 0 287.73242 86.058594 A 12.53554 12.319411 0 0 0 287.78125 87.033203 C 291.06738 88.529656 294.59145 89.756245 298.25781 90.634766 C 298.78324 91.633264 299.36994 92.657526 299.83203 93.626953 C 300.59923 95.236465 301.24989 96.78333 301.82031 98.273438 A 12.53554 12.319411 0 0 0 309.05078 94.835938 C 308.67199 93.906461 308.27281 92.965965 307.83984 92.003906 C 308.42588 92.027086 308.99293 92.151382 309.58203 92.152344 C 310.09636 92.153185 310.63905 92.123143 311.17773 92.097656 A 12.53554 12.319411 0 0 0 312.80469 86.058594 A 12.53554 12.319411 0 0 0 312.60547 83.941406 C 311.53381 84.075336 310.50996 84.15384 309.59375 84.152344 C 307.59112 84.149044 305.58423 83.933174 303.59375 83.621094 C 301.78815 80.492938 299.70301 77.295667 297.3457 74.095703 z M 174.17578 87.072266 C 172.19724 88.679496 170.26532 90.344647 168.39844 92.066406 C 166.70646 90.878301 164.98242 89.728421 163.23438 88.611328 A 10.259274 10.082391 0 0 0 159.69141 95.857422 C 160.66833 96.492447 161.63927 97.13561 162.59961 97.791016 C 161.87258 98.550156 161.16553 99.318866 160.46094 100.08789 A 10.259274 10.082391 0 0 0 166.18555 105.61914 C 167.07487 104.6314 167.98486 103.65353 168.91992 102.68945 C 168.96742 102.64045 169.02076 102.59575 169.06836 102.54688 C 170.42725 103.62231 171.74373 104.72739 173.03125 105.84961 A 10.259274 10.082391 0 0 0 179.1875 100.57812 C 177.79562 99.34802 176.37067 98.141985 174.9082 96.966797 C 176.44572 95.593112 178.02596 94.266631 179.63477 92.982422 A 10.259274 10.082391 0 0 0 174.17578 87.072266 z M 79.410156 109.04688 L 79.414062 109.18555 C 79.428813 109.10958 79.417656 109.09427 79.410156 109.04688 z M 18.244141 121.56445 C 17.439793 123.50373 16.693076 125.49076 16.017578 127.53516 C 15.116801 125.76842 14.376549 123.95287 13.810547 122.09766 A 13.464966 13.232813 0 0 0 6.9023438 126.82031 C 8.4233384 130.89272 10.61649 134.68746 13.230469 138.17773 C 12.673593 140.95056 12.204033 143.78891 11.84375 146.70312 A 13.464966 13.232813 0 0 0 17.644531 148.00781 A 13.464966 13.232813 0 0 0 19.773438 147.82422 C 19.863324 147.08104 19.949611 146.33461 20.046875 145.59766 C 20.650696 146.17441 21.252608 146.75423 21.855469 147.33203 A 13.464966 13.232813 0 0 0 28.46875 142.61914 C 26.062787 140.53888 23.858583 138.26168 21.820312 135.87891 C 22.837364 131.73693 24.139771 127.84655 25.689453 124.18359 A 13.464966 13.232813 0 0 0 18.244141 121.56445 z M 285.74805 161.99805 A 8.8615198 8.7087355 0 0 0 284.71289 162.0625 C 284.15513 163.86453 283.47076 165.64801 282.66797 167.4082 C 281.19555 166.80327 279.74284 166.29992 278.33398 165.94141 A 8.8615198 8.7087355 0 0 0 276.88672 170.70703 A 8.8615198 8.7087355 0 0 0 277.57031 174.05469 C 277.94955 174.17867 278.31789 174.28741 278.7207 174.44141 C 278.54495 174.70208 278.35996 174.95948 278.17969 175.21875 A 8.8615198 8.7087355 0 0 0 285.03711 179.38477 C 285.27148 179.04351 285.50927 178.70372 285.73633 178.35938 C 286.16177 178.66758 286.5857 178.98658 287.00781 179.31641 A 8.8615198 8.7087355 0 0 0 293.71875 174.49805 C 292.39562 173.33907 291.0448 172.28757 289.67969 171.32617 C 290.68119 169.19578 291.54298 167.01982 292.24805 164.80078 A 8.8615198 8.7087355 0 0 0 285.74805 161.99805 z M 150.07227 173.93945 A 9.3116846 9.1511393 0 0 0 144.37891 175.86328 C 145.37683 178.23223 146.49469 180.49456 147.75 182.63477 C 146.37719 185.08467 145.2661 187.67921 144.50586 190.41406 A 9.3116846 9.1511393 0 0 0 150.07227 192.24023 A 9.3116846 9.1511393 0 0 0 152.45703 191.92383 C 152.64974 191.30819 152.85902 190.69603 153.0957 190.0918 C 153.43911 190.49736 153.77205 190.91286 154.11133 191.32227 A 9.3116846 9.1511393 0 0 0 159.16797 184.98828 C 158.54701 184.24735 157.94461 183.48618 157.36328 182.70117 C 157.87982 182.01329 158.46236 181.36294 159.05273 180.7168 A 9.3116846 9.1511393 0 0 0 153.51562 174.5918 C 153.30877 174.81958 153.0987 175.04381 152.89648 175.27734 C 152.72962 174.93782 152.57269 174.58674 152.41211 174.24023 A 9.3116846 9.1511393 0 0 0 150.07227 173.93945 z M 272.02734 177.51367 A 11.411039 11.214298 0 0 0 265.81836 179.33203 C 265.98322 180.1847 266.13788 181.06572 266.25977 181.95508 C 266.58497 184.32806 266.59569 185.73997 266.72266 187.66406 C 264.94758 189.18414 263.08563 190.65896 261.14258 192.08594 A 11.411039 11.214298 0 0 0 266.14258 198.32227 C 266.26351 198.23365 266.38702 198.14732 266.50781 198.05859 C 266.49127 198.20739 266.46875 198.34856 266.45117 198.49609 A 11.411039 11.214298 0 0 0 272.02734 199.94141 A 11.411039 11.214298 0 0 0 274.56445 199.65039 C 274.86958 197.20528 275.04999 194.65353 275.06641 191.9668 C 275.06741 191.77063 274.99509 191.25194 274.99219 191.0293 C 277.57271 188.60601 279.93408 186.05582 282.06445 183.39648 A 11.411039 11.214298 0 0 0 275.96289 178.20898 C 275.36892 178.96036 274.75905 179.70635 274.11328 180.44141 C 273.98265 179.49435 273.83223 178.56746 273.67773 177.64258 A 11.411039 11.214298 0 0 0 272.02734 177.51367 z M 170.43555 184.54883 A 16.647835 16.360806 0 0 0 163.25 188.14453 C 163.50847 188.72031 163.76472 189.29775 164.03516 189.86719 C 163.57531 189.47408 163.12785 189.07013 162.68359 188.66211 A 16.647835 16.360806 0 0 0 158.33398 195.50195 C 162.43195 199.05959 167.14124 201.96917 172.40625 204.26172 C 174.0093 206.54104 175.68526 208.74117 177.4375 210.8457 C 171.73723 209.94243 165.59478 208.78873 159.09375 207.36328 A 16.647835 16.360806 0 0 0 174.17383 216.83594 A 16.647835 16.360806 0 0 0 187.55273 210.18164 C 187.06436 209.64445 186.58703 209.0888 186.09961 208.54883 C 186.85005 208.70194 187.62101 208.83153 188.38672 208.9668 A 16.647835 16.360806 0 0 0 190.79297 201.30859 C 186.06746 200.55887 181.75304 199.4399 177.8457 197.94922 C 175.02463 193.73467 172.53042 189.24019 170.43555 184.54883 z M 130.62891 195.20703 A 9.1400604 8.9824743 0 0 0 129.61719 195.26758 C 129.23516 196.61303 128.82633 197.94434 128.38867 199.25586 C 128.18175 199.19006 127.96229 199.14229 127.75586 199.07617 C 126.53222 198.68422 125.34006 198.2757 124.13867 197.87109 A 9.1400604 8.9824743 0 0 0 121.48828 204.18945 A 9.1400604 8.9824743 0 0 0 121.58984 205.45312 C 122.82849 205.86983 124.05705 206.29192 125.31641 206.69531 C 125.34671 206.70531 125.3779 206.71306 125.4082 206.72266 C 125.17826 207.22106 125.02784 207.79207 124.78711 208.2793 C 124.47087 208.91934 124.14205 209.54169 123.81055 210.16016 A 9.1400604 8.9824743 0 0 0 130.62891 213.17188 A 9.1400604 8.9824743 0 0 0 131.26758 213.14062 C 131.49788 212.70111 131.73892 212.26767 131.95898 211.82227 C 132.41386 210.90164 132.70095 209.88212 133.11914 208.9375 C 134.54707 209.35839 135.97243 209.78282 137.39844 210.20703 A 9.1400604 8.9824743 0 0 0 139.76758 204.18945 A 9.1400604 8.9824743 0 0 0 139.5957 202.4707 C 138.43961 202.13593 137.28387 201.79764 136.12305 201.46094 C 136.5075 200.30238 136.85722 199.13159 137.19727 197.95898 A 9.1400604 8.9824743 0 0 0 130.62891 195.20703 z M 51.539062 196.29688 A 13.464966 13.232813 0 0 0 44.919922 198.01562 C 45.507192 199.36267 46.111613 200.70336 46.753906 202.02734 C 46.837556 202.19978 46.94265 202.36121 47.027344 202.5332 C 45.475882 201.694 43.978144 200.74695 42.533203 199.71289 A 13.464966 13.232813 0 0 0 38.429688 206.58203 C 42.974911 209.7409 48.032861 212.18193 53.548828 213.57617 C 55.239054 216.01729 57.065329 218.34242 59.019531 220.52539 A 13.464966 13.232813 0 0 0 65.003906 209.5293 A 13.464966 13.232813 0 0 0 64.746094 206.96094 C 64.25607 206.96189 63.772415 206.96871 63.271484 206.95898 C 61.608698 206.92668 59.987468 206.76934 58.400391 206.51367 C 56.817404 203.96731 55.308193 201.33243 53.951172 198.53516 C 53.606186 197.82402 53.271229 197.10676 52.943359 196.38477 A 13.464966 13.232813 0 0 0 51.539062 196.29688 z "
     id="path4459-3" />
  <path
     style="fill:none;fill-rule:evenodd;stroke:#ff0000;stroke-width:8;stroke-linecap:round;stroke-linejoin:round;stroke-miterlimit:4;stroke-dasharray:none;stroke-opacity:1"
     d="m 234.13216,178.78165 c 1.21506,-5.89893 24.59035,-11.64529 41.62045,-9.29597 9.96133,1.37418 28.24977,13.98752 27.97629,37.27321 -0.29735,25.31845 -40.78942,42.92286 -83.50147,42.64462 -35.22859,-0.22949 -71.34687,-14.94982 -72.81042,-49.90873 -1.11637,-26.6658 39.30101,-43.43301 42.04892,-41.08769 3.07426,2.62386 -4.71247,5.64278 -6.62881,3.38682 -1.37533,-1.61907 -3.98133,-5.2094 -3.80711,-5.97309 1.49805,-6.56686 4.9225,-30.64778 -3.85622,-30.68258 -4.79789,-0.019 -9.65682,6.75352 -10.09418,6.72943 -2.66053,-0.14651 -11.04499,0.20774 -10.9229,-0.16656 1.71455,-5.25632 6.9003,-9.18653 6.8992,-1.99357 -0.002,11.18967 -2.1736,21.11092 -1.06477,31.90088 4.08551,39.75594 40.5071,73.72645 66.27497,73.28565 23.15306,-0.39606 44.60612,-11.16794 44.80034,-42.95101 0.0235,-3.85079 -1.04157,-17.07931 -3.68809,-21.45443 -5.09685,-8.42592 -11.84682,-15.6602 -13.9407,-12.65394 -3.28733,4.71974 -12.70737,7.35297 -12.77491,3.40454 -0.29594,-17.30201 -1.88741,-53.68543 -3.13721,-55.38566 -1.00901,-1.37266 -11.27523,11.31417 -11.12996,10.09302 1.06405,-8.94455 -15.57576,-89.086616 -81.60923,-90.163424 C 71.163273,24.582595 36.957442,97.888922 37.681177,146.60908 c 0.403812,27.18369 14.321744,87.02455 57.194947,86.74675 32.737996,-0.21213 42.218696,-39.57674 43.109276,-67.07335 0.27173,-8.38952 7.64589,-9.87976 6.64325,-9.89963 -2.60697,-0.0517 -6.25083,6.6697 -7.79168,6.55358 -5.0889,-0.38349 -4.44221,-21.35505 -4.41501,-22.17598 0.21652,-6.53445 -19.09758,6.14849 -19.12158,14.43295 -0.0134,4.63184 2.43349,8.88187 7.84038,8.91721 6.84901,0.0448 11.29039,-8.75622 11.3201,-11.02632 0.10395,-7.94394 0.28818,-23.86885 -0.88882,-25.01435 -3.33791,-3.24857 -16.48745,0.20429 -24.52955,12.71441 -8.60751,13.38967 -3.96619,20.9811 -50.934752,19.64747 C 43.813985,160.08275 8.2492339,140.77253 8.6093599,113.97619 9.1332474,74.99465 40.097644,32.405784 83.924618,31.347408 123.00275,30.403711 155.61872,44.438902 156.94147,67.858651 158.59712,97.172545 100.5583,123.23824 87.320804,123.13218 l -31.961325,-0.25607 c 23.471752,-0.47064 19.943696,-18.33418 20.042809,-14.15222 l 1.533974,64.72396 c 0.111548,4.7066 10.018936,3.75282 14.726396,3.81903 7.061549,0.0993 13.275502,-2.61317 15.409932,-11.2372 -0.37881,28.85183 -15.093006,45.48686 -43.878412,44.92819 -30.474573,-0.59146 -49.218216,-36.29852 -47.8942,-58.37363 3.130212,-52.18958 41.747466,-77.646235 90.872602,-78.061608 41.18479,-0.348234 92.96437,36.004138 95.83003,72.460308 0.3724,4.73754 23.28496,-0.78326 23.15887,-15.81516 -0.0613,-7.30603 -4.96658,-7.93324 -9.55614,-8.02145 -7.41279,-0.14247 -15.66265,5.35456 -16.04641,14.74588 -0.32197,7.87915 0.56516,10.19967 12.55018,10.31891 0.75342,0.007 2.51474,18.08101 -0.69467,17.14854 -6.85276,-1.99101 -20.21909,6.65519 -20.29932,12.04875 -0.0576,3.86921 0.76294,8.09516 5.11399,8.67629 5.12524,0.68453 12.06069,-5.24735 19.92433,-5.151 7.83014,0.0959 11.22539,5.44671 10.98378,12.89558 -0.25047,7.72229 -6.49741,13.20661 -25.69297,12.50541 -38.60186,-1.4101 -57.79311,-22.91643 -59.43331,-61.32417 -1.02543,-24.01197 39.31703,-71.684617 77.43123,-73.755608 15.29787,-0.831232 50.00167,14.035519 50.43809,34.182628 0.12906,5.95786 -17.87733,27.96344 -9.54957,33.07115 9.48108,5.81509 24.17819,-9.28933 23.89675,-17.30516 -0.44127,-12.56789 -28.16466,-3.92402 -26.06344,18.77969 0.35512,3.83705 7.51463,13.3963 15.31107,13.45257 6.58753,0.0475 12.88845,-4.16411 14.59583,-6.95185 0.27879,-0.45521 2.36049,4.30434 2.19232,7.39292 -1.8998,34.89094 -50.18698,62.64324 -92.7561,63.10164 C 169.37357,217.28145 76.675454,194.20403 76.633372,171.64511 76.612042,160.2107 73.80401,132.41868 75.309741,109.28609 77.727024,72.149307 151.76692,34.137738 207.25202,34.404323 c 73.09229,0.351182 101.74122,58.905199 101.90338,77.276877 4.3e-4,0.0484 7.96181,-3.27329 8.6077,-1.05364 0,0 -18.19899,0.58339 -21.00685,-0.0709 0.10242,-2.38062 11.69811,-6.769 11.8485,-4.78065 0.70236,9.28648 -7.54889,38.70367 -1.63299,44.05768 11.517,10.42314 26.84684,-13.71226 19.98761,-22.88045 -9.57123,-12.7931 -28.01255,13.38762 -27.6597,26.51792 0.88668,32.99566 25.34697,55.96035 50.1695,56.22432 50.40213,0.53599 48.04478,-58.41773 56.91441,-58.42705 0.11807,-1.3e-4 -3.92193,0.12526 -3.99426,0.031 l -18.47135,-24.07077 c -0.40828,-0.53205 -5.65808,-0.15146 -6.26808,-0.18569 m -9.15156,9.57564 c -0.16544,6.09679 -4.67377,14.49674 -14.05733,14.60601 -2.53917,0.0296 -8.34024,-3.55623 -8.58279,-9.63779 -0.42898,-10.75569 7.67711,-15.88065 11.65208,-15.94446 7.3628,-0.1182 11.09364,7.08472 10.98804,10.97624 z m 9.29144,14.24435 c 0.4705,0.0415 4.49311,0.11093 5.09634,-0.82342 l 16.56618,-25.65973 c 0.32276,-0.49993 6.97451,-0.20782 6.43485,-0.37279 -7.02077,-2.14608 3.99042,-10.52432 3.04724,-21.96026 C 407.7164,87.27878 394.52,78.453752 373.86308,79.276291 c -20.91251,0.832717 -38.22672,30.494659 -37.79499,70.025109 0.51255,46.93083 14.00135,89.24494 46.23857,88.50856 47.71926,-1.09003 55.4487,-79.82485 55.31954,-102.64792 -0.43172,-76.286058 -46.96589,-104.393898 -92.64058,-105.133947 -54.84179,-0.88858 -75.50586,14.535943 -74.45937,33.602882 0.57807,10.532446 19.53291,24.489196 39.0617,24.521084 10.23727,0.01672 28.11185,-6.204199 29.05805,-26.565503"
     id="path4140"
     inkscape:connector-curvature="0"
     sodipodi:nodetypes="csssssssssssssssssssssssssssssssssssscssscssssssssssssssssssssssssssssscsssssssscssssscsssssssssssc" />
</svg>
