<?xml version="1.0" encoding="UTF-8" standalone="no"?>
<!-- Created with Inkscape (http://www.inkscape.org/) -->

<svg
   xmlns:dc="http://purl.org/dc/elements/1.1/"
   xmlns:cc="http://creativecommons.org/ns#"
   xmlns:rdf="http://www.w3.org/1999/02/22-rdf-syntax-ns#"
   xmlns:svg="http://www.w3.org/2000/svg"
   xmlns="http://www.w3.org/2000/svg"
   xmlns:sodipodi="http://sodipodi.sourceforge.net/DTD/sodipodi-0.dtd"
   xmlns:inkscape="http://www.inkscape.org/namespaces/inkscape"
   width="3.5in"
   height="2in"
   viewBox="0 0 315 180"
   id="svg2"
   version="1.1"
   inkscape:version="0.91 r"
   sodipodi:docname="ConWijCo-BusinessCard.svg"
   inkscape:export-filename="/home/grh/Sites/BlueberryEmpire/BlueberryEmpire/Games/ConWijCo/_Working/ConWijCo-BusinessCard.png"
   inkscape:export-xdpi="99.966599"
   inkscape:export-ydpi="99.966599">
  <defs
     id="defs4" />
  <sodipodi:namedview
     id="base"
     pagecolor="#ffffff"
     bordercolor="#666666"
     borderopacity="1.0"
     inkscape:pageopacity="0.0"
     inkscape:pageshadow="2"
     inkscape:zoom="0.59969255"
     inkscape:cx="99.500471"
     inkscape:cy="-224.23488"
     inkscape:document-units="px"
     inkscape:current-layer="layer1"
     showgrid="false"
     units="in"
     inkscape:window-width="953"
     inkscape:window-height="664"
     inkscape:window-x="333"
     inkscape:window-y="119"
     inkscape:window-maximized="0" />
  <metadata
     id="metadata7">
    <rdf:RDF>
      <cc:Work
         rdf:about="">
        <dc:format>image/svg+xml</dc:format>
        <dc:type
           rdf:resource="http://purl.org/dc/dcmitype/StillImage" />
        <dc:title />
      </cc:Work>
    </rdf:RDF>
  </metadata>
  <g
     inkscape:label="Layer 1"
     inkscape:groupmode="layer"
     id="layer1"
     transform="translate(0,-872.3622)">
    <g
       style="stroke:#000000;stroke-opacity:1"
       transform="matrix(1.3707034,0,0,1.3707034,3.1612084,878.02788)"
       id="g4251">
      <g
         id="g4319">
        <path
           style="color:#000000;clip-rule:nonzero;display:inline;overflow:visible;visibility:visible;opacity:1;isolation:auto;mix-blend-mode:normal;color-interpolation:sRGB;color-interpolation-filters:linearRGB;solid-color:#000000;solid-opacity:1;fill:none;fill-opacity:1;fill-rule:nonzero;stroke:#000000;stroke-width:1;stroke-linecap:round;stroke-linejoin:round;stroke-miterlimit:4;stroke-dasharray:none;stroke-opacity:1;color-rendering:auto;image-rendering:auto;shape-rendering:auto;text-rendering:auto;enable-background:accumulate"
           d="M 23.592577,22.344184 75.192467,4.2321303 54.636724,56.649175 3.1805803,75.336214 Z"
           id="rect3354"
           inkscape:connector-curvature="0"
           sodipodi:nodetypes="ccccc" />
        <path
           style="color:#000000;clip-rule:nonzero;display:inline;overflow:visible;visibility:visible;opacity:1;isolation:auto;mix-blend-mode:normal;color-interpolation:sRGB;color-interpolation-filters:linearRGB;solid-color:#000000;solid-opacity:1;fill:none;fill-opacity:1;fill-rule:nonzero;stroke:#000000;stroke-width:1;stroke-linecap:round;stroke-linejoin:round;stroke-miterlimit:4;stroke-dasharray:none;stroke-opacity:1;color-rendering:auto;image-rendering:auto;shape-rendering:auto;text-rendering:auto;enable-background:accumulate"
           d="M 121.77141,48.793534 75.192467,4.2321325 54.636724,56.649177 101.07192,102.36055 Z"
           id="rect3354-3"
           inkscape:connector-curvature="0"
           sodipodi:nodetypes="ccccc" />
        <path
           style="color:#000000;clip-rule:nonzero;display:inline;overflow:visible;visibility:visible;opacity:1;isolation:auto;mix-blend-mode:normal;color-interpolation:sRGB;color-interpolation-filters:linearRGB;solid-color:#000000;solid-opacity:1;fill:none;fill-opacity:1;fill-rule:nonzero;stroke:#000000;stroke-width:1;stroke-linecap:round;stroke-linejoin:round;stroke-miterlimit:4;stroke-dasharray:none;stroke-opacity:1;color-rendering:auto;image-rendering:auto;shape-rendering:auto;text-rendering:auto;enable-background:accumulate"
           d="M 49.17945,121.098 3.175493,75.674124 54.636724,56.64918 101.07192,102.36055 Z"
           id="rect3354-3-6"
           inkscape:connector-curvature="0"
           sodipodi:nodetypes="ccccc" />
        <g
           transform="matrix(0.72691398,0.68672853,-0.42215348,0.97686271,0,0)"
           style="font-style:normal;font-variant:normal;font-weight:normal;font-stretch:normal;font-size:23.75px;line-height:125%;font-family:'Abyssinica SIL';-inkscape-font-specification:'Abyssinica SIL';letter-spacing:0px;word-spacing:0px;fill:none;fill-opacity:1;stroke:#000000;stroke-width:1px;stroke-linecap:butt;stroke-linejoin:miter;stroke-opacity:1"
           id="text4193">
          <path
             d="m 109.97961,-29.091085 -3.62976,15.0177 -1.7395,0 -3.96606,-13.162232 -3.884891,13.162232 -1.716308,0 -3.873291,-15.0177 -1.380005,-0.278321 0,-1.020508 5.438843,0 0,1.020508 -1.414795,0.13916 q -0.162354,0.02319 -0.220337,0.173951 -0.05798,0.13916 -0.02319,0.301513 l 2.82959,10.715332 3.722534,-12.350464 1.83227,0 3.82691,12.733155 2.63244,-11.098023 q 0.0348,-0.162353 -0.058,-0.301513 -0.0928,-0.150757 -0.27832,-0.173951 l -1.49597,-0.13916 0,-1.020508 4.84741,0 0,1.020508 -1.44959,0.278321 z"
             style="font-size:23.75px;fill:none;stroke:#000000;stroke-opacity:1"
             id="path4306"
             inkscape:connector-curvature="0" />
          <path
             d="m 112.4729,-14.456076 0,-1.020507 1.4148,-0.09277 q 0.25512,-0.02319 0.37109,-0.185547 0.12756,-0.162353 0.12756,-0.336304 l 0,-12.663574 q 0,-0.17395 -0.12756,-0.324707 -0.11597,-0.150757 -0.37109,-0.17395 l -1.4148,-0.09277 0,-1.043702 6.26221,0 0,1.043702 -1.44959,0.09277 q -0.24353,0.02319 -0.37109,0.17395 -0.12756,0.150757 -0.12756,0.324707 l 0,12.663574 q 0,0.173951 0.12756,0.336304 0.12756,0.162354 0.37109,0.185547 l 1.44959,0.09277 0,1.020507 -6.26221,0 z"
             style="font-size:23.75px;fill:none;stroke:#000000;stroke-opacity:1"
             id="path4308"
             inkscape:connector-curvature="0" />
          <path
             d="m 129.04456,-29.276632 q -0.24353,0.02319 -0.3711,0.185547 -0.12756,0.162353 -0.12756,0.336303 l 0,8.291626 q 0,1.484375 -0.27832,2.667237 -0.27832,1.182861 -0.89295,2.006225 -0.61462,0.823364 -1.61193,1.275635 -0.99732,0.440674 -2.43531,0.440674 -0.57983,0 -1.13647,-0.10437 -0.55664,-0.09277 -0.99732,-0.220337 -0.44067,-0.115967 -0.74218,-0.220337 -0.28992,-0.10437 -0.33631,-0.127564 l 0,-4.058838 1.42639,0 0.52185,2.89917 q 0.0348,0.173951 0.13916,0.301514 0.11597,0.115967 0.26673,0.185547 0.15076,0.06958 0.32471,0.10437 0.18554,0.02319 0.35949,0.02319 0.81177,0 1.38001,-0.31311 0.56823,-0.31311 0.92773,-0.939331 0.3595,-0.626221 0.52185,-1.565552 0.16236,-0.939331 0.16236,-2.191772 l 0,-8.45398 q 0,-0.17395 -0.12757,-0.336303 -0.11596,-0.162354 -0.37109,-0.185547 l -1.49597,-0.09277 0,-1.020508 6.2738,0 0,1.020508 -1.38,0.09277 z"
             style="font-size:23.75px;fill:none;stroke:#000000;stroke-opacity:1"
             id="path4310"
             inkscape:connector-curvature="0" />
        </g>
        <g
           transform="matrix(1.1589745,0.34040582,-0.17263064,0.81212788,0,0)"
           style="font-style:normal;font-variant:normal;font-weight:normal;font-stretch:normal;font-size:36.21523666px;line-height:125%;font-family:'Abyssinica SIL';-inkscape-font-specification:'Abyssinica SIL';letter-spacing:0px;word-spacing:0px;fill:none;fill-opacity:1;stroke:#000000;stroke-width:1px;stroke-linecap:butt;stroke-linejoin:miter;stroke-opacity:1"
           id="text4226">
          <path
             d="m 55.056599,95.273862 q -0.042,0.021 -0.409477,0.157491 -0.367479,0.125993 -0.955446,0.283484 -0.587967,0.146992 -1.354425,0.272985 -0.755957,0.125993 -1.574911,0.125993 -1.207433,0 -2.236375,-0.293984 -1.018444,-0.283484 -1.858397,-0.797955 -0.829453,-0.514472 -1.469917,-1.228432 -0.629965,-0.71396 -1.070941,-1.553913 -0.430476,-0.839953 -0.650963,-1.7849 -0.220488,-0.944947 -0.220488,-1.931892 0,-1.669407 0.54597,-3.055329 0.545969,-1.385923 1.532914,-2.372868 0.986945,-0.997444 2.372867,-1.543413 1.385923,-0.556469 3.076328,-0.556469 0.524971,0 1.007944,0.063 0.493472,0.0525 0.997444,0.157491 0.503972,0.104995 1.060441,0.262486 0.556469,0.157491 1.207432,0.35698 l 0,3.370311 -1.291427,0 -0.314983,-1.95289 q -0.021,-0.146992 -0.146991,-0.293984 -0.125993,-0.146992 -0.220488,-0.199489 -0.125993,-0.0525 -0.335981,-0.146992 -0.199489,-0.09449 -0.482973,-0.17849 -0.283485,-0.09449 -0.629965,-0.157491 -0.346481,-0.0735 -0.745459,-0.0735 -1.102438,0 -2.047385,0.409477 -0.944947,0.409477 -1.637909,1.207433 -0.692961,0.797955 -1.091938,1.984389 -0.388479,1.175934 -0.388479,2.719348 0,1.501416 0.36748,2.68785 0.377979,1.186433 1.081439,2.015887 0.703461,0.829454 1.711405,1.270429 1.007943,0.430476 2.288872,0.430476 0.377979,0 0.682461,-0.0525 0.314983,-0.0525 0.54597,-0.115494 0.230987,-0.0735 0.35698,-0.125993 0.125993,-0.063 0.146992,-0.0735 0.16799,-0.063 0.272985,-0.17849 0.104994,-0.115493 0.136492,-0.251985 l 0.493472,-2.34137 1.24943,0 0,3.275817 0,0.209989 z"
             style="font-size:21.50279808px;fill:none;fill-opacity:1;stroke:#000000;stroke-opacity:1"
             id="path4301"
             inkscape:connector-curvature="0" />
          <path
             d="m 70.77422,88.564737 q 0,1.564412 -0.503971,2.939835 -0.503972,1.375423 -1.427921,2.404366 -0.913448,1.018443 -2.204876,1.616909 -1.291428,0.587968 -2.86634,0.587968 -1.585411,0 -2.887339,-0.566969 -1.291427,-0.577467 -2.215376,-1.59591 -0.923948,-1.018444 -1.42792,-2.393867 -0.503972,-1.385922 -0.503972,-3.013331 0,-1.574912 0.493473,-2.950335 0.493472,-1.375423 1.406921,-2.393867 0.913449,-1.028942 2.204877,-1.616909 1.301927,-0.587967 2.908337,-0.587967 1.595911,0 2.887339,0.598466 1.301927,0.598467 2.215376,1.627409 0.923948,1.028943 1.417421,2.404366 0.503971,1.375423 0.503971,2.939836 z m -2.48836,0.021 q 0,-1.312426 -0.283485,-2.467362 -0.283484,-1.165435 -0.850452,-2.026386 -0.566968,-0.871452 -1.417421,-1.364924 -0.839953,-0.503972 -1.96339,-0.503972 -1.165435,0 -2.026387,0.503972 -0.860952,0.503972 -1.42792,1.375423 -0.566968,0.860952 -0.839953,2.015887 -0.272985,1.144436 -0.272985,2.425365 0,1.291428 0.272985,2.456862 0.283484,1.154936 0.839953,2.026387 0.566968,0.871451 1.406921,1.385923 0.850453,0.514471 1.994889,0.514471 1.165435,0 2.015887,-0.514471 0.860952,-0.514472 1.42792,-1.375423 0.566969,-0.871452 0.839953,-2.015888 0.283485,-1.154935 0.283485,-2.435864 z"
             style="font-size:21.50279808px;fill:none;fill-opacity:1;stroke:#000000;stroke-opacity:1"
             id="path4303"
             inkscape:connector-curvature="0" />
        </g>
        <g
           transform="matrix(1.19627,-0.43052476,-0.5099718,1.0194651,0,0)"
           style="font-style:normal;font-variant:normal;font-weight:normal;font-stretch:normal;font-size:29.06883812px;line-height:125%;font-family:'Abyssinica SIL';-inkscape-font-specification:'Abyssinica SIL';letter-spacing:0px;word-spacing:0px;fill:none;fill-opacity:1;stroke:#000000;stroke-width:1px;stroke-linecap:butt;stroke-linejoin:miter;stroke-opacity:1"
           id="text4226-7">
          <path
             d="m 50.765092,68.906395 q -0.03371,0.01685 -0.328675,0.126414 -0.294964,0.10113 -0.766907,0.227543 -0.471943,0.117986 -1.087154,0.219117 -0.606783,0.10113 -1.264132,0.10113 -0.969169,0 -1.795069,-0.235971 -0.817472,-0.227544 -1.491676,-0.640494 -0.665777,-0.41295 -1.179858,-0.986023 -0.505653,-0.573074 -0.85961,-1.247278 -0.345529,-0.674204 -0.522508,-1.432684 -0.176978,-0.758479 -0.176978,-1.550669 0,-1.339981 0.438232,-2.452417 0.438233,-1.112437 1.230423,-1.904627 0.792189,-0.800617 1.904626,-1.23885 1.112437,-0.44666 2.469273,-0.44666 0.421377,0 0.809045,0.05056 0.396094,0.04214 0.800617,0.126414 0.404522,0.08428 0.851183,0.210688 0.44666,0.126414 0.969168,0.286537 l 0,2.705244 -1.036589,0 -0.252826,-1.567525 q -0.01686,-0.117985 -0.117986,-0.235971 -0.101131,-0.117986 -0.176979,-0.160123 -0.10113,-0.04214 -0.269681,-0.117986 -0.160124,-0.07585 -0.387668,-0.143269 -0.227544,-0.07585 -0.505653,-0.126413 -0.278109,-0.05899 -0.598356,-0.05899 -0.884893,0 -1.643372,0.328675 -0.75848,0.328674 -1.314698,0.969168 -0.556219,0.640494 -0.876466,1.592807 -0.311819,0.943886 -0.311819,2.182736 0,1.20514 0.294964,2.157453 0.303392,0.952313 0.868038,1.61809 0.564646,0.665776 1.373691,1.019734 0.809045,0.345529 1.837206,0.345529 0.303392,0 0.547791,-0.04214 0.252826,-0.04214 0.438232,-0.0927 0.185407,-0.05899 0.286537,-0.10113 0.101131,-0.05057 0.117986,-0.05899 0.134841,-0.05056 0.219116,-0.143268 0.08428,-0.0927 0.109558,-0.202262 l 0.396095,-1.879344 1.002879,0 0,2.629396 0,0.168551 z"
             style="font-size:17.25962448px;fill:none;fill-opacity:1;stroke:#000000;stroke-opacity:1"
             id="path4313"
             inkscape:connector-curvature="0" />
          <path
             d="m 63.381136,63.52119 q 0,1.255705 -0.404523,2.359715 -0.404522,1.104009 -1.146147,1.929909 -0.733197,0.817472 -1.769786,1.297843 -1.036588,0.471942 -2.300721,0.471942 -1.27256,0 -2.317576,-0.455087 -1.036589,-0.463516 -1.778214,-1.280988 -0.741624,-0.817473 -1.146147,-1.921482 -0.404522,-1.112436 -0.404522,-2.418707 0,-1.264133 0.396095,-2.368142 0.396095,-1.104009 1.129292,-1.921481 0.733197,-0.8259 1.769785,-1.297843 1.045017,-0.471943 2.334432,-0.471943 1.280988,0 2.317576,0.48037 1.045017,0.480371 1.778214,1.306271 0.741624,0.8259 1.137719,1.929909 0.404523,1.104009 0.404523,2.359714 z m -1.99733,0.01685 q 0,-1.053444 -0.227544,-1.980474 -0.227544,-0.935458 -0.682632,-1.626517 -0.455087,-0.699487 -1.137719,-1.095582 -0.674204,-0.404523 -1.575952,-0.404523 -0.935458,0 -1.626517,0.404523 -0.691059,0.404522 -1.146147,1.104009 -0.455088,0.691059 -0.674204,1.61809 -0.219117,0.918603 -0.219117,1.946764 0,1.036589 0.219117,1.972047 0.227544,0.927031 0.674204,1.626517 0.455088,0.699487 1.129292,1.112437 0.682631,0.41295 1.601234,0.41295 0.935458,0 1.61809,-0.41295 0.691059,-0.41295 1.146147,-1.104009 0.455088,-0.699487 0.674204,-1.61809 0.227544,-0.92703 0.227544,-1.955192 z"
             style="font-size:17.25962448px;fill:none;fill-opacity:1;stroke:#000000;stroke-opacity:1"
             id="path4315"
             inkscape:connector-curvature="0" />
          <path
             d="m 75.028012,58.53208 q -0.185406,0.01685 -0.278109,0.134841 -0.08428,0.117986 -0.08428,0.244399 l 0,10.39117 -1.348408,0 -6.421794,-9.666401 0,8.478117 q 0,0.126413 0.08428,0.244399 0.0927,0.117985 0.278109,0.13484 l 0.986024,0.06742 0,0.741624 -3.733406,0 0,-0.741624 0.986024,-0.06742 q 0.185406,-0.01685 0.278109,-0.13484 0.101131,-0.117986 0.101131,-0.244399 l 0,-9.202886 q 0,-0.126413 -0.101131,-0.244399 -0.0927,-0.117986 -0.278109,-0.134841 l -1.019734,-0.06742 0,-0.741625 3.421586,0 0,0.429805 5.74759,8.680378 0,-7.921898 q 0,-0.126413 -0.0927,-0.244399 -0.0927,-0.117986 -0.269682,-0.134841 l -0.986023,-0.06742 0,-0.741625 3.691267,0 0,0.741625 -0.960741,0.06742 z"
             style="font-size:17.25962448px;fill:none;fill-opacity:1;stroke:#000000;stroke-opacity:1"
             id="path4317"
             inkscape:connector-curvature="0" />
        </g>
      </g>
    </g>
    <flowRoot
       xml:space="preserve"
       id="flowRoot4257"
       style="fill:black;stroke:none;stroke-opacity:1;stroke-width:1px;stroke-linejoin:miter;stroke-linecap:butt;fill-opacity:1;font-family:'Times New Roman';font-style:normal;font-weight:normal;font-size:40px;line-height:125%;letter-spacing:0px;word-spacing:0px;-inkscape-font-specification:'Times New Roman, ';font-stretch:normal;font-variant:normal;"><flowRegion
         id="flowRegion4259"><rect
           id="rect4261"
           width="196.76749"
           height="170.92091"
           x="147.57562"
           y="-16.76749"
           style="-inkscape-font-specification:'Times New Roman, ';font-family:'Times New Roman';font-weight:normal;font-style:normal;font-stretch:normal;font-variant:normal;" /></flowRegion><flowPara
         id="flowPara4263" /></flowRoot>    <flowRoot
       xml:space="preserve"
       id="flowRoot4265"
       style="fill:black;stroke:none;stroke-opacity:1;stroke-width:1px;stroke-linejoin:miter;stroke-linecap:butt;fill-opacity:1;font-family:'Times New Roman';font-style:normal;font-weight:normal;font-size:40px;line-height:125%;letter-spacing:0px;word-spacing:0px;-inkscape-font-specification:'Times New Roman, ';font-stretch:normal;font-variant:normal;"><flowRegion
         id="flowRegion4267"><rect
           id="rect4269"
           width="186.76236"
           height="123.39656"
           x="153.41194"
           y="-9.2636461"
           style="-inkscape-font-specification:'Times New Roman, ';font-family:'Times New Roman';font-weight:normal;font-style:normal;font-stretch:normal;font-variant:normal;" /></flowRegion><flowPara
         id="flowPara4271" /></flowRoot>    <flowRoot
       xml:space="preserve"
       id="flowRoot4273"
       style="font-style:normal;font-variant:normal;font-weight:normal;font-stretch:normal;font-size:40px;line-height:125%;font-family:'Times New Roman';-inkscape-font-specification:'Times New Roman, ';letter-spacing:0px;word-spacing:0px;fill:#000000;fill-opacity:1;stroke:none;stroke-width:1px;stroke-linecap:butt;stroke-linejoin:miter;stroke-opacity:1"
       transform="matrix(0.56780575,0,0,0.56780575,85.472375,980.72132)"><flowRegion
         id="flowRegion4275"><rect
           id="rect4277"
           width="252.62946"
           height="108.38887"
           x="143.40683"
           y="15.74917"
           style="font-style:normal;font-variant:normal;font-weight:normal;font-stretch:normal;font-family:'Times New Roman';-inkscape-font-specification:'Times New Roman, '" /></flowRegion><flowPara
         id="flowPara4279"
         style="font-size:30px">Bob Rosedahl</flowPara><flowPara
         style="font-size:20px"
         id="flowPara4283">Recruiter</flowPara><flowPara
         style="font-size:20px"
         id="flowPara4287">Generalized Products Division</flowPara></flowRoot>    <flowRoot
       xml:space="preserve"
       id="flowRoot4289"
       style="fill:black;stroke:none;stroke-opacity:1;stroke-width:1px;stroke-linejoin:miter;stroke-linecap:butt;fill-opacity:1;font-family:sans-serif;font-style:normal;font-weight:normal;font-size:40px;line-height:125%;letter-spacing:0px;word-spacing:0px"><flowRegion
         id="flowRegion4291"><rect
           id="rect4293"
           width="72.53717"
           height="50.025635"
           x="149.24313"
           y="63.273521" /></flowRegion><flowPara
         id="flowPara4295" /></flowRoot>    <flowRoot
       xml:space="preserve"
       id="flowRoot4335"
       style="font-style:normal;font-weight:normal;font-size:40px;line-height:125%;font-family:sans-serif;letter-spacing:0px;word-spacing:0px;fill:#000000;fill-opacity:1;stroke:none;stroke-width:1px;stroke-linecap:butt;stroke-linejoin:miter;stroke-opacity:1"
       transform="translate(8.3376055,886.36733)"><flowRegion
         id="flowRegion4337"><rect
           id="rect4339"
           width="166.75211"
           height="86.711105"
           x="142.57306"
           y="-3.4273219" /></flowRegion><flowPara
         id="flowPara4341"
         style="font-style:italic;font-variant:normal;font-weight:normal;font-stretch:normal;font-size:17.5px;font-family:sans-serif;-inkscape-font-specification:'sans-serif Italic';text-align:center;text-anchor:middle">&quot;Doing and making things... for people.&quot;</flowPara></flowRoot>  </g>
</svg>
