<?xml version="1.0" encoding="UTF-8" standalone="no"?>
<!-- Created with Inkscape (http://www.inkscape.org/) -->

<svg
   xmlns:dc="http://purl.org/dc/elements/1.1/"
   xmlns:cc="http://creativecommons.org/ns#"
   xmlns:rdf="http://www.w3.org/1999/02/22-rdf-syntax-ns#"
   xmlns:svg="http://www.w3.org/2000/svg"
   xmlns="http://www.w3.org/2000/svg"
   xmlns:sodipodi="http://sodipodi.sourceforge.net/DTD/sodipodi-0.dtd"
   xmlns:inkscape="http://www.inkscape.org/namespaces/inkscape"
   width="5.5in"
   height="4.25in"
   viewBox="0 0 495 382.5"
   id="svg2"
   version="1.1"
   inkscape:version="0.91 r"
   sodipodi:docname="Sign-FreeSandwich.svg"
   inkscape:export-filename="/home/xyz/Sites/BlueberryEmpire/BlueberryEmpire/Games/ConWijCo/_Working/Sign-FreeSandwich.png"
   inkscape:export-xdpi="99.966599"
   inkscape:export-ydpi="99.966599">
  <defs
     id="defs4" />
  <sodipodi:namedview
     id="base"
     pagecolor="#ffffff"
     bordercolor="#666666"
     borderopacity="1.0"
     inkscape:pageopacity="0.0"
     inkscape:pageshadow="2"
     inkscape:zoom="0.49350221"
     inkscape:cx="302.15284"
     inkscape:cy="-60.365009"
     inkscape:document-units="px"
     inkscape:current-layer="layer1"
     showgrid="false"
     units="in"
     width="4.25in"
     showguides="true"
     inkscape:guide-bbox="true"
     inkscape:window-width="1600"
     inkscape:window-height="848"
     inkscape:window-x="0"
     inkscape:window-y="0"
     inkscape:window-maximized="1" />
  <metadata
     id="metadata7">
    <rdf:RDF>
      <cc:Work
         rdf:about="">
        <dc:format>image/svg+xml</dc:format>
        <dc:type
           rdf:resource="http://purl.org/dc/dcmitype/StillImage" />
        <dc:title></dc:title>
      </cc:Work>
    </rdf:RDF>
  </metadata>
  <g
     inkscape:label="Layer 1"
     inkscape:groupmode="layer"
     id="layer1"
     transform="translate(0,-669.8622)">
    <path
       style="fill:none;fill-rule:evenodd;stroke:#000000;stroke-width:8;stroke-linecap:round;stroke-linejoin:round;stroke-miterlimit:4;stroke-dasharray:none;stroke-opacity:1"
       d="m 144.29157,701.88881 c 0,0 -1.37819,27.62354 -0.82053,41.42248 0.39237,9.70866 6.60465,15.8892 15.90731,15.9073 9.30266,0.0181 14.91276,-3.80883 15.08678,-15.08679 0.17402,-11.27796 0,-40.73431 0,-40.73431"
       id="path4138"
       inkscape:connector-curvature="0"
       sodipodi:nodetypes="cszzc" />
    <path
       style="fill:none;fill-rule:evenodd;stroke:#000000;stroke-width:8;stroke-linecap:round;stroke-linejoin:round;stroke-miterlimit:4;stroke-dasharray:none;stroke-opacity:1"
       d="m 178.44684,702.07428 31.90164,0"
       id="path4144"
       inkscape:connector-curvature="0" />
    <path
       style="fill:none;fill-rule:evenodd;stroke:#000000;stroke-width:8;stroke-linecap:round;stroke-linejoin:round;stroke-miterlimit:4;stroke-dasharray:none;stroke-opacity:1"
       d="m 194.39766,702.07428 0,57.12621"
       id="path4146"
       inkscape:connector-curvature="0" />
    <path
       style="fill:none;fill-rule:evenodd;stroke:#000000;stroke-width:8;stroke-linecap:round;stroke-linejoin:round;stroke-miterlimit:4;stroke-dasharray:none;stroke-opacity:1"
       d="m 239.36298,702.07428 0.7419,57.12621"
       id="path4148"
       inkscape:connector-curvature="0" />
    <path
       style="fill:none;fill-rule:evenodd;stroke:#000000;stroke-width:8;stroke-linecap:round;stroke-linejoin:round;stroke-miterlimit:4;stroke-dasharray:none;stroke-opacity:1"
       d="m 251.60431,759.20049 -1.11285,-57.12621 32.27259,57.12621 -1.11284,-57.12621"
       id="path4150"
       inkscape:connector-curvature="0" />
    <path
       style="fill:none;fill-rule:evenodd;stroke:#000000;stroke-width:8;stroke-linecap:round;stroke-linejoin:round;stroke-miterlimit:4;stroke-dasharray:none;stroke-opacity:1"
       d="m 319.24671,759.20049 20.03127,-57.12621 21.88601,57.12621"
       id="path4152"
       inkscape:connector-curvature="0" />
    <path
       style="fill:none;fill-rule:evenodd;stroke:#000000;stroke-width:8;stroke-linecap:round;stroke-linejoin:round;stroke-miterlimit:4;stroke-dasharray:none;stroke-opacity:1"
       d="m 328.8914,732.86308 22.99886,0"
       id="path4154"
       inkscape:connector-curvature="0" />
    <path
       style="fill:none;fill-rule:evenodd;stroke:#000000;stroke-width:8;stroke-linecap:round;stroke-linejoin:round;stroke-miterlimit:4;stroke-dasharray:none;stroke-opacity:1"
       d="m 65.091113,782.08811 c 0,0 0.69075,26.04601 1.11285,36.35304 0.4221,10.30703 7.18279,20.72434 15.95082,20.77317 8.768027,0.0488 16.246797,-10.20158 16.321767,-20.77317 0.075,-10.57159 -0.7419,-36.35304 -0.7419,-36.35304"
       id="path4158"
       inkscape:connector-curvature="0"
       sodipodi:nodetypes="czzzc" />
    <path
       style="fill:none;fill-rule:evenodd;stroke:#000000;stroke-width:8;stroke-linecap:round;stroke-linejoin:round;stroke-miterlimit:4;stroke-dasharray:none;stroke-opacity:1"
       d="m 135.86199,790.9909 c -1.15257,-5.1635 -4.83308,-8.79962 -12.24133,-8.90279 -7.40825,-0.10317 -14.28891,4.67861 -14.46702,12.24133 -0.17811,7.56272 8.27183,14.25213 16.32177,15.20893 8.04994,0.9568 15.5966,2.28104 15.57988,12.98323 -0.0167,10.70219 -6.6488,16.69272 -17.80557,16.69272 -11.15677,0 -10.301,-4.24925 -12.24133,-10.38659"
       id="path4160"
       inkscape:connector-curvature="0"
       sodipodi:nodetypes="czzzzzc" />
    <path
       style="fill:none;fill-rule:evenodd;stroke:#000000;stroke-width:8;stroke-linecap:round;stroke-linejoin:round;stroke-miterlimit:4;stroke-dasharray:none;stroke-opacity:1"
       d="m 151.81282,782.08811 -0.37095,57.12621"
       id="path4162"
       inkscape:connector-curvature="0" />
    <path
       style="fill:none;fill-rule:evenodd;stroke:#000000;stroke-width:8;stroke-linecap:round;stroke-linejoin:round;stroke-opacity:1;stroke-miterlimit:4;stroke-dasharray:none"
       d="m 163.74801,839.21432 0.78011,-56.94711 27.7455,57.30532 -0.63997,-57.48442"
       id="path4164"
       inkscape:connector-curvature="0"
       sodipodi:nodetypes="cccc" />
    <path
       style="fill:none;fill-rule:evenodd;stroke:#000000;stroke-width:8;stroke-linecap:round;stroke-linejoin:round;stroke-miterlimit:4;stroke-dasharray:none;stroke-opacity:1"
       d="m 260.92111,792.4747 c -3.2651,-4.76749 -7.61473,-10.7567 -16.32177,-10.38659 -8.70704,0.37011 -13.4217,6.87216 -12.98323,15.57988 0.43847,8.70772 6.71768,15.63295 16.32177,14.83797 9.60409,-0.79498 16.96812,4.22719 17.43462,13.72513 0.4665,9.49794 -8.57386,13.36665 -17.43462,12.98323 -8.86076,-0.38342 -12.97772,-6.50641 -15.95082,-12.24133"
       id="path4170"
       inkscape:connector-curvature="0"
       sodipodi:nodetypes="czzzzzc" />
    <path
       style="fill:none;fill-rule:evenodd;stroke:#000000;stroke-width:8;stroke-linecap:round;stroke-linejoin:round;stroke-miterlimit:4;stroke-dasharray:none;stroke-opacity:1"
       d="m 300.13586,792.52125 c -0.17322,-5.68428 -4.58906,-9.97128 -12.58684,-10.43314 -7.99778,-0.46186 -11.56988,2.75363 -12.24133,11.12848 -0.67145,8.37485 5.23977,14.36485 13.35418,15.20893 8.11441,0.84408 17.34704,3.67543 17.80557,14.83797 0.45853,11.16254 -8.94067,15.95083 -17.80557,15.95083 -8.8649,0 -11.63322,-5.02629 -13.72513,-12.98323"
       id="path4172"
       inkscape:connector-curvature="0"
       sodipodi:nodetypes="czzzzzc" />
    <g
       id="g4279">
      <path
         inkscape:connector-curvature="0"
         id="path4168"
         d="m 220.05187,782.08811 -18.91842,0 1.11285,57.12621 23.74076,0"
         style="fill:none;fill-rule:evenodd;stroke:#000000;stroke-width:8;stroke-linecap:round;stroke-linejoin:round;stroke-miterlimit:4;stroke-dasharray:none;stroke-opacity:1" />
      <path
         sodipodi:nodetypes="cc"
         inkscape:connector-curvature="0"
         id="path4174"
         d="m 202.1081,809.58492 14.97617,0.3244"
         style="fill:none;fill-rule:evenodd;stroke:#000000;stroke-width:8;stroke-linecap:round;stroke-linejoin:round;stroke-miterlimit:4;stroke-dasharray:none;stroke-opacity:1" />
    </g>
    <path
       style="fill:none;fill-rule:evenodd;stroke:#000000;stroke-width:8;stroke-linecap:round;stroke-linejoin:round;stroke-miterlimit:4;stroke-dasharray:none;stroke-opacity:1"
       d="m 357.45942,800.13915 c 0.46248,-9.87549 -7.62842,-18.05104 -18.55845,-18.05104 -10.93003,0 -14.86539,15.68743 -15.19839,30.84997 -0.333,15.16254 9.15602,26.27624 19.4647,26.27624 10.30868,0 13.98328,-4.35255 13.86551,-16.46372"
       id="path4176"
       inkscape:connector-curvature="0"
       sodipodi:nodetypes="czzzc" />
    <path
       style="fill:none;fill-rule:evenodd;stroke:#000000;stroke-width:8;stroke-linecap:round;stroke-linejoin:round;stroke-miterlimit:4;stroke-dasharray:none;stroke-opacity:1"
       d="m 367.21894,839.21432 13.65219,-57.12621 19.83834,57.12621"
       id="path4178"
       inkscape:connector-curvature="0" />
    <path
       style="fill:none;fill-rule:evenodd;stroke:#000000;stroke-width:8;stroke-linecap:round;stroke-linejoin:round;stroke-miterlimit:4;stroke-dasharray:none;stroke-opacity:1"
       d="m 409.24209,839.21432 0.42663,-57.12621 c 0,0 13.94267,0 19.83834,0 5.89567,0 11.37204,1.69394 10.87909,11.43826 -0.49295,9.74432 -7.59953,11.84382 -11.73235,11.73236 -2.73113,-0.0737 -19.83834,-0.85327 -19.83834,-0.85327"
       id="path4180"
       inkscape:connector-curvature="0"
       sodipodi:nodetypes="cczzsc" />
    <path
       style="fill:none;fill-rule:evenodd;stroke:#000000;stroke-width:8;stroke-linecap:round;stroke-linejoin:round;stroke-miterlimit:4;stroke-dasharray:none;stroke-opacity:1"
       d="m 424.60081,805.68536 15.35871,33.52896"
       id="path4182"
       inkscape:connector-curvature="0" />
    <path
       style="fill:none;fill-rule:evenodd;stroke:#000000;stroke-width:8;stroke-linecap:round;stroke-linejoin:round;stroke-miterlimit:4;stroke-dasharray:none;stroke-opacity:1"
       d="m 449.55872,782.08811 1.06658,57.12621 c 12.79584,0 29.12884,-6.54854 27.09106,-32.46239 -1.31604,-16.73569 -14.12822,-24.62402 -28.15764,-24.66382 z"
       id="path4184"
       inkscape:connector-curvature="0"
       sodipodi:nodetypes="ccsc" />
    <path
       style="fill:none;fill-rule:evenodd;stroke:#000000;stroke-width:8;stroke-linecap:round;stroke-linejoin:round;stroke-miterlimit:4;stroke-dasharray:none;stroke-opacity:1"
       d="m 124.87443,920.26766 0.23794,-57.12621 24.74588,57.12621 1.42764,-57.12621"
       id="path4188"
       inkscape:connector-curvature="0" />
    <path
       style="fill:none;fill-rule:evenodd;stroke:#000000;stroke-width:8;stroke-linecap:round;stroke-linejoin:round;stroke-opacity:1;stroke-miterlimit:4;stroke-dasharray:none"
       d="m 162.99648,863.14145 0.71382,57.12621 c 12.06089,0 25.46594,0 24.74588,-31.18409 -0.50878,-22.03393 -13.24638,-25.94212 -25.4597,-25.94212 z"
       id="path4190"
       inkscape:connector-curvature="0"
       sodipodi:nodetypes="ccsc" />
    <path
       style="fill:none;fill-rule:evenodd;stroke:#000000;stroke-width:8;stroke-linecap:round;stroke-linejoin:round;stroke-miterlimit:4;stroke-dasharray:none;stroke-opacity:1"
       d="m 215.35,863.14145 12.135,57.12621 8.32793,-26.66321 10.9453,26.66321 6.90029,-57.12621"
       id="path4192"
       inkscape:connector-curvature="0" />
    <path
       style="fill:none;fill-rule:evenodd;stroke:#000000;stroke-width:8;stroke-linecap:round;stroke-linejoin:round;stroke-opacity:1;stroke-miterlimit:4;stroke-dasharray:none"
       d="m 267.17616,863.14145 0.71383,57.12621"
       id="path4194"
       inkscape:connector-curvature="0" />
    <path
       style="fill:none;fill-rule:evenodd;stroke:#000000;stroke-width:8;stroke-linecap:round;stroke-linejoin:round;stroke-miterlimit:4;stroke-dasharray:none;stroke-opacity:1"
       d="m 280.69381,920.26766 -1.90353,-57.12621 29.98058,57.12621 -0.47589,-56.88827"
       id="path4196"
       inkscape:connector-curvature="0"
       sodipodi:nodetypes="cccc" />
    <path
       style="fill:none;fill-rule:evenodd;stroke:#000000;stroke-width:8;stroke-linecap:round;stroke-linejoin:round;stroke-miterlimit:4;stroke-dasharray:none;stroke-opacity:1"
       d="m 20.456286,1003.3473 -1.6144,-57.12618 24.8617,0"
       id="path4200"
       inkscape:connector-curvature="0" />
    <path
       style="fill:none;fill-rule:evenodd;stroke:#000000;stroke-width:8;stroke-linecap:round;stroke-linejoin:round;stroke-miterlimit:4;stroke-dasharray:none;stroke-opacity:1"
       d="m 19.164786,976.9667 20.9871,-0.64576"
       id="path4202"
       inkscape:connector-curvature="0" />
    <path
       style="fill:none;fill-rule:evenodd;stroke:#000000;stroke-width:8;stroke-linecap:round;stroke-linejoin:round;stroke-miterlimit:4;stroke-dasharray:none;stroke-opacity:1"
       d="m 52.546686,1003.3473 0.3229,-57.12618 c 0,0 11.4083,0 17.1125,0 8.0386,0 10.1739,8.3047 10.3322,16.21606 0.1049,5.24088 -3.8277,12.03714 -8.3949,12.26937 -6.3499,0.32288 -19.0498,0.96864 -19.0498,0.96864"
       id="path4204"
       inkscape:connector-curvature="0"
       sodipodi:nodetypes="ccsssc" />
    <path
       style="fill:none;fill-rule:evenodd;stroke:#000000;stroke-width:8;stroke-linecap:round;stroke-linejoin:round;stroke-miterlimit:4;stroke-dasharray:none;stroke-opacity:1"
       d="m 70.107586,975.35231 15.821,27.99499"
       id="path4206"
       inkscape:connector-curvature="0" />
    <g
       id="g4295">
      <path
         inkscape:connector-curvature="0"
         id="path4208"
         d="m 112.08179,946.22112 -20.664204,0 1.6144,57.12618 23.247204,0"
         style="fill:none;fill-rule:evenodd;stroke:#000000;stroke-width:8;stroke-linecap:round;stroke-linejoin:round;stroke-miterlimit:4;stroke-dasharray:none;stroke-opacity:1" />
      <path
         inkscape:connector-curvature="0"
         id="path4210"
         d="m 92.063286,975.99806 16.466804,-0.96863"
         style="fill:none;fill-rule:evenodd;stroke:#000000;stroke-width:8;stroke-linecap:round;stroke-linejoin:round;stroke-miterlimit:4;stroke-dasharray:none;stroke-opacity:1" />
    </g>
    <g
       id="g4291">
      <path
         inkscape:connector-curvature="0"
         id="path4212"
         d="m 146.75519,1003.3473 -19.3727,0 -0.9686,-57.12618 23.5701,0"
         style="fill:none;fill-rule:evenodd;stroke:#000000;stroke-width:8;stroke-linecap:round;stroke-linejoin:round;stroke-opacity:1;stroke-miterlimit:4;stroke-dasharray:none" />
      <path
         inkscape:connector-curvature="0"
         id="path4214"
         d="m 126.41389,975.02943 14.8524,-0.32288"
         style="fill:none;fill-rule:evenodd;stroke:#000000;stroke-width:8;stroke-linecap:round;stroke-linejoin:round;stroke-opacity:1;stroke-miterlimit:4;stroke-dasharray:none" />
    </g>
    <path
       style="fill:none;fill-rule:evenodd;stroke:#000000;stroke-width:8;stroke-linecap:round;stroke-linejoin:round;stroke-miterlimit:4;stroke-dasharray:none;stroke-opacity:1"
       d="m 214.53189,958.23977 c -0.5602,-6.78936 -5.0366,-11.63637 -13.8837,-12.01865 -9.848,-0.42552 -13.9554,6.90732 -13.8838,14.27879 0.092,9.45925 7.0666,14.57105 16.4668,14.52952 8.1934,-0.0362 15.2674,4.42556 15.1753,12.91513 -0.1245,11.48266 -8.9828,15.40274 -16.4668,15.40274 -6.8152,0 -11.6411,-3.76428 -14.5295,-13.46547"
       id="path4218"
       inkscape:connector-curvature="0"
       sodipodi:nodetypes="csssssc" />
    <path
       style="fill:none;fill-rule:evenodd;stroke:#000000;stroke-width:8;stroke-linecap:round;stroke-linejoin:round;stroke-miterlimit:4;stroke-dasharray:none;stroke-opacity:1"
       d="m 263.34929,1003.3473 -1.2915,-57.12618 24.5387,57.12618 -0.6458,-57.12618"
       id="path4222"
       inkscape:connector-curvature="0" />
    <path
       style="fill:none;fill-rule:evenodd;stroke:#000000;stroke-width:8;stroke-linecap:round;stroke-linejoin:round;stroke-opacity:1;stroke-miterlimit:4;stroke-dasharray:none"
       d="m 297.69979,946.22112 1.2915,57.12618 c 10.7268,0 22.6855,0.9063 21.9557,-27.02636 -0.6458,-24.71668 -8.0721,-30.09982 -23.2472,-30.09982 z"
       id="path4224"
       inkscape:connector-curvature="0"
       sodipodi:nodetypes="ccsc" />
    <path
       style="fill:none;fill-rule:evenodd;stroke:#000000;stroke-width:8;stroke-linecap:round;stroke-linejoin:round;stroke-opacity:1;stroke-miterlimit:4;stroke-dasharray:none"
       d="m 326.75879,946.22112 6.7805,57.12618 6.7804,-17.98577 8.072,17.98577 7.7491,-57.12618"
       id="path4226"
       inkscape:connector-curvature="0" />
    <path
       style="fill:none;fill-rule:evenodd;stroke:#000000;stroke-width:8;stroke-linecap:round;stroke-linejoin:round;stroke-miterlimit:4;stroke-dasharray:none;stroke-opacity:1"
       d="m 367.24409,946.22112 0.9686,57.12618"
       id="path4228"
       inkscape:connector-curvature="0" />
    <path
       style="fill:none;fill-rule:evenodd;stroke:#000000;stroke-width:8;stroke-linecap:round;stroke-linejoin:round;stroke-miterlimit:4;stroke-dasharray:none;stroke-opacity:1"
       d="m 408.77159,961.33706 c -1.1934,-8.73139 -3.8193,-15.11594 -15.2416,-15.11594 -16.949,0 -16.1297,17.65608 -15.2177,30.02622 1.2733,17.27047 5.3077,27.09996 16.543,27.09996 11.0924,0 16.0479,-9.08573 15.573,-18.48514"
       id="path4230"
       inkscape:connector-curvature="0"
       sodipodi:nodetypes="csssc" />
    <path
       style="fill:none;fill-rule:evenodd;stroke:#000000;stroke-width:8;stroke-linecap:round;stroke-linejoin:round;stroke-miterlimit:4;stroke-dasharray:none;stroke-opacity:1"
       d="m 421.38639,946.22112 0,57.12618"
       id="path4232"
       inkscape:connector-curvature="0" />
    <path
       style="fill:none;fill-rule:evenodd;stroke:#000000;stroke-width:8;stroke-linecap:round;stroke-linejoin:round;stroke-miterlimit:4;stroke-dasharray:none;stroke-opacity:1"
       d="m 447.23089,946.22112 -0.6627,57.12618"
       id="path4234"
       inkscape:connector-curvature="0" />
    <path
       style="fill:none;fill-rule:evenodd;stroke:#000000;stroke-width:8;stroke-linecap:round;stroke-linejoin:round;stroke-miterlimit:4;stroke-dasharray:none;stroke-opacity:1"
       d="m 421.38639,973.92796 25.1818,0.33134"
       id="path4236"
       inkscape:connector-curvature="0"
       sodipodi:nodetypes="cc" />
    <path
       style="fill:none;fill-rule:evenodd;stroke:#000000;stroke-width:8;stroke-linecap:round;stroke-linejoin:round;stroke-miterlimit:4;stroke-dasharray:none;stroke-opacity:1"
       d="m 457.65219,942.77687 3.1636,37.54852 12.2596,0 2.0197,-38.10427 z"
       id="path4238"
       inkscape:connector-curvature="0"
       sodipodi:nodetypes="ccccc" />
    <path
       style="fill:none;fill-rule:evenodd;stroke:#000000;stroke-width:8;stroke-linecap:round;stroke-linejoin:round;stroke-miterlimit:4;stroke-dasharray:none;stroke-opacity:1"
       d="m 467.32509,990.92405 c 4.9932,-0.12534 8.3987,2.9862 8.7323,7.20365 0.3336,4.2174 -2.6048,7.2196 -7.9521,7.2196 -5.3473,0 -8.0636,-4.3726 -7.6797,-7.67386 0.3839,-3.30131 1.9063,-6.62405 6.8995,-6.74939 z"
       id="path4242"
       inkscape:connector-curvature="0"
       sodipodi:nodetypes="zzzzz" />
    <g
       id="g4287"
       transform="translate(10,0)">
      <path
         inkscape:connector-curvature="0"
         id="path4198"
         d="m 337.70968,920.26766 13.08676,-57.12621 19.51117,57.12621"
         style="fill:none;fill-rule:evenodd;stroke:#000000;stroke-width:8;stroke-linecap:round;stroke-linejoin:round;stroke-miterlimit:4;stroke-dasharray:none;stroke-opacity:1" />
      <path
         inkscape:connector-curvature="0"
         id="path4244"
         d="m 344.46515,892.79827 16.411,0.22481"
         style="fill:none;fill-rule:evenodd;stroke:#000000;stroke-width:8;stroke-linecap:round;stroke-linejoin:round;stroke-miterlimit:4;stroke-dasharray:none;stroke-opacity:1" />
    </g>
    <g
       id="g4283"
       transform="translate(-8,0)">
      <path
         inkscape:connector-curvature="0"
         id="path4186"
         d="m 93.00341,920.26766 15.35872,-57.12621 15.35871,57.12621"
         style="fill:none;fill-rule:evenodd;stroke:#000000;stroke-width:8;stroke-linecap:round;stroke-linejoin:round;stroke-miterlimit:4;stroke-dasharray:none;stroke-opacity:1" />
      <path
         inkscape:connector-curvature="0"
         id="path4246"
         d="M 101.52516,890.99981 116.58731,890.775"
         style="fill:none;fill-rule:evenodd;stroke:#000000;stroke-width:8;stroke-linecap:round;stroke-linejoin:round;stroke-miterlimit:4;stroke-dasharray:none;stroke-opacity:1" />
    </g>
    <path
       style="fill:none;fill-rule:evenodd;stroke:#000000;stroke-width:8;stroke-linecap:round;stroke-linejoin:round;stroke-miterlimit:4;stroke-dasharray:none;stroke-opacity:1"
       d="m 390.95352,813.37721 -17.14994,0.49"
       id="path4267"
       inkscape:connector-curvature="0" />
    <g
       id="g4275"
       transform="translate(-10,0)">
      <path
         sodipodi:nodetypes="cczzczzc"
         inkscape:connector-curvature="0"
         id="path4156"
         d="m 34.221873,782.08811 0.37095,57.12621 c 0,0 11.57105,0 17.80557,0 6.23452,0 14.15955,0 14.83797,-11.12848 0.67842,-11.12848 -7.85263,-16.30741 -14.46703,-16.32178 7.98359,-0.66317 11.37514,-9.53889 10.75754,-15.95082 -0.6176,-6.41193 -7.85075,-13.72513 -13.72513,-13.72513 -5.87438,0 -15.57987,0 -15.57987,0 z"
         style="fill:none;fill-rule:evenodd;stroke:#000000;stroke-width:8;stroke-linecap:round;stroke-linejoin:round;stroke-miterlimit:4;stroke-dasharray:none;stroke-opacity:1" />
      <path
         inkscape:connector-curvature="0"
         id="path4269"
         d="m 52.848223,811.97275 -19.05698,-0.91841"
         style="fill:none;fill-rule:evenodd;stroke:#000000;stroke-width:8;stroke-linecap:round;stroke-linejoin:round;stroke-miterlimit:4;stroke-dasharray:none;stroke-opacity:1" />
    </g>
    <path
       style="fill:none;fill-rule:evenodd;stroke:#000000;stroke-width:8;stroke-linecap:round;stroke-linejoin:round;stroke-miterlimit:4;stroke-dasharray:none;stroke-opacity:1"
       d="m 108.82738,759.20049 -1.37761,-57.12621 c 0,0 9.08289,0 16.43459,0 7.3517,0 10.8769,6.72704 11.02091,12.43487 0.144,5.70783 -4.60133,13.40044 -11.02091,13.77613 -6.41958,0.37569 -15.97539,-1.14801 -15.97539,-1.14801"
       id="path4271"
       inkscape:connector-curvature="0"
       sodipodi:nodetypes="cczzzc" />
    <g
       id="g4299"
       transform="translate(-6,0)">
      <path
         inkscape:connector-curvature="0"
         id="path4220"
         d="m 231.18689,1003.3473 c 1.2915,0 12.2694,-57.12618 12.2694,-57.12618 l 17.7583,57.12618"
         style="fill:none;fill-rule:evenodd;stroke:#000000;stroke-width:8;stroke-linecap:round;stroke-linejoin:round;stroke-miterlimit:4;stroke-dasharray:none;stroke-opacity:1" />
      <path
         inkscape:connector-curvature="0"
         id="path4273"
         d="m 237.36849,975.99644 14.598,-0.3244"
         style="fill:none;fill-rule:evenodd;stroke:#000000;stroke-width:8;stroke-linecap:round;stroke-linejoin:round;stroke-miterlimit:4;stroke-dasharray:none;stroke-opacity:1" />
    </g>
    <path
       style="fill:none;fill-rule:evenodd;stroke:#000000;stroke-width:8;stroke-linecap:round;stroke-linejoin:round;stroke-miterlimit:4;stroke-dasharray:none;stroke-opacity:1"
       d="m 15.704084,1020.954 c 39.345751,-0.8463 78.691502,-1.6927 118.037256,-2.539 38.67214,1.6335 77.34428,3.2669 116.01643,4.9004 42.04651,0.6658 84.09303,1.3317 126.13955,1.9976 34.4435,-1.1153 68.88701,-2.2306 103.33052,-3.3458"
       id="path4303"
       inkscape:connector-curvature="0"
       sodipodi:nodetypes="ccccc" />
  </g>
</svg>
