<?xml version="1.0" encoding="UTF-8" standalone="no"?>
<!-- Created with Inkscape (http://www.inkscape.org/) -->

<svg
   xmlns:dc="http://purl.org/dc/elements/1.1/"
   xmlns:cc="http://creativecommons.org/ns#"
   xmlns:rdf="http://www.w3.org/1999/02/22-rdf-syntax-ns#"
   xmlns:svg="http://www.w3.org/2000/svg"
   xmlns="http://www.w3.org/2000/svg"
   xmlns:sodipodi="http://sodipodi.sourceforge.net/DTD/sodipodi-0.dtd"
   xmlns:inkscape="http://www.inkscape.org/namespaces/inkscape"
   width="13.771625in"
   height="9.2977438in"
   viewBox="0 0 1239.4463 836.79694"
   id="svg2"
   version="1.1"
   inkscape:version="0.91 r"
   sodipodi:docname="Logo.svg">
  <defs
     id="defs4" />
  <sodipodi:namedview
     id="base"
     pagecolor="#ffffff"
     bordercolor="#666666"
     borderopacity="1.0"
     inkscape:pageopacity="0.0"
     inkscape:pageshadow="2"
     inkscape:zoom="0.27582324"
     inkscape:cx="484.74747"
     inkscape:cy="475.63402"
     inkscape:document-units="px"
     inkscape:current-layer="flowRoot4136"
     showgrid="false"
     units="in"
     fit-margin-top="0"
     fit-margin-left="0"
     fit-margin-right="0"
     fit-margin-bottom="0"
     inkscape:window-width="1600"
     inkscape:window-height="848"
     inkscape:window-x="0"
     inkscape:window-y="0"
     inkscape:window-maximized="1" />
  <metadata
     id="metadata7">
    <rdf:RDF>
      <cc:Work
         rdf:about="">
        <dc:format>image/svg+xml</dc:format>
        <dc:type
           rdf:resource="http://purl.org/dc/dcmitype/StillImage" />
        <dc:title></dc:title>
      </cc:Work>
    </rdf:RDF>
  </metadata>
  <g
     inkscape:label="Layer 1"
     inkscape:groupmode="layer"
     id="layer1"
     transform="translate(193.73267,-201.27272)">
    <g
       transform="matrix(2.0133177,0,-0.40125383,2.0133177,223.23174,80.501157)"
       style="font-style:normal;font-variant:normal;font-weight:normal;font-stretch:normal;font-size:40px;line-height:125%;font-family:Block3x5;-inkscape-font-specification:Block3x5;letter-spacing:0px;word-spacing:0px;fill:#000000;fill-opacity:1;stroke:none;stroke-width:1px;stroke-linecap:butt;stroke-linejoin:miter;stroke-opacity:1"
       id="flowRoot4136">
      <path
         style="color:#000000;font-style:normal;font-variant:normal;font-weight:normal;font-stretch:normal;font-size:medium;line-height:125%;font-family:Block3x5;-inkscape-font-specification:Block3x5;text-indent:0;text-align:start;text-decoration:none;text-decoration-line:none;text-decoration-style:solid;text-decoration-color:#000000;letter-spacing:0px;word-spacing:0px;text-transform:none;direction:ltr;block-progression:tb;writing-mode:lr-tb;baseline-shift:baseline;text-anchor:start;white-space:normal;clip-rule:nonzero;display:inline;overflow:visible;visibility:visible;opacity:1;isolation:auto;mix-blend-mode:normal;color-interpolation:sRGB;color-interpolation-filters:linearRGB;solid-color:#000000;solid-opacity:1;fill:#000000;fill-opacity:1;fill-rule:nonzero;stroke:none;stroke-width:1.98677039;stroke-linecap:butt;stroke-linejoin:miter;stroke-miterlimit:4;stroke-dasharray:none;stroke-dashoffset:0;stroke-opacity:1;color-rendering:auto;image-rendering:auto;shape-rendering:auto;text-rendering:auto;enable-background:accumulate"
         d="m 94.90221,59.986328 0,0.994141 0,1.986328 0,3.972656 0,81.955077 28.90817,0 0,-30 1.0918,0 0,30 28.9082,0 0,-88.908202 -58.90817,0 z m 1.98827,1.988281 54.93162,0 0,84.931641 -24.93164,0 0,-30 -5.06836,0 0,30 -24.93162,0 0,-79.966797 0,-3.972656 0,-0.992188 z m 1.98436,1.984375 0,0.994141 0,1.986328 0,77.982427 20.96288,0 0,-30 9.03711,0 0,30 20.96289,0 0,-80.962896 -50.96288,0 z m 1.98827,1.988282 46.98633,0 0,76.986324 -16.98633,0 0,-30 -13.01367,0 0,30 -16.98633,0 0,-75.994137 0,-0.992187 z m 1.98633,1.986328 0,0.99414 0,1.986328 0,70.033208 13.01367,0 0,-30 16.98633,0 0,30 13.01367,0 0,-73.013676 -43.01367,0 z m 1.98828,1.988281 39.03711,0 0,69.037105 -9.03711,0 0,-30 -20.96289,0 0,30 -9.03711,0 0,-68.044918 0,-0.992187 z m 1.98438,1.984375 0,0.994141 0,64.074219 5.06836,0 0,-30 24.93164,0 0,30 5.06836,0 0,-65.06836 -35.06836,0 z m 1.98828,1.988281 31.0918,0 0,61.091799 -1.0918,0 0,-30 -28.9082,0 0,30 -1.0918,0 0,-61.091799 z m 1.0918,1.091797 0,0.994141 0,1.986328 0,3.972656 0,21.955077 28.9082,0 0,-28.908202 -28.9082,0 z m 1.98828,1.988281 24.93164,0 0,24.931641 -24.93164,0 0,-19.966797 0,-3.972656 0,-0.992188 z m 1.98437,1.984375 0,0.994141 0,1.986328 0,17.982422 20.96289,0 0,-20.962891 -20.96289,0 z m 1.98828,1.988282 16.98633,0 0,16.986328 -16.98633,0 0,-15.994141 0,-0.992187 z m 1.98633,1.986328 0,0.99414 0,1.986328 0,10.033204 13.01367,0 0,-13.013672 -13.01367,0 z m 1.98828,1.988281 9.03711,0 0,9.037109 -9.03711,0 0,-8.044922 0,-0.992187 z m 1.98438,1.984375 0,0.994141 0,4.074218 5.06836,0 0,-5.068359 -5.06836,0 z m 1.98828,1.988281 1.0918,0 0,1.091797 -1.0918,0 0,-1.091797 z"
         id="path4145"
         inkscape:connector-curvature="0" />
      <path
         style="color:#000000;font-style:normal;font-variant:normal;font-weight:normal;font-stretch:normal;font-size:medium;line-height:125%;font-family:Block3x5;-inkscape-font-specification:Block3x5;text-indent:0;text-align:start;text-decoration:none;text-decoration-line:none;text-decoration-style:solid;text-decoration-color:#000000;letter-spacing:0px;word-spacing:0px;text-transform:none;direction:ltr;block-progression:tb;writing-mode:lr-tb;baseline-shift:baseline;text-anchor:start;white-space:normal;clip-rule:nonzero;display:inline;overflow:visible;visibility:visible;opacity:1;isolation:auto;mix-blend-mode:normal;color-interpolation:sRGB;color-interpolation-filters:linearRGB;solid-color:#000000;solid-opacity:1;fill:#000000;fill-opacity:1;fill-rule:nonzero;stroke:none;stroke-width:1.98677039;stroke-linecap:butt;stroke-linejoin:miter;stroke-miterlimit:4;stroke-dasharray:none;stroke-dashoffset:0;stroke-opacity:1;color-rendering:auto;image-rendering:auto;shape-rendering:auto;text-rendering:auto;enable-background:accumulate"
         d="m -150.8418,132.66797 0,0.99414 0,1.98633 0,3.97265 0,131.95508 38.90625,0 0,-50 50.000003,0 0,-38.9082 -50.000003,0 0,-11.0918 50.000003,0 0,-38.9082 -88.906253,0 z m 1.98828,1.98828 84.929692,0 0,34.93164 -50.000002,0 0,15.06836 50.000002,0 0,34.93164 -50.000002,0 0,50 -34.92969,0 0,-129.9668 0,-3.97265 0,-0.99219 z m 1.98438,1.98437 0,0.99415 0,1.98632 0,127.98243 30.96094,0 0,-50 49.999997,0 0,-30.9629 -49.999997,0 0,-19.0371 49.999997,0 0,-30.9629 -80.960937,0 z m 1.98828,1.98829 76.984376,0 0,26.98632 -49.999996,0 0,23.01368 49.999996,0 0,26.98632 -49.999996,0 0,50 -26.98438,0 0,-125.99414 0,-0.99218 z m 1.98438,1.98632 0,0.99415 0,1.98632 0,120.03321 23.01562,0 0,-50 50.000001,0 0,-23.01368 -50.000001,0 0,-26.98632 50.000001,0 0,-23.01368 -73.015621,0 z m 1.98828,1.98829 69.039059,0 0,19.0371 -49.999999,0 0,30.9629 49.999999,0 0,19.0371 -49.999999,0 0,50 -19.03906,0 0,-118.04492 0,-0.99218 z m 1.98437,1.98437 0,0.99414 0,114.07422 15.07031,0 0,-50 50.000004,0 0,-15.06836 -50.000004,0 0,-34.93164 50.000004,0 0,-15.06836 -65.070314,0 z m 1.98828,1.98828 61.093753,0 0,11.0918 -50.000003,0 0,38.9082 50.000003,0 0,11.0918 -50.000003,0 0,50 -11.09375,0 0,-111.0918 z"
         id="path4147"
         inkscape:connector-curvature="0" />
      <path
         style="color:#000000;font-style:normal;font-variant:normal;font-weight:normal;font-stretch:normal;font-size:medium;line-height:125%;font-family:Block3x5;-inkscape-font-specification:Block3x5;text-indent:0;text-align:start;text-decoration:none;text-decoration-line:none;text-decoration-style:solid;text-decoration-color:#000000;letter-spacing:0px;word-spacing:0px;text-transform:none;direction:ltr;block-progression:tb;writing-mode:lr-tb;baseline-shift:baseline;text-anchor:start;white-space:normal;clip-rule:nonzero;display:inline;overflow:visible;visibility:visible;opacity:1;isolation:auto;mix-blend-mode:normal;color-interpolation:sRGB;color-interpolation-filters:linearRGB;solid-color:#000000;solid-opacity:1;fill:#000000;fill-opacity:1;fill-rule:nonzero;stroke:none;stroke-width:1.98677039;stroke-linecap:butt;stroke-linejoin:miter;stroke-miterlimit:4;stroke-dasharray:none;stroke-dashoffset:0;stroke-opacity:1;color-rendering:auto;image-rendering:auto;shape-rendering:auto;text-rendering:auto;enable-background:accumulate"
         d="m -60.216797,163.91797 0,0.99414 0,1.98633 0,3.97265 0,100.70508 32.65625,0 0,-37.5 4.84375,0 0,37.5 32.6562501,0 0,-51.4082 -18.75,0 0,-4.8418 18.75,0 0,-51.4082 -70.1562501,0 z m 1.988281,1.98828 66.1796879,0 0,47.43164 -18.7499999,0 0,8.81836 18.7499999,0 0,47.43164 -28.6796879,0 0,-37.5 -8.820312,0 0,37.5 -28.679688,0 0,-98.7168 0,-3.97265 0,-0.99219 z m 1.984375,1.98437 0,0.99415 0,1.98632 0,96.73243 24.710938,0 0,-37.5 12.789062,0 0,37.5 24.7109379,0 0,-43.4629 -18.7499999,0 0,-12.7871 18.7499999,0 0,-43.4629 -62.2109379,0 z m 1.988282,1.98829 58.2343746,0 0,39.48632 -18.7499996,0 0,16.76368 18.7499996,0 0,39.48632 -20.7343746,0 0,-37.5 -16.765625,0 0,37.5 -20.734375,0 0,-94.74414 0,-0.99218 z m 1.984375,1.98632 0,0.99415 0,1.98632 0,88.78321 16.765625,0 0,-37.5 18.75,0 0,-16.76368 -18.75,0 0,-20.73632 20.734375,0 0,18.75 16.7656246,0 0,-35.51368 -54.2656246,0 z m 1.988281,1.98829 50.28906238,0 0,31.5371 -12.78906238,0 0,-18.75 -24.710938,0 0,24.7129 18.75,0 0,12.7871 -18.75,0 0,37.5 -12.789062,0 0,-86.79492 0,-0.99218 z m 1.984375,1.98437 0,0.99414 0,82.82422 8.820312,0 0,-37.5 18.75,0 0,-8.81836 -18.75,0 0,-28.68164 28.679688,0 0,18.75 8.8203124,0 0,-27.56836 -46.3203124,0 z m 1.988281,1.98828 42.3437501,0 0,23.5918 -4.84375,0 0,-18.75 -32.6562501,0 0,32.6582 18.75,0 0,4.8418 -18.75,0 0,37.5 -4.84375,0 0,-79.8418 z m 12.789063,12.78906 0,0.99415 0,1.98632 0,13.78321 16.765625,0 0,-16.76368 -16.765625,0 z m 1.988281,1.98829 12.789062,0 0,12.7871 -12.789062,0 0,-11.79492 0,-0.99218 z m 1.984375,1.98437 0,0.99414 0,7.82422 8.820312,0 0,-8.81836 -8.820312,0 z m 1.988281,1.98828 4.84375,0 0,4.8418 -4.84375,0 0,-4.8418 z m 12.789063,31.53906 0,0.99415 0,1.98632 0,32.53321 16.7656246,0 0,-35.51368 -16.7656246,0 z m 1.988281,1.98829 12.78906238,0 0,31.5371 -12.78906238,0 0,-30.54492 0,-0.99218 z m 1.984375,1.98437 0,0.99414 0,26.57422 8.8203124,0 0,-27.56836 -8.8203124,0 z m 1.9882811,1.98828 4.84375,0 0,23.5918 -4.84375,0 0,-23.5918 z"
         id="path4149"
         inkscape:connector-curvature="0" />
      <path
         style="color:#000000;font-style:normal;font-variant:normal;font-weight:normal;font-stretch:normal;font-size:medium;line-height:125%;font-family:Block3x5;-inkscape-font-specification:Block3x5;text-indent:0;text-align:start;text-decoration:none;text-decoration-line:none;text-decoration-style:solid;text-decoration-color:#000000;letter-spacing:0px;word-spacing:0px;text-transform:none;direction:ltr;block-progression:tb;writing-mode:lr-tb;baseline-shift:baseline;text-anchor:start;white-space:normal;clip-rule:nonzero;display:inline;overflow:visible;visibility:visible;opacity:1;isolation:auto;mix-blend-mode:normal;color-interpolation:sRGB;color-interpolation-filters:linearRGB;solid-color:#000000;solid-opacity:1;fill:#000000;fill-opacity:1;fill-rule:nonzero;stroke:none;stroke-width:1.98677039;stroke-linecap:butt;stroke-linejoin:miter;stroke-miterlimit:4;stroke-dasharray:none;stroke-dashoffset:0;stroke-opacity:1;color-rendering:auto;image-rendering:auto;shape-rendering:auto;text-rendering:auto;enable-background:accumulate"
         d="m 11.658203,163.91797 0,0.99414 0,1.98633 0,3.97265 0,100.70508 70.15625,0 0,-32.6582 -37.5,0 0,-4.8418 37.5,0 0,-32.6582 -37.5,0 0,-4.8418 37.5,0 0,-32.6582 -70.15625,0 z m 1.988281,1.98828 66.179688,0 0,28.68164 -37.5,0 0,8.81836 37.5,0 0,28.68164 -37.5,0 0,8.81836 37.5,0 0,28.68164 -66.179688,0 0,-98.7168 0,-3.97265 0,-0.99219 z m 1.984375,1.98437 0,0.99415 0,1.98632 0,96.73243 62.210938,0 0,-24.7129 -37.5,0 0,-12.7871 37.5,0 0,-24.7129 -37.5,0 0,-12.7871 37.5,0 0,-24.7129 -62.210938,0 z m 1.988282,1.98829 58.234375,0 0,20.73632 -37.5,0 0,16.76368 37.5,0 0,20.73632 -37.5,0 0,16.76368 37.5,0 0,20.73632 -58.234375,0 0,-94.74414 0,-0.99218 z m 1.984375,1.98632 0,0.99415 0,1.98632 0,88.78321 54.265625,0 0,-16.76368 -37.5,0 0,-20.73632 37.5,0 0,-16.76368 -37.5,0 0,-20.73632 37.5,0 0,-16.76368 -54.265625,0 z m 1.988281,1.98829 50.289062,0 0,12.7871 -37.5,0 0,24.7129 37.5,0 0,12.7871 -37.5,0 0,24.7129 37.5,0 0,12.7871 -50.289062,0 0,-86.79492 0,-0.99218 z m 1.984375,1.98437 0,0.99414 0,82.82422 46.320312,0 0,-8.81836 -37.5,0 0,-28.68164 37.5,0 0,-8.81836 -37.5,0 0,-28.68164 37.5,0 0,-8.81836 -46.320312,0 z m 1.988281,1.98828 42.34375,0 0,4.8418 -37.5,0 0,32.6582 37.5,0 0,4.8418 -37.5,0 0,32.6582 37.5,0 0,4.8418 -42.34375,0 0,-79.8418 z"
         id="path4151"
         inkscape:connector-curvature="0" />
      <path
         style="color:#000000;font-style:normal;font-variant:normal;font-weight:normal;font-stretch:normal;font-size:medium;line-height:125%;font-family:Block3x5;-inkscape-font-specification:Block3x5;text-indent:0;text-align:start;text-decoration:none;text-decoration-line:none;text-decoration-style:solid;text-decoration-color:#000000;letter-spacing:0px;word-spacing:0px;text-transform:none;direction:ltr;block-progression:tb;writing-mode:lr-tb;baseline-shift:baseline;text-anchor:start;white-space:normal;clip-rule:nonzero;display:inline;overflow:visible;visibility:visible;opacity:1;isolation:auto;mix-blend-mode:normal;color-interpolation:sRGB;color-interpolation-filters:linearRGB;solid-color:#000000;solid-opacity:1;fill:#000000;fill-opacity:1;fill-rule:nonzero;stroke:none;stroke-width:1.98677039;stroke-linecap:butt;stroke-linejoin:miter;stroke-miterlimit:4;stroke-dasharray:none;stroke-dashoffset:0;stroke-opacity:1;color-rendering:auto;image-rendering:auto;shape-rendering:auto;text-rendering:auto;enable-background:accumulate"
         d="m 83.533203,163.91797 0,0.99414 0,1.98633 0,3.97265 0,25.70508 18.749997,0 0,75 32.65625,0 0,-75 18.75,0 0,-32.6582 -70.156247,0 z m 1.988281,1.98828 66.179686,0 0,28.68164 -18.75,0 0,75 -28.67969,0 0,-75 -18.749996,0 0,-23.7168 0,-3.97265 0,-0.99219 z m 1.984375,1.98437 0,0.99415 0,1.98632 0,21.73243 18.750001,0 0,75 24.71094,0 0,-75 18.75,0 0,-24.7129 -62.210941,0 z m 1.988282,1.98829 58.234379,0 0,20.73632 -18.75,0 0,75 -20.73438,0 0,-75 -18.749999,0 0,-19.74414 0,-0.99218 z m 1.984375,1.98632 0,0.99415 0,1.98632 0,13.78321 18.750004,0 0,75 16.76562,0 0,-75 18.75,0 0,-16.76368 -54.265624,0 z m 1.988281,1.98829 50.289063,0 0,12.7871 -18.75,0 0,75 -12.78906,0 0,-75 -18.750003,0 0,-11.79492 0,-0.99218 z m 1.984375,1.98437 0,0.99414 0,7.82422 18.749998,0 0,75 8.82031,0 0,-75 18.75,0 0,-8.81836 -46.320308,0 z m 1.988281,1.98828 42.343747,0 0,4.8418 -18.75,0 0,75 -4.84375,0 0,-75 -18.749997,0 0,-4.8418 z"
         id="path4153"
         inkscape:connector-curvature="0" />
      <path
         style="color:#000000;font-style:normal;font-variant:normal;font-weight:normal;font-stretch:normal;font-size:medium;line-height:125%;font-family:Block3x5;-inkscape-font-specification:Block3x5;text-indent:0;text-align:start;text-decoration:none;text-decoration-line:none;text-decoration-style:solid;text-decoration-color:#000000;letter-spacing:0px;word-spacing:0px;text-transform:none;direction:ltr;block-progression:tb;writing-mode:lr-tb;baseline-shift:baseline;text-anchor:start;white-space:normal;clip-rule:nonzero;display:inline;overflow:visible;visibility:visible;opacity:1;isolation:auto;mix-blend-mode:normal;color-interpolation:sRGB;color-interpolation-filters:linearRGB;solid-color:#000000;solid-opacity:1;fill:#000000;fill-opacity:1;fill-rule:nonzero;stroke:none;stroke-width:1.98677039;stroke-linecap:butt;stroke-linejoin:miter;stroke-miterlimit:4;stroke-dasharray:none;stroke-dashoffset:0;stroke-opacity:1;color-rendering:auto;image-rendering:auto;shape-rendering:auto;text-rendering:auto;enable-background:accumulate"
         d="m 155.4082,163.91797 0,0.99414 0,1.98633 0,3.97265 0,100.70508 32.65625,0 0,-18.75 4.84375,0 0,18.75 32.65625,0 0,-107.6582 -32.65625,0 0,56.25 -4.84375,0 0,-56.25 -32.65625,0 z m 1.98828,1.98828 28.67969,0 0,56.25 8.82031,0 0,-56.25 28.67969,0 0,103.68164 -28.67969,0 0,-18.75 -8.82031,0 0,18.75 -28.67969,0 0,-98.7168 0,-3.97265 0,-0.99219 z m 1.98438,1.98437 0,0.99415 0,1.98632 0,96.73243 24.71094,0 0,-18.75 12.78906,0 0,18.75 24.71094,0 0,-99.7129 -24.71094,0 0,56.25 -12.78906,0 0,-56.25 -24.71094,0 z m 1.98828,1.98829 20.73438,0 0,56.25 16.76562,0 0,-56.25 20.73438,0 0,95.73632 -20.73438,0 0,-18.75 -16.76562,0 0,18.75 -20.73438,0 0,-94.74414 0,-0.99218 z m 1.98438,1.98632 0,0.99415 0,1.98632 0,88.78321 16.76562,0 0,-18.75 20.73438,0 0,18.75 16.76562,0 0,-91.76368 -16.76562,0 0,56.25 -20.73438,0 0,-56.25 -16.76562,0 z m 1.98828,1.98829 12.78906,0 0,56.25 24.71094,0 0,-56.25 12.78906,0 0,87.7871 -12.78906,0 0,-18.75 -24.71094,0 0,18.75 -12.78906,0 0,-86.79492 0,-0.99218 z m 1.98437,1.98437 0,0.99414 0,82.82422 8.82031,0 0,-18.75 28.67969,0 0,18.75 8.82031,0 0,-83.81836 -8.82031,0 0,56.25 -28.67969,0 0,-56.25 -8.82031,0 z m 1.98828,1.98828 4.84375,0 0,56.25 32.65625,0 0,-56.25 4.84375,0 0,79.8418 -4.84375,0 0,-18.75 -32.65625,0 0,18.75 -4.84375,0 0,-79.8418 z"
         id="path4155"
         inkscape:connector-curvature="0" />
      <path
         style="color:#000000;font-style:normal;font-variant:normal;font-weight:normal;font-stretch:normal;font-size:medium;line-height:125%;font-family:Block3x5;-inkscape-font-specification:Block3x5;text-indent:0;text-align:start;text-decoration:none;text-decoration-line:none;text-decoration-style:solid;text-decoration-color:#000000;letter-spacing:0px;word-spacing:0px;text-transform:none;direction:ltr;block-progression:tb;writing-mode:lr-tb;baseline-shift:baseline;text-anchor:start;white-space:normal;clip-rule:nonzero;display:inline;overflow:visible;visibility:visible;opacity:1;isolation:auto;mix-blend-mode:normal;color-interpolation:sRGB;color-interpolation-filters:linearRGB;solid-color:#000000;solid-opacity:1;fill:#000000;fill-opacity:1;fill-rule:nonzero;stroke:none;stroke-width:1.98677039;stroke-linecap:butt;stroke-linejoin:miter;stroke-miterlimit:4;stroke-dasharray:none;stroke-dashoffset:0;stroke-opacity:1;color-rendering:auto;image-rendering:auto;shape-rendering:auto;text-rendering:auto;enable-background:accumulate"
         d="m 227.2832,163.91797 0,0.99414 0,1.98633 0,3.97265 0,100.70508 70.15625,0 0,-107.6582 -70.15625,0 z m 1.98828,1.98828 66.17969,0 0,103.68164 -66.17969,0 0,-98.7168 0,-3.97265 0,-0.99219 z m 1.98438,1.98437 0,0.99415 0,1.98632 0,96.73243 62.21094,0 0,-99.7129 -62.21094,0 z m 1.98828,1.98829 58.23438,0 0,95.73632 -58.23438,0 0,-94.74414 0,-0.99218 z m 1.98438,1.98632 0,0.99415 0,1.98632 0,88.78321 54.26562,0 0,-91.76368 -54.26562,0 z m 1.98828,1.98829 50.28906,0 0,87.7871 -50.28906,0 0,-86.79492 0,-0.99218 z m 1.98437,1.98437 0,0.99414 0,82.82422 46.32031,0 0,-83.81836 -46.32031,0 z m 1.98828,1.98828 42.34375,0 0,79.8418 -42.34375,0 0,-79.8418 z m 4.84375,4.8418 0,0.99414 0,1.98633 0,3.97265 0,63.20508 32.65625,0 0,-70.1582 -32.65625,0 z m 1.98828,1.98828 28.67969,0 0,66.18164 -28.67969,0 0,-61.2168 0,-3.97265 0,-0.99219 z m 1.98438,1.98437 0,0.99415 0,1.98632 0,59.23243 24.71094,0 0,-62.2129 -24.71094,0 z m 1.98828,1.98829 20.73438,0 0,58.23632 -20.73438,0 0,-57.24414 0,-0.99218 z m 1.98438,1.98632 0,0.99415 0,1.98632 0,51.28321 16.76562,0 0,-54.26368 -16.76562,0 z m 1.98828,1.98829 12.78906,0 0,50.2871 -12.78906,0 0,-49.29492 0,-0.99218 z m 1.98437,1.98437 0,0.99414 0,45.32422 8.82031,0 0,-46.31836 -8.82031,0 z m 1.98828,1.98828 4.84375,0 0,42.3418 -4.84375,0 0,-42.3418 z"
         id="path4157"
         inkscape:connector-curvature="0" />
      <path
         style="color:#000000;font-style:normal;font-variant:normal;font-weight:normal;font-stretch:normal;font-size:medium;line-height:125%;font-family:Block3x5;-inkscape-font-specification:Block3x5;text-indent:0;text-align:start;text-decoration:none;text-decoration-line:none;text-decoration-style:solid;text-decoration-color:#000000;letter-spacing:0px;word-spacing:0px;text-transform:none;direction:ltr;block-progression:tb;writing-mode:lr-tb;baseline-shift:baseline;text-anchor:start;white-space:normal;clip-rule:nonzero;display:inline;overflow:visible;visibility:visible;opacity:1;isolation:auto;mix-blend-mode:normal;color-interpolation:sRGB;color-interpolation-filters:linearRGB;solid-color:#000000;solid-opacity:1;fill:#000000;fill-opacity:1;fill-rule:nonzero;stroke:none;stroke-width:1.98677039;stroke-linecap:butt;stroke-linejoin:miter;stroke-miterlimit:4;stroke-dasharray:none;stroke-dashoffset:0;stroke-opacity:1;color-rendering:auto;image-rendering:auto;shape-rendering:auto;text-rendering:auto;enable-background:accumulate"
         d="m 299.1582,163.91797 0,0.99414 0,1.98633 0,3.97265 0,100.70508 32.65625,0 0,-37.5 4.84375,0 0,37.5 32.65625,0 0,-51.4082 -18.75,0 0,-4.8418 18.75,0 0,-51.4082 -70.15625,0 z m 1.98828,1.98828 66.17969,0 0,47.43164 -18.75,0 0,8.81836 18.75,0 0,47.43164 -28.67969,0 0,-37.5 -8.82031,0 0,37.5 -28.67969,0 0,-98.7168 0,-3.97265 0,-0.99219 z m 1.98438,1.98437 0,0.99415 0,1.98632 0,96.73243 24.71094,0 0,-37.5 12.78906,0 0,37.5 24.71094,0 0,-43.4629 -18.75,0 0,-12.7871 18.75,0 0,-43.4629 -62.21094,0 z m 1.98828,1.98829 58.23438,0 0,39.48632 -18.75,0 0,16.76368 18.75,0 0,39.48632 -20.73438,0 0,-37.5 -16.76562,0 0,37.5 -20.73438,0 0,-94.74414 0,-0.99218 z m 1.98438,1.98632 0,0.99415 0,1.98632 0,88.78321 16.76562,0 0,-37.5 18.75,0 0,-16.76368 -18.75,0 0,-20.73632 20.73438,0 0,18.75 16.76562,0 0,-35.51368 -54.26562,0 z m 1.98828,1.98829 50.28906,0 0,31.5371 -12.78906,0 0,-18.75 -24.71094,0 0,24.7129 18.75,0 0,12.7871 -18.75,0 0,37.5 -12.78906,0 0,-86.79492 0,-0.99218 z m 1.98437,1.98437 0,0.99414 0,82.82422 8.82031,0 0,-37.5 18.75,0 0,-8.81836 -18.75,0 0,-28.68164 28.67969,0 0,18.75 8.82031,0 0,-27.56836 -46.32031,0 z m 1.98828,1.98828 42.34375,0 0,23.5918 -4.84375,0 0,-18.75 -32.65625,0 0,32.6582 18.75,0 0,4.8418 -18.75,0 0,37.5 -4.84375,0 0,-79.8418 z m 12.78907,12.78906 0,0.99415 0,1.98632 0,13.78321 16.76562,0 0,-16.76368 -16.76562,0 z m 1.98828,1.98829 12.78906,0 0,12.7871 -12.78906,0 0,-11.79492 0,-0.99218 z m 1.98437,1.98437 0,0.99414 0,7.82422 8.82031,0 0,-8.81836 -8.82031,0 z m 1.98828,1.98828 4.84375,0 0,4.8418 -4.84375,0 0,-4.8418 z m 12.78907,31.53906 0,0.99415 0,1.98632 0,32.53321 16.76562,0 0,-35.51368 -16.76562,0 z m 1.98828,1.98829 12.78906,0 0,31.5371 -12.78906,0 0,-30.54492 0,-0.99218 z m 1.98437,1.98437 0,0.99414 0,26.57422 8.82031,0 0,-27.56836 -8.82031,0 z m 1.98828,1.98828 4.84375,0 0,23.5918 -4.84375,0 0,-23.5918 z"
         id="path4159"
         inkscape:connector-curvature="0" />
      <path
         style="color:#000000;font-style:normal;font-variant:normal;font-weight:normal;font-stretch:normal;font-size:medium;line-height:125%;font-family:Block3x5;-inkscape-font-specification:Block3x5;text-indent:0;text-align:start;text-decoration:none;text-decoration-line:none;text-decoration-style:solid;text-decoration-color:#000000;letter-spacing:0px;word-spacing:0px;text-transform:none;direction:ltr;block-progression:tb;writing-mode:lr-tb;baseline-shift:baseline;text-anchor:start;white-space:normal;clip-rule:nonzero;display:inline;overflow:visible;visibility:visible;opacity:1;isolation:auto;mix-blend-mode:normal;color-interpolation:sRGB;color-interpolation-filters:linearRGB;solid-color:#000000;solid-opacity:1;fill:#000000;fill-opacity:1;fill-rule:nonzero;stroke:none;stroke-width:1.98677039;stroke-linecap:butt;stroke-linejoin:miter;stroke-miterlimit:4;stroke-dasharray:none;stroke-dashoffset:0;stroke-opacity:1;color-rendering:auto;image-rendering:auto;shape-rendering:auto;text-rendering:auto;enable-background:accumulate"
         d="m 371.0332,163.91797 0,0.99414 0,1.98633 0,3.97265 0,100.70508 32.65625,0 0,-37.5 4.84375,0 0,37.5 32.65625,0 0,-51.4082 -18.75,0 0,-23.5918 18.75,0 0,-32.6582 -32.65625,0 0,18.75 -4.84375,0 0,-18.75 -32.65625,0 z m 1.98828,1.98828 28.67969,0 0,18.75 8.82031,0 0,-18.75 28.67969,0 0,28.68164 -18.75,0 0,27.56836 18.75,0 0,47.43164 -28.67969,0 0,-37.5 -8.82031,0 0,37.5 -28.67969,0 0,-98.7168 0,-3.97265 0,-0.99219 z m 1.98438,1.98437 0,0.99415 0,1.98632 0,96.73243 24.71094,0 0,-37.5 12.78906,0 0,37.5 24.71094,0 0,-43.4629 -18.75,0 0,-31.5371 18.75,0 0,-24.7129 -24.71094,0 0,18.75 -12.78906,0 0,-18.75 -24.71094,0 z m 1.98828,1.98829 20.73438,0 0,18.75 16.76562,0 0,-18.75 20.73438,0 0,20.73632 -18.75,0 0,35.51368 18.75,0 0,39.48632 -20.73438,0 0,-37.5 -16.76562,0 0,37.5 -20.73438,0 0,-94.74414 0,-0.99218 z m 1.98438,1.98632 0,0.99415 0,1.98632 0,88.78321 16.76562,0 0,-37.5 18.75,0 0,-35.51368 -18.75,0 0,-18.75 -16.76562,0 z m 37.5,0 0,0.99415 0,1.98632 0,13.78321 16.76562,0 0,-16.76368 -16.76562,0 z m -35.51172,1.98829 12.78906,0 0,18.75 18.75,0 0,31.5371 -18.75,0 0,37.5 -12.78906,0 0,-86.79492 0,-0.99218 z m 37.5,0 12.78906,0 0,12.7871 -12.78906,0 0,-11.79492 0,-0.99218 z m -35.51563,1.98437 0,0.99414 0,82.82422 8.82031,0 0,-37.5 18.75,0 0,-27.56836 -18.75,0 0,-18.75 -8.82031,0 z m 37.5,0 0,0.99414 0,7.82422 8.82031,0 0,-8.81836 -8.82031,0 z m -35.51172,1.98828 4.84375,0 0,18.75 18.75,0 0,23.5918 -18.75,0 0,37.5 -4.84375,0 0,-79.8418 z m 37.5,0 4.84375,0 0,4.8418 -4.84375,0 0,-4.8418 z m -5.96093,50.28906 0,0.99415 0,1.98632 0,32.53321 16.76562,0 0,-35.51368 -16.76562,0 z m 1.98828,1.98829 12.78906,0 0,31.5371 -12.78906,0 0,-30.54492 0,-0.99218 z m 1.98437,1.98437 0,0.99414 0,26.57422 8.82031,0 0,-27.56836 -8.82031,0 z m 1.98828,1.98828 4.84375,0 0,23.5918 -4.84375,0 0,-23.5918 z"
         id="path4161"
         inkscape:connector-curvature="0" />
      <path
         style="color:#000000;font-style:normal;font-variant:normal;font-weight:normal;font-stretch:normal;font-size:medium;line-height:125%;font-family:Block3x5;-inkscape-font-specification:Block3x5;text-indent:0;text-align:start;text-decoration:none;text-decoration-line:none;text-decoration-style:solid;text-decoration-color:#000000;letter-spacing:0px;word-spacing:0px;text-transform:none;direction:ltr;block-progression:tb;writing-mode:lr-tb;baseline-shift:baseline;text-anchor:start;white-space:normal;clip-rule:nonzero;display:inline;overflow:visible;visibility:visible;opacity:1;isolation:auto;mix-blend-mode:normal;color-interpolation:sRGB;color-interpolation-filters:linearRGB;solid-color:#000000;solid-opacity:1;fill:#000000;fill-opacity:1;fill-rule:nonzero;stroke:none;stroke-width:1.98677039;stroke-linecap:butt;stroke-linejoin:miter;stroke-miterlimit:4;stroke-dasharray:none;stroke-dashoffset:0;stroke-opacity:1;color-rendering:auto;image-rendering:auto;shape-rendering:auto;text-rendering:auto;enable-background:accumulate"
         d="m 114.8418,282.22461 0,0.99414 0,1.98633 0,3.97461 0,63.20312 47.6582,0 0,-70.1582 -47.6582,0 z m 1.98828,1.98828 43.68164,0 0,66.18164 -43.68164,0 0,-61.21484 0,-3.97461 0,-0.99219 z m 1.98437,1.98438 0,0.99414 0,1.98828 0,59.23047 39.71289,0 0,-62.21289 -39.71289,0 z m 1.98828,1.98828 35.73633,0 0,58.23633 -35.73633,0 0,-57.24219 0,-0.99414 z m 1.98633,1.98633 0,0.99414 0,1.98632 0,51.28321 31.76367,0 0,-54.26367 -31.76367,0 z m 1.98828,1.98828 27.78711,0 0,50.28711 -27.78711,0 0,-49.29493 0,-0.99218 z m 5.28711,5.28711 0,0.99414 0,1.98828 0,36.73047 17.21289,0 0,-39.71289 -17.21289,0 z m 1.98828,1.98828 13.23633,0 0,35.73633 -13.23633,0 0,-34.74219 0,-0.99414 z m 1.98633,1.98633 0,0.99414 0,1.98632 0,28.78321 9.26367,0 0,-31.76367 -9.26367,0 z m 1.98828,1.98828 5.28711,0 0,27.78711 -5.28711,0 0,-26.79493 0,-0.99218 z"
         id="path4163"
         inkscape:connector-curvature="0" />
      <path
         style="color:#000000;font-style:normal;font-variant:normal;font-weight:normal;font-stretch:normal;font-size:medium;line-height:125%;font-family:Block3x5;-inkscape-font-specification:Block3x5;text-indent:0;text-align:start;text-decoration:none;text-decoration-line:none;text-decoration-style:solid;text-decoration-color:#000000;letter-spacing:0px;word-spacing:0px;text-transform:none;direction:ltr;block-progression:tb;writing-mode:lr-tb;baseline-shift:baseline;text-anchor:start;white-space:normal;clip-rule:nonzero;display:inline;overflow:visible;visibility:visible;opacity:1;isolation:auto;mix-blend-mode:normal;color-interpolation:sRGB;color-interpolation-filters:linearRGB;solid-color:#000000;solid-opacity:1;fill:#000000;fill-opacity:1;fill-rule:nonzero;stroke:none;stroke-width:1.98677039;stroke-linecap:butt;stroke-linejoin:miter;stroke-miterlimit:4;stroke-dasharray:none;stroke-dashoffset:0;stroke-opacity:1;color-rendering:auto;image-rendering:auto;shape-rendering:auto;text-rendering:auto;enable-background:accumulate"
         d="m 159.95358,282.22461 0,0.99414 0,1.98633 0,3.97461 0,63.20312 25.1582,0 0,-22.5 22.5,0 0,-23.49414 0,-0.66992 0,-23.49414 -47.6582,0 z m 1.98828,1.98828 43.68164,0 0,21.50586 0,0.66992 0,21.50586 -22.5,0 0,22.5 -21.18164,0 0,-61.21484 0,-3.97461 0,-0.99219 z m 1.98437,1.98438 0,0.99414 0,1.98828 0,59.23047 17.21289,0 0,-22.5 22.5,0 0,-17.21289 -22.5,0 0,-5.28711 22.5,0 0,-17.21289 -39.71289,0 z m 1.98828,1.98828 35.73633,0 0,13.23633 -22.5,0 0,9.26367 22.5,0 0,13.23633 -22.5,0 0,22.5 -13.23633,0 0,-57.24219 0,-0.99414 z m 1.98633,1.98633 0,0.99414 0,1.98632 0,51.28321 9.26367,0 0,-22.5 22.5,0 0,-9.26367 -22.5,0 0,-13.23633 22.5,0 0,-9.26367 -31.76367,0 z m 1.98828,1.98828 27.78711,0 0,5.28711 -22.5,0 0,17.21289 22.5,0 0,5.28711 -22.5,0 0,22.5 -5.28711,0 0,-49.29493 0,-0.99218 z"
         id="path4165"
         inkscape:connector-curvature="0" />
      <path
         style="color:#000000;font-style:normal;font-variant:normal;font-weight:normal;font-stretch:normal;font-size:medium;line-height:125%;font-family:Block3x5;-inkscape-font-specification:Block3x5;text-indent:0;text-align:start;text-decoration:none;text-decoration-line:none;text-decoration-style:solid;text-decoration-color:#000000;letter-spacing:0px;word-spacing:0px;text-transform:none;direction:ltr;block-progression:tb;writing-mode:lr-tb;baseline-shift:baseline;text-anchor:start;white-space:normal;clip-rule:nonzero;display:inline;overflow:visible;visibility:visible;opacity:1;isolation:auto;mix-blend-mode:normal;color-interpolation:sRGB;color-interpolation-filters:linearRGB;solid-color:#000000;solid-opacity:1;fill:#000000;fill-opacity:1;fill-rule:nonzero;stroke:none;stroke-width:1.98677039;stroke-linecap:butt;stroke-linejoin:miter;stroke-miterlimit:4;stroke-dasharray:none;stroke-dashoffset:0;stroke-opacity:1;color-rendering:auto;image-rendering:auto;shape-rendering:auto;text-rendering:auto;enable-background:accumulate"
         d="m -112.31272,336.70898 0,0.99414 0,1.98633 0,3.97461 0,81.95313 49.999919,0 0,11.09179 -49.999919,0 0,38.90821 88.908122,0 0,-88.90821 -49.999982,0 0,-11.09179 49.999982,0 0,-38.90821 -88.908122,0 z m 1.98828,1.98829 84.931561,0 0,34.93164 -49.999976,0 0,15.06836 49.999976,0 0,84.93164 -84.931561,0 0,-34.93164 49.999921,0 0,-15.06836 -49.999921,0 0,-79.96485 0,-3.97461 0,-0.99218 z m 1.98438,1.98437 0,0.99414 0,1.98828 0,77.98047 49.999916,0 0,19.03711 -49.999916,0 0,30.96289 80.962806,0 0,-80.96289 -49.999971,0 0,-19.03711 49.999971,0 0,-30.96289 -80.962806,0 z m 1.98828,1.98828 76.986245,0 0,26.98633 -49.999965,0 0,23.01367 49.999965,0 0,76.98633 -76.986245,0 0,-26.98633 49.999917,0 0,-23.01367 -49.999917,0 0,-75.99219 0,-0.99414 z m 1.98633,1.98633 0,0.99414 0,1.98633 0,70.0332 49.999915,0 0,26.98633 -49.999915,0 0,23.01367 73.013587,0 0,-73.01367 -49.999962,0 0,-26.98633 49.999962,0 0,-23.01367 -73.013587,0 z m 1.98828,1.98828 69.037026,0 0,19.03711 -49.999956,0 0,30.96289 49.999956,0 0,69.03711 -69.037026,0 0,-19.03711 49.999916,0 0,-30.96289 -49.999916,0 0,-68.04492 0,-0.99219 z m 1.98437,1.98438 0,0.99414 0,64.07422 49.999921,0 0,34.93164 -49.999921,0 0,15.06836 65.068281,0 0,-65.06836 -49.999956,0 0,-34.93164 49.999956,0 0,-15.06836 -65.068281,0 z m 1.98827,1.98828 61.091729,0 0,11.09179 -49.999954,0 0,38.90821 49.999954,0 0,61.09179 -61.091729,0 0,-11.09179 49.999932,0 0,-38.90821 -49.999932,0 0,-61.09179 z"
         id="path4167"
         inkscape:connector-curvature="0" />
      <path
         style="color:#000000;font-style:normal;font-variant:normal;font-weight:normal;font-stretch:normal;font-size:medium;line-height:125%;font-family:Block3x5;-inkscape-font-specification:Block3x5;text-indent:0;text-align:start;text-decoration:none;text-decoration-line:none;text-decoration-style:solid;text-decoration-color:#000000;letter-spacing:0px;word-spacing:0px;text-transform:none;direction:ltr;block-progression:tb;writing-mode:lr-tb;baseline-shift:baseline;text-anchor:start;white-space:normal;clip-rule:nonzero;display:inline;overflow:visible;visibility:visible;opacity:1;isolation:auto;mix-blend-mode:normal;color-interpolation:sRGB;color-interpolation-filters:linearRGB;solid-color:#000000;solid-opacity:1;fill:#000000;fill-opacity:1;fill-rule:nonzero;stroke:none;stroke-width:1.98677039;stroke-linecap:butt;stroke-linejoin:miter;stroke-miterlimit:4;stroke-dasharray:none;stroke-dashoffset:0;stroke-opacity:1;color-rendering:auto;image-rendering:auto;shape-rendering:auto;text-rendering:auto;enable-background:accumulate"
         d="m -21.687801,367.95898 0,0.99414 0,1.98633 0,3.97461 0,25.70313 18.7500018,0 0,75 32.6582042,0 0,-75 18.749997,0 0,-32.65821 -70.158203,0 z m 1.988282,1.98829 66.18164,0 0,28.68164 -18.749996,0 0,75 -28.681642,0 0,-75 -18.750002,0 0,-23.71485 0,-3.97461 0,-0.99218 z m 1.984375,1.98437 0,0.99414 0,1.98828 0,21.73047 18.7500024,0 0,75 24.7128916,0 0,-75 18.749996,0 0,-24.71289 -62.21289,0 z m 1.988281,1.98828 58.236328,0 0,20.73633 -18.749996,0 0,75 -20.736329,0 0,-75 -18.750003,0 0,-19.74219 0,-0.99414 z m 1.986328,1.98633 0,0.99414 0,1.98633 0,13.7832 18.7500032,0 0,75 16.7636728,0 0,-75 18.749997,0 0,-16.76367 -54.263673,0 z m 1.988281,1.98828 50.287111,0 0,12.78711 -18.749997,0 0,75 -12.7871104,0 0,-75 -18.7500036,0 0,-11.79492 0,-0.99219 z m 1.9843752,1.98438 0,0.99414 0,7.82422 18.7500038,0 0,75 8.81836,0 0,-75 18.749997,0 0,-8.81836 -46.3183608,0 z m 1.9882814,1.98828 42.3417994,0 0,4.84179 -18.749999,0 0,75 -4.841797,0 0,-75 -18.7500034,0 0,-4.84179 z"
         id="path4169"
         inkscape:connector-curvature="0" />
      <path
         style="color:#000000;font-style:normal;font-variant:normal;font-weight:normal;font-stretch:normal;font-size:medium;line-height:125%;font-family:Block3x5;-inkscape-font-specification:Block3x5;text-indent:0;text-align:start;text-decoration:none;text-decoration-line:none;text-decoration-style:solid;text-decoration-color:#000000;letter-spacing:0px;word-spacing:0px;text-transform:none;direction:ltr;block-progression:tb;writing-mode:lr-tb;baseline-shift:baseline;text-anchor:start;white-space:normal;clip-rule:nonzero;display:inline;overflow:visible;visibility:visible;opacity:1;isolation:auto;mix-blend-mode:normal;color-interpolation:sRGB;color-interpolation-filters:linearRGB;solid-color:#000000;solid-opacity:1;fill:#000000;fill-opacity:1;fill-rule:nonzero;stroke:none;stroke-width:1.98677039;stroke-linecap:butt;stroke-linejoin:miter;stroke-miterlimit:4;stroke-dasharray:none;stroke-dashoffset:0;stroke-opacity:1;color-rendering:auto;image-rendering:auto;shape-rendering:auto;text-rendering:auto;enable-background:accumulate"
         d="m 50.187199,367.95898 0,0.99414 0,1.98633 0,3.97461 0,100.70313 32.658203,0 0,-37.5 4.841797,0 0,37.5 32.658251,0 0,-107.65821 -70.158251,0 z m 1.988282,1.98829 66.181679,0 0,103.68164 -28.681679,0 0,-37.5 -8.81836,0 0,37.5 -28.68164,0 0,-98.71485 0,-3.97461 0,-0.99218 z m 1.984375,1.98437 0,0.99414 0,1.98828 0,96.73047 24.71289,0 0,-37.5 12.78711,0 0,37.5 24.712934,0 0,-99.71289 -62.212934,0 z m 1.988281,1.98828 58.236363,0 0,95.73633 -20.736363,0 0,-37.5 -16.763672,0 0,37.5 -20.736328,0 0,-94.74219 0,-0.99414 z m 1.986328,1.98633 0,0.99414 0,1.98633 0,88.7832 16.763672,0 0,-37.5 20.736328,0 0,37.5 16.763705,0 0,-91.76367 -54.263705,0 z m 1.988281,1.98828 50.287144,0 0,87.78711 -12.787144,0 0,-37.5 -24.71289,0 0,37.5 -12.78711,0 0,-86.79492 0,-0.99219 z m 1.984375,1.98438 0,0.99414 0,82.82422 8.81836,0 0,-37.5 28.68164,0 0,37.5 8.818389,0 0,-83.81836 -46.318389,0 z m 1.988281,1.98828 42.341818,0 0,79.84179 -4.84181,0 0,-37.5 -32.658211,0 0,37.5 -4.841797,0 0,-79.84179 z m 4.841797,4.84179 0,0.99414 0,1.98633 0,3.97461 0,25.70313 32.658211,0 0,-32.65821 -32.658211,0 z m 1.988282,1.98829 28.68164,0 0,28.68164 -28.68164,0 0,-23.71485 0,-3.97461 0,-0.99218 z m 1.984375,1.98437 0,0.99414 0,1.98828 0,21.73047 24.71289,0 0,-24.71289 -24.71289,0 z m 1.988281,1.98828 20.736328,0 0,20.73633 -20.736328,0 0,-19.74219 0,-0.99414 z m 1.986328,1.98633 0,0.99414 0,1.98633 0,13.7832 16.763672,0 0,-16.76367 -16.763672,0 z m 1.988281,1.98828 12.78711,0 0,12.78711 -12.78711,0 0,-11.79492 0,-0.99219 z m 1.984375,1.98438 0,0.99414 0,7.82422 8.81836,0 0,-8.81836 -8.81836,0 z m 1.988281,1.98828 4.841797,0 0,4.84179 -4.841797,0 0,-4.84179 z"
         id="path4171"
         inkscape:connector-curvature="0" />
      <path
         style="color:#000000;font-style:normal;font-variant:normal;font-weight:normal;font-stretch:normal;font-size:medium;line-height:125%;font-family:Block3x5;-inkscape-font-specification:Block3x5;text-indent:0;text-align:start;text-decoration:none;text-decoration-line:none;text-decoration-style:solid;text-decoration-color:#000000;letter-spacing:0px;word-spacing:0px;text-transform:none;direction:ltr;block-progression:tb;writing-mode:lr-tb;baseline-shift:baseline;text-anchor:start;white-space:normal;clip-rule:nonzero;display:inline;overflow:visible;visibility:visible;opacity:1;isolation:auto;mix-blend-mode:normal;color-interpolation:sRGB;color-interpolation-filters:linearRGB;solid-color:#000000;solid-opacity:1;fill:#000000;fill-opacity:1;fill-rule:nonzero;stroke:none;stroke-width:1.98677039;stroke-linecap:butt;stroke-linejoin:miter;stroke-miterlimit:4;stroke-dasharray:none;stroke-dashoffset:0;stroke-opacity:1;color-rendering:auto;image-rendering:auto;shape-rendering:auto;text-rendering:auto;enable-background:accumulate"
         d="m 122.06225,367.95898 0,0.99414 0,1.98633 0,3.97461 0,100.70313 32.65823,0 0,-37.5 4.8418,0 0,37.5 32.6582,0 0,-51.40821 -18.75,0 0,-4.84179 18.75,0 0,-51.40821 -70.15823,0 z m 1.98829,1.98829 66.18166,0 0,47.43164 -18.75,0 0,8.81836 18.75,0 0,47.43164 -28.68164,0 0,-37.5 -8.81836,0 0,37.5 -28.68166,0 0,-98.71485 0,-3.97461 0,-0.99218 z m 1.98438,1.98437 0,0.99414 0,1.98828 0,96.73047 24.71291,0 0,-37.5 12.78711,0 0,37.5 24.71289,0 0,-43.46289 -18.75,0 0,-12.78711 18.75,0 0,-43.46289 -62.21291,0 z m 1.98828,1.98828 58.23635,0 0,39.48633 -18.75,0 0,16.76367 18.75,0 0,39.48633 -20.73633,0 0,-37.5 -16.76367,0 0,37.5 -20.73635,0 0,-94.74219 0,-0.99414 z m 1.98633,1.98633 0,0.99414 0,1.98633 0,88.7832 16.76369,0 0,-37.5 18.75,0 0,-16.76367 -18.75,0 0,-20.73633 20.73633,0 0,18.75 16.76367,0 0,-35.51367 -54.26369,0 z m 1.98829,1.98828 50.28712,0 0,31.53711 -12.78711,0 0,-18.75 -24.71289,0 0,24.71289 18.75,0 0,12.78711 -18.75,0 0,37.5 -12.78712,0 0,-86.79492 0,-0.99219 z m 1.98438,1.98438 0,0.99414 0,82.82422 8.81836,0 0,-37.5 18.75,0 0,-8.81836 -18.75,0 0,-28.68164 28.68164,0 0,18.75 8.81836,0 0,-27.56836 -46.31836,0 z m 1.98828,1.98828 42.3418,0 0,23.59179 -4.8418,0 0,-18.75 -32.6582,0 0,32.65821 18.75,0 0,4.84179 -18.75,0 0,37.5 -4.8418,0 0,-79.84179 z m 12.78907,12.78906 0,0.99414 0,1.98633 0,13.7832 16.76367,0 0,-16.76367 -16.76367,0 z m 1.98828,1.98828 12.78711,0 0,12.78711 -12.78711,0 0,-11.79492 0,-0.99219 z m 1.98437,1.98438 0,0.99414 0,7.82422 8.81836,0 0,-8.81836 -8.81836,0 z m 1.98828,1.98828 4.8418,0 0,4.84179 -4.8418,0 0,-4.84179 z m 12.78907,31.53906 0,0.99414 0,1.98633 0,32.5332 16.76367,0 0,-35.51367 -16.76367,0 z m 1.98828,1.98828 12.78711,0 0,31.53711 -12.78711,0 0,-30.54492 0,-0.99219 z m 1.98437,1.98438 0,0.99414 0,26.57422 8.81836,0 0,-27.56836 -8.81836,0 z m 1.98828,1.98828 4.8418,0 0,23.59179 -4.8418,0 0,-23.59179 z"
         id="path4173"
         inkscape:connector-curvature="0" />
      <path
         style="color:#000000;font-style:normal;font-variant:normal;font-weight:normal;font-stretch:normal;font-size:medium;line-height:125%;font-family:Block3x5;-inkscape-font-specification:Block3x5;text-indent:0;text-align:start;text-decoration:none;text-decoration-line:none;text-decoration-style:solid;text-decoration-color:#000000;letter-spacing:0px;word-spacing:0px;text-transform:none;direction:ltr;block-progression:tb;writing-mode:lr-tb;baseline-shift:baseline;text-anchor:start;white-space:normal;clip-rule:nonzero;display:inline;overflow:visible;visibility:visible;opacity:1;isolation:auto;mix-blend-mode:normal;color-interpolation:sRGB;color-interpolation-filters:linearRGB;solid-color:#000000;solid-opacity:1;fill:#000000;fill-opacity:1;fill-rule:nonzero;stroke:none;stroke-width:1.98677039;stroke-linecap:butt;stroke-linejoin:miter;stroke-miterlimit:4;stroke-dasharray:none;stroke-dashoffset:0;stroke-opacity:1;color-rendering:auto;image-rendering:auto;shape-rendering:auto;text-rendering:auto;enable-background:accumulate"
         d="m 193.93728,367.95898 0,0.99414 0,1.98633 0,3.97461 0,100.70313 32.6582,0 0,-37.5 37.5,0 0,-32.65821 -37.5,0 0,-4.84179 37.5,0 0,-32.65821 -70.1582,0 z m 1.98828,1.98829 66.18164,0 0,28.68164 -37.5,0 0,8.81836 37.5,0 0,28.68164 -37.5,0 0,37.5 -28.68164,0 0,-98.71485 0,-3.97461 0,-0.99218 z m 1.98438,1.98437 0,0.99414 0,1.98828 0,96.73047 24.71289,0 0,-37.5 37.5,0 0,-24.71289 -37.5,0 0,-12.78711 37.5,0 0,-24.71289 -62.21289,0 z m 1.98828,1.98828 58.23633,0 0,20.73633 -37.5,0 0,16.76367 37.5,0 0,20.73633 -37.5,0 0,37.5 -20.73633,0 0,-94.74219 0,-0.99414 z m 1.98633,1.98633 0,0.99414 0,1.98633 0,88.7832 16.76367,0 0,-37.5 37.5,0 0,-16.76367 -37.5,0 0,-20.73633 37.5,0 0,-16.76367 -54.26367,0 z m 1.98828,1.98828 50.28711,0 0,12.78711 -37.5,0 0,24.71289 37.5,0 0,12.78711 -37.5,0 0,37.5 -12.78711,0 0,-86.79492 0,-0.99219 z m 1.98437,1.98438 0,0.99414 0,82.82422 8.81836,0 0,-37.5 37.5,0 0,-8.81836 -37.5,0 0,-28.68164 37.5,0 0,-8.81836 -46.31836,0 z m 1.98828,1.98828 42.3418,0 0,4.84179 -37.5,0 0,32.65821 37.5,0 0,4.84179 -37.5,0 0,37.5 -4.8418,0 0,-79.84179 z"
         id="path4175"
         inkscape:connector-curvature="0" />
      <path
         style="color:#000000;font-style:normal;font-variant:normal;font-weight:normal;font-stretch:normal;font-size:medium;line-height:125%;font-family:Block3x5;-inkscape-font-specification:Block3x5;text-indent:0;text-align:start;text-decoration:none;text-decoration-line:none;text-decoration-style:solid;text-decoration-color:#000000;letter-spacing:0px;word-spacing:0px;text-transform:none;direction:ltr;block-progression:tb;writing-mode:lr-tb;baseline-shift:baseline;text-anchor:start;white-space:normal;clip-rule:nonzero;display:inline;overflow:visible;visibility:visible;opacity:1;isolation:auto;mix-blend-mode:normal;color-interpolation:sRGB;color-interpolation-filters:linearRGB;solid-color:#000000;solid-opacity:1;fill:#000000;fill-opacity:1;fill-rule:nonzero;stroke:none;stroke-width:1.98677039;stroke-linecap:butt;stroke-linejoin:miter;stroke-miterlimit:4;stroke-dasharray:none;stroke-dashoffset:0;stroke-opacity:1;color-rendering:auto;image-rendering:auto;shape-rendering:auto;text-rendering:auto;enable-background:accumulate"
         d="m 265.81228,367.95898 0,0.99414 0,1.98633 0,3.97461 0,25.70313 18.75,0 0,42.34179 -18.75,0 0,32.65821 70.1582,0 0,-32.65821 -18.75,0 0,-42.34179 18.75,0 0,-32.65821 -70.1582,0 z m 1.98828,1.98829 66.18164,0 0,28.68164 -18.75,0 0,46.31836 18.75,0 0,28.68164 -66.18164,0 0,-28.68164 18.75,0 0,-46.31836 -18.75,0 0,-23.71485 0,-3.97461 0,-0.99218 z m 1.98438,1.98437 0,0.99414 0,1.98828 0,21.73047 18.75,0 0,50.28711 -18.75,0 0,24.71289 62.21289,0 0,-24.71289 -18.75,0 0,-50.28711 18.75,0 0,-24.71289 -62.21289,0 z m 1.98828,1.98828 58.23633,0 0,20.73633 -18.75,0 0,54.26367 18.75,0 0,20.73633 -58.23633,0 0,-20.73633 18.75,0 0,-54.26367 -18.75,0 0,-19.74219 0,-0.99414 z m 1.98633,1.98633 0,0.99414 0,1.98633 0,13.7832 18.75,0 0,58.23633 -18.75,0 0,16.76367 54.26367,0 0,-16.76367 -18.75,0 0,-58.23633 18.75,0 0,-16.76367 -54.26367,0 z m 1.98828,1.98828 50.28711,0 0,12.78711 -18.75,0 0,62.21289 18.75,0 0,12.78711 -50.28711,0 0,-12.78711 18.75,0 0,-62.21289 -18.75,0 0,-11.79492 0,-0.99219 z m 1.98437,1.98438 0,0.99414 0,7.82422 18.75,0 0,66.18164 -18.75,0 0,8.81836 46.31836,0 0,-8.81836 -18.75,0 0,-66.18164 18.75,0 0,-8.81836 -46.31836,0 z m 1.98828,1.98828 42.3418,0 0,4.84179 -18.75,0 0,70.15821 18.75,0 0,4.84179 -42.3418,0 0,-4.84179 18.75,0 0,-70.15821 -18.75,0 0,-4.84179 z"
         id="path4177"
         inkscape:connector-curvature="0" />
      <path
         style="color:#000000;font-style:normal;font-variant:normal;font-weight:normal;font-stretch:normal;font-size:medium;line-height:125%;font-family:Block3x5;-inkscape-font-specification:Block3x5;text-indent:0;text-align:start;text-decoration:none;text-decoration-line:none;text-decoration-style:solid;text-decoration-color:#000000;letter-spacing:0px;word-spacing:0px;text-transform:none;direction:ltr;block-progression:tb;writing-mode:lr-tb;baseline-shift:baseline;text-anchor:start;white-space:normal;clip-rule:nonzero;display:inline;overflow:visible;visibility:visible;opacity:1;isolation:auto;mix-blend-mode:normal;color-interpolation:sRGB;color-interpolation-filters:linearRGB;solid-color:#000000;solid-opacity:1;fill:#000000;fill-opacity:1;fill-rule:nonzero;stroke:none;stroke-width:1.98677039;stroke-linecap:butt;stroke-linejoin:miter;stroke-miterlimit:4;stroke-dasharray:none;stroke-dashoffset:0;stroke-opacity:1;color-rendering:auto;image-rendering:auto;shape-rendering:auto;text-rendering:auto;enable-background:accumulate"
         d="m 337.68728,367.95898 0,0.99414 0,1.98633 0,3.97461 0,100.70313 32.6582,0 0,-37.5 4.8418,0 0,37.5 32.6582,0 0,-51.40821 -18.75,0 0,-4.84179 18.75,0 0,-51.40821 -70.1582,0 z m 1.98828,1.98829 66.18164,0 0,47.43164 -18.75,0 0,8.81836 18.75,0 0,47.43164 -28.68164,0 0,-37.5 -8.81836,0 0,37.5 -28.68164,0 0,-98.71485 0,-3.97461 0,-0.99218 z m 1.98438,1.98437 0,0.99414 0,1.98828 0,96.73047 24.71289,0 0,-37.5 12.78711,0 0,37.5 24.71289,0 0,-43.46289 -18.75,0 0,-12.78711 18.75,0 0,-43.46289 -62.21289,0 z m 1.98828,1.98828 58.23633,0 0,39.48633 -18.75,0 0,16.76367 18.75,0 0,39.48633 -20.73633,0 0,-37.5 -16.76367,0 0,37.5 -20.73633,0 0,-94.74219 0,-0.99414 z m 1.98633,1.98633 0,0.99414 0,1.98633 0,88.7832 16.76367,0 0,-37.5 18.75,0 0,-16.76367 -18.75,0 0,-20.73633 20.73633,0 0,18.75 16.76367,0 0,-35.51367 -54.26367,0 z m 1.98828,1.98828 50.28711,0 0,31.53711 -12.78711,0 0,-18.75 -24.71289,0 0,24.71289 18.75,0 0,12.78711 -18.75,0 0,37.5 -12.78711,0 0,-86.79492 0,-0.99219 z m 1.98437,1.98438 0,0.99414 0,82.82422 8.81836,0 0,-37.5 18.75,0 0,-8.81836 -18.75,0 0,-28.68164 28.68164,0 0,18.75 8.81836,0 0,-27.56836 -46.31836,0 z m 1.98828,1.98828 42.3418,0 0,23.59179 -4.8418,0 0,-18.75 -32.6582,0 0,32.65821 18.75,0 0,4.84179 -18.75,0 0,37.5 -4.8418,0 0,-79.84179 z m 12.78907,12.78906 0,0.99414 0,1.98633 0,13.7832 16.76367,0 0,-16.76367 -16.76367,0 z m 1.98828,1.98828 12.78711,0 0,12.78711 -12.78711,0 0,-11.79492 0,-0.99219 z m 1.98437,1.98438 0,0.99414 0,7.82422 8.81836,0 0,-8.81836 -8.81836,0 z m 1.98828,1.98828 4.8418,0 0,4.84179 -4.8418,0 0,-4.84179 z m 12.78907,31.53906 0,0.99414 0,1.98633 0,32.5332 16.76367,0 0,-35.51367 -16.76367,0 z m 1.98828,1.98828 12.78711,0 0,31.53711 -12.78711,0 0,-30.54492 0,-0.99219 z m 1.98437,1.98438 0,0.99414 0,26.57422 8.81836,0 0,-27.56836 -8.81836,0 z m 1.98828,1.98828 4.8418,0 0,23.59179 -4.8418,0 0,-23.59179 z"
         id="path4179"
         inkscape:connector-curvature="0" />
      <path
         style="color:#000000;font-style:normal;font-variant:normal;font-weight:normal;font-stretch:normal;font-size:medium;line-height:125%;font-family:Block3x5;-inkscape-font-specification:Block3x5;text-indent:0;text-align:start;text-decoration:none;text-decoration-line:none;text-decoration-style:solid;text-decoration-color:#000000;letter-spacing:0px;word-spacing:0px;text-transform:none;direction:ltr;block-progression:tb;writing-mode:lr-tb;baseline-shift:baseline;text-anchor:start;white-space:normal;clip-rule:nonzero;display:inline;overflow:visible;visibility:visible;opacity:1;isolation:auto;mix-blend-mode:normal;color-interpolation:sRGB;color-interpolation-filters:linearRGB;solid-color:#000000;solid-opacity:1;fill:#000000;fill-opacity:1;fill-rule:nonzero;stroke:none;stroke-width:1.98677039;stroke-linecap:butt;stroke-linejoin:miter;stroke-miterlimit:4;stroke-dasharray:none;stroke-dashoffset:0;stroke-opacity:1;color-rendering:auto;image-rendering:auto;shape-rendering:auto;text-rendering:auto;enable-background:accumulate"
         d="m 409.56228,367.95898 0,0.99414 0,1.98633 0,3.97461 0,100.70313 70.1582,0 0,-32.65821 -37.5,0 0,-4.84179 37.5,0 0,-32.65821 -37.5,0 0,-4.84179 37.5,0 0,-32.65821 -70.1582,0 z m 1.98828,1.98829 66.18164,0 0,28.68164 -37.5,0 0,8.81836 37.5,0 0,28.68164 -37.5,0 0,8.81836 37.5,0 0,28.68164 -66.18164,0 0,-98.71485 0,-3.97461 0,-0.99218 z m 1.98438,1.98437 0,0.99414 0,1.98828 0,96.73047 62.21289,0 0,-24.71289 -37.5,0 0,-12.78711 37.5,0 0,-24.71289 -37.5,0 0,-12.78711 37.5,0 0,-24.71289 -62.21289,0 z m 1.98828,1.98828 58.23633,0 0,20.73633 -37.5,0 0,16.76367 37.5,0 0,20.73633 -37.5,0 0,16.76367 37.5,0 0,20.73633 -58.23633,0 0,-94.74219 0,-0.99414 z m 1.98633,1.98633 0,0.99414 0,1.98633 0,88.7832 54.26367,0 0,-16.76367 -37.5,0 0,-20.73633 37.5,0 0,-16.76367 -37.5,0 0,-20.73633 37.5,0 0,-16.76367 -54.26367,0 z m 1.98828,1.98828 50.28711,0 0,12.78711 -37.5,0 0,24.71289 37.5,0 0,12.78711 -37.5,0 0,24.71289 37.5,0 0,12.78711 -50.28711,0 0,-86.79492 0,-0.99219 z m 1.98437,1.98438 0,0.99414 0,82.82422 46.31836,0 0,-8.81836 -37.5,0 0,-28.68164 37.5,0 0,-8.81836 -37.5,0 0,-28.68164 37.5,0 0,-8.81836 -46.31836,0 z m 1.98828,1.98828 42.3418,0 0,4.84179 -37.5,0 0,32.65821 37.5,0 0,4.84179 -37.5,0 0,32.65821 37.5,0 0,4.84179 -42.3418,0 0,-79.84179 z"
         id="path4181"
         inkscape:connector-curvature="0" />
    </g>
  </g>
</svg>
