<?xml version="1.0" encoding="UTF-8" standalone="no"?>
<!-- Created with Inkscape (http://www.inkscape.org/) -->

<svg
   xmlns:dc="http://purl.org/dc/elements/1.1/"
   xmlns:cc="http://creativecommons.org/ns#"
   xmlns:rdf="http://www.w3.org/1999/02/22-rdf-syntax-ns#"
   xmlns:svg="http://www.w3.org/2000/svg"
   xmlns="http://www.w3.org/2000/svg"
   xmlns:sodipodi="http://sodipodi.sourceforge.net/DTD/sodipodi-0.dtd"
   xmlns:inkscape="http://www.inkscape.org/namespaces/inkscape"
   width="617.97925"
   height="315.94724"
   id="svg2"
   version="1.1"
   inkscape:version="0.91 r"
   sodipodi:docname="DawnstarStation-Logo.svg">
  <defs
     id="defs4">
    <inkscape:perspective
       sodipodi:type="inkscape:persp3d"
       inkscape:vp_x="0 : 526.18109 : 1"
       inkscape:vp_y="0 : 1000 : 0"
       inkscape:vp_z="744.09448 : 526.18109 : 1"
       inkscape:persp3d-origin="372.04724 : 350.78739 : 1"
       id="perspective10" />
    <inkscape:perspective
       id="perspective2836"
       inkscape:persp3d-origin="0.5 : 0.33333333 : 1"
       inkscape:vp_z="1 : 0.5 : 1"
       inkscape:vp_y="0 : 1000 : 0"
       inkscape:vp_x="0 : 0.5 : 1"
       sodipodi:type="inkscape:persp3d" />
    <inkscape:perspective
       id="perspective2858"
       inkscape:persp3d-origin="0.5 : 0.33333333 : 1"
       inkscape:vp_z="1 : 0.5 : 1"
       inkscape:vp_y="0 : 1000 : 0"
       inkscape:vp_x="0 : 0.5 : 1"
       sodipodi:type="inkscape:persp3d" />
    <inkscape:perspective
       id="perspective2858-4"
       inkscape:persp3d-origin="0.5 : 0.33333333 : 1"
       inkscape:vp_z="1 : 0.5 : 1"
       inkscape:vp_y="0 : 1000 : 0"
       inkscape:vp_x="0 : 0.5 : 1"
       sodipodi:type="inkscape:persp3d" />
    <inkscape:perspective
       id="perspective3661"
       inkscape:persp3d-origin="0.5 : 0.33333333 : 1"
       inkscape:vp_z="1 : 0.5 : 1"
       inkscape:vp_y="0 : 1000 : 0"
       inkscape:vp_x="0 : 0.5 : 1"
       sodipodi:type="inkscape:persp3d" />
    <inkscape:perspective
       id="perspective3683"
       inkscape:persp3d-origin="0.5 : 0.33333333 : 1"
       inkscape:vp_z="1 : 0.5 : 1"
       inkscape:vp_y="0 : 1000 : 0"
       inkscape:vp_x="0 : 0.5 : 1"
       sodipodi:type="inkscape:persp3d" />
    <inkscape:perspective
       id="perspective3705"
       inkscape:persp3d-origin="0.5 : 0.33333333 : 1"
       inkscape:vp_z="1 : 0.5 : 1"
       inkscape:vp_y="0 : 1000 : 0"
       inkscape:vp_x="0 : 0.5 : 1"
       sodipodi:type="inkscape:persp3d" />
    <inkscape:perspective
       id="perspective3727"
       inkscape:persp3d-origin="0.5 : 0.33333333 : 1"
       inkscape:vp_z="1 : 0.5 : 1"
       inkscape:vp_y="0 : 1000 : 0"
       inkscape:vp_x="0 : 0.5 : 1"
       sodipodi:type="inkscape:persp3d" />
    <inkscape:perspective
       id="perspective3749"
       inkscape:persp3d-origin="0.5 : 0.33333333 : 1"
       inkscape:vp_z="1 : 0.5 : 1"
       inkscape:vp_y="0 : 1000 : 0"
       inkscape:vp_x="0 : 0.5 : 1"
       sodipodi:type="inkscape:persp3d" />
    <inkscape:perspective
       id="perspective3771"
       inkscape:persp3d-origin="0.5 : 0.33333333 : 1"
       inkscape:vp_z="1 : 0.5 : 1"
       inkscape:vp_y="0 : 1000 : 0"
       inkscape:vp_x="0 : 0.5 : 1"
       sodipodi:type="inkscape:persp3d" />
    <inkscape:perspective
       id="perspective3771-5"
       inkscape:persp3d-origin="0.5 : 0.33333333 : 1"
       inkscape:vp_z="1 : 0.5 : 1"
       inkscape:vp_y="0 : 1000 : 0"
       inkscape:vp_x="0 : 0.5 : 1"
       sodipodi:type="inkscape:persp3d" />
    <inkscape:perspective
       id="perspective3802"
       inkscape:persp3d-origin="0.5 : 0.33333333 : 1"
       inkscape:vp_z="1 : 0.5 : 1"
       inkscape:vp_y="0 : 1000 : 0"
       inkscape:vp_x="0 : 0.5 : 1"
       sodipodi:type="inkscape:persp3d" />
    <inkscape:perspective
       id="perspective3824"
       inkscape:persp3d-origin="0.5 : 0.33333333 : 1"
       inkscape:vp_z="1 : 0.5 : 1"
       inkscape:vp_y="0 : 1000 : 0"
       inkscape:vp_x="0 : 0.5 : 1"
       sodipodi:type="inkscape:persp3d" />
    <inkscape:perspective
       id="perspective3846"
       inkscape:persp3d-origin="0.5 : 0.33333333 : 1"
       inkscape:vp_z="1 : 0.5 : 1"
       inkscape:vp_y="0 : 1000 : 0"
       inkscape:vp_x="0 : 0.5 : 1"
       sodipodi:type="inkscape:persp3d" />
    <inkscape:perspective
       id="perspective3868"
       inkscape:persp3d-origin="0.5 : 0.33333333 : 1"
       inkscape:vp_z="1 : 0.5 : 1"
       inkscape:vp_y="0 : 1000 : 0"
       inkscape:vp_x="0 : 0.5 : 1"
       sodipodi:type="inkscape:persp3d" />
    <inkscape:perspective
       id="perspective3890"
       inkscape:persp3d-origin="0.5 : 0.33333333 : 1"
       inkscape:vp_z="1 : 0.5 : 1"
       inkscape:vp_y="0 : 1000 : 0"
       inkscape:vp_x="0 : 0.5 : 1"
       sodipodi:type="inkscape:persp3d" />
    <inkscape:perspective
       id="perspective3942"
       inkscape:persp3d-origin="0.5 : 0.33333333 : 1"
       inkscape:vp_z="1 : 0.5 : 1"
       inkscape:vp_y="0 : 1000 : 0"
       inkscape:vp_x="0 : 0.5 : 1"
       sodipodi:type="inkscape:persp3d" />
    <inkscape:perspective
       id="perspective3964"
       inkscape:persp3d-origin="0.5 : 0.33333333 : 1"
       inkscape:vp_z="1 : 0.5 : 1"
       inkscape:vp_y="0 : 1000 : 0"
       inkscape:vp_x="0 : 0.5 : 1"
       sodipodi:type="inkscape:persp3d" />
    <inkscape:perspective
       id="perspective3986"
       inkscape:persp3d-origin="0.5 : 0.33333333 : 1"
       inkscape:vp_z="1 : 0.5 : 1"
       inkscape:vp_y="0 : 1000 : 0"
       inkscape:vp_x="0 : 0.5 : 1"
       sodipodi:type="inkscape:persp3d" />
    <inkscape:perspective
       id="perspective4008"
       inkscape:persp3d-origin="0.5 : 0.33333333 : 1"
       inkscape:vp_z="1 : 0.5 : 1"
       inkscape:vp_y="0 : 1000 : 0"
       inkscape:vp_x="0 : 0.5 : 1"
       sodipodi:type="inkscape:persp3d" />
    <inkscape:perspective
       id="perspective4030"
       inkscape:persp3d-origin="0.5 : 0.33333333 : 1"
       inkscape:vp_z="1 : 0.5 : 1"
       inkscape:vp_y="0 : 1000 : 0"
       inkscape:vp_x="0 : 0.5 : 1"
       sodipodi:type="inkscape:persp3d" />
    <inkscape:perspective
       id="perspective4052"
       inkscape:persp3d-origin="0.5 : 0.33333333 : 1"
       inkscape:vp_z="1 : 0.5 : 1"
       inkscape:vp_y="0 : 1000 : 0"
       inkscape:vp_x="0 : 0.5 : 1"
       sodipodi:type="inkscape:persp3d" />
    <inkscape:perspective
       id="perspective4074"
       inkscape:persp3d-origin="0.5 : 0.33333333 : 1"
       inkscape:vp_z="1 : 0.5 : 1"
       inkscape:vp_y="0 : 1000 : 0"
       inkscape:vp_x="0 : 0.5 : 1"
       sodipodi:type="inkscape:persp3d" />
    <inkscape:perspective
       id="perspective4096"
       inkscape:persp3d-origin="0.5 : 0.33333333 : 1"
       inkscape:vp_z="1 : 0.5 : 1"
       inkscape:vp_y="0 : 1000 : 0"
       inkscape:vp_x="0 : 0.5 : 1"
       sodipodi:type="inkscape:persp3d" />
    <inkscape:perspective
       id="perspective4160"
       inkscape:persp3d-origin="0.5 : 0.33333333 : 1"
       inkscape:vp_z="1 : 0.5 : 1"
       inkscape:vp_y="0 : 1000 : 0"
       inkscape:vp_x="0 : 0.5 : 1"
       sodipodi:type="inkscape:persp3d" />
    <inkscape:perspective
       id="perspective4182"
       inkscape:persp3d-origin="0.5 : 0.33333333 : 1"
       inkscape:vp_z="1 : 0.5 : 1"
       inkscape:vp_y="0 : 1000 : 0"
       inkscape:vp_x="0 : 0.5 : 1"
       sodipodi:type="inkscape:persp3d" />
    <inkscape:perspective
       id="perspective4210"
       inkscape:persp3d-origin="0.5 : 0.33333333 : 1"
       inkscape:vp_z="1 : 0.5 : 1"
       inkscape:vp_y="0 : 1000 : 0"
       inkscape:vp_x="0 : 0.5 : 1"
       sodipodi:type="inkscape:persp3d" />
    <inkscape:perspective
       id="perspective4235"
       inkscape:persp3d-origin="0.5 : 0.33333333 : 1"
       inkscape:vp_z="1 : 0.5 : 1"
       inkscape:vp_y="0 : 1000 : 0"
       inkscape:vp_x="0 : 0.5 : 1"
       sodipodi:type="inkscape:persp3d" />
    <inkscape:perspective
       id="perspective4257"
       inkscape:persp3d-origin="0.5 : 0.33333333 : 1"
       inkscape:vp_z="1 : 0.5 : 1"
       inkscape:vp_y="0 : 1000 : 0"
       inkscape:vp_x="0 : 0.5 : 1"
       sodipodi:type="inkscape:persp3d" />
    <inkscape:perspective
       id="perspective4257-1"
       inkscape:persp3d-origin="0.5 : 0.33333333 : 1"
       inkscape:vp_z="1 : 0.5 : 1"
       inkscape:vp_y="0 : 1000 : 0"
       inkscape:vp_x="0 : 0.5 : 1"
       sodipodi:type="inkscape:persp3d" />
    <inkscape:perspective
       id="perspective4288"
       inkscape:persp3d-origin="0.5 : 0.33333333 : 1"
       inkscape:vp_z="1 : 0.5 : 1"
       inkscape:vp_y="0 : 1000 : 0"
       inkscape:vp_x="0 : 0.5 : 1"
       sodipodi:type="inkscape:persp3d" />
    <inkscape:perspective
       id="perspective4313"
       inkscape:persp3d-origin="0.5 : 0.33333333 : 1"
       inkscape:vp_z="1 : 0.5 : 1"
       inkscape:vp_y="0 : 1000 : 0"
       inkscape:vp_x="0 : 0.5 : 1"
       sodipodi:type="inkscape:persp3d" />
  </defs>
  <sodipodi:namedview
     id="base"
     pagecolor="#ffffff"
     bordercolor="#666666"
     borderopacity="1.0"
     inkscape:pageopacity="0.0"
     inkscape:pageshadow="2"
     inkscape:zoom="0.41204793"
     inkscape:cx="946.87383"
     inkscape:cy="60.745343"
     inkscape:document-units="px"
     inkscape:current-layer="layer1"
     showgrid="true"
     inkscape:window-width="1600"
     inkscape:window-height="848"
     inkscape:window-x="0"
     inkscape:window-y="0"
     inkscape:window-maximized="1"
     fit-margin-top="0"
     fit-margin-left="0"
     fit-margin-right="0"
     fit-margin-bottom="0">
    <inkscape:grid
       type="xygrid"
       id="grid2822"
       originx="-63.304076"
       originy="-46.775047" />
  </sodipodi:namedview>
  <metadata
     id="metadata7">
    <rdf:RDF>
      <cc:Work
         rdf:about="">
        <dc:format>image/svg+xml</dc:format>
        <dc:type
           rdf:resource="http://purl.org/dc/dcmitype/StillImage" />
        <dc:title></dc:title>
      </cc:Work>
    </rdf:RDF>
  </metadata>
  <g
     inkscape:label="Layer 1"
     inkscape:groupmode="layer"
     id="layer1"
     transform="translate(-63.304076,-689.6399)">
    <g
       id="g4218"
       transform="translate(-26.695924,-92.222281)">
      <path
         sodipodi:nodetypes="ccccc"
         id="path2818-4-1-9"
         d="m 465,782.36218 c -30,0 -35,50 -55,50 20,0 25,50 55,50 -35,0 -35,-50 -75,-50 40.27792,0 40,-50 75,-50 z"
         style="fill:#000000;fill-opacity:1;stroke:#000000;stroke-width:0.79056942px;stroke-linecap:butt;stroke-linejoin:miter;stroke-opacity:1"
         inkscape:connector-curvature="0" />
      <path
         sodipodi:nodetypes="ccccc"
         id="path2818-4-1-1-2"
         d="m 410,932.36218 c 30,0 35,-50 55,-50 -20,0 -25,-50 -55,-50 35,0 35,50 75,50 -40.27792,0 -40,50 -75,50 z"
         style="fill:#000000;fill-opacity:1;stroke:#000000;stroke-width:0.79056942px;stroke-linecap:butt;stroke-linejoin:miter;stroke-opacity:1"
         inkscape:connector-curvature="0" />
      <path
         sodipodi:nodetypes="ccccc"
         id="path2818-5-7"
         d="m 230,932.36218 c 0,-60 -40,-70 -40,-110 0,40 -40,50 -40,110 0,-70 40,-70 40,-150 0,80.5558 40,80 40,150 z"
         style="fill:#000000;fill-opacity:1;stroke:#000000;stroke-width:1px;stroke-linecap:butt;stroke-linejoin:miter;stroke-opacity:1"
         inkscape:connector-curvature="0" />
      <circle
         transform="translate(-35,369.99998)"
         id="path2826-2-9"
         style="fill:#000000;fill-opacity:1;stroke:none"
         cx="225"
         cy="502.36218"
         r="10" />
      <path
         sodipodi:nodetypes="ccccc"
         id="path2818-1-7-5"
         d="m 90,932.36218 c 30,0 35,-75 55,-75 -20,0 -25,-75 -55,-75 35,0 35,75 75,75 -40.27792,0 -40,75 -75,75 z"
         style="fill:#000000;fill-opacity:1;stroke:#000000;stroke-width:1px;stroke-linecap:butt;stroke-linejoin:miter;stroke-opacity:1"
         inkscape:connector-curvature="0" />
      <path
         sodipodi:nodetypes="ccccc"
         id="path2818-7-6-4"
         d="m 210,782.36218 c 0,60 40,70 40,110 0,-40 40,-50 40,-110 0,70 -40,70 -40,150 0,-80.5559 -40,-80 -40,-150 z"
         style="fill:#000000;fill-opacity:1;stroke:#000000;stroke-width:1px;stroke-linecap:butt;stroke-linejoin:miter;stroke-opacity:1"
         inkscape:connector-curvature="0" />
      <path
         sodipodi:nodetypes="ccccc"
         id="path2818-0-1-3"
         d="m 230,782.36218 c 0,60 40,70 40,110 0,-40 40,-50 40,-110 0,70 -40,70 -40,150 0,-80.5559 -40,-80 -40,-150 z"
         style="fill:#000000;fill-opacity:1;stroke:#000000;stroke-width:1px;stroke-linecap:butt;stroke-linejoin:miter;stroke-opacity:1"
         inkscape:connector-curvature="0" />
      <path
         sodipodi:nodetypes="ccccc"
         id="path2818-4-2-1"
         d="m 360,932.36218 c 0,-60 -32,-70 -32,-110 0,40 -32,50 -32,110 0,-70 32,-70 32,-150 0,80.5558 32,80 32,150 z"
         style="fill:#000000;fill-opacity:1;stroke:#000000;stroke-width:0.89442718px;stroke-linecap:butt;stroke-linejoin:miter;stroke-opacity:1"
         inkscape:connector-curvature="0" />
      <path
         sodipodi:nodetypes="ccccc"
         id="path2818-4-8-3-2"
         d="m 600,932.36218 c 0,-60 -40,-70 -40,-110 0,40 -40,50 -40,110 0,-70 40,-70 40,-150 0,80.5558 40,80 40,150 z"
         style="fill:#000000;fill-opacity:1;stroke:#000000;stroke-width:1px;stroke-linecap:butt;stroke-linejoin:miter;stroke-opacity:1"
         inkscape:connector-curvature="0" />
      <path
         sodipodi:nodetypes="ccccc"
         id="path2818-4-8-2-2-3"
         d="m 614.94975,931.17658 c -21.2132,-36.0625 9.19239,-99.7728 -4.94975,-123.8144 14.14214,24.0416 53.7868,-26.0625 75,10 -24.74874,-42.0729 -60.85786,14.0416 -89.14213,-34.0416 28.48079,48.4173 -5.65686,105.7831 19.09188,147.856 z"
         style="fill:#000000;fill-opacity:1;stroke:#000000;stroke-width:1.0099504px;stroke-linecap:butt;stroke-linejoin:miter;stroke-opacity:1"
         inkscape:connector-curvature="0" />
      <circle
         transform="translate(335,369.99998)"
         id="path2826-1-2-3"
         style="fill:#000000;fill-opacity:1;stroke:none"
         cx="225"
         cy="502.36218"
         r="10" />
      <path
         sodipodi:nodetypes="ccccc"
         id="path2818-4-8-2-7-1-4"
         d="m 505.05025,931.17658 c 21.21319,-36.0625 -9.19239,-99.7728 4.94975,-123.8144 -14.14214,24.0416 -28.7868,-46.0625 -50,-10 24.74874,-42.0729 35.85786,34.0416 64.14212,-14.0416 -28.48078,48.4173 5.65686,105.7831 -19.09187,147.856 z"
         style="fill:#000000;fill-opacity:1;stroke:#000000;stroke-width:1.0099504px;stroke-linecap:butt;stroke-linejoin:miter;stroke-opacity:1"
         inkscape:connector-curvature="0" />
      <path
         sodipodi:nodetypes="ccccc"
         id="path2818-4-2-6-1"
         d="m 328,782.36218 c 0,60 32,70 32,110 0,-40 32,-50 32,-110 0,70 -32,70 -32,150 0,-80.5559 -32,-80 -32,-150 z"
         style="fill:#000000;fill-opacity:1;stroke:#000000;stroke-width:0.89442718px;stroke-linecap:butt;stroke-linejoin:miter;stroke-opacity:1"
         inkscape:connector-curvature="0" />
      <path
         sodipodi:nodetypes="ccccc"
         id="path2818-4-8-2-2-1-1"
         d="m 707.84001,931.41218 c -32.39999,-10.5 -51.24,-77.05 -72.84001,-84.05 21.60001,7 17.60001,-40.5 50,-30 -37.8,-12.25 -28.39999,37 -71.59999,23 43.50015,14.0973 56.64,78.8 94.44,91.05 z"
         style="fill:#000000;fill-opacity:1;stroke:#000000;stroke-width:0.90332711px;stroke-linecap:butt;stroke-linejoin:miter;stroke-opacity:1"
         inkscape:connector-curvature="0" />
      <circle
         transform="translate(-115,355)"
         id="path2826-2-9-8"
         style="fill:#000000;fill-opacity:1;stroke:none"
         cx="225"
         cy="502.36218"
         r="10" />
      <path
         sodipodi:nodetypes="ccccc"
         id="path2818-4-1-9-7"
         d="m 200.00001,947.36218 c -30,0 -35,50 -55,50 20,0 25,50.00002 55,50.00002 -35,0 -35,-50.00002 -75.00001,-50.00002 40.27793,0 40.00001,-50 75.00001,-50 z"
         style="fill:#000000;fill-opacity:1;stroke:#000000;stroke-width:0.79056942px;stroke-linecap:butt;stroke-linejoin:miter;stroke-opacity:1"
         inkscape:connector-curvature="0" />
      <path
         sodipodi:nodetypes="ccccc"
         id="path2818-4-1-1-2-4"
         d="m 145.00001,1097.3622 c 30,0 35,-50 55,-50 -20,0 -25,-50.00002 -55,-50.00002 35,0 35,50.00002 75,50.00002 -40.27792,0 -40,50 -75,50 z"
         style="fill:#000000;fill-opacity:1;stroke:#000000;stroke-width:0.79056942px;stroke-linecap:butt;stroke-linejoin:miter;stroke-opacity:1"
         inkscape:connector-curvature="0" />
      <path
         sodipodi:nodetypes="ccccc"
         id="path2818-4-8-2-7-1-4-2"
         d="m 240.05025,1096.1766 c 21.21319,-36.0625 -9.19239,-99.77282 4.94975,-123.81442 -14.14214,24.0416 -28.78679,-46.0625 -49.99999,-10 24.74874,-42.0729 35.85785,34.0416 64.14211,-14.0416 -28.48078,48.4173 5.65686,105.78312 -19.09187,147.85602 z"
         style="fill:#000000;fill-opacity:1;stroke:#000000;stroke-width:1.0099504px;stroke-linecap:butt;stroke-linejoin:miter;stroke-opacity:1"
         inkscape:connector-curvature="0" />
      <path
         sodipodi:nodetypes="ccccc"
         id="path2818-5-7-7"
         d="m 345,1097.3622 c 0,-60 -40,-70 -40,-110.00002 0,40.00002 -40,50.00002 -40,110.00002 0,-70 40,-70 40,-150.00002 0,80.55582 40,80.00002 40,150.00002 z"
         style="fill:#000000;fill-opacity:1;stroke:#000000;stroke-width:1px;stroke-linecap:butt;stroke-linejoin:miter;stroke-opacity:1"
         inkscape:connector-curvature="0" />
      <circle
         transform="translate(80,534.99998)"
         id="path2826-2-9-7"
         style="fill:#000000;fill-opacity:1;stroke:none"
         cx="225"
         cy="502.36218"
         r="10" />
      <path
         sodipodi:nodetypes="ccccc"
         id="path2818-4-8-2-7-1-4-2-9"
         d="m 375.05025,1096.1766 c 21.21319,-36.0625 -9.19239,-99.77282 4.94975,-123.81442 -14.14214,24.0416 -28.78679,-46.0625 -49.99998,-10 24.74873,-42.0729 35.85784,34.0416 64.1421,-14.0416 -28.48078,48.4173 5.65686,105.78312 -19.09187,147.85602 z"
         style="fill:#000000;fill-opacity:1;stroke:#000000;stroke-width:1.0099504px;stroke-linecap:butt;stroke-linejoin:miter;stroke-opacity:1"
         inkscape:connector-curvature="0" />
      <path
         sodipodi:nodetypes="ccccc"
         id="path2818-1-7-5-3"
         d="m 478.2,1097.3622 c 24,0 28,-75 44,-75 -16,0 -20,-75.00004 -44,-75.00004 28,0 28,75.00004 60,75.00004 -32.22234,0 -32,75 -60,75 z"
         style="fill:#000000;fill-opacity:1;stroke:#000000;stroke-width:0.89442718px;stroke-linecap:butt;stroke-linejoin:miter;stroke-opacity:1"
         inkscape:connector-curvature="0" />
      <path
         sodipodi:nodetypes="ccccc"
         id="path2818-1-7-5-9"
         d="m 479.8,947.3621 c -24,0 -28,75.0001 -44,75.0001 16,0 20,75 44,75 -28,0 -28,-75 -60,-75 32.22234,0 32,-75.0001 60,-75.0001 z"
         style="fill:#000000;fill-opacity:1;stroke:#000000;stroke-width:0.89442718px;stroke-linecap:butt;stroke-linejoin:miter;stroke-opacity:1"
         inkscape:connector-curvature="0" />
      <path
         sodipodi:nodetypes="ccccc"
         id="path2818-4-2-1-8"
         d="m 595,1097.3622 c 0,-60 -32,-70 -32,-110.00002 0,40.00002 -32,50.00002 -32,110.00002 0,-70 32,-70 32,-150.00002 0,80.55582 32,80.00002 32,150.00002 z"
         style="fill:#000000;fill-opacity:1;stroke:#000000;stroke-width:0.89442718px;stroke-linecap:butt;stroke-linejoin:miter;stroke-opacity:1"
         inkscape:connector-curvature="0" />
      <path
         sodipodi:nodetypes="ccccc"
         id="path2818-4-2-6-1-6"
         d="m 563,947.36218 c 0,60.00002 32,70.00002 32,110.00002 0,-40 32,-50 32,-110.00002 0,70.00002 -32,70.00002 -32,150.00002 0,-80.5559 -32,-80 -32,-150.00002 z"
         style="fill:#000000;fill-opacity:1;stroke:#000000;stroke-width:0.89442718px;stroke-linecap:butt;stroke-linejoin:miter;stroke-opacity:1"
         inkscape:connector-curvature="0" />
      <path
         sodipodi:nodetypes="cccc"
         id="path2818-4-8-2-7-1-4-2-9-5"
         d="m 405.90813,1095.2182 c 21.21319,-36.0625 -9.19239,-99.77282 4.94975,-123.81442 L 425,947.36218 c -28.48078,48.4173 5.65686,105.78312 -19.09187,147.85602 z"
         style="fill:#000000;fill-opacity:1;stroke:#000000;stroke-width:1.0099504px;stroke-linecap:butt;stroke-linejoin:miter;stroke-opacity:1"
         inkscape:connector-curvature="0" />
    </g>
  </g>
</svg>
