<?xml version="1.0" encoding="UTF-8" standalone="no"?>
<!-- Created with Inkscape (http://www.inkscape.org/) -->

<svg
   xmlns:dc="http://purl.org/dc/elements/1.1/"
   xmlns:cc="http://creativecommons.org/ns#"
   xmlns:rdf="http://www.w3.org/1999/02/22-rdf-syntax-ns#"
   xmlns:svg="http://www.w3.org/2000/svg"
   xmlns="http://www.w3.org/2000/svg"
   xmlns:sodipodi="http://sodipodi.sourceforge.net/DTD/sodipodi-0.dtd"
   xmlns:inkscape="http://www.inkscape.org/namespaces/inkscape"
   width="11in"
   height="8.5in"
   id="svg2"
   version="1.1"
   inkscape:version="0.91 r"
   sodipodi:docname="DawnstarStation-Title-Plaque.svg">
  <defs
     id="defs4">
    <inkscape:perspective
       sodipodi:type="inkscape:persp3d"
       inkscape:vp_x="0 : 526.18109 : 1"
       inkscape:vp_y="0 : 1000 : 0"
       inkscape:vp_z="744.09448 : 526.18109 : 1"
       inkscape:persp3d-origin="372.04724 : 350.78739 : 1"
       id="perspective10" />
    <inkscape:perspective
       id="perspective2836"
       inkscape:persp3d-origin="0.5 : 0.33333333 : 1"
       inkscape:vp_z="1 : 0.5 : 1"
       inkscape:vp_y="0 : 1000 : 0"
       inkscape:vp_x="0 : 0.5 : 1"
       sodipodi:type="inkscape:persp3d" />
    <inkscape:perspective
       id="perspective2858"
       inkscape:persp3d-origin="0.5 : 0.33333333 : 1"
       inkscape:vp_z="1 : 0.5 : 1"
       inkscape:vp_y="0 : 1000 : 0"
       inkscape:vp_x="0 : 0.5 : 1"
       sodipodi:type="inkscape:persp3d" />
    <inkscape:perspective
       id="perspective2858-4"
       inkscape:persp3d-origin="0.5 : 0.33333333 : 1"
       inkscape:vp_z="1 : 0.5 : 1"
       inkscape:vp_y="0 : 1000 : 0"
       inkscape:vp_x="0 : 0.5 : 1"
       sodipodi:type="inkscape:persp3d" />
    <inkscape:perspective
       id="perspective3661"
       inkscape:persp3d-origin="0.5 : 0.33333333 : 1"
       inkscape:vp_z="1 : 0.5 : 1"
       inkscape:vp_y="0 : 1000 : 0"
       inkscape:vp_x="0 : 0.5 : 1"
       sodipodi:type="inkscape:persp3d" />
    <inkscape:perspective
       id="perspective3683"
       inkscape:persp3d-origin="0.5 : 0.33333333 : 1"
       inkscape:vp_z="1 : 0.5 : 1"
       inkscape:vp_y="0 : 1000 : 0"
       inkscape:vp_x="0 : 0.5 : 1"
       sodipodi:type="inkscape:persp3d" />
    <inkscape:perspective
       id="perspective3705"
       inkscape:persp3d-origin="0.5 : 0.33333333 : 1"
       inkscape:vp_z="1 : 0.5 : 1"
       inkscape:vp_y="0 : 1000 : 0"
       inkscape:vp_x="0 : 0.5 : 1"
       sodipodi:type="inkscape:persp3d" />
    <inkscape:perspective
       id="perspective3727"
       inkscape:persp3d-origin="0.5 : 0.33333333 : 1"
       inkscape:vp_z="1 : 0.5 : 1"
       inkscape:vp_y="0 : 1000 : 0"
       inkscape:vp_x="0 : 0.5 : 1"
       sodipodi:type="inkscape:persp3d" />
    <inkscape:perspective
       id="perspective3749"
       inkscape:persp3d-origin="0.5 : 0.33333333 : 1"
       inkscape:vp_z="1 : 0.5 : 1"
       inkscape:vp_y="0 : 1000 : 0"
       inkscape:vp_x="0 : 0.5 : 1"
       sodipodi:type="inkscape:persp3d" />
    <inkscape:perspective
       id="perspective3771"
       inkscape:persp3d-origin="0.5 : 0.33333333 : 1"
       inkscape:vp_z="1 : 0.5 : 1"
       inkscape:vp_y="0 : 1000 : 0"
       inkscape:vp_x="0 : 0.5 : 1"
       sodipodi:type="inkscape:persp3d" />
    <inkscape:perspective
       id="perspective3771-5"
       inkscape:persp3d-origin="0.5 : 0.33333333 : 1"
       inkscape:vp_z="1 : 0.5 : 1"
       inkscape:vp_y="0 : 1000 : 0"
       inkscape:vp_x="0 : 0.5 : 1"
       sodipodi:type="inkscape:persp3d" />
    <inkscape:perspective
       id="perspective3802"
       inkscape:persp3d-origin="0.5 : 0.33333333 : 1"
       inkscape:vp_z="1 : 0.5 : 1"
       inkscape:vp_y="0 : 1000 : 0"
       inkscape:vp_x="0 : 0.5 : 1"
       sodipodi:type="inkscape:persp3d" />
    <inkscape:perspective
       id="perspective3824"
       inkscape:persp3d-origin="0.5 : 0.33333333 : 1"
       inkscape:vp_z="1 : 0.5 : 1"
       inkscape:vp_y="0 : 1000 : 0"
       inkscape:vp_x="0 : 0.5 : 1"
       sodipodi:type="inkscape:persp3d" />
    <inkscape:perspective
       id="perspective3846"
       inkscape:persp3d-origin="0.5 : 0.33333333 : 1"
       inkscape:vp_z="1 : 0.5 : 1"
       inkscape:vp_y="0 : 1000 : 0"
       inkscape:vp_x="0 : 0.5 : 1"
       sodipodi:type="inkscape:persp3d" />
    <inkscape:perspective
       id="perspective3868"
       inkscape:persp3d-origin="0.5 : 0.33333333 : 1"
       inkscape:vp_z="1 : 0.5 : 1"
       inkscape:vp_y="0 : 1000 : 0"
       inkscape:vp_x="0 : 0.5 : 1"
       sodipodi:type="inkscape:persp3d" />
    <inkscape:perspective
       id="perspective3890"
       inkscape:persp3d-origin="0.5 : 0.33333333 : 1"
       inkscape:vp_z="1 : 0.5 : 1"
       inkscape:vp_y="0 : 1000 : 0"
       inkscape:vp_x="0 : 0.5 : 1"
       sodipodi:type="inkscape:persp3d" />
    <inkscape:perspective
       id="perspective3942"
       inkscape:persp3d-origin="0.5 : 0.33333333 : 1"
       inkscape:vp_z="1 : 0.5 : 1"
       inkscape:vp_y="0 : 1000 : 0"
       inkscape:vp_x="0 : 0.5 : 1"
       sodipodi:type="inkscape:persp3d" />
    <inkscape:perspective
       id="perspective3964"
       inkscape:persp3d-origin="0.5 : 0.33333333 : 1"
       inkscape:vp_z="1 : 0.5 : 1"
       inkscape:vp_y="0 : 1000 : 0"
       inkscape:vp_x="0 : 0.5 : 1"
       sodipodi:type="inkscape:persp3d" />
    <inkscape:perspective
       id="perspective3986"
       inkscape:persp3d-origin="0.5 : 0.33333333 : 1"
       inkscape:vp_z="1 : 0.5 : 1"
       inkscape:vp_y="0 : 1000 : 0"
       inkscape:vp_x="0 : 0.5 : 1"
       sodipodi:type="inkscape:persp3d" />
    <inkscape:perspective
       id="perspective4008"
       inkscape:persp3d-origin="0.5 : 0.33333333 : 1"
       inkscape:vp_z="1 : 0.5 : 1"
       inkscape:vp_y="0 : 1000 : 0"
       inkscape:vp_x="0 : 0.5 : 1"
       sodipodi:type="inkscape:persp3d" />
    <inkscape:perspective
       id="perspective4030"
       inkscape:persp3d-origin="0.5 : 0.33333333 : 1"
       inkscape:vp_z="1 : 0.5 : 1"
       inkscape:vp_y="0 : 1000 : 0"
       inkscape:vp_x="0 : 0.5 : 1"
       sodipodi:type="inkscape:persp3d" />
    <inkscape:perspective
       id="perspective4052"
       inkscape:persp3d-origin="0.5 : 0.33333333 : 1"
       inkscape:vp_z="1 : 0.5 : 1"
       inkscape:vp_y="0 : 1000 : 0"
       inkscape:vp_x="0 : 0.5 : 1"
       sodipodi:type="inkscape:persp3d" />
    <inkscape:perspective
       id="perspective4074"
       inkscape:persp3d-origin="0.5 : 0.33333333 : 1"
       inkscape:vp_z="1 : 0.5 : 1"
       inkscape:vp_y="0 : 1000 : 0"
       inkscape:vp_x="0 : 0.5 : 1"
       sodipodi:type="inkscape:persp3d" />
    <inkscape:perspective
       id="perspective4096"
       inkscape:persp3d-origin="0.5 : 0.33333333 : 1"
       inkscape:vp_z="1 : 0.5 : 1"
       inkscape:vp_y="0 : 1000 : 0"
       inkscape:vp_x="0 : 0.5 : 1"
       sodipodi:type="inkscape:persp3d" />
    <inkscape:perspective
       id="perspective4160"
       inkscape:persp3d-origin="0.5 : 0.33333333 : 1"
       inkscape:vp_z="1 : 0.5 : 1"
       inkscape:vp_y="0 : 1000 : 0"
       inkscape:vp_x="0 : 0.5 : 1"
       sodipodi:type="inkscape:persp3d" />
    <inkscape:perspective
       id="perspective4182"
       inkscape:persp3d-origin="0.5 : 0.33333333 : 1"
       inkscape:vp_z="1 : 0.5 : 1"
       inkscape:vp_y="0 : 1000 : 0"
       inkscape:vp_x="0 : 0.5 : 1"
       sodipodi:type="inkscape:persp3d" />
    <inkscape:perspective
       id="perspective4210"
       inkscape:persp3d-origin="0.5 : 0.33333333 : 1"
       inkscape:vp_z="1 : 0.5 : 1"
       inkscape:vp_y="0 : 1000 : 0"
       inkscape:vp_x="0 : 0.5 : 1"
       sodipodi:type="inkscape:persp3d" />
    <inkscape:perspective
       id="perspective4235"
       inkscape:persp3d-origin="0.5 : 0.33333333 : 1"
       inkscape:vp_z="1 : 0.5 : 1"
       inkscape:vp_y="0 : 1000 : 0"
       inkscape:vp_x="0 : 0.5 : 1"
       sodipodi:type="inkscape:persp3d" />
    <inkscape:perspective
       id="perspective4257"
       inkscape:persp3d-origin="0.5 : 0.33333333 : 1"
       inkscape:vp_z="1 : 0.5 : 1"
       inkscape:vp_y="0 : 1000 : 0"
       inkscape:vp_x="0 : 0.5 : 1"
       sodipodi:type="inkscape:persp3d" />
    <inkscape:perspective
       id="perspective4257-1"
       inkscape:persp3d-origin="0.5 : 0.33333333 : 1"
       inkscape:vp_z="1 : 0.5 : 1"
       inkscape:vp_y="0 : 1000 : 0"
       inkscape:vp_x="0 : 0.5 : 1"
       sodipodi:type="inkscape:persp3d" />
    <inkscape:perspective
       id="perspective4288"
       inkscape:persp3d-origin="0.5 : 0.33333333 : 1"
       inkscape:vp_z="1 : 0.5 : 1"
       inkscape:vp_y="0 : 1000 : 0"
       inkscape:vp_x="0 : 0.5 : 1"
       sodipodi:type="inkscape:persp3d" />
    <inkscape:perspective
       id="perspective4313"
       inkscape:persp3d-origin="0.5 : 0.33333333 : 1"
       inkscape:vp_z="1 : 0.5 : 1"
       inkscape:vp_y="0 : 1000 : 0"
       inkscape:vp_x="0 : 0.5 : 1"
       sodipodi:type="inkscape:persp3d" />
  </defs>
  <sodipodi:namedview
     id="base"
     pagecolor="#ffffff"
     bordercolor="#666666"
     borderopacity="1.0"
     inkscape:pageopacity="0.0"
     inkscape:pageshadow="2"
     inkscape:zoom="1.1983936"
     inkscape:cx="507.40701"
     inkscape:cy="408.01801"
     inkscape:document-units="px"
     inkscape:current-layer="layer1"
     showgrid="true"
     inkscape:window-width="1600"
     inkscape:window-height="848"
     inkscape:window-x="0"
     inkscape:window-y="0"
     inkscape:window-maximized="1"
     fit-margin-top="0"
     fit-margin-left="0"
     fit-margin-right="0"
     fit-margin-bottom="0"
     units="in"
     showguides="true"
     inkscape:guide-bbox="true"
     inkscape:object-nodes="true"
     inkscape:snap-smooth-nodes="true">
    <inkscape:grid
       type="xygrid"
       id="grid2822"
       originx="-63.304076"
       originy="-46.775047" />
  </sodipodi:namedview>
  <metadata
     id="metadata7">
    <rdf:RDF>
      <cc:Work
         rdf:about="">
        <dc:format>image/svg+xml</dc:format>
        <dc:type
           rdf:resource="http://purl.org/dc/dcmitype/StillImage" />
        <dc:title />
      </cc:Work>
    </rdf:RDF>
  </metadata>
  <g
     inkscape:label="Layer 1"
     inkscape:groupmode="layer"
     id="layer1"
     transform="translate(-63.304076,-240.58714)">
    <path
       inkscape:connector-curvature="0"
       id="path4171"
       style="font-style:normal;font-variant:normal;font-weight:500;font-stretch:normal;font-size:medium;line-height:125%;font-family:Dawnstar;-inkscape-font-specification:'Dawnstar Medium';letter-spacing:0px;word-spacing:0px;fill:#000000;fill-opacity:1;stroke:none;stroke-width:1px;stroke-linecap:butt;stroke-linejoin:miter;stroke-opacity:1"
       d="m 300.80073,559.96172 q 5.32449,0 9.8019,-4.96146 4.47742,-5.08247 7.38169,-12.22213 3.02528,-7.13966 5.68752,-14.27932 2.78326,-7.13966 5.92955,-12.10112 3.2673,-5.08247 6.77662,-5.08247 -3.50932,0 -6.77662,-4.96146 -3.14629,-5.08247 -5.92955,-12.22213 -2.66224,-7.13966 -5.68752,-14.1583 -2.90427,-7.13966 -7.38169,-12.10112 -4.47741,-5.08247 -9.8019,-5.08247 6.17157,0 11.13303,5.08247 4.96145,4.96146 8.34977,12.10112 3.50932,7.01864 7.13966,14.1583 3.63033,7.13966 9.19685,12.22213 5.56651,4.96146 12.70617,4.96146 -7.13966,0 -12.70617,5.08247 -5.56652,4.96146 -9.19685,12.10112 -3.63034,7.13966 -7.13966,14.27932 -3.50933,7.13966 -8.47078,12.22213 -4.84045,4.96146 -11.01202,4.96146 z m 6.17157,-48.6465 q 0,6.89764 6.77662,6.89764 6.77663,0 6.77663,-6.89764 0,-6.77662 -6.77663,-6.77662 -6.77662,0 -6.77662,6.77662 z" />
    <path
       inkscape:connector-curvature="0"
       id="path4173"
       style="font-style:normal;font-variant:normal;font-weight:500;font-stretch:normal;font-size:medium;line-height:125%;font-family:Dawnstar;-inkscape-font-specification:'Dawnstar Medium';letter-spacing:0px;word-spacing:0px;fill:#000000;fill-opacity:1;stroke:none;stroke-width:1px;stroke-linecap:butt;stroke-linejoin:miter;stroke-opacity:1"
       d="m 404.82118,559.59868 q 0,-10.76999 -2.66225,-19.60381 -2.66224,-8.83382 -6.41359,-14.76336 -3.75135,-6.05056 -7.6237,-11.37505 -3.75135,-5.44551 -6.4136,-11.73809 -2.66224,-6.41359 -2.66224,-13.43224 0,7.01865 -2.66225,13.43224 -2.66224,6.29258 -6.5346,11.73809 -3.75135,5.32449 -7.50269,11.37505 -3.75135,5.92954 -6.4136,14.76336 -2.66224,8.83382 -2.66224,19.60381 0,-12.34314 2.66224,-22.14504 2.66225,-9.80191 6.4136,-16.69955 3.75134,-7.01864 7.50269,-14.27932 3.87236,-7.26067 6.5346,-18.27268 2.66225,-11.13303 2.66225,-25.29134 0,14.27932 2.66224,25.41235 2.66225,11.13303 6.4136,18.3937 3.87235,7.13966 7.6237,14.03729 3.75135,6.89764 6.41359,16.69955 2.66225,9.8019 2.66225,22.14504 z m -25.77538,-45.5002 q -6.77663,0 -6.77663,6.77662 0,6.77663 6.77663,6.77663 6.77662,0 6.77662,-6.77663 0,-6.77662 -6.77662,-6.77662 z" />
    <path
       inkscape:connector-curvature="0"
       id="path4175"
       style="font-style:normal;font-variant:normal;font-weight:500;font-stretch:normal;font-size:medium;line-height:125%;font-family:Dawnstar;-inkscape-font-specification:'Dawnstar Medium';letter-spacing:0px;word-spacing:0px;fill:#000000;fill-opacity:1;stroke:none;stroke-width:1px;stroke-linecap:butt;stroke-linejoin:miter;stroke-opacity:1"
       d="m 409.17569,462.54772 q 0,10.76999 2.66225,19.72482 2.66224,8.83381 6.41359,14.88437 3.87236,5.92955 7.6237,11.37505 3.87236,5.3245 6.53461,11.73809 2.66224,6.41359 2.66224,13.43224 0,-7.01865 2.66225,-13.43224 2.66225,-6.41359 6.41359,-11.73809 3.87236,-5.4455 7.62371,-11.37505 3.87235,-6.05056 6.5346,-14.88437 2.66225,-8.95483 2.66225,-19.72482 0,12.46415 -2.66225,22.26605 -2.66225,9.80191 -6.5346,16.82056 -3.75135,6.89763 -7.62371,14.15831 -3.75134,7.26067 -6.41359,18.39369 -2.66225,11.13303 -2.66225,25.41235 0,-14.40033 -2.66224,-25.53336 -2.66225,-11.13303 -6.53461,-18.3937 -3.75134,-7.26067 -7.6237,-14.1583 -3.75135,-6.89764 -6.41359,-16.69955 -2.66225,-9.8019 -2.66225,-22.26605 z m 12.9482,0 q 0,10.76999 2.66224,19.72482 2.66225,8.83381 6.4136,14.88437 3.87235,5.92955 7.6237,11.37505 3.87236,5.3245 6.5346,11.73809 2.66225,6.41359 2.66225,13.43224 0,-7.01865 2.66225,-13.43224 2.66224,-6.41359 6.41359,-11.73809 3.87236,-5.4455 7.6237,-11.37505 3.87236,-6.05056 6.53461,-14.88437 2.66224,-8.95483 2.66224,-19.72482 0,12.46415 -2.66224,22.26605 -2.66225,9.80191 -6.53461,16.82056 -3.75134,6.89763 -7.6237,14.15831 -3.75135,7.26067 -6.41359,18.39369 -2.66225,11.13303 -2.66225,25.41235 0,-14.40033 -2.66225,-25.53336 -2.66224,-11.13303 -6.5346,-18.3937 -3.75135,-7.26067 -7.6237,-14.1583 -3.75135,-6.89764 -6.4136,-16.69955 -2.66224,-9.8019 -2.66224,-22.26605 z" />
    <path
       inkscape:connector-curvature="0"
       id="path4177"
       style="font-style:normal;font-variant:normal;font-weight:500;font-stretch:normal;font-size:medium;line-height:125%;font-family:Dawnstar;-inkscape-font-specification:'Dawnstar Medium';letter-spacing:0px;word-spacing:0px;fill:#000000;fill-opacity:1;stroke:none;stroke-width:1px;stroke-linecap:butt;stroke-linejoin:miter;stroke-opacity:1"
       d="m 519.5757,559.59868 q 0,-10.76999 -2.1782,-19.60381 -2.05719,-8.95483 -5.08247,-14.88437 -3.02528,-6.05056 -6.17157,-11.37505 -3.02528,-5.44551 -5.20348,-11.8591 -2.05719,-6.41359 -2.05719,-13.43224 0,7.01865 -2.1782,13.43224 -2.05719,6.41359 -5.20348,11.8591 -3.02528,5.32449 -6.17157,11.37505 -3.02528,5.92954 -5.20348,14.88437 -2.05719,8.83382 -2.05719,19.60381 0,-12.46415 2.05719,-22.26606 2.1782,-9.8019 5.20348,-16.69954 3.14629,-7.01865 6.17157,-14.27932 3.14629,-7.26067 5.20348,-18.3937 2.1782,-11.13302 2.1782,-25.41234 0,14.40033 2.05719,25.53336 2.1782,11.13302 5.20348,18.39369 3.14629,7.26068 6.17157,14.15831 3.02528,6.89764 5.08247,16.69954 2.1782,9.80191 2.1782,22.26606 z m -19.4828,-97.05096 q 0,10.76999 2.05719,19.72482 2.1782,8.83381 5.20348,14.88437 3.14629,5.92955 6.17157,11.37505 3.02528,5.3245 5.08247,11.73809 2.1782,6.41359 2.1782,13.43224 0,-7.01865 2.05719,-13.43224 2.17821,-6.41359 5.20349,-11.73809 3.14629,-5.4455 6.17157,-11.37505 3.14629,-6.05056 5.20348,-14.88437 2.1782,-8.95483 2.1782,-19.72482 0,12.46415 -2.1782,22.26605 -2.05719,9.80191 -5.20348,16.82056 -3.02528,6.89763 -6.17157,14.15831 -3.02528,7.26067 -5.20349,18.39369 -2.05719,11.13303 -2.05719,25.41235 0,-14.40033 -2.1782,-25.53336 -2.05719,-11.13303 -5.08247,-18.3937 -3.02528,-7.26067 -6.17157,-14.1583 -3.02528,-6.89764 -5.20348,-16.69955 -2.05719,-9.8019 -2.05719,-22.26605 z" />
    <path
       inkscape:connector-curvature="0"
       id="path4179"
       style="font-style:normal;font-variant:normal;font-weight:500;font-stretch:normal;font-size:medium;line-height:125%;font-family:Dawnstar;-inkscape-font-specification:'Dawnstar Medium';letter-spacing:0px;word-spacing:0px;fill:#000000;fill-opacity:1;stroke:none;stroke-width:1px;stroke-linecap:butt;stroke-linejoin:miter;stroke-opacity:1"
       d="m 593.94842,462.78974 q -5.32449,0 -9.80191,3.38831 -4.47741,3.2673 -7.50269,8.10775 -2.90427,4.71944 -5.68753,9.43887 -2.66224,4.71944 -5.92954,8.10775 -3.1463,3.2673 -6.65562,3.2673 3.50932,0 6.65562,3.38832 3.2673,3.2673 5.92954,8.10775 2.78326,4.71943 5.68753,9.55988 3.02528,4.71943 7.50269,8.10775 4.47742,3.2673 9.80191,3.2673 -5.32449,0 -9.6809,-2.42022 -4.3564,-2.42023 -7.26067,-5.92955 -2.78326,-3.63034 -6.17157,-7.86573 -3.2673,-4.23539 -6.41359,-7.74471 -3.02528,-3.63034 -7.98674,-6.05056 -4.96146,-2.42023 -11.01202,-2.42023 7.13966,0 12.70618,-3.2673 5.56651,-3.38831 9.19685,-8.10775 3.63033,-4.71943 7.13966,-9.43887 3.50932,-4.84045 8.34977,-8.10775 4.96146,-3.38831 11.13303,-3.38831 z m -35.57729,97.05096 q 5.32449,0 9.80191,-3.2673 4.47741,-3.38831 7.38168,-8.10775 3.02528,-4.84044 5.68752,-9.55988 2.78326,-4.71944 5.92955,-7.98674 3.2673,-3.38831 6.77663,-3.38831 -3.50933,0 -6.77663,-3.2673 -3.14629,-3.38832 -5.92955,-8.10775 -2.66224,-4.84045 -5.68752,-9.55988 -2.90427,-4.84045 -7.38168,-8.10775 -4.47742,-3.38832 -9.80191,-3.38832 5.32449,0 9.68089,2.42023 4.35641,2.42022 7.13966,6.05056 2.90427,3.50932 6.17157,7.74471 3.38832,4.23539 6.4136,7.86573 3.14629,3.50932 8.10775,5.92955 4.96145,2.42022 11.01201,2.42022 -7.13966,0 -12.70617,3.38831 -5.56651,3.2673 -9.19685,7.98674 -3.63034,4.71944 -7.13966,9.55988 -3.50932,4.71944 -8.47078,8.10775 -4.84045,3.2673 -11.01202,3.2673 z" />
    <path
       inkscape:connector-curvature="0"
       id="path4181"
       style="font-style:normal;font-variant:normal;font-weight:500;font-stretch:normal;font-size:medium;line-height:125%;font-family:Dawnstar;-inkscape-font-specification:'Dawnstar Medium';letter-spacing:0px;word-spacing:0px;fill:#000000;fill-opacity:1;stroke:none;stroke-width:1px;stroke-linecap:butt;stroke-linejoin:miter;stroke-opacity:1"
       d="m 640.06124,558.38857 q 3.75135,-6.41359 4.59842,-15.61044 0.96809,-9.31786 -0.12101,-18.3937 -1.0891,-9.07584 -2.42022,-17.78864 -1.33112,-8.83382 -1.33112,-16.45752 0,-7.74472 2.54123,-11.98011 -1.81517,3.14629 -3.99337,3.38831 -2.05719,0.12101 -4.11438,-1.81517 -2.05719,-2.05719 -4.23539,-4.84044 -2.1782,-2.90427 -4.59842,-5.44551 -2.29922,-2.54123 -4.71944,-3.87235 -2.29921,-1.45214 -5.20348,0 -2.78326,1.45213 -5.56651,6.17157 3.2673,-5.44551 6.29258,-7.38169 3.14629,-1.93617 5.68752,-0.84707 2.66225,0.96809 5.20348,3.14629 2.66225,2.05719 5.32449,4.11438 2.78326,1.93618 5.56652,2.66224 2.78326,0.60506 6.17157,-1.93618 3.50932,-2.54123 7.26067,-8.83381 -5.08247,8.59179 -6.77663,19.24078 -1.69415,10.52797 -1.0891,20.45088 0.72607,9.80191 1.45214,19.4828 0.84708,9.55989 -0.36304,19.36179 -1.21011,9.6809 -5.56651,17.18359 z" />
    <path
       inkscape:connector-curvature="0"
       id="path4183"
       style="font-style:normal;font-variant:normal;font-weight:500;font-stretch:normal;font-size:medium;line-height:125%;font-family:Dawnstar;-inkscape-font-specification:'Dawnstar Medium';letter-spacing:0px;word-spacing:0px;fill:#000000;fill-opacity:1;stroke:none;stroke-width:1px;stroke-linecap:butt;stroke-linejoin:miter;stroke-opacity:1"
       d="m 707.82183,559.59868 q 0,-10.76999 -2.66225,-19.60381 -2.66224,-8.83382 -6.41359,-14.76336 -3.75135,-6.05056 -7.62371,-11.37505 -3.75134,-5.44551 -6.41359,-11.73809 -2.66224,-6.41359 -2.66224,-13.43224 0,7.01865 -2.66225,13.43224 -2.66225,6.29258 -6.5346,11.73809 -3.75135,5.32449 -7.5027,11.37505 -3.75134,5.92954 -6.41359,14.76336 -2.66224,8.83382 -2.66224,19.60381 0,-12.34314 2.66224,-22.14504 2.66225,-9.80191 6.41359,-16.69955 3.75135,-7.01864 7.5027,-14.27932 3.87235,-7.26067 6.5346,-18.27268 2.66225,-11.13303 2.66225,-25.29134 0,14.27932 2.66224,25.41235 2.66225,11.13303 6.41359,18.3937 3.87236,7.13966 7.62371,14.03729 3.75135,6.89764 6.41359,16.69955 2.66225,9.8019 2.66225,22.14504 z m -25.77538,-45.5002 q -6.77663,0 -6.77663,6.77662 0,6.77663 6.77663,6.77663 6.77662,0 6.77662,-6.77663 0,-6.77662 -6.77662,-6.77662 z" />
    <path
       inkscape:connector-curvature="0"
       id="path4185"
       style="font-style:normal;font-variant:normal;font-weight:500;font-stretch:normal;font-size:medium;line-height:125%;font-family:Dawnstar;-inkscape-font-specification:'Dawnstar Medium';letter-spacing:0px;word-spacing:0px;fill:#000000;fill-opacity:1;stroke:none;stroke-width:1px;stroke-linecap:butt;stroke-linejoin:miter;stroke-opacity:1"
       d="m 724.39847,558.99363 q -4.3564,-7.5027 -5.56652,-17.18359 -1.21011,-9.80191 -0.48404,-19.36179 0.84708,-9.68089 1.45213,-19.4828 0.72607,-9.92292 -0.96809,-20.45089 -1.69415,-10.64898 -6.77662,-19.24078 3.75134,6.29258 8.10775,9.55989 4.3564,3.2673 8.59179,3.75134 4.23539,0.36304 8.59179,-0.24202 4.47742,-0.60505 8.83382,-1.33112 4.3564,-0.72607 8.34977,-0.60506 3.99337,0.12101 7.98674,2.78326 3.99337,2.66225 7.26067,8.10775 -3.75135,-6.41359 -9.31786,-7.98674 -5.56651,-1.69416 -11.13303,0.12101 -5.56651,1.69416 -10.891,3.75135 -5.3245,2.05719 -10.04393,1.93618 -4.59843,-0.12101 -7.13966,-4.35641 2.54123,4.2354 2.54123,11.98011 0,7.62371 -1.33112,16.45752 -1.33112,8.71281 -2.54124,17.78864 -1.0891,9.07584 -0.24202,18.3937 0.96809,9.19685 4.71944,15.61045 z m 60.14255,0.12101 q -6.65561,-2.1782 -12.94819,-8.22876 -6.17157,-6.05056 -11.25404,-13.43224 -4.96146,-7.38169 -10.16494,-14.76337 -5.08247,-7.50269 -12.10112,-13.67426 -6.89764,-6.29258 -14.64235,-8.83382 4.96146,1.57315 8.95483,1.69416 4.11438,0 6.65561,-1.21011 2.54124,-1.33113 4.84045,-3.2673 2.42022,-1.93618 3.99337,-4.2354 1.69415,-2.29921 3.87235,-4.23539 2.17821,-2.05719 4.35641,-3.38831 2.29921,-1.33112 5.80853,-1.45213 3.50933,-0.24203 7.86573,1.21011 -6.5346,-1.81517 -10.04393,-0.12101 -3.50932,1.69415 -6.29258,5.32449 -2.78326,3.63033 -4.59842,7.38168 -1.69416,3.63034 -4.59843,5.80854 -2.90427,2.1782 -6.77662,0.96809 3.87235,1.21011 8.10774,6.65561 4.35641,5.4455 8.5918,12.58516 4.23539,7.13966 8.7128,14.40033 4.47742,7.13966 10.16494,13.06921 5.68753,5.92955 11.49606,7.74472 z" />
    <path
       inkscape:connector-curvature="0"
       id="path4187"
       style="font-style:normal;font-variant:normal;font-weight:500;font-stretch:normal;font-size:medium;line-height:125%;font-family:Dawnstar;-inkscape-font-specification:'Dawnstar Medium';letter-spacing:0px;word-spacing:0px;fill:#000000;fill-opacity:1;stroke:none;stroke-width:1px;stroke-linecap:butt;stroke-linejoin:miter;stroke-opacity:1"
       d="m 364.06225,561.0203 q -5.3245,0 -9.80191,3.38831 -4.47741,3.2673 -7.50269,8.10775 -2.90427,4.71944 -5.68753,9.43887 -2.66224,4.71944 -5.92955,8.10775 -3.14629,3.2673 -6.65561,3.2673 3.50932,0 6.65561,3.38832 3.26731,3.2673 5.92955,8.10775 2.78326,4.71943 5.68753,9.55988 3.02528,4.71943 7.50269,8.10775 4.47741,3.2673 9.80191,3.2673 -5.3245,0 -9.6809,-2.42022 -4.3564,-2.42023 -7.26067,-5.92955 -2.78326,-3.63034 -6.17157,-7.86573 -3.2673,-4.23539 -6.41359,-7.74471 -3.02528,-3.63034 -7.98674,-6.05056 -4.96146,-2.42023 -11.01202,-2.42023 7.13966,0 12.70618,-3.2673 5.56651,-3.38831 9.19685,-8.10775 3.63033,-4.71943 7.13966,-9.43887 3.50932,-4.84045 8.34977,-8.10775 4.96146,-3.38831 11.13303,-3.38831 z m -35.57729,97.05096 q 5.32449,0 9.80191,-3.2673 4.47741,-3.38831 7.38168,-8.10775 3.02528,-4.84044 5.68752,-9.55988 2.78326,-4.71944 5.92955,-7.98674 3.2673,-3.38831 6.77663,-3.38831 -3.50933,0 -6.77663,-3.2673 -3.14629,-3.38832 -5.92955,-8.10775 -2.66224,-4.84045 -5.68752,-9.55988 -2.90427,-4.84045 -7.38168,-8.10775 -4.47742,-3.38832 -9.80191,-3.38832 5.32449,0 9.68089,2.42023 4.35641,2.42022 7.13966,6.05056 2.90427,3.50932 6.17157,7.74471 3.38832,4.23539 6.4136,7.86573 3.14629,3.50932 8.10775,5.92955 4.96145,2.42022 11.01201,2.42022 -7.13966,0 -12.70617,3.38831 -5.56652,3.2673 -9.19685,7.98674 -3.63034,4.71944 -7.13966,9.55988 -3.50932,4.71944 -8.47078,8.10775 -4.84045,3.2673 -11.01202,3.2673 z" />
    <path
       inkscape:connector-curvature="0"
       id="path4189"
       style="font-style:normal;font-variant:normal;font-weight:500;font-stretch:normal;font-size:medium;line-height:125%;font-family:Dawnstar;-inkscape-font-specification:'Dawnstar Medium';letter-spacing:0px;word-spacing:0px;fill:#000000;fill-opacity:1;stroke:none;stroke-width:1px;stroke-linecap:butt;stroke-linejoin:miter;stroke-opacity:1"
       d="m 410.17507,656.61913 q 3.75135,-6.41359 4.59842,-15.61044 0.96809,-9.31786 -0.12101,-18.3937 -1.0891,-9.07584 -2.42022,-17.78864 -1.33112,-8.83382 -1.33112,-16.45752 0,-7.74472 2.54123,-11.98011 -1.81517,3.14629 -3.99337,3.38831 -2.05719,0.12101 -4.11438,-1.81517 -2.05719,-2.05719 -4.23539,-4.84044 -2.1782,-2.90427 -4.59842,-5.44551 -2.29922,-2.54123 -4.71944,-3.87235 -2.29921,-1.45214 -5.20348,0 -2.78326,1.45213 -5.56651,6.17157 3.2673,-5.44551 6.29258,-7.38169 3.14629,-1.93617 5.68752,-0.84707 2.66225,0.96809 5.20348,3.14629 2.66225,2.05719 5.32449,4.11438 2.78326,1.93618 5.56652,2.66224 2.78326,0.60506 6.17157,-1.93618 3.50932,-2.54123 7.26067,-8.83381 -5.08247,8.59179 -6.77663,19.24078 -1.69415,10.52797 -1.0891,20.45088 0.72607,9.80191 1.45214,19.4828 0.84708,9.55989 -0.36304,19.36179 -1.21011,9.6809 -5.56651,17.18359 z" />
    <path
       inkscape:connector-curvature="0"
       id="path4191"
       style="font-style:normal;font-variant:normal;font-weight:500;font-stretch:normal;font-size:medium;line-height:125%;font-family:Dawnstar;-inkscape-font-specification:'Dawnstar Medium';letter-spacing:0px;word-spacing:0px;fill:#000000;fill-opacity:1;stroke:none;stroke-width:1px;stroke-linecap:butt;stroke-linejoin:miter;stroke-opacity:1"
       d="m 477.93566,657.82924 q 0,-10.76999 -2.66225,-19.60381 -2.66224,-8.83382 -6.41359,-14.76336 -3.75135,-6.05056 -7.62371,-11.37505 -3.75134,-5.44551 -6.41359,-11.73809 -2.66224,-6.41359 -2.66224,-13.43224 0,7.01865 -2.66225,13.43224 -2.66225,6.29258 -6.5346,11.73809 -3.75135,5.32449 -7.5027,11.37505 -3.75134,5.92954 -6.41359,14.76336 -2.66225,8.83382 -2.66225,19.60381 0,-12.34314 2.66225,-22.14504 2.66225,-9.80191 6.41359,-16.69955 3.75135,-7.01864 7.5027,-14.27932 3.87235,-7.26067 6.5346,-18.27268 2.66225,-11.13303 2.66225,-25.29134 0,14.27932 2.66224,25.41235 2.66225,11.13303 6.41359,18.3937 3.87236,7.13966 7.62371,14.03729 3.75135,6.89764 6.41359,16.69955 2.66225,9.8019 2.66225,22.14504 z m -25.77538,-45.5002 q -6.77663,0 -6.77663,6.77662 0,6.77663 6.77663,6.77663 6.77662,0 6.77662,-6.77663 0,-6.77662 -6.77662,-6.77662 z" />
    <path
       inkscape:connector-curvature="0"
       id="path4193"
       style="font-style:normal;font-variant:normal;font-weight:500;font-stretch:normal;font-size:medium;line-height:125%;font-family:Dawnstar;-inkscape-font-specification:'Dawnstar Medium';letter-spacing:0px;word-spacing:0px;fill:#000000;fill-opacity:1;stroke:none;stroke-width:1px;stroke-linecap:butt;stroke-linejoin:miter;stroke-opacity:1"
       d="m 511.33285,656.61913 q 3.75135,-6.41359 4.59843,-15.61044 0.96809,-9.31786 -0.12101,-18.3937 -1.08911,-9.07584 -2.42023,-17.78864 -1.33112,-8.83382 -1.33112,-16.45752 0,-7.74472 2.54123,-11.98011 -1.81516,3.14629 -3.99337,3.38831 -2.05719,0.12101 -4.11438,-1.81517 -2.05719,-2.05719 -4.23539,-4.84044 -2.1782,-2.90427 -4.59842,-5.44551 -2.29921,-2.54123 -4.71944,-3.87235 -2.29921,-1.45214 -5.20348,0 -2.78326,1.45213 -5.56651,6.17157 3.2673,-5.44551 6.29258,-7.38169 3.14629,-1.93617 5.68752,-0.84707 2.66225,0.96809 5.20349,3.14629 2.66224,2.05719 5.32449,4.11438 2.78325,1.93618 5.56651,2.66224 2.78326,0.60506 6.17157,-1.93618 3.50933,-2.54123 7.26067,-8.83381 -5.08247,8.59179 -6.77662,19.24078 -1.69416,10.52797 -1.0891,20.45088 0.72606,9.80191 1.45213,19.4828 0.84708,9.55989 -0.36303,19.36179 -1.21012,9.6809 -5.56652,17.18359 z" />
    <path
       inkscape:connector-curvature="0"
       id="path4195"
       style="font-style:normal;font-variant:normal;font-weight:500;font-stretch:normal;font-size:medium;line-height:125%;font-family:Dawnstar;-inkscape-font-specification:'Dawnstar Medium';letter-spacing:0px;word-spacing:0px;fill:#000000;fill-opacity:1;stroke:none;stroke-width:1px;stroke-linecap:butt;stroke-linejoin:miter;stroke-opacity:1"
       d="m 527.54268,657.82924 q 3.75134,-6.41359 4.59842,-15.61044 0.96809,-9.31786 -0.24202,-18.3937 -1.0891,-9.07584 -2.42022,-17.78864 -1.33113,-8.83382 -1.33113,-16.45752 0,-7.74472 2.54124,-11.98011 l 9.19684,-15.48943 q -5.08246,8.59179 -6.77662,19.24078 -1.69415,10.52797 -1.0891,20.45089 0.72607,9.8019 1.45214,19.4828 0.84707,9.55988 -0.36304,19.36178 -1.21011,9.6809 -5.56651,17.18359 z" />
    <path
       inkscape:connector-curvature="0"
       id="path4197"
       style="font-style:normal;font-variant:normal;font-weight:500;font-stretch:normal;font-size:medium;line-height:125%;font-family:Dawnstar;-inkscape-font-specification:'Dawnstar Medium';letter-spacing:0px;word-spacing:0px;fill:#000000;fill-opacity:1;stroke:none;stroke-width:1px;stroke-linecap:butt;stroke-linejoin:miter;stroke-opacity:1"
       d="m 581.60631,658.07126 q 4.23539,0 7.74471,-4.96145 3.63034,-5.08247 6.05056,-12.10112 2.42022,-7.13966 4.59842,-14.27932 2.17821,-7.13966 4.71944,-12.10112 2.66225,-5.08247 5.4455,-5.08247 -2.78325,0 -5.4455,-4.96146 -2.54123,-5.08247 -4.71944,-12.22213 -2.1782,-7.13966 -4.59842,-14.1583 -2.42022,-7.13966 -6.05056,-12.10112 -3.50932,-5.08247 -7.74471,-5.08247 4.96145,0 8.83381,5.08247 3.99337,4.96146 6.77663,12.10112 2.78325,7.01864 5.68752,14.1583 3.02528,7.13966 7.38168,12.22213 4.47742,4.96146 10.16494,4.96146 -5.68752,0 -10.16494,5.08247 -4.47741,4.96146 -7.38168,12.10112 -2.90427,7.13966 -5.68752,14.27932 -2.78326,7.01865 -6.77663,12.10112 -3.87236,4.96145 -8.83381,4.96145 z m 1.0891,-97.05096 q -4.2354,0 -7.86573,5.08247 -3.50933,4.96146 -5.92955,12.10112 -2.42022,7.01864 -4.59842,14.1583 -2.05719,7.13966 -4.71944,12.22213 -2.54123,4.96146 -5.32449,4.96146 2.78326,0 5.32449,5.08247 2.66225,4.96146 4.71944,12.10112 2.1782,7.13966 4.59842,14.27932 2.42022,7.01865 5.92955,12.10112 3.63033,4.96145 7.86573,4.96145 -4.96146,0 -8.95483,-4.96145 -3.87236,-5.08247 -6.65562,-12.10112 -2.78325,-7.13966 -5.80853,-14.27932 -2.90427,-7.13966 -7.38168,-12.10112 -4.35641,-5.08247 -10.04393,-5.08247 5.68752,0 10.16494,-4.96146 4.47741,-5.08247 7.38168,-12.22213 2.90427,-7.13966 5.68752,-14.1583 2.78326,-7.13966 6.65562,-12.10112 3.99337,-5.08247 8.95483,-5.08247 z" />
    <path
       inkscape:connector-curvature="0"
       id="path4199"
       style="font-style:normal;font-variant:normal;font-weight:500;font-stretch:normal;font-size:medium;line-height:125%;font-family:Dawnstar;-inkscape-font-specification:'Dawnstar Medium';letter-spacing:0px;word-spacing:0px;fill:#000000;fill-opacity:1;stroke:none;stroke-width:1px;stroke-linecap:butt;stroke-linejoin:miter;stroke-opacity:1"
       d="m 665.95866,657.82924 q 0,-10.76999 -2.1782,-19.60381 -2.05719,-8.95483 -5.08247,-14.88437 -3.02528,-6.05056 -6.17157,-11.37505 -3.02528,-5.44551 -5.20348,-11.8591 -2.05719,-6.41359 -2.05719,-13.43224 0,7.01865 -2.1782,13.43224 -2.05719,6.41359 -5.20348,11.8591 -3.02528,5.32449 -6.17157,11.37505 -3.02528,5.92954 -5.20348,14.88437 -2.05719,8.83382 -2.05719,19.60381 0,-12.46415 2.05719,-22.26606 2.1782,-9.8019 5.20348,-16.69954 3.14629,-7.01865 6.17157,-14.27932 3.14629,-7.26067 5.20348,-18.3937 2.1782,-11.13302 2.1782,-25.41234 0,14.40033 2.05719,25.53336 2.1782,11.13302 5.20348,18.39369 3.14629,7.26068 6.17157,14.15831 3.02528,6.89764 5.08247,16.69954 2.1782,9.80191 2.1782,22.26606 z m -19.4828,-97.05096 q 0,10.76999 2.05719,19.72482 2.1782,8.83381 5.20348,14.88437 3.14629,5.92955 6.17157,11.37505 3.02528,5.3245 5.08247,11.73809 2.1782,6.41359 2.1782,13.43224 0,-7.01865 2.05719,-13.43224 2.1782,-6.41359 5.20348,-11.73809 3.14629,-5.4455 6.17157,-11.37505 3.14629,-6.05056 5.20351,-14.88437 2.1782,-8.95483 2.1782,-19.72482 0,12.46415 -2.1782,22.26605 -2.05722,9.80191 -5.20351,16.82056 -3.02528,6.89763 -6.17157,14.15831 -3.02528,7.26067 -5.20348,18.39369 -2.05719,11.13303 -2.05719,25.41235 0,-14.40033 -2.1782,-25.53336 -2.05719,-11.13303 -5.08247,-18.3937 -3.02528,-7.26067 -6.17157,-14.1583 -3.02528,-6.89764 -5.20348,-16.69955 -2.05719,-9.8019 -2.05719,-22.26605 z" />
    <flowRoot
       xml:space="preserve"
       id="flowRoot4216"
       style="fill:black;stroke:none;stroke-opacity:1;stroke-width:1px;stroke-linejoin:miter;stroke-linecap:butt;fill-opacity:1;font-family:Dawnstar;font-style:normal;font-weight:500;font-size:40px;line-height:125%;letter-spacing:0px;word-spacing:0px;-inkscape-font-specification:'Dawnstar Medium';font-stretch:normal;font-variant:normal;"><flowRegion
         id="flowRegion4218"><rect
           id="rect4220"
           width="500"
           height="100"
           x="56.695923"
           y="111.77505"
           style="-inkscape-font-specification:'Dawnstar Medium';font-family:Dawnstar;font-weight:500;font-style:normal;font-stretch:normal;font-variant:normal;" /></flowRegion><flowPara
         id="flowPara4222"></flowPara></flowRoot>    <flowRoot
       xml:space="preserve"
       id="flowRoot4228"
       style="fill:black;stroke:none;stroke-opacity:1;stroke-width:1px;stroke-linejoin:miter;stroke-linecap:butt;fill-opacity:1;font-family:sans-serif;font-style:normal;font-weight:normal;font-size:40px;line-height:125%;letter-spacing:0px;word-spacing:0px"><flowRegion
         id="flowRegion4230"><rect
           id="rect4232"
           width="460"
           height="420"
           x="96.695923"
           y="-68.224953" /></flowRegion><flowPara
         id="flowPara4234"></flowPara></flowRoot>    <flowRoot
       xml:space="preserve"
       id="flowRoot4236"
       style="font-style:normal;font-weight:normal;font-size:40px;line-height:125%;font-family:sans-serif;letter-spacing:0px;word-spacing:0px;fill:#000000;fill-opacity:1;stroke:none;stroke-width:1px;stroke-linecap:butt;stroke-linejoin:miter;stroke-opacity:1"
       transform="translate(394.07862,277.38106)"><flowRegion
         id="flowRegion4238"><rect
           id="rect4240"
           width="380"
           height="140"
           x="-23.304075"
           y="111.77505" /></flowRegion><flowPara
         id="flowPara4242"
         style="font-style:normal;font-variant:normal;font-weight:500;font-stretch:normal;font-size:60px;font-family:Dawnstar;-inkscape-font-specification:'Dawnstar Medium'">Welcome to</flowPara></flowRoot>    <flowRoot
       xml:space="preserve"
       id="flowRoot4263"
       style="font-style:normal;font-variant:normal;font-weight:500;font-stretch:normal;font-size:40px;line-height:125%;font-family:Dawnstar;-inkscape-font-specification:'Dawnstar Medium';letter-spacing:0px;word-spacing:0px;fill:#000000;fill-opacity:1;stroke:none;stroke-width:1px;stroke-linecap:butt;stroke-linejoin:miter;stroke-opacity:1;"
       transform="translate(176.46902,231.34826)"><flowRegion
         id="flowRegion4265"><rect
           id="rect4267"
           width="760"
           height="300"
           x="36.695923"
           y="471.77505"
           style="font-style:normal;font-variant:normal;font-weight:500;font-stretch:normal;font-size:40px;font-family:Dawnstar;-inkscape-font-specification:'Dawnstar Medium';" /></flowRegion><flowPara
         id="flowPara4269">Established seventy four cycles before tempoaral anomaly krx nine two</flowPara></flowRoot>    <text
       xml:space="preserve"
       style="font-style:normal;font-weight:normal;font-size:40px;line-height:125%;font-family:sans-serif;letter-spacing:0px;word-spacing:0px;fill:#000000;fill-opacity:1;stroke:none;stroke-width:1px;stroke-linecap:butt;stroke-linejoin:miter;stroke-opacity:1"
       x="1040"
       y="632.36218"
       id="text4271"
       sodipodi:linespacing="125%"><tspan
         sodipodi:role="line"
         id="tspan4273"
         x="1040"
         y="632.36218">zz</tspan></text>
  </g>
</svg>
