<?xml version="1.0" encoding="UTF-8" standalone="no"?>
<!-- Created with Inkscape (http://www.inkscape.org/) -->

<svg
   xmlns:dc="http://purl.org/dc/elements/1.1/"
   xmlns:cc="http://creativecommons.org/ns#"
   xmlns:rdf="http://www.w3.org/1999/02/22-rdf-syntax-ns#"
   xmlns:svg="http://www.w3.org/2000/svg"
   xmlns="http://www.w3.org/2000/svg"
   xmlns:sodipodi="http://sodipodi.sourceforge.net/DTD/sodipodi-0.dtd"
   xmlns:inkscape="http://www.inkscape.org/namespaces/inkscape"
   width="231"
   height="43.500301"
   id="svg2"
   version="1.1"
   inkscape:version="0.91 r"
   sodipodi:docname="Logo.svg"
   inkscape:export-filename="C:\Users\greyden_h\Desktop\BE\CyanococcusRex-WithLettering-Regular-Curved-Italic2.png"
   inkscape:export-xdpi="1000"
   inkscape:export-ydpi="1000">
  <defs
     id="defs4" />
  <sodipodi:namedview
     id="base"
     pagecolor="#ffffff"
     bordercolor="#666666"
     borderopacity="1.0"
     inkscape:pageopacity="0"
     inkscape:pageshadow="2"
     inkscape:zoom="1.9135013"
     inkscape:cx="121.43608"
     inkscape:cy="132.15916"
     inkscape:document-units="px"
     inkscape:current-layer="layer1"
     showgrid="true"
     width="800px"
     inkscape:window-width="1600"
     inkscape:window-height="848"
     inkscape:window-x="0"
     inkscape:window-y="0"
     inkscape:window-maximized="1"
     showguides="true"
     inkscape:guide-bbox="true"
     units="in"
     fit-margin-top="0"
     fit-margin-left="0"
     fit-margin-right="0"
     fit-margin-bottom="0"
     inkscape:object-nodes="true"
     inkscape:snap-smooth-nodes="true"
     inkscape:object-paths="false">
    <inkscape:grid
       type="xygrid"
       id="grid2984"
       empspacing="5"
       visible="true"
       enabled="true"
       snapvisiblegridlinesonly="true"
       spacingx="0.5px"
       spacingy="0.5px"
       originx="44.8418"
       originy="-58.9762" />
    <sodipodi:guide
       position="24.8418,23.5238"
       orientation="0,1"
       id="guide4360" />
  </sodipodi:namedview>
  <metadata
     id="metadata7">
    <rdf:RDF>
      <cc:Work
         rdf:about="">
        <dc:format>image/svg+xml</dc:format>
        <dc:type
           rdf:resource="http://purl.org/dc/dcmitype/StillImage" />
        <dc:title></dc:title>
      </cc:Work>
    </rdf:RDF>
  </metadata>
  <g
     inkscape:label="Layer 1"
     inkscape:groupmode="layer"
     id="layer1"
     transform="translate(44.8418,-949.88548)">
    <g
       id="g7013"
       transform="translate(0,50)">
      <path
         id="path4244-1-3-5"
         style="fill:none;fill-rule:evenodd;stroke:#000000;stroke-width:2;stroke-linecap:butt;stroke-linejoin:round;stroke-miterlimit:4;stroke-dasharray:none;stroke-opacity:1"
         d="m -30,847.36198 c -17.5,0 -5,20 -12.5,20 0,-42.5 -5.5,-37.49999 30,-37.5 -3,10e-6 -7.5,7.5 -7.5,17.5 0,10 4,20 11.5,20 7.5,0 11,-10 11,-20 0,-10 -6,-17.49999 -7.5,-17.5 l 15,0 0,37.5 20,0 0,-37.50001 c 0,0 25,5.00001 25,20.00001 0,15 -17.5,17.5 -17.5,17.5 l 22.5,0 0,-37.50001 c 0,0 25,4.99999 25,20 0,15.00001 -17.5,17.50001 -17.5,17.50001 l 22.5,0 0,-37.50001 c 11.25,0 20,0 20,7.5 0,7.5 -8.75,7.5 -12.5,7.5 l 22.5,22.50001 0,-37.50001 10,0 15,37.50001 15,-37.5 20.5,0 c 0,12.5 -3,17.5 -10.5,17.5 -7.5,0 -8.9482,-11.66021 -10,-17.5 0,27.5 5,37.5 22.5,37.5"
         inkscape:connector-curvature="0"
         sodipodi:nodetypes="ccczszccccczccczcccsccccccczcc" />
      <g
         id="g4464-5-0-9"
         transform="matrix(0.5,0,0,0.5,-37.5,356.18098)"
         style="stroke-linejoin:round">
        <circle
           style="color:#000000;clip-rule:nonzero;display:inline;overflow:visible;visibility:visible;opacity:1;isolation:auto;mix-blend-mode:normal;color-interpolation:sRGB;color-interpolation-filters:linearRGB;solid-color:#000000;solid-opacity:1;fill:#ffffff;fill-opacity:1;fill-rule:nonzero;stroke:#000000;stroke-width:2;stroke-linecap:round;stroke-linejoin:round;stroke-miterlimit:4;stroke-dasharray:none;stroke-opacity:1;color-rendering:auto;image-rendering:auto;shape-rendering:auto;text-rendering:auto;enable-background:accumulate"
           id="path4156-7-9-1"
           cx="-10"
           cy="1022.362"
           r="5" />
        <circle
           style="color:#000000;clip-rule:nonzero;display:inline;overflow:visible;visibility:visible;opacity:1;isolation:auto;mix-blend-mode:normal;color-interpolation:sRGB;color-interpolation-filters:linearRGB;solid-color:#000000;solid-opacity:1;fill:#ffffff;fill-opacity:1;fill-rule:nonzero;stroke:#000000;stroke-width:2;stroke-linecap:round;stroke-linejoin:round;stroke-miterlimit:4;stroke-dasharray:none;stroke-opacity:1;color-rendering:auto;image-rendering:auto;shape-rendering:auto;text-rendering:auto;enable-background:accumulate"
           id="path4156-6-4-2-2"
           cx="50"
           cy="947.362"
           r="5" />
        <circle
           style="color:#000000;clip-rule:nonzero;display:inline;overflow:visible;visibility:visible;opacity:1;isolation:auto;mix-blend-mode:normal;color-interpolation:sRGB;color-interpolation-filters:linearRGB;solid-color:#000000;solid-opacity:1;fill:#ffffff;fill-opacity:1;fill-rule:nonzero;stroke:#000000;stroke-width:2;stroke-linecap:round;stroke-linejoin:round;stroke-miterlimit:4;stroke-dasharray:none;stroke-opacity:1;color-rendering:auto;image-rendering:auto;shape-rendering:auto;text-rendering:auto;enable-background:accumulate"
           id="path4156-6-7-8-4-0"
           cx="65"
           cy="947.362"
           r="5" />
        <circle
           style="color:#000000;clip-rule:nonzero;display:inline;overflow:visible;visibility:visible;opacity:1;isolation:auto;mix-blend-mode:normal;color-interpolation:sRGB;color-interpolation-filters:linearRGB;solid-color:#000000;solid-opacity:1;fill:#ffffff;fill-opacity:1;fill-rule:nonzero;stroke:#000000;stroke-width:2;stroke-linecap:round;stroke-linejoin:round;stroke-miterlimit:4;stroke-dasharray:none;stroke-opacity:1;color-rendering:auto;image-rendering:auto;shape-rendering:auto;text-rendering:auto;enable-background:accumulate"
           id="path4156-6-7-5-5-0-9"
           cx="95"
           cy="947.362"
           r="5" />
        <circle
           style="color:#000000;clip-rule:nonzero;display:inline;overflow:visible;visibility:visible;opacity:1;isolation:auto;mix-blend-mode:normal;color-interpolation:sRGB;color-interpolation-filters:linearRGB;solid-color:#000000;solid-opacity:1;fill:#ffffff;fill-opacity:1;fill-rule:nonzero;stroke:#000000;stroke-width:2;stroke-linecap:round;stroke-linejoin:round;stroke-miterlimit:4;stroke-dasharray:none;stroke-opacity:1;color-rendering:auto;image-rendering:auto;shape-rendering:auto;text-rendering:auto;enable-background:accumulate"
           id="path4156-6-7-5-3-97-5-3"
           cx="135"
           cy="947.362"
           r="5" />
        <circle
           style="color:#000000;clip-rule:nonzero;display:inline;overflow:visible;visibility:visible;opacity:1;isolation:auto;mix-blend-mode:normal;color-interpolation:sRGB;color-interpolation-filters:linearRGB;solid-color:#000000;solid-opacity:1;fill:#ffffff;fill-opacity:1;fill-rule:nonzero;stroke:#000000;stroke-width:2;stroke-linecap:round;stroke-linejoin:round;stroke-miterlimit:4;stroke-dasharray:none;stroke-opacity:1;color-rendering:auto;image-rendering:auto;shape-rendering:auto;text-rendering:auto;enable-background:accumulate"
           id="path4156-6-7-5-3-5-5-9-6"
           cx="135"
           cy="1022.362"
           r="5" />
        <circle
           style="color:#000000;clip-rule:nonzero;display:inline;overflow:visible;visibility:visible;opacity:1;isolation:auto;mix-blend-mode:normal;color-interpolation:sRGB;color-interpolation-filters:linearRGB;solid-color:#000000;solid-opacity:1;fill:#ffffff;fill-opacity:1;fill-rule:nonzero;stroke:#000000;stroke-width:2;stroke-linecap:round;stroke-linejoin:round;stroke-miterlimit:4;stroke-dasharray:none;stroke-opacity:1;color-rendering:auto;image-rendering:auto;shape-rendering:auto;text-rendering:auto;enable-background:accumulate"
           id="path4156-6-7-1-3-9-2"
           cx="95"
           cy="1022.362"
           r="5" />
        <circle
           style="color:#000000;clip-rule:nonzero;display:inline;overflow:visible;visibility:visible;opacity:1;isolation:auto;mix-blend-mode:normal;color-interpolation:sRGB;color-interpolation-filters:linearRGB;solid-color:#000000;solid-opacity:1;fill:#ffffff;fill-opacity:1;fill-rule:nonzero;stroke:#000000;stroke-width:2;stroke-linecap:round;stroke-linejoin:round;stroke-miterlimit:4;stroke-dasharray:none;stroke-opacity:1;color-rendering:auto;image-rendering:auto;shape-rendering:auto;text-rendering:auto;enable-background:accumulate"
           id="path4156-6-7-2-1-2-6"
           cx="195"
           cy="947.362"
           r="5" />
        <circle
           style="color:#000000;clip-rule:nonzero;display:inline;overflow:visible;visibility:visible;opacity:1;isolation:auto;mix-blend-mode:normal;color-interpolation:sRGB;color-interpolation-filters:linearRGB;solid-color:#000000;solid-opacity:1;fill:#ffffff;fill-opacity:1;fill-rule:nonzero;stroke:#000000;stroke-width:2;stroke-linecap:round;stroke-linejoin:round;stroke-miterlimit:4;stroke-dasharray:none;stroke-opacity:1;color-rendering:auto;image-rendering:auto;shape-rendering:auto;text-rendering:auto;enable-background:accumulate"
           id="path4156-6-7-7-8-2-1"
           cx="210"
           cy="1022.362"
           r="5" />
        <circle
           style="color:#000000;clip-rule:nonzero;display:inline;overflow:visible;visibility:visible;opacity:1;isolation:auto;mix-blend-mode:normal;color-interpolation:sRGB;color-interpolation-filters:linearRGB;solid-color:#000000;solid-opacity:1;fill:#ffffff;fill-opacity:1;fill-rule:nonzero;stroke:#000000;stroke-width:2;stroke-linecap:round;stroke-linejoin:round;stroke-miterlimit:4;stroke-dasharray:none;stroke-opacity:1;color-rendering:auto;image-rendering:auto;shape-rendering:auto;text-rendering:auto;enable-background:accumulate"
           id="path4156-6-7-0-9-4-8"
           cx="255"
           cy="947.362"
           r="5" />
        <circle
           style="color:#000000;clip-rule:nonzero;display:inline;overflow:visible;visibility:visible;opacity:1;isolation:auto;mix-blend-mode:normal;color-interpolation:sRGB;color-interpolation-filters:linearRGB;solid-color:#000000;solid-opacity:1;fill:#ffffff;fill-opacity:1;fill-rule:nonzero;stroke:#000000;stroke-width:2;stroke-linecap:round;stroke-linejoin:round;stroke-miterlimit:4;stroke-dasharray:none;stroke-opacity:1;color-rendering:auto;image-rendering:auto;shape-rendering:auto;text-rendering:auto;enable-background:accumulate"
           id="path4156-6-7-9-6-7-7"
           cx="270"
           cy="977.362"
           r="5" />
        <circle
           style="color:#000000;clip-rule:nonzero;display:inline;overflow:visible;visibility:visible;opacity:1;isolation:auto;mix-blend-mode:normal;color-interpolation:sRGB;color-interpolation-filters:linearRGB;solid-color:#000000;solid-opacity:1;fill:#ffffff;fill-opacity:1;fill-rule:nonzero;stroke:#000000;stroke-width:2;stroke-linecap:round;stroke-linejoin:round;stroke-miterlimit:4;stroke-dasharray:none;stroke-opacity:1;color-rendering:auto;image-rendering:auto;shape-rendering:auto;text-rendering:auto;enable-background:accumulate"
           id="path4156-6-7-5-3-6-3-4-7-9"
           cx="150"
           cy="1022.362"
           r="5" />
        <circle
           style="color:#000000;clip-rule:nonzero;display:inline;overflow:visible;visibility:visible;opacity:1;isolation:auto;mix-blend-mode:normal;color-interpolation:sRGB;color-interpolation-filters:linearRGB;solid-color:#000000;solid-opacity:1;fill:#ffffff;fill-opacity:1;fill-rule:nonzero;stroke:#000000;stroke-width:2;stroke-linecap:round;stroke-linejoin:round;stroke-miterlimit:4;stroke-dasharray:none;stroke-opacity:1;color-rendering:auto;image-rendering:auto;shape-rendering:auto;text-rendering:auto;enable-background:accumulate"
           id="path4156-6-7-5-3-6-6-3-5-2"
           cx="195"
           cy="1022.362"
           r="5" />
        <circle
           style="color:#000000;clip-rule:nonzero;display:inline;overflow:visible;visibility:visible;opacity:1;isolation:auto;mix-blend-mode:normal;color-interpolation:sRGB;color-interpolation-filters:linearRGB;solid-color:#000000;solid-opacity:1;fill:#ffffff;fill-opacity:1;fill-rule:nonzero;stroke:#000000;stroke-width:2;stroke-linecap:round;stroke-linejoin:round;stroke-miterlimit:4;stroke-dasharray:none;stroke-opacity:1;color-rendering:auto;image-rendering:auto;shape-rendering:auto;text-rendering:auto;enable-background:accumulate"
           id="path4156-6-7-5-3-6-0-3-4-0"
           cx="255"
           cy="1022.362"
           r="5" />
        <circle
           style="color:#000000;clip-rule:nonzero;display:inline;overflow:visible;visibility:visible;opacity:1;isolation:auto;mix-blend-mode:normal;color-interpolation:sRGB;color-interpolation-filters:linearRGB;solid-color:#000000;solid-opacity:1;fill:#ffffff;fill-opacity:1;fill-rule:nonzero;stroke:#000000;stroke-width:2;stroke-linecap:round;stroke-linejoin:round;stroke-miterlimit:4;stroke-dasharray:none;stroke-opacity:1;color-rendering:auto;image-rendering:auto;shape-rendering:auto;text-rendering:auto;enable-background:accumulate"
           id="path4156-6-7-5-3-6-62-3-8-2"
           cx="315"
           cy="1022.362"
           r="5" />
        <circle
           style="color:#000000;clip-rule:nonzero;display:inline;overflow:visible;visibility:visible;opacity:1;isolation:auto;mix-blend-mode:normal;color-interpolation:sRGB;color-interpolation-filters:linearRGB;solid-color:#000000;solid-opacity:1;fill:#ffffff;fill-opacity:1;fill-rule:nonzero;stroke:#000000;stroke-width:2;stroke-linecap:round;stroke-linejoin:round;stroke-miterlimit:4;stroke-dasharray:none;stroke-opacity:1;color-rendering:auto;image-rendering:auto;shape-rendering:auto;text-rendering:auto;enable-background:accumulate"
           id="path4156-6-7-5-3-6-61-8-1-3"
           cx="315"
           cy="947.362"
           r="5" />
        <circle
           style="color:#000000;clip-rule:nonzero;display:inline;overflow:visible;visibility:visible;opacity:1;isolation:auto;mix-blend-mode:normal;color-interpolation:sRGB;color-interpolation-filters:linearRGB;solid-color:#000000;solid-opacity:1;fill:#ffffff;fill-opacity:1;fill-rule:nonzero;stroke:#000000;stroke-width:2;stroke-linecap:round;stroke-linejoin:round;stroke-miterlimit:4;stroke-dasharray:none;stroke-opacity:1;color-rendering:auto;image-rendering:auto;shape-rendering:auto;text-rendering:auto;enable-background:accumulate"
           id="path4156-6-7-5-3-6-8-6-2-7"
           cx="335"
           cy="947.362"
           r="5" />
        <circle
           style="color:#000000;clip-rule:nonzero;display:inline;overflow:visible;visibility:visible;opacity:1;isolation:auto;mix-blend-mode:normal;color-interpolation:sRGB;color-interpolation-filters:linearRGB;solid-color:#000000;solid-opacity:1;fill:#ffffff;fill-opacity:1;fill-rule:nonzero;stroke:#000000;stroke-width:2;stroke-linecap:round;stroke-linejoin:round;stroke-miterlimit:4;stroke-dasharray:none;stroke-opacity:1;color-rendering:auto;image-rendering:auto;shape-rendering:auto;text-rendering:auto;enable-background:accumulate"
           id="path4156-6-7-5-3-6-7-0-8-5"
           cx="365"
           cy="1022.362"
           r="5" />
        <circle
           style="color:#000000;clip-rule:nonzero;display:inline;overflow:visible;visibility:visible;opacity:1;isolation:auto;mix-blend-mode:normal;color-interpolation:sRGB;color-interpolation-filters:linearRGB;solid-color:#000000;solid-opacity:1;fill:#ffffff;fill-opacity:1;fill-rule:nonzero;stroke:#000000;stroke-width:2;stroke-linecap:round;stroke-linejoin:round;stroke-miterlimit:4;stroke-dasharray:none;stroke-opacity:1;color-rendering:auto;image-rendering:auto;shape-rendering:auto;text-rendering:auto;enable-background:accumulate"
           id="path4156-6-7-5-3-6-9-4-9-9"
           cx="395"
           cy="947.362"
           r="5" />
        <circle
           style="color:#000000;clip-rule:nonzero;display:inline;overflow:visible;visibility:visible;opacity:1;isolation:auto;mix-blend-mode:normal;color-interpolation:sRGB;color-interpolation-filters:linearRGB;solid-color:#000000;solid-opacity:1;fill:#ffffff;fill-opacity:1;fill-rule:nonzero;stroke:#000000;stroke-width:2;stroke-linecap:round;stroke-linejoin:round;stroke-miterlimit:4;stroke-dasharray:none;stroke-opacity:1;color-rendering:auto;image-rendering:auto;shape-rendering:auto;text-rendering:auto;enable-background:accumulate"
           id="path4156-6-7-5-3-6-37-8-8-8"
           cx="435"
           cy="947.362"
           r="5" />
        <circle
           style="color:#000000;clip-rule:nonzero;display:inline;overflow:visible;visibility:visible;opacity:1;isolation:auto;mix-blend-mode:normal;color-interpolation:sRGB;color-interpolation-filters:linearRGB;solid-color:#000000;solid-opacity:1;fill:#ffffff;fill-opacity:1;fill-rule:nonzero;stroke:#000000;stroke-width:2;stroke-linecap:round;stroke-linejoin:round;stroke-miterlimit:4;stroke-dasharray:none;stroke-opacity:1;color-rendering:auto;image-rendering:auto;shape-rendering:auto;text-rendering:auto;enable-background:accumulate"
           id="path4156-6-7-5-3-6-92-7-2-7"
           cx="440"
           cy="1022.362"
           r="5" />
        <circle
           style="color:#000000;clip-rule:nonzero;display:inline;overflow:visible;visibility:visible;opacity:1;isolation:auto;mix-blend-mode:normal;color-interpolation:sRGB;color-interpolation-filters:linearRGB;solid-color:#000000;solid-opacity:1;fill:#ffffff;fill-opacity:1;fill-rule:nonzero;stroke:#000000;stroke-width:2;stroke-linecap:round;stroke-linejoin:round;stroke-miterlimit:4;stroke-dasharray:none;stroke-opacity:1;color-rendering:auto;image-rendering:auto;shape-rendering:auto;text-rendering:auto;enable-background:accumulate"
           id="path4156-7-9-1-9"
           cx="15"
           cy="982.362"
           r="5" />
      </g>
    </g>
    <path
       id="path4244-1-3-5-0-3"
       d="m -11.8418,949.88548 c -1.2912,0 -2.38767,0.8291 -2.808595,1.9785 -7.337875,-0.054 -12.85378,-0.2702 -16.898435,-0.094 -2.281935,0.1 -4.13847,0.3225 -5.69141,0.8223 -1.552935,0.4997 -2.81432,1.3119 -3.71289,2.5039 -1.79713,2.3839 -2.15395,5.9381 -2.19336,11.4941 -0.03565,5.0296 0.232045,11.8896 0.28516,20.9863 -1.150335,0.4204 -1.98047,1.5168 -1.98047,2.8086 0,1.651 1.34907,3 3,3 1.65093,0 3,-1.349 3,-3 0,-0.1863 -0.0218,-0.3678 -0.05469,-0.5449 0.448365,-0.7338 0.631115,-1.5851 0.70703,-2.4961 0.171525,-2.0583 -0.15234,-4.5423 -0.15234,-6.959 0,-2.4166 0.326615,-4.683 1.51953,-6.2735 0.897165,-1.1962 2.311335,-2.1352 4.73633,-2.5273 0.46544,1.0562 1.52024,1.8008 2.74414,1.8008 1.65093,0 3,-1.349 3,-3 0,-1.6509 -1.34907,-3 -3,-3 -1.37859,0 -2.534945,0.9452 -2.88281,2.2168 -2.938905,0.4608 -4.95252,1.6463 -6.19922,3.3086 -1.619585,2.1595 -1.91797,4.8913 -1.91797,7.4746 0,2.5834 0.301135,5.1013 0.160155,6.793 -0.02045,0.2451 -0.05323,0.4615 -0.0918,0.664 -0.187725,-0.1165 -0.387635,-0.21 -0.59961,-0.2832 -0.05712,-8.9798 -0.30799,-16.083 -0.273435,-20.9551 0.0387,-5.4597 0.52565,-8.6261 1.791015,-10.3047 0.632685,-0.8392 1.457235,-1.3943 2.726565,-1.8027 1.269325,-0.4085 2.971385,-0.6347 5.166015,-0.7305 3.63208,-0.1584 9.590075,0.031 16.236325,0.1 -0.85492,0.9402 -1.67619,2.0954 -2.392575,3.5879 -1.57315,3.2774 -2.722655,7.7817 -2.722655,12.9317 0,5.1334 1.009345,10.2616 3.04883,14.209 2.03948,3.9474 5.256725,6.791 9.45117,6.791 4.194445,0 7.303708,-2.8645 9.212891,-6.8145 1.909182,-3.9502 2.787109,-9.0689 2.787109,-14.1856 0,-5.2 -1.551451,-9.7242 -3.306641,-12.9746 -0.792442,-1.4675 -1.61592,-2.5896 -2.388671,-3.4961 0.0036,-0.01 0.0063,-0.02 0.0098,-0.029 l 9.371094,0 c 0.302971,0.8452 0.969038,1.512 1.814453,1.8144 l 0,31.8692 c -1.160566,0.415 -2,1.5172 -2,2.8164 0,1.651 1.349068,3 3,3 1.298338,0 2.398841,-0.8406 2.814453,-2 l 14.371092,0 c 0.415615,1.1594 1.516115,2 2.814455,2 1.65093,0 3,-1.349 3,-3 0,-1.2992 -0.839435,-2.4014 -2,-2.8164 l 0,-31.8692 c 0.61236,-0.219 1.13784,-0.6219 1.49414,-1.1543 2.091415,0.5479 5.58454,1.6224 9.558595,3.6094 3.05344,1.5267 6.07878,3.507 8.30079,5.9512 2.22199,2.4442 3.64647,5.3071 3.64647,8.7793 0,7.1111 -4.05809,11.1147 -8.24608,13.5078 -2.07799,1.1874 -4.157525,1.9343 -5.728525,2.3867 -0.53386,-0.8357 -1.46499,-1.3945 -2.525425,-1.3945 -1.65093,0 -3,1.3491 -3,3 0,1.651 1.34907,3 3,3 1.29834,0 2.39884,-0.8406 2.814455,-2 l 16.871095,0 c 0.41561,1.1594 1.51611,2 2.81445,2 1.65093,0 3,-1.349 3,-3 0,-1.2992 -0.83943,-2.4014 -2,-2.8164 l 0,-31.8692 c 0.61236,-0.219 1.13784,-0.6219 1.49414,-1.1543 2.09142,0.5479 5.58454,1.6224 9.55859,3.6094 3.05345,1.5267 6.07879,3.507 8.30079,5.9512 2.22199,2.4442 3.64648,5.3071 3.64648,8.7793 0,7.1111 -4.0581,11.1147 -8.24609,13.5078 -2.07798,1.1874 -4.15752,1.9343 -5.72852,2.3867 -0.53383,-0.8357 -1.46496,-1.3945 -2.52539,-1.3945 -1.65093,0 -3,1.3491 -3,3 0,1.651 1.34907,3 3,3 1.29834,0 2.39884,-0.8406 2.81445,-2 l 16.8711,0 c 0.41561,1.1594 1.51611,2 2.81445,2 1.65093,0 3,-1.349 3,-3 0,-1.2992 -0.83943,-2.4014 -2,-2.8164 l 0,-31.8692 c 0.83594,-0.299 1.49889,-0.9533 1.80664,-1.7851 4.43256,0.028 8.37991,0.1521 11.16016,0.8769 1.68727,0.4401 2.94679,1.0804 3.76367,1.9453 0.81688,0.8649 1.26953,1.968 1.26953,3.6485 0,1.6806 -0.46371,2.8217 -1.19336,3.6973 -0.72965,0.8756 -1.77036,1.496 -2.98242,1.9238 -1.42934,0.5045 -3.04691,0.7052 -4.53516,0.7969 -0.43676,-1.1185 -1.52014,-1.918 -2.78906,-1.918 -1.65093,0 -3,1.3491 -3,3 0,1.651 1.34907,3 3,3 0.46104,0 0.894,-0.1132 1.28516,-0.3008 l 18.51562,18.5156 c -0.1875,0.3911 -0.30078,0.8243 -0.30078,1.2852 0,1.651 1.34907,3 3,3 1.65093,0 3,-1.349 3,-3 0,-1.2992 -0.83943,-2.4014 -2,-2.8164 l 0,-31.8692 c 0.84541,-0.3024 1.51148,-0.9692 1.81445,-1.8144 l 4.3711,0 c 0.41561,1.1594 1.51611,2 2.81445,2 0.0401,0 0.0775,-0.01 0.11719,-0.012 l 12.91015,32.2715 c -0.6242,0.5506 -1.02734,1.3468 -1.02734,2.2402 0,1.651 1.34907,3 3,3 1.65093,0 3,-1.349 3,-3 0,-0.8934 -0.40314,-1.6896 -1.02734,-2.2402 l 12.15234,-30.379 c 0.28591,11.1073 1.54456,19.238 4.69727,24.6836 3.21522,5.5536 8.42424,8.2925 15.83007,8.8301 0.38479,1.2135 1.5106,2.1055 2.84766,2.1055 1.65093,0 3,-1.349 3,-3 0,-1.6509 -1.34907,-3 -3,-3 -1.26394,0 -2.345,0.7927 -2.78516,1.9043 -6.91148,-0.4764 -11.27166,-2.8492 -14.16211,-7.8418 -2.37191,-4.0969 -3.67947,-10.1647 -4.22851,-18.4004 0.12903,0.3785 0.18146,0.7759 0.32617,1.1445 0.74715,1.9031 1.71479,3.664 3.07031,4.9942 1.35553,1.3303 3.14518,2.1992 5.2793,2.1992 3.97222,0 7.06429,-1.4542 8.91992,-4.5469 1.58876,-2.648 2.34368,-6.3609 2.5293,-11.3437 0.91907,-0.514 1.55078,-1.4862 1.55078,-2.6094 0,-1.6509 -1.34907,-3 -3,-3 -1.29919,0 -2.40144,0.8394 -2.81641,2 l -14.36718,0 c -0.41497,-1.1606 -1.51722,-2 -2.81641,-2 -1.65093,0 -3,1.3491 -3,3 0,0.8925 0.40238,1.6877 1.02539,2.2383 l -12.90625,32.2734 c -0.0403,0 -0.0784,-0.012 -0.11914,-0.012 -0.0407,0 -0.0788,0.01 -0.11914,0.012 l -12.9082,-32.2715 c 0.6242,-0.5506 1.02734,-1.3468 1.02734,-2.2402 0,-1.6509 -1.34907,-3 -3,-3 -1.29919,0 -2.40144,0.8394 -2.81641,2 l -4.36718,0 c -0.41497,-1.1606 -1.51722,-2 -2.81641,-2 -1.65093,0 -3,1.3491 -3,3 0,1.2991 0.83963,2.3994 2,2.8144 l 0,31.8692 c -0.0976,0.035 -0.19242,0.073 -0.28516,0.1172 l -18.51562,-18.5157 c 0.0596,-0.1241 0.10616,-0.2539 0.14844,-0.3867 1.61041,-0.079 3.37178,-0.2683 5.14062,-0.8926 1.44419,-0.5097 2.82535,-1.2955 3.85352,-2.5293 1.02816,-1.2338 1.6582,-2.907 1.6582,-4.9765 0,-2.0694 -0.6411,-3.777 -1.81641,-5.0215 -1.17531,-1.2444 -2.80641,-2.0104 -4.71289,-2.5078 -3.15732,-0.8237 -7.17857,-0.9442 -11.65234,-0.9629 -0.41284,-1.1645 -1.51635,-2.0078 -2.81836,-2.0078 -1.65093,0 -3,1.3491 -3,3 0,1.2991 0.83963,2.3994 2,2.8144 l 0,31.8692 c -0.84636,0.3026 -1.51379,0.97 -1.81641,1.8164 l -13.46093,0 c 1.0352,-0.4186 1.92239,-0.6268 3.02343,-1.2559 4.56201,-2.6069 9.25391,-7.3552 9.25391,-15.2441 0,-4.0277 -1.70051,-7.4129 -4.16602,-10.125 -2.4655,-2.712 -5.69016,-4.7962 -8.88671,-6.3945 -3.86195,-1.931 -7.53184,-3.0879 -9.97461,-3.7559 -0.1419,-1.5211 -1.41589,-2.7246 -2.97266,-2.7246 -1.65093,0 -3,1.3491 -3,3 0,1.2991 0.83963,2.3994 2,2.8144 l 0,31.8692 c -0.84636,0.3026 -1.51379,0.97 -1.81641,1.8164 l -13.460935,0 c 1.035205,-0.4186 1.922395,-0.6268 3.023435,-1.2559 4.56201,-2.6069 9.25391,-7.3552 9.25391,-15.2441 0,-4.0277 -1.70051,-7.4129 -4.16602,-10.125 -2.4655,-2.712 -5.69016,-4.7962 -8.886715,-6.3945 -3.861945,-1.931 -7.531835,-3.0879 -9.97461,-3.7559 -0.141895,-1.5211 -1.41588,-2.7246 -2.972655,-2.7246 -1.65093,0 -3,1.3491 -3,3 0,1.2991 0.839635,2.3994 2,2.8144 l 0,31.8692 c -0.84636,0.3026 -1.513785,0.97 -1.816405,1.8164 l -14.367189,0 c -0.302621,-0.8464 -0.970045,-1.5138 -1.816406,-1.8164 l 0,-31.8692 c 1.160366,-0.415 2,-1.5153 2,-2.8144 0,-1.6509 -1.349068,-3 -3,-3 -1.299195,0 -2.401439,0.8394 -2.816406,2 l -9.367188,0 c -0.414966,-1.1606 -1.517211,-2 -2.816406,-2 -1.65093,0 -3,1.3491 -3,3 0,1.651 1.34907,3 3,3 0.56206,0 1.08244,-0.1661 1.533205,-0.4375 0.598695,0.751 1.26111,1.7338 1.898436,2.914 1.61981,2.9996 3.068359,7.2235 3.068359,12.0235 0,4.8834 -0.872073,9.7665 -2.587891,13.3164 -1.715819,3.55 -4.106554,5.6836 -7.412109,5.6836 -3.305555,0 -5.83831,-2.1563 -7.67383,-5.709 -1.835515,-3.5526 -2.82617,-8.4243 -2.82617,-13.291 0,-4.85 1.100495,-9.0938 2.527345,-12.0664 0.646425,-1.3467 1.359795,-2.4134 2.03711,-3.1641 0.524575,0.4485 1.194935,0.7305 1.935545,0.7305 1.65093,0 3,-1.349 3,-3 0,-1.6509 -1.34907,-3 -3,-3 z m 0,1 c 1.11049,0 2,0.8895 2,2 0,1.1105 -0.88951,2 -2,2 -1.11049,0 -2,-0.8895 -2,-2 0,-1.1105 0.88951,-2 2,-2 z m 7.5,0 c 1.11049,0 2,0.8895 2,2 0,1.1105 -0.88951,2 -2,2 -1.11049,0 -2,-0.8895 -2,-2 0,-1.1105 0.88951,-2 2,-2 z m 15,0 c 1.110492,0 2,0.8895 2,2 0,1.1105 -0.889508,2 -2,2 -1.110492,0 -2,-0.8895 -2,-2 0,-1.1105 0.889508,-2 2,-2 z m 20,0 c 1.11049,0 2,0.8895 2,2 0,1.1105 -0.88951,2 -2,2 -1.11049,0 -2,-0.8895 -2,-2 0,-1.1105 0.88951,-2 2,-2 z m 30,0 c 1.11049,0 2,0.8895 2,2 0,1.1105 -0.88951,2 -2,2 -1.11049,0 -2,-0.8895 -2,-2 0,-1.1105 0.88951,-2 2,-2 z m 30,0 c 1.11049,0 2,0.8895 2,2 0,1.1105 -0.88951,2 -2,2 -1.11049,0 -2,-0.8895 -2,-2 0,-1.1105 0.88951,-2 2,-2 z m 30,0 c 1.11049,0 2,0.8895 2,2 0,1.1105 -0.88951,2 -2,2 -1.11049,0 -2,-0.8895 -2,-2 0,-1.1105 0.88951,-2 2,-2 z m 10,0 c 1.11049,0 2,0.8895 2,2 0,1.1105 -0.88951,2 -2,2 -1.11049,0 -2,-0.8895 -2,-2 0,-1.1105 0.88951,-2 2,-2 z m 30,0 c 1.11049,0 2,0.8895 2,2 0,1.1105 -0.88951,2 -2,2 -1.11049,0 -2,-0.8895 -2,-2 0,-1.1105 0.88951,-2 2,-2 z m 20,0 c 1.11049,0 2,0.8895 2,2 0,1.1105 -0.88951,2 -2,2 -1.11049,0 -2,-0.8895 -2,-2 0,-1.1105 0.88951,-2 2,-2 z m -17.18555,3 14.3711,0 c 0.34567,0.9643 1.16215,1.7062 2.17773,1.9277 -0.21242,4.5521 -0.90678,7.9104 -2.1582,9.9961 -1.51937,2.5322 -3.6773,3.5762 -7.20508,3.5762 -1.61588,0 -2.82065,-0.5885 -3.87891,-1.627 -1.05825,-1.0385 -1.92354,-2.5568 -2.60742,-4.2988 -1,-2.5471 -1.57742,-5.4325 -2.03125,-7.9824 0.61482,-0.354 1.08965,-0.9157 1.33203,-1.5918 z m -65.31445,12 c 1.11049,0 2,0.8895 2,2 0,1.1105 -0.88951,2 -2,2 -1.11049,0 -2,-0.8895 -2,-2 0,-1.1105 0.88951,-2 2,-2 z m -127.5,2.5 c 1.11049,0 2,0.8895 2,2 0,1.1105 -0.88951,2 -2,2 -1.11049,0 -2,-0.8895 -2,-2 0,-1.1105 0.88951,-2 2,-2 z m -12.5,20 c 1.11049,0 2,0.8895 2,2 0,1.1105 -0.88951,2 -2,2 -1.11049,0 -2,-0.8895 -2,-2 0,-1.1105 0.88951,-2 2,-2 z m 52.5,0 c 1.110492,0 2,0.8895 2,2 0,1.1105 -0.889508,2 -2,2 -1.110492,0 -2,-0.8895 -2,-2 0,-1.1105 0.889508,-2 2,-2 z m 20,0 c 1.11049,0 2,0.8895 2,2 0,1.1105 -0.88951,2 -2,2 -1.11049,0 -2,-0.8895 -2,-2 0,-1.1105 0.88951,-2 2,-2 z m 7.5,0 c 1.11049,0 2,0.8895 2,2 0,1.1105 -0.88951,2 -2,2 -1.11049,0 -2,-0.8895 -2,-2 0,-1.1105 0.88951,-2 2,-2 z m 22.5,0 c 1.11049,0 2,0.8895 2,2 0,1.1105 -0.88951,2 -2,2 -1.11049,0 -2,-0.8895 -2,-2 0,-1.1105 0.88951,-2 2,-2 z m 7.5,0 c 1.11049,0 2,0.8895 2,2 0,1.1105 -0.88951,2 -2,2 -1.11049,0 -2,-0.8895 -2,-2 0,-1.1105 0.88951,-2 2,-2 z m 22.5,0 c 1.11049,0 2,0.8895 2,2 0,1.1105 -0.88951,2 -2,2 -1.11049,0 -2,-0.8895 -2,-2 0,-1.1105 0.88951,-2 2,-2 z m 30,0 c 1.11049,0 2,0.8895 2,2 0,1.1105 -0.88951,2 -2,2 -1.11049,0 -2,-0.8895 -2,-2 0,-1.1105 0.88951,-2 2,-2 z m 25,0 c 1.11049,0 2,0.8895 2,2 0,1.1105 -0.88951,2 -2,2 -1.11049,0 -2,-0.8895 -2,-2 0,-1.1105 0.88951,-2 2,-2 z m 37.5,0 c 1.11049,0 2,0.8895 2,2 0,1.1105 -0.88951,2 -2,2 -1.11049,0 -2,-0.8895 -2,-2 0,-1.1105 0.88951,-2 2,-2 z"
       style="color:#000000;font-style:normal;font-variant:normal;font-weight:normal;font-stretch:normal;font-size:medium;line-height:normal;font-family:sans-serif;text-indent:0;text-align:start;text-decoration:none;text-decoration-line:none;text-decoration-style:solid;text-decoration-color:#000000;letter-spacing:normal;word-spacing:normal;text-transform:none;direction:ltr;block-progression:tb;writing-mode:lr-tb;baseline-shift:baseline;text-anchor:start;white-space:normal;clip-rule:nonzero;display:inline;overflow:visible;visibility:visible;opacity:1;isolation:auto;mix-blend-mode:normal;color-interpolation:sRGB;color-interpolation-filters:linearRGB;solid-color:#000000;solid-opacity:1;fill:#000000;fill-opacity:1;fill-rule:evenodd;stroke:none;stroke-width:2;stroke-linecap:butt;stroke-linejoin:round;stroke-miterlimit:4;stroke-dasharray:none;stroke-dashoffset:0;stroke-opacity:1;color-rendering:auto;image-rendering:auto;shape-rendering:auto;text-rendering:auto;enable-background:accumulate"
       inkscape:connector-curvature="0" />
  </g>
</svg>
