<?xml version="1.0" encoding="UTF-8" standalone="no"?>
<!-- Created with Inkscape (http://www.inkscape.org/) -->

<svg
   xmlns:dc="http://purl.org/dc/elements/1.1/"
   xmlns:cc="http://creativecommons.org/ns#"
   xmlns:rdf="http://www.w3.org/1999/02/22-rdf-syntax-ns#"
   xmlns:svg="http://www.w3.org/2000/svg"
   xmlns="http://www.w3.org/2000/svg"
   xmlns:sodipodi="http://sodipodi.sourceforge.net/DTD/sodipodi-0.dtd"
   xmlns:inkscape="http://www.inkscape.org/namespaces/inkscape"
   width="40.294456in"
   height="40.598927in"
   viewBox="0 0 3626.5011 3653.9034"
   id="svg2"
   version="1.1"
   inkscape:version="0.91 r"
   sodipodi:docname="Logo.svg">
  <defs
     id="defs4" />
  <sodipodi:namedview
     id="base"
     pagecolor="#ffffff"
     bordercolor="#666666"
     borderopacity="1.0"
     inkscape:pageopacity="0.0"
     inkscape:pageshadow="2"
     inkscape:zoom="0.14027829"
     inkscape:cx="3638.819"
     inkscape:cy="1900.3025"
     inkscape:document-units="px"
     inkscape:current-layer="layer1"
     showgrid="true"
     units="in"
     inkscape:window-width="1600"
     inkscape:window-height="848"
     inkscape:window-x="0"
     inkscape:window-y="0"
     inkscape:window-maximized="1"
     showguides="false"
     fit-margin-top="0"
     fit-margin-left="0"
     fit-margin-right="0"
     fit-margin-bottom="0">
    <inkscape:grid
       type="xygrid"
       id="grid4136"
       empspacing="4"
       originx="542.01294"
       originy="1227.4521" />
  </sodipodi:namedview>
  <metadata
     id="metadata7">
    <rdf:RDF>
      <cc:Work
         rdf:about="">
        <dc:format>image/svg+xml</dc:format>
        <dc:type
           rdf:resource="http://purl.org/dc/dcmitype/StillImage" />
        <dc:title />
      </cc:Work>
    </rdf:RDF>
  </metadata>
  <g
     inkscape:label="Layer 1"
     inkscape:groupmode="layer"
     id="layer1"
     transform="translate(542.01292,1374.089)">
    <path
       style="color:#000000;clip-rule:nonzero;display:inline;overflow:visible;visibility:visible;opacity:1;isolation:auto;mix-blend-mode:normal;color-interpolation:sRGB;color-interpolation-filters:linearRGB;solid-color:#000000;solid-opacity:1;fill:#000000;fill-opacity:1;fill-rule:nonzero;stroke:none;stroke-width:17.01466179;stroke-linecap:round;stroke-linejoin:round;stroke-miterlimit:4;stroke-dasharray:none;stroke-dashoffset:0;stroke-opacity:1;color-rendering:auto;image-rendering:auto;shape-rendering:auto;text-rendering:auto;enable-background:accumulate"
       d="M 526.70703 -23.492188 C 225.77325 -23.492188 -17.492187 219.77546 -17.492188 520.70898 L -17.492188 3133.1973 C -17.492188 3434.1307 225.77345 3677.3945 526.70703 3677.3945 L 3111.793 3677.3945 C 3412.7265 3677.3945 3655.9941 3434.1307 3655.9941 3133.1973 L 3655.9941 520.70898 C 3655.9941 219.77546 3412.7267 -23.492188 3111.793 -23.492188 L 526.70703 -23.492188 z M 526.70703 40.507812 L 3111.793 40.507812 C 3378.3776 40.507812 3591.9941 254.12426 3591.9941 520.70898 L 3591.9941 3133.1973 C 3591.9941 3399.7819 3378.3778 3613.3945 3111.793 3613.3945 L 526.70703 3613.3945 C 260.12214 3613.3945 46.507812 3399.7819 46.507812 3133.1973 L 46.507812 520.70898 C 46.507812 254.12426 260.12234 40.507812 526.70703 40.507812 z M 1873.3125 224.12109 L 1801.75 224.23242 L 1624.3457 691.06836 L 1690.9082 690.9668 L 1733.2227 571.21289 L 1943.5352 570.88867 L 1986.2207 690.50977 L 2051.8457 690.4082 L 1873.3125 224.12109 z M 1837.4707 286.36523 L 1923.7676 518.41797 L 1752.2051 518.68359 L 1837.4707 286.36523 z M 2341.0605 307.15625 C 2325.7207 307.29525 2311.2484 309.61051 2297.6445 314.09961 C 2262.1203 325.96041 2237.0022 351.15965 2222.291 389.69727 C 2209.5859 422.97972 2209.4961 452.71524 2222.0215 478.9043 C 2234.5469 505.09336 2261.1315 530.96362 2301.7754 556.51367 L 2335.0117 577.22852 C 2362.6821 594.70418 2380.734 611.96444 2389.168 629.00977 C 2397.7966 646.1294 2398.0244 665.39298 2389.8516 686.80273 C 2380.4899 711.32664 2364.1351 726.71576 2340.7871 732.9668 C 2317.4392 739.21784 2288.9295 735.91619 2255.2578 723.0625 C 2233.0695 714.59244 2211.7922 702.56773 2191.4258 686.98828 C 2171.0594 671.40883 2151.4696 652.33413 2132.6562 629.76562 L 2109.4746 690.49219 C 2130.8958 709.15024 2152.2955 725.23527 2173.6738 738.74805 C 2195.2468 752.33512 2216.3493 763.06573 2236.9805 770.94141 C 2291.6727 791.81935 2337.2906 796.74642 2373.834 785.7207 C 2410.5721 774.7693 2437.0022 748.17507 2453.125 705.93945 C 2466.6474 670.51604 2466.9103 638.28304 2453.9141 609.23828 C 2441.1867 580.07319 2414.4273 552.90884 2373.6348 527.74805 L 2340.8027 506.85352 C 2310.7966 488.48627 2291.8127 472.20722 2283.8496 458.01758 C 2276.1554 443.70763 2275.9862 426.91905 2283.3418 407.65039 C 2292.1091 384.68349 2307.5299 370.27759 2329.6074 364.43359 C 2351.8796 358.66389 2379.0748 361.90865 2411.1895 374.16797 C 2429.6797 381.22637 2447.8468 391.17226 2465.6934 404.00586 C 2483.54 416.83946 2501.6117 432.88163 2519.9082 452.13086 L 2541.8633 394.61523 C 2522.4984 378.74904 2502.9148 364.91769 2483.1113 353.12109 C 2463.3079 341.32439 2443.1886 331.52601 2422.752 323.72461 C 2394.4387 312.91641 2368.2352 307.3938 2344.1406 307.1582 C 2343.1103 307.1482 2342.0831 307.1482 2341.0605 307.1582 L 2341.0605 307.15625 z M 1224.959 344.34375 L 1165.7168 366.14258 L 1326.8242 804.00586 L 1599.2793 703.75781 L 1580.9355 653.90039 L 1367.7227 732.35156 L 1224.959 344.34375 z M 2746.2227 487.27148 L 2711.5625 527.53125 L 2837.0781 635.5918 L 2567.3359 948.91016 L 2615.4102 990.30078 L 2885.1543 676.98047 L 3010.6719 785.04102 L 3045.332 744.78125 L 2746.2227 487.27148 z M 905.94922 556.79102 C 903.93432 556.77587 901.90322 556.81898 899.85352 556.91992 C 867.05772 558.53497 832.32032 574.91957 795.64062 606.07422 L 672.73828 710.46289 L 974.77734 1066.0645 L 1102.4414 957.63086 C 1142.2969 923.7788 1165.6721 889.02684 1172.5664 853.37695 C 1179.4608 817.72707 1169.421 784.02492 1142.4473 752.26758 C 1121.9473 728.132 1098.2972 713.6422 1071.4961 708.79883 C 1044.719 703.66181 1017.3422 708.60099 989.36719 723.61523 C 1006.3594 703.71579 1014.4749 683.0187 1013.7129 661.52539 C 1012.9509 640.03206 1003.3304 618.40808 984.85352 596.6543 C 962.47372 570.30563 936.17232 557.01833 905.94922 556.79102 z M 892.94531 617.41016 C 910.66411 617.6236 926.66748 626.14142 940.95508 642.96289 C 956.33008 661.06457 961.99778 679.48323 957.95898 698.2207 C 953.94408 716.66451 940.18595 735.86757 916.68555 755.82812 L 845.4707 816.31641 L 754.43359 709.13477 L 825.65039 648.64648 C 849.15089 628.68593 870.39371 618.29701 889.37891 617.47852 C 890.57541 617.41912 891.76401 617.39596 892.94531 617.41016 z M 1870.7734 730.44922 L 1828.2754 1401.9688 L 1794.8418 866.96875 L 1808.3477 1448.5527 L 1853.1191 1448.5527 L 1870.7734 730.44922 z M 1704.4746 736.18945 L 1766.2988 1409.3359 L 1649.2656 884.7207 L 1752.0371 1448.5527 L 1797.7676 1448.5527 L 1704.4746 736.18945 z M 2035.9102 751.18164 L 1890.6562 1406.6406 L 1941.4043 872.20703 L 1863.7871 1448.5527 L 1909.4316 1448.5527 L 2035.9102 751.18164 z M 1026.7734 757.03516 C 1048.2189 756.86047 1068.3821 767.88705 1087.2637 790.11719 C 1106.0104 812.18855 1113.6973 833.95023 1110.3242 855.40234 C 1106.975 876.56081 1092.3607 898.13165 1066.4785 920.11523 L 989.30664 985.66211 L 878.64844 855.37695 L 955.81836 789.83203 C 981.70056 767.84844 1005.3518 756.91621 1026.7734 757.03516 z M 1541.1074 768.25977 L 1707.0449 1427.7285 L 1508.2578 925.0293 L 1691.9023 1448.5527 L 1740.5684 1448.5527 L 1541.1074 768.25977 z M 2195.8184 797.875 L 1950.6992 1423.791 L 2085.3418 900.30859 L 1921.1758 1448.5527 L 1969.668 1448.5527 L 2195.8184 797.875 z M 1384.6953 825.87305 L 1649.2559 1448.5527 L 1678.2773 1448.5527 L 1384.6953 825.87305 z M 2346.5586 869.38086 L 2008.0488 1448.5527 L 2037.6152 1448.5527 L 2346.5586 869.38086 z M 1239.0898 907.60742 L 1576.377 1448.5527 L 1606.3945 1448.5527 L 1239.0898 907.60742 z M 2223.1113 950.58008 L 1983.7754 1448.5527 L 2007.3691 1448.5527 L 2223.1113 950.58008 z M 2484.4219 963.93945 L 2088.3359 1448.5527 L 2118.9492 1448.5527 L 2484.4219 963.93945 z M 1375.293 986.89844 L 1624.1797 1448.5527 L 1648.0508 1448.5527 L 1375.293 986.89844 z M 1107.875 1011.4531 L 1486.5859 1448.5527 L 1517.6035 1448.5527 L 1107.875 1011.4531 z M 2351.3203 1021.7852 L 2056.1445 1448.5527 L 2080.2305 1448.5527 L 2351.3203 1021.7852 z M 1253.6426 1068.8086 L 1543.2461 1448.5527 L 1567.5234 1448.5527 L 1253.6426 1068.8086 z M 2606.0117 1079.2207 L 2191.9824 1448.6895 C 2201.0946 1449.165 2209.8618 1450.8983 2218.1172 1453.7188 L 2606.0117 1079.2207 z M 2466.8125 1112.1699 L 2145.6953 1448.5527 L 2169.998 1448.5527 L 2466.8125 1112.1699 z M 994.2832 1134.8516 L 1406.1855 1481.5938 C 1410.8866 1476.1817 1416.1869 1471.3074 1421.9824 1467.0645 L 994.2832 1134.8516 z M 1146.3027 1168.7383 L 1445.5703 1454.4238 C 1451.645 1452.1969 1458.0123 1450.5658 1464.5996 1449.5957 L 1146.3027 1168.7383 z M 2708.3359 1212.3848 L 2268.9707 1494.5449 C 2272.5765 1500.4536 2275.5636 1506.7845 2277.8398 1513.4512 L 2708.3359 1212.3848 z M 2566.7422 1219.5098 L 2242.9004 1466.4805 C 2247.3046 1469.6355 2251.4272 1473.155 2255.2285 1476.9941 L 2566.7422 1219.5098 z M 901.11133 1274.7656 L 1382.6855 1564.666 L 1382.6855 1544.709 C 1382.6855 1542.9358 1382.7361 1541.1748 1382.8301 1539.4258 L 901.11133 1274.7656 z M 1055.918 1284.2305 L 1387.7441 1513.7402 C 1389.4674 1508.6393 1391.6078 1503.7348 1394.1211 1499.0625 L 1055.918 1284.2305 z M 2648.6523 1341.1602 L 2282.7891 1538.4043 C 2282.9231 1540.4886 2282.998 1542.5897 2282.998 1544.709 L 2282.998 1557.1973 L 2648.6523 1341.1602 z M 2788.875 1360.1562 L 2282.998 1581.5273 L 2282.998 1605.8125 L 2788.875 1360.1562 z M 984.71289 1412.4395 L 1382.6855 1603.7129 L 1382.6855 1584.8574 L 984.71289 1412.4395 z M 830.65234 1427.748 L 1382.6855 1650.4102 L 1382.6855 1625.3594 L 830.65234 1427.748 z M 2710.5215 1474.125 L 2282.998 1624.0918 L 2282.998 1643.1855 L 2710.5215 1474.125 z M 1805.5605 1515.2617 L 1801.2148 1819.3535 C 1797.6516 1822.639 1794.0505 1825.9588 1790.5391 1829.1836 C 1740.4555 1875.1801 1695.6517 1912.6449 1651.2402 1920.873 C 1606.8288 1929.1012 1555.3217 1914.4907 1477.7422 1833.7559 L 1428.4766 1892.1973 C 1515.2903 1982.5418 1593.5987 2012.7309 1663.0938 1999.8555 C 1716.077 1990.0392 1759.5803 1958.9037 1799.7188 1924.043 L 1796.1152 2176.1035 L 1868.1738 2177.373 L 1872.7383 1858.0098 C 1910.7546 1824.4292 1948.4863 1795.315 1988.8105 1781.3691 C 2041.9018 1763.0078 2101.261 1765.8035 2188.166 1824.9336 L 2225.8008 1756.6465 C 2157.357 1710.0773 2094.8452 1691.3438 2039.1113 1692.2578 C 2013.7778 1692.6733 1989.8452 1697.147 1967.3926 1704.9121 C 1932.8591 1716.8554 1902.2442 1735.4075 1874.1895 1756.5566 L 1877.6191 1516.5352 L 1805.5605 1515.2617 z M 2845.6426 1518.8945 L 2282.998 1664.7109 L 2282.998 1688.8027 L 2845.6426 1518.8945 z M 934.44141 1550.209 L 1382.6855 1684.4316 L 1382.6855 1665.502 L 934.44141 1550.209 z M 784.64258 1590.0332 L 1382.6855 1726.5332 L 1382.6855 1701.7461 L 784.64258 1590.0332 z M 2750.8301 1615.1328 L 2282.998 1700.4043 L 2282.998 1719.498 L 2750.8301 1615.1328 z M 1671.6992 1652.709 C 1618.6799 1652.709 1575.6992 1695.6896 1575.6992 1748.709 C 1575.6992 1801.7283 1618.6799 1844.709 1671.6992 1844.709 C 1724.7185 1844.709 1767.6992 1801.7283 1767.6992 1748.709 C 1767.6992 1695.6896 1724.7185 1652.709 1671.6992 1652.709 z M 2877.2441 1684.6895 L 2282.998 1740.9023 L 2282.998 1764.8438 L 2877.2441 1684.6895 z M 906.33984 1694.1465 L 1382.6855 1758.2949 L 1382.6855 1739.3789 L 906.33984 1694.1465 z M 764.21484 1757.625 L 1382.6855 1797.9395 L 1382.6855 1773.2852 L 764.21484 1757.625 z M 2768.582 1760.709 L 2282.998 1771.9844 L 2282.998 1791.0547 L 2768.582 1760.709 z M 1382.6855 1810.6152 L 901.10156 1840.709 L 1382.6855 1829.5273 L 1382.6855 1810.6152 z M 2282.998 1814.3574 L 2282.998 1838.2695 L 2882.9004 1853.4609 L 2282.998 1814.3574 z M 2282.998 1842.582 L 2282.998 1861.6602 L 2763.3438 1907.2715 L 2282.998 1842.582 z M 1382.6855 1843.7363 L 769.87109 1926.3965 L 1382.6855 1868.4277 L 1382.6855 1843.7363 z M 1382.6855 1882.8125 L 918.85352 1986.2852 L 1382.6855 1901.7402 L 1382.6855 1882.8125 z M 2282.998 1888.793 L 2282.998 1912.8086 L 2862.4707 2021.0527 L 2282.998 1888.793 z M 2282.998 1915.7891 L 2282.998 1934.8887 L 2735.2422 2051.209 L 2282.998 1915.7891 z M 1382.6855 1916.6758 L 801.47266 2092.1934 L 1382.6855 1941.5645 L 1382.6855 1916.6758 z M 1382.6855 1959.8164 L 959.16211 2127.293 L 1382.6855 1978.7285 L 1382.6855 1959.8164 z M 2282.998 1968.166 L 2282.998 1992.373 L 2816.4609 2183.3398 L 2282.998 1968.166 z M 2282.998 1995.7812 L 2282.998 2014.8262 L 2684.9707 2188.9785 L 2282.998 1995.7812 z M 1382.6855 1996.2559 L 858.24023 2250.9297 L 1382.6855 2021.4336 L 1382.6855 1996.2559 z M 1382.6855 2046.584 L 1021.0312 2260.2578 L 1382.6855 2065.2812 L 1382.6855 2046.584 z M 2282.998 2057.5996 L 2282.998 2081.9434 L 2746.002 2336.3223 L 2282.998 2057.5996 z M 1382.6855 2088.2559 L 938.77734 2398.7012 L 1382.6855 2113.625 L 1382.6855 2088.2559 z M 2282.998 2088.4102 L 2282.998 2107.0801 L 2613.7656 2317.1875 L 2282.998 2088.4102 z M 1382.6855 2150.6816 L 1102.9414 2381.9082 L 1383.8379 2167.6895 C 1383.0807 2162.8097 1382.6855 2157.8075 1382.6855 2152.709 L 1382.6855 2150.6816 z M 2282.3047 2164.3223 C 2281.4598 2171.4 2279.8511 2178.2362 2277.5645 2184.748 L 2652.8301 2476.2344 L 2282.3047 2164.3223 z M 1391.6523 2193.4238 L 1041.1016 2531.8672 L 1401.6211 2210.1484 C 1397.7598 2204.956 1394.4143 2199.3548 1391.6523 2193.4238 z M 2273.6367 2194.2715 C 2271.6406 2198.4506 2269.35 2202.4598 2266.7949 2206.2754 L 2523.3809 2432.6797 L 2273.6367 2194.2715 z M 736.06445 2217.6348 L 268.23438 2329.6465 L 297.87891 2386.4375 L 692.75 2290.6543 L 388.54688 2560.1348 L 421.37305 2623.0215 L 816.24414 2527.2363 L 512.04102 2796.7188 L 541.54102 2853.2324 L 901.0625 2533.7246 L 864.33203 2463.3594 L 459.31641 2562.6758 L 772.79492 2288 L 736.06445 2217.6348 z M 1427.8242 2234.3066 L 1202.8711 2489.248 L 1440.0664 2240.7754 C 1435.8136 2238.9091 1431.725 2236.7436 1427.8242 2234.3066 z M 2227.5586 2239.8965 C 2221.4377 2242.7472 2214.9651 2244.9756 2208.2168 2246.4961 L 2539.2383 2599.6328 L 2227.5586 2239.8965 z M 1463.9199 2247.7227 L 1162.6934 2647.1465 L 1488.2168 2248.8652 L 1478.8418 2248.8652 C 1473.7638 2248.8652 1468.7811 2248.4739 1463.9199 2247.7227 z M 2199.0684 2248.1016 C 2195.0657 2248.6052 2190.9855 2248.8652 2186.8418 2248.8652 L 2181.5098 2248.8652 L 2416.041 2532.6094 L 2199.0684 2248.1016 z M 1528.4707 2248.8652 L 1318.3633 2579.6328 L 1547.1406 2248.8652 L 1528.4707 2248.8652 z M 1563.4492 2248.8652 L 1300.5566 2741.7051 L 1588.6074 2248.8652 L 1563.4492 2248.8652 z M 1620.7246 2248.8652 L 1446.5723 2650.8379 L 1639.7695 2248.8652 L 1620.7246 2248.8652 z M 1647.4434 2248.8652 L 1451.2969 2813.2109 L 1672.3066 2248.8652 L 1647.4434 2248.8652 z M 1700.6621 2248.8652 L 1584.3418 2701.1094 L 1719.7617 2248.8652 L 1700.6621 2248.8652 z M 1722.0273 2248.8652 L 1611.2051 2859.9062 L 1746.6133 2248.8652 L 1722.0273 2248.8652 z M 1773.8906 2248.8652 L 1728.2793 2729.2109 L 1791.6289 2258.8105 L 1776.3418 2880.6387 L 1816.3223 2248.8652 L 1773.8906 2248.8652 z M 1844.4961 2248.8652 L 1874.8418 2734.4492 L 1864.1953 2275.9043 L 1942.6406 2874.8984 L 1885.1426 2248.8652 L 1844.4961 2248.8652 z M 1916.0527 2248.8652 L 2020.418 2716.6973 L 1940.5469 2278.4961 L 2106.0078 2842.8262 L 1956.5527 2248.8652 L 1916.0527 2248.8652 z M 1992.3672 2248.8652 L 2161.4258 2676.3887 L 2017.0312 2264.7539 L 2262.418 2785.2148 L 2034.541 2248.8652 L 1992.3672 2248.8652 z M 2078.3535 2248.8652 L 2294.3906 2614.5195 L 2097.2598 2248.8652 L 2078.3535 2248.8652 z M 2099.3398 2248.8652 L 2408.0254 2703.4785 L 2124.5664 2248.8652 L 2099.3398 2248.8652 z M 2923.9766 2317.1699 C 2901.7375 2334.8451 2882.0329 2352.9654 2864.8613 2371.5332 C 2847.5813 2390.279 2833.1957 2409.0803 2821.7031 2427.9375 C 2791.237 2477.9269 2778.1049 2521.8917 2782.3086 2559.8301 C 2786.4039 2597.9463 2807.7535 2628.7677 2846.3574 2652.2949 C 2878.7349 2672.0274 2910.3842 2678.1423 2941.3066 2670.6387 C 2972.2985 2663.4213 3003.8708 2642.0409 3036.0234 2606.498 L 3062.5352 2578.0078 C 3086.0478 2551.8378 3105.5042 2536.1258 3120.9043 2530.873 C 3136.374 2525.9064 3152.9154 2528.7897 3170.5273 2539.5234 C 3191.5193 2552.317 3202.8831 2570.1012 3204.6191 2592.873 C 3206.2467 2615.8227 3198.1159 2641.9729 3180.2266 2671.3262 C 3169.9266 2688.2265 3156.8465 2704.2857 3140.9844 2719.5039 C 3125.1223 2734.7223 3106.0652 2749.5791 3083.8125 2764.0742 L 3136.3809 2796.1133 C 3155.5009 2779.9529 3172.6596 2763.208 3187.8574 2745.877 C 3203.0553 2728.5461 3216.3463 2710.5407 3227.7305 2691.8613 C 3254.2935 2648.2762 3265.0235 2607.8497 3259.9219 2570.584 C 3254.7119 2533.4963 3234.4954 2504.2192 3199.2715 2482.752 C 3168.8509 2464.2121 3139.6263 2458.7219 3111.5977 2466.2812 C 3083.569 2473.8406 3053.3014 2495.2833 3020.793 2530.6094 L 2994.3848 2559.5293 C 2972.1732 2583.5646 2951.9208 2598.1798 2933.627 2603.377 C 2915.2246 2608.752 2896.2387 2605.4771 2876.6699 2593.5508 C 2854.2547 2579.8899 2842.095 2561.011 2840.1895 2536.916 C 2838.2839 2512.821 2846.7081 2485.3858 2865.4648 2454.6094 C 2877.8248 2434.329 2893.5151 2415.5899 2912.5352 2398.3926 C 2931.5552 2381.1953 2953.8697 2365.3966 2979.4805 2350.9961 L 2923.9766 2317.1699 z M 2669.0449 2662.0117 L 2618.3477 2699.6211 L 2750.7246 2878.0684 L 2566.5059 3014.7285 L 2434.127 2836.2832 L 2383.4297 2873.8926 L 2661.4062 3248.6055 L 2712.1055 3210.9941 L 2598.1582 3057.3965 L 2782.377 2920.7344 L 2896.3242 3074.334 L 2947.0215 3036.7246 L 2669.0449 2662.0117 z M 1078.6152 2748.3262 C 1062.8159 2748.2877 1046.9046 2750.2649 1030.8789 2754.2559 C 973.78181 2768.6183 924.57466 2806.2191 883.25977 2867.0586 C 841.82777 2928.0705 825.02416 2987.6742 832.84766 3045.8711 C 840.55416 3104.2404 871.46609 3151.8004 925.58398 3188.5508 C 979.87428 3225.4183 1035.6543 3236.7299 1092.9238 3222.4844 C 1149.9039 3208.2943 1199.111 3170.6934 1240.543 3109.6816 C 1281.975 3048.6696 1298.7786 2989.0659 1290.9551 2930.8691 C 1282.9592 2872.5551 1251.8157 2824.9632 1197.5254 2788.0957 C 1158.6282 2761.6814 1118.991 2748.4242 1078.6152 2748.3262 z M 1091.9277 2805.0176 C 1118.2484 2805.105 1143.8514 2813.5965 1168.7344 2830.4941 C 1206.6514 2856.2428 1227.2148 2890.8574 1230.4258 2934.3379 C 1233.4645 2977.7014 1218.4817 3023.6844 1185.4766 3072.2871 C 1152.3544 3121.0621 1115.0799 3152.0339 1073.6523 3165.2012 C 1032.0523 3178.2515 992.29395 3171.903 954.37695 3146.1543 C 916.45996 3120.4056 896.06747 3085.9066 893.20117 3042.6602 C 890.16247 2999.2966 905.20397 2953.2282 938.32617 2904.4531 C 971.33127 2855.8504 1008.549 2824.9661 1049.9766 2811.7988 C 1064.1581 2807.2324 1078.1406 2804.9716 1091.9277 2805.0176 z M 2320.7969 2911.1582 L 2256.1348 2926.9473 L 2243.2383 3053.3008 L 2038.9277 3103.1895 L 1969.25 2997 L 1905.498 3012.5664 L 2188.9102 3423.6328 L 2258.4297 3406.6582 L 2320.7969 2911.1582 z M 1622.498 2980.8281 C 1572.4155 2981.0345 1531.3612 2991.2142 1499.332 3011.3652 C 1451.2413 3041.6218 1420.6236 3096.4183 1407.4824 3175.7539 C 1394.4093 3254.6785 1405.6705 3316.093 1441.2656 3360 C 1476.8268 3404.1125 1539.2089 3433.5568 1628.4102 3448.332 L 1756.3535 3469.5254 L 1832.5977 3009.2344 L 1704.6523 2988.041 C 1676.9053 2983.445 1651.1453 2981.0448 1627.373 2980.8398 C 1625.7386 2980.8278 1624.1135 2980.8181 1622.498 2980.8281 z M 1631.377 3032.8164 C 1648.3573 3032.7419 1666.7724 3034.3493 1686.6191 3037.6367 L 1761.8438 3050.0957 L 1702.5547 3408.0312 L 1627.3301 3395.5723 C 1563.8204 3385.0525 1519.7519 3362.9711 1495.127 3329.3281 C 1470.2624 3295.8567 1462.937 3248.2907 1473.1504 3186.6309 C 1483.4319 3124.5599 1505.7542 3081.5869 1540.1172 3057.7148 C 1563.6004 3041.2792 1594.0202 3032.9803 1631.377 3032.8164 z M 2237.1738 3108.8242 L 2209.0703 3354.6953 L 2070.5078 3149.5215 L 2237.1738 3108.8242 z "
       transform="translate(-542.01292,-1374.0891)"
       id="rect4180" />
  </g>
</svg>
