<?xml version="1.0" encoding="UTF-8" standalone="no"?>
<!-- Created with Inkscape (http://www.inkscape.org/) -->

<svg
   xmlns:dc="http://purl.org/dc/elements/1.1/"
   xmlns:cc="http://creativecommons.org/ns#"
   xmlns:rdf="http://www.w3.org/1999/02/22-rdf-syntax-ns#"
   xmlns:svg="http://www.w3.org/2000/svg"
   xmlns="http://www.w3.org/2000/svg"
   xmlns:sodipodi="http://sodipodi.sourceforge.net/DTD/sodipodi-0.dtd"
   xmlns:inkscape="http://www.inkscape.org/namespaces/inkscape"
   width="135"
   height="90"
   id="svg2"
   version="1.1"
   inkscape:version="0.91 r"
   sodipodi:docname="BlueberryEmpire.svg"
   inkscape:export-filename="C:\Users\greyden_h\Desktop\BE\CyanococcusRex-WithLettering-Regular-Curved-Italic2.png"
   inkscape:export-xdpi="1000"
   inkscape:export-ydpi="1000">
  <defs
     id="defs4" />
  <sodipodi:namedview
     id="base"
     pagecolor="#00ffff"
     bordercolor="#666666"
     borderopacity="1.0"
     inkscape:pageopacity="0"
     inkscape:pageshadow="2"
     inkscape:zoom="6.3362401"
     inkscape:cx="28.03149"
     inkscape:cy="47.966028"
     inkscape:document-units="px"
     inkscape:current-layer="layer1"
     showgrid="true"
     width="800px"
     inkscape:window-width="904"
     inkscape:window-height="597"
     inkscape:window-x="246"
     inkscape:window-y="207"
     inkscape:window-maximized="0"
     showguides="true"
     inkscape:guide-bbox="true"
     units="in"
     fit-margin-top="0"
     fit-margin-left="0"
     fit-margin-right="0"
     fit-margin-bottom="0">
    <inkscape:grid
       type="xygrid"
       id="grid2984"
       empspacing="5"
       visible="true"
       enabled="true"
       snapvisiblegridlinesonly="true"
       spacingx="0.5px"
       spacingy="0.5px"
       originx="-6.4182207px"
       originy="-32.78107px" />
  </sodipodi:namedview>
  <metadata
     id="metadata7">
    <rdf:RDF>
      <cc:Work
         rdf:about="">
        <dc:format>image/svg+xml</dc:format>
        <dc:type
           rdf:resource="http://purl.org/dc/dcmitype/StillImage" />
        <dc:title></dc:title>
      </cc:Work>
    </rdf:RDF>
  </metadata>
  <g
     inkscape:label="Layer 1"
     inkscape:groupmode="layer"
     id="layer1"
     transform="translate(-6.4182207,-929.58091)">
    <path
       style="fill:#ffffff;fill-opacity:1;stroke:#000000;stroke-width:0;stroke-linecap:butt;stroke-linejoin:miter;stroke-opacity:1;stroke-miterlimit:4;stroke-dasharray:none"
       d="m 66.203125,0.08203125 c -1.322887,0 -5.795666,5.86349565 -8.041016,11.00976575 -1.412947,1.2189 -4.613543,-4.1099932 -6.980468,-5.6582032 -1.034906,1.10476 1.476048,6.9635422 0.648437,7.1640622 C 41.467494,15.108472 32.59634,20.352571 26.398438,27.25 c -0.212458,1.104745 -0.651119,2.302061 -1.160157,3.529297 l -1.43164,3.447265 c 0.413005,0.60231 1.21849,1.186517 1.691406,2.316407 0.16725,0.399593 0.274039,0.875322 0.306641,1.433593 0.969303,-1.776048 2.130603,-3.511501 3.453124,-5.18164 l 3.291016,-7.935547 c 0.343656,-0.82851 0.85589,-1.543762 1.556641,-2.039063 0.700749,-0.49531 1.505471,-0.710937 2.333984,-0.710937 0.828513,0 1.456235,0.215627 1.746094,0.710937 0.233745,0.399409 0.217519,0.946318 0.02539,1.576172 4.235518,-2.9713 9.134297,-5.316127 14.480468,-6.679687 1.10695,-0.28234 1.939583,-0.628111 2.798828,-1.488281 8.605976,2.45238 8.538556,-7.7065898 10.820313,-8.4121098 2.052666,0.7885301 2.077028,10.8578998 11.005859,8.3749998 0.848861,1.14997 1.648166,1.169088 2.316406,1.335938 9.377329,2.341443 17.557917,7.164581 23.183599,13.458984 l 2.44726,0 c 0.82852,0 1.45624,0.215628 1.7461,0.710938 0.28987,0.4953 0.20889,1.212505 -0.13477,2.041015 -0.21776,0.524995 -0.51085,0.996842 -0.86914,1.404297 0.0639,0.09767 0.12869,0.194794 0.19141,0.292969 0.72955,-1.047481 1.57701,-1.93316 2.55859,-2.626953 0.48157,-0.340383 0.99076,-0.628034 1.51953,-0.871094 C 104.14757,22.689177 93.663727,15.481682 81.091797,12.367188 80.145144,12.132677 82.477694,6.4865375 81.240234,5.3046875 77.76204,8.0244275 77.225529,10.551999 74.363281,11.380859 73.320473,8.3360794 67.615993,0.08203125 66.203125,0.08203125 Z m 46.652345,36.40820275 -0.25586,0 c -0.65121,0 -1.10714,0.153878 -1.45313,0.398438 -0.34599,0.24455 -0.66348,0.637852 -0.93359,1.289062 l -1.18555,2.857422 c 1.15234,3.040136 1.77735,6.241545 1.77735,9.539063 0,6.236401 -2.20264,12.080765 -6.00781,17.123047 0.0602,0.436782 -0.0426,0.965175 -0.28711,1.554687 -0.34366,0.82851 -0.85785,1.545716 -1.5586,2.041016 -0.59654,0.421645 -1.27069,0.631684 -1.96875,0.6875 -8.231402,7.899452 -20.842044,12.966797 -34.753904,12.966797 -15.566293,0 -29.231135,-6.343634 -37.03125,-15.902344 l -5.248047,0 -0.535157,1.291016 c 1.237197,1.766075 2.648268,3.450959 4.214844,5.042968 l 3.519532,0 c 0.828514,0 1.456234,0.215538 1.746093,0.710938 0.28986,0.4953 0.208889,1.210562 -0.134765,2.039062 -0.179037,0.431686 -0.406089,0.831939 -0.679688,1.1875 8.45072,6.481378 20.119234,10.601563 34.148438,10.601563 19.095619,0 35.817124,-8.279196 44.187504,-20.873047 l -2.44141,0 c -0.82852,0 -1.45623,-0.215638 -1.74609,-0.710938 -0.28987,-0.49531 -0.20694,-1.212505 0.13671,-2.041015 0.34366,-0.82852 0.8559,-1.545716 1.55665,-2.041016 0.70074,-0.49531 1.50742,-0.710937 2.33593,-0.710937 l 3.15039,0 c 1.74068,-4.031858 2.70313,-8.384106 2.70313,-12.966797 0,-0.03595 -0.004,-0.07149 -0.004,-0.107422 -0.29318,-0.191061 -0.54992,-0.419786 -0.75976,-0.693359 -0.84185,-1.097547 -0.88063,-2.880125 0.13281,-5.4375 -0.54348,-2.704102 -1.42787,-5.331059 -2.625,-7.845704 z m -92.642579,28.298828 3.003906,-7.242187 c -0.592802,-2.251647 -0.90625,-4.583627 -0.90625,-6.972656 0,-1.491225 0.168687,-3.003742 0.478515,-4.521485 -0.656054,0.843297 -1.447699,1.659127 -2.43164,2.384766 -0.947594,0.698839 -2.059847,1.295609 -3.341797,1.765625 -0.0014,0.123997 -0.0098,0.246857 -0.0098,0.371094 0,4.912948 1.114901,9.728252 3.207032,14.214843 z M 18.755859,40.097656 c -0.506411,1.492869 -0.906405,3.018557 -1.195312,4.572266 0.820243,-0.521123 1.336633,-1.169164 1.703125,-2.052734 0.411294,-0.99159 0.419962,-1.696984 -0.136719,-2.246094 -0.09937,-0.09802 -0.227881,-0.187831 -0.371094,-0.273438 z"
       transform="translate(6.4182207,929.58091)"
       id="path2996"
       inkscape:connector-curvature="0"
       sodipodi:nodetypes="sccscccscccssccscccscscsccscsccscscccsccscsccccscccscssscscscsccccscscscccssccs" />
    <g
       id="g7126">
      <path
         sodipodi:nodetypes="scccscccs"
         inkscape:connector-curvature="0"
         id="path3098"
         d="m 85.710938,987.52734 c 0.651206,0 0.891536,0.14907 0.974609,0.29102 0.08307,0.14195 0.109933,0.52141 -0.167969,1.19141 l -3.988281,9.61914 c -0.555804,1.33998 -1.346032,1.89059 -2.648438,1.89059 -0.651202,0 -0.893484,-0.149 -0.976562,-0.291 -0.08308,-0.1419 -0.109932,-0.5214 0.167969,-1.19139 l 3.990234,-9.61914 c 0.555803,-1.33999 1.346023,-1.89063 2.648438,-1.89063 z"
         style="color:#000000;font-style:normal;font-variant:normal;font-weight:normal;font-stretch:normal;font-size:medium;line-height:normal;font-family:sans-serif;text-indent:0;text-align:start;text-decoration:none;text-decoration-line:none;text-decoration-style:solid;text-decoration-color:#000000;letter-spacing:normal;word-spacing:normal;text-transform:none;direction:ltr;block-progression:tb;writing-mode:lr-tb;baseline-shift:baseline;text-anchor:start;white-space:normal;clip-rule:nonzero;display:inline;overflow:visible;visibility:visible;opacity:1;isolation:auto;mix-blend-mode:normal;color-interpolation:sRGB;color-interpolation-filters:linearRGB;solid-color:#000000;solid-opacity:1;fill:#ffffff;fill-opacity:1;fill-rule:nonzero;stroke:none;stroke-width:1.06383789;stroke-linecap:butt;stroke-linejoin:miter;stroke-miterlimit:4;stroke-dasharray:none;stroke-dashoffset:0;stroke-opacity:1;color-rendering:auto;image-rendering:auto;shape-rendering:auto;text-rendering:auto;enable-background:accumulate" />
      <path
         sodipodi:nodetypes="sssssss"
         inkscape:connector-curvature="0"
         id="path3096"
         d="m 87.859375,982.34766 c 0.651207,0 0.891537,0.14906 0.974609,0.29101 0.08307,0.14195 0.109933,0.52337 -0.167968,1.19336 -0.555803,1.33999 -1.346023,1.89063 -2.648438,1.89063 -0.651207,0 -0.891537,-0.14907 -0.974609,-0.29102 -0.08307,-0.14195 -0.109933,-0.52141 0.167969,-1.19141 0.555803,-1.33998 1.346023,-1.89257 2.648437,-1.89257 z"
         style="color:#000000;font-style:normal;font-variant:normal;font-weight:normal;font-stretch:normal;font-size:medium;line-height:normal;font-family:sans-serif;text-indent:0;text-align:start;text-decoration:none;text-decoration-line:none;text-decoration-style:solid;text-decoration-color:#000000;letter-spacing:normal;word-spacing:normal;text-transform:none;direction:ltr;block-progression:tb;writing-mode:lr-tb;baseline-shift:baseline;text-anchor:start;white-space:normal;clip-rule:nonzero;display:inline;overflow:visible;visibility:visible;opacity:1;isolation:auto;mix-blend-mode:normal;color-interpolation:sRGB;color-interpolation-filters:linearRGB;solid-color:#000000;solid-opacity:1;fill:#ffffff;fill-opacity:1;fill-rule:nonzero;stroke:none;stroke-width:1.06383789;stroke-linecap:butt;stroke-linejoin:miter;stroke-miterlimit:4;stroke-dasharray:none;stroke-dashoffset:0;stroke-opacity:1;color-rendering:auto;image-rendering:auto;shape-rendering:auto;text-rendering:auto;enable-background:accumulate" />
      <path
         sodipodi:nodetypes="cscsssscscssccssscsssscsscccscc"
         inkscape:connector-curvature="0"
         id="path3088"
         d="m 36.808594,982.34766 10.357422,0 c 0.651206,0 0.893489,0.14906 0.976562,0.29101 0.08307,0.14195 0.109933,0.52337 -0.167969,1.19336 -0.555804,1.33999 -1.346023,1.89063 -2.648437,1.89063 l -8.138672,0 c -1.657026,0 -2.961088,0.92937 -3.632812,2.54882 l -2.453126,5.91407 6.714844,0 c 0.651208,0 0.89349,0.14906 0.976563,0.29101 0.08307,0.14195 0.109933,0.52337 -0.167969,1.19336 -0.555803,1.33999 -1.346024,1.89063 -2.648438,1.89063 l -6.27539,0 -2.283203,5.50785 c -0.335862,0.8097 -0.453431,1.5388 -0.103516,2.1367 0.349915,0.5979 1.064072,0.8183 1.892578,0.8183 l 8.138672,0 c 0.651203,0 0.893485,0.1491 0.976563,0.2911 0.08308,0.1419 0.109931,0.5233 -0.167969,1.1933 -0.555803,1.34 -1.346032,1.8906 -2.648438,1.8906 l -10.359375,0 c -0.907093,0 -1.597521,-0.049 -2.058593,-0.1582 -0.461073,-0.1092 -0.650008,-0.2493 -0.744141,-0.4101 -0.09413,-0.1609 -0.139736,-0.4552 -0.03516,-0.9805 0.104579,-0.5253 0.354616,-1.2434 0.732422,-2.1543 l 7.978515,-19.23632 0.002,-0.002 0.0039,-0.0117 c 0.752399,-1.81108 1.362987,-2.81501 2.138671,-3.36328 0.778079,-0.54996 1.830343,-0.73437 3.644532,-0.73437 z"
         style="color:#000000;font-style:normal;font-variant:normal;font-weight:normal;font-stretch:normal;font-size:medium;line-height:normal;font-family:sans-serif;text-indent:0;text-align:start;text-decoration:none;text-decoration-line:none;text-decoration-style:solid;text-decoration-color:#000000;letter-spacing:normal;word-spacing:normal;text-transform:none;direction:ltr;block-progression:tb;writing-mode:lr-tb;baseline-shift:baseline;text-anchor:start;white-space:normal;clip-rule:nonzero;display:inline;overflow:visible;visibility:visible;opacity:1;isolation:auto;mix-blend-mode:normal;color-interpolation:sRGB;color-interpolation-filters:linearRGB;solid-color:#000000;solid-opacity:1;fill:#ffffff;fill-opacity:1;fill-rule:nonzero;stroke:none;stroke-width:1.06383789;stroke-linecap:butt;stroke-linejoin:miter;stroke-miterlimit:4;stroke-dasharray:none;stroke-dashoffset:0;stroke-opacity:1;color-rendering:auto;image-rendering:auto;shape-rendering:auto;text-rendering:auto;enable-background:accumulate" />
      <path
         sodipodi:nodetypes="sccscsccscscssscsssccssccs"
         inkscape:connector-curvature="0"
         id="path3086"
         d="m 129.95898,961.63086 c 0.65121,0 0.89154,0.15102 0.97461,0.29297 0.0831,0.14195 0.10994,0.52141 -0.16797,1.1914 l -4.29687,10.35938 c -0.33586,0.80973 -0.45342,1.53881 -0.10352,2.13672 0.34991,0.59791 1.06602,0.81836 1.89454,0.81836 1.65703,0 2.95914,-0.92937 3.63085,-2.54883 l 4.29688,-10.35742 c 0.55581,-1.33999 1.34602,-1.89258 2.64844,-1.89258 0.6512,0 0.89349,0.15102 0.97656,0.29297 0.0831,0.14195 0.10994,0.52141 -0.16797,1.1914 l -11.66211,28.11524 c -1.05752,2.54958 -2.07219,4.11049 -3.38867,5.04101 -1.31648,0.93052 -3.00216,1.28907 -5.54102,1.28907 l -4.43945,0 c -0.65121,0 -0.89154,-0.14907 -0.97461,-0.29102 -0.0831,-0.14195 -0.10993,-0.52337 0.16797,-1.19336 0.5558,-1.33998 1.34602,-1.89062 2.64844,-1.89062 l 4.43945,0 c 1.65703,0 2.95914,-0.92742 3.63086,-2.54688 l 4.9082,-11.83398 -3.01562,0 c -1.77873,0 -3.1024,-0.37613 -3.71875,-1.17969 -0.61636,-0.80356 -0.72651,-2.23448 0.31445,-4.74414 l 4.29492,-10.35742 c 0.5558,-1.33998 1.34798,-1.89258 2.65039,-1.89258 z"
         style="color:#000000;font-style:normal;font-variant:normal;font-weight:normal;font-stretch:normal;font-size:medium;line-height:normal;font-family:sans-serif;text-indent:0;text-align:start;text-decoration:none;text-decoration-line:none;text-decoration-style:solid;text-decoration-color:#000000;letter-spacing:normal;word-spacing:normal;text-transform:none;direction:ltr;block-progression:tb;writing-mode:lr-tb;baseline-shift:baseline;text-anchor:start;white-space:normal;clip-rule:nonzero;display:inline;overflow:visible;visibility:visible;opacity:1;isolation:auto;mix-blend-mode:normal;color-interpolation:sRGB;color-interpolation-filters:linearRGB;solid-color:#000000;solid-opacity:1;fill:#ffffff;fill-opacity:1;fill-rule:nonzero;stroke:none;stroke-width:1.06383789;stroke-linecap:butt;stroke-linejoin:miter;stroke-miterlimit:4;stroke-dasharray:none;stroke-dashoffset:0;stroke-opacity:1;color-rendering:auto;image-rendering:auto;shape-rendering:auto;text-rendering:auto;enable-background:accumulate" />
      <path
         sodipodi:nodetypes="ssssscccsscssssccssssssss"
         inkscape:connector-curvature="0"
         id="path3084"
         d="m 64.111328,961.63086 c 2.130927,0 3.354505,0.53247 3.900391,1.33984 0.545885,0.80738 0.542975,2.07794 -0.189453,3.84375 -0.74402,1.79376 -1.671834,3.17427 -3.00586,4.11719 -1.334025,0.94292 -3.101712,1.47461 -5.615234,1.47461 l -2.576172,0 -0.75,1.80664 c -0.2114,0.50967 -0.177093,1.0608 0.07422,1.49023 0.251311,0.42944 0.735966,0.72657 1.283203,0.72657 l 5.179687,0 c 0.651208,0 0.891537,0.14906 0.97461,0.29101 0.08307,0.14195 0.111886,0.52142 -0.166016,1.19141 -0.555803,1.33998 -1.347976,1.89258 -2.650391,1.89258 l -5.177734,0 c -1.743267,0 -2.76227,-0.49854 -3.236328,-1.3086 -0.474058,-0.81005 -0.468756,-2.10919 0.263672,-3.875 l 3.068359,-7.39843 c 1.464857,-3.53162 4.361191,-5.5918 8.623046,-5.5918 z m -1.841797,3.37695 c -1.657027,0 -2.901416,0.78731 -3.324219,1.80664 -0.211401,0.50967 -0.166993,1.1472 0.232422,1.58203 0.399416,0.43484 1.034768,0.63477 1.863282,0.63477 1.657027,0 2.90337,-0.78926 3.326172,-1.80859 0.211401,-0.50967 0.166993,-1.1472 -0.232422,-1.58204 -0.399416,-0.43483 -1.036722,-0.63281 -1.865235,-0.63281 z"
         style="color:#000000;font-style:normal;font-variant:normal;font-weight:normal;font-stretch:normal;font-size:medium;line-height:normal;font-family:sans-serif;text-indent:0;text-align:start;text-decoration:none;text-decoration-line:none;text-decoration-style:solid;text-decoration-color:#000000;letter-spacing:normal;word-spacing:normal;text-transform:none;direction:ltr;block-progression:tb;writing-mode:lr-tb;baseline-shift:baseline;text-anchor:start;white-space:normal;clip-rule:nonzero;display:inline;overflow:visible;visibility:visible;opacity:1;isolation:auto;mix-blend-mode:normal;color-interpolation:sRGB;color-interpolation-filters:linearRGB;solid-color:#000000;solid-opacity:1;fill:#ffffff;fill-opacity:1;fill-rule:nonzero;stroke:none;stroke-width:1.06383789;stroke-linecap:butt;stroke-linejoin:miter;stroke-miterlimit:4;stroke-dasharray:none;stroke-dashoffset:0;stroke-opacity:1;color-rendering:auto;image-rendering:auto;shape-rendering:auto;text-rendering:auto;enable-background:accumulate" />
      <path
         sodipodi:nodetypes="sscsssccscccs"
         inkscape:connector-curvature="0"
         id="path3078"
         d="m 108.50195,961.63086 2.95899,0 c 0.6512,0 0.89349,0.15102 0.97656,0.29297 0.0831,0.14195 0.10993,0.52141 -0.16797,1.1914 -0.55581,1.33999 -1.34602,1.89258 -2.64844,1.89258 l -2.96093,0 c -1.65703,0 -2.95913,0.92742 -3.63086,2.54688 l -4.296878,10.35742 c -0.555803,1.33998 -1.346023,1.89258 -2.648438,1.89258 -0.651206,0 -0.891536,-0.15102 -0.974609,-0.29297 -0.08307,-0.14195 -0.109933,-0.52142 0.167969,-1.19141 l 4.294922,-10.35742 c 1.783324,-4.29942 4.667834,-6.33203 8.929684,-6.33203 z"
         style="color:#000000;font-style:normal;font-variant:normal;font-weight:normal;font-stretch:normal;font-size:medium;line-height:normal;font-family:sans-serif;text-indent:0;text-align:start;text-decoration:none;text-decoration-line:none;text-decoration-style:solid;text-decoration-color:#000000;letter-spacing:normal;word-spacing:normal;text-transform:none;direction:ltr;block-progression:tb;writing-mode:lr-tb;baseline-shift:baseline;text-anchor:start;white-space:normal;clip-rule:nonzero;display:inline;overflow:visible;visibility:visible;opacity:1;isolation:auto;mix-blend-mode:normal;color-interpolation:sRGB;color-interpolation-filters:linearRGB;solid-color:#000000;solid-opacity:1;fill:#ffffff;fill-opacity:1;fill-rule:nonzero;stroke:none;stroke-width:1.06383789;stroke-linecap:butt;stroke-linejoin:miter;stroke-miterlimit:4;stroke-dasharray:none;stroke-dashoffset:0;stroke-opacity:1;color-rendering:auto;image-rendering:auto;shape-rendering:auto;text-rendering:auto;enable-background:accumulate" />
      <path
         sodipodi:nodetypes="ssssscssccscssssssccs"
         inkscape:connector-curvature="0"
         id="path3072"
         d="m 44.875,961.63086 c 0.651207,0 0.891537,0.15102 0.974609,0.29297 0.08307,0.14195 0.109933,0.52141 -0.167968,1.1914 l -4.296875,10.35938 c -0.153441,0.36993 -0.458729,0.98236 -0.328125,1.6875 0.0653,0.35257 0.2919,0.72453 0.662109,0.94727 0.370209,0.22273 0.843034,0.32031 1.457031,0.32031 1.227995,0 2.101313,-0.43563 2.660157,-0.98633 0.558843,-0.5507 0.817262,-1.19257 0.970703,-1.5625 l 4.296875,-10.35742 c 0.555803,-1.33999 1.346023,-1.89258 2.648437,-1.89258 0.651208,0 0.89349,0.15102 0.976563,0.29297 0.08307,0.14195 0.109932,0.52141 -0.167969,1.1914 l -4.296875,10.35938 c -1.184057,2.85464 -2.882934,4.40919 -4.552734,5.28125 -1.669801,0.87206 -3.326265,1.04883 -4.376954,1.04883 -1.050688,0 -2.515832,-0.20945 -3.339843,-0.96875 -0.412006,-0.37966 -0.698749,-0.88124 -0.765625,-1.66602 -0.06688,-0.78477 0.109143,-1.86174 0.701172,-3.28906 l 4.294921,-10.35742 c 0.555803,-1.33999 1.347977,-1.89258 2.650391,-1.89258 z"
         style="color:#000000;font-style:normal;font-variant:normal;font-weight:normal;font-stretch:normal;font-size:medium;line-height:normal;font-family:sans-serif;text-indent:0;text-align:start;text-decoration:none;text-decoration-line:none;text-decoration-style:solid;text-decoration-color:#000000;letter-spacing:normal;word-spacing:normal;text-transform:none;direction:ltr;block-progression:tb;writing-mode:lr-tb;baseline-shift:baseline;text-anchor:start;white-space:normal;clip-rule:nonzero;display:inline;overflow:visible;visibility:visible;opacity:1;isolation:auto;mix-blend-mode:normal;color-interpolation:sRGB;color-interpolation-filters:linearRGB;solid-color:#000000;solid-opacity:1;fill:#ffffff;fill-opacity:1;fill-rule:nonzero;stroke:none;stroke-width:1.06383789;stroke-linecap:butt;stroke-linejoin:miter;stroke-miterlimit:4;stroke-dasharray:none;stroke-dashoffset:0;stroke-opacity:1;color-rendering:auto;image-rendering:auto;shape-rendering:auto;text-rendering:auto;enable-background:accumulate" />
      <path
         sodipodi:nodetypes="sssscccsssssscccsscscccsssssscccsssssssssc"
         inkscape:connector-curvature="0"
         id="path3068"
         d="m 24.880859,952.75391 1.480469,0 c 1.805324,0 3.075825,0.23192 3.908203,0.60156 0.832379,0.36964 1.231492,0.83655 1.433594,1.43945 0.404203,1.2058 -0.159328,3.16504 -1.070313,5.36133 l -1.636718,3.94336 0.134765,0.22851 c 0.533041,0.91085 1.347599,1.39438 1.744141,2.3418 0.396542,0.94742 0.485656,2.43464 -0.712891,5.32422 -0.74402,1.79376 -1.904456,3.73308 -3.9375,5.23242 -2.033043,1.49934 -4.954179,2.57813 -9.304687,2.57813 l -5.919922,0 c -1.3910675,0 -2.1105943,-0.33578 -2.4101562,-0.84766 -0.299562,-0.51188 -0.2800958,-1.44562 0.3046874,-2.85547 l 6.4433598,-15.53711 0.613281,-1.48047 c 0.901325,-2.173 1.916001,-3.74365 3.287109,-4.77343 1.371108,-1.02979 3.129056,-1.55664 5.642578,-1.55664 z m -1.52539,2.63476 c -0.967034,-0.0141 -1.811196,0.43794 -2.466797,1.0625 -0.655602,0.62456 -1.149551,1.4268 -1.480469,2.22461 l -0.613281,1.48047 -1.839844,4.43555 4.496094,0 c 1.524047,0 2.658576,-0.19208 3.572266,-0.83789 0.913689,-0.64582 1.52409,-1.6748 2.152343,-3.18946 0.628253,-1.51465 0.990968,-2.69878 0.654297,-3.70312 -0.168335,-0.50217 -0.557086,-0.91535 -1.072266,-1.14844 -0.515179,-0.23309 -1.147453,-0.32422 -1.93164,-0.32422 z m -7.800786,12.57813 -0.134766,0.32812 -2.148438,5.17969 c -0.335862,0.80973 -0.453421,1.53881 -0.103515,2.13672 0.349906,0.59791 1.064065,0.81836 1.892578,0.81836 l 3.699219,0 c 2.278682,0 4.003293,-0.37816 5.300781,-1.08203 1.297488,-0.70388 2.145569,-1.74237 2.644531,-2.94532 0.249481,-0.60147 0.393483,-1.18174 0.367188,-1.74414 -0.02629,-0.56239 -0.248347,-1.10756 -0.667969,-1.52148 -0.839244,-0.82783 -2.295535,-1.16992 -4.574219,-1.16992 z"
         style="color:#000000;font-style:normal;font-variant:normal;font-weight:normal;font-stretch:normal;font-size:medium;line-height:normal;font-family:sans-serif;text-indent:0;text-align:start;text-decoration:none;text-decoration-line:none;text-decoration-style:solid;text-decoration-color:#000000;letter-spacing:normal;word-spacing:normal;text-transform:none;direction:ltr;block-progression:tb;writing-mode:lr-tb;baseline-shift:baseline;text-anchor:start;white-space:normal;clip-rule:nonzero;display:inline;overflow:visible;visibility:visible;opacity:1;isolation:auto;mix-blend-mode:normal;color-interpolation:sRGB;color-interpolation-filters:linearRGB;solid-color:#000000;solid-opacity:1;fill:#ffffff;fill-opacity:1;fill-rule:nonzero;stroke:none;stroke-width:1.06383789;stroke-linecap:butt;stroke-linejoin:miter;stroke-miterlimit:4;stroke-dasharray:none;stroke-dashoffset:0;stroke-opacity:1;color-rendering:auto;image-rendering:auto;shape-rendering:auto;text-rendering:auto;enable-background:accumulate" />
      <path
         sodipodi:nodetypes="ssssscsss"
         inkscape:connector-curvature="0"
         id="path3070"
         d="m 42.638672,952.75391 c 0.651207,0 0.891537,0.14906 0.974609,0.29101 0.08307,0.14195 0.109933,0.52142 -0.167969,1.19141 L 33.625,977.91211 c -0.555803,1.33998 -1.346023,1.89258 -2.648438,1.89258 -0.651206,0 -0.891536,-0.15102 -0.974609,-0.29297 -0.08307,-0.14195 -0.111886,-0.52142 0.166016,-1.19141 l 9.820312,-23.67578 c 0.555804,-1.33998 1.347977,-1.89062 2.650391,-1.89062 z"
         style="color:#000000;font-style:normal;font-variant:normal;font-weight:normal;font-stretch:normal;font-size:medium;line-height:normal;font-family:sans-serif;text-indent:0;text-align:start;text-decoration:none;text-decoration-line:none;text-decoration-style:solid;text-decoration-color:#000000;letter-spacing:normal;word-spacing:normal;text-transform:none;direction:ltr;block-progression:tb;writing-mode:lr-tb;baseline-shift:baseline;text-anchor:start;white-space:normal;clip-rule:nonzero;display:inline;overflow:visible;visibility:visible;opacity:1;isolation:auto;mix-blend-mode:normal;color-interpolation:sRGB;color-interpolation-filters:linearRGB;solid-color:#000000;solid-opacity:1;fill:#ffffff;fill-opacity:1;fill-rule:nonzero;stroke:none;stroke-width:1.06383789;stroke-linecap:butt;stroke-linejoin:miter;stroke-miterlimit:4;stroke-dasharray:none;stroke-dashoffset:0;stroke-opacity:1;color-rendering:auto;image-rendering:auto;shape-rendering:auto;text-rendering:auto;enable-background:accumulate" />
      <path
         sodipodi:nodetypes="sssccsccscccssccssccss"
         inkscape:connector-curvature="0"
         id="path3076-9"
         d="m 77.5,982.34766 c 1.778728,0 3.158309,0.38324 3.847656,1.05273 0.344674,0.33475 0.546455,0.73063 0.597656,1.27539 0.0512,0.54476 -0.06536,1.2463 -0.425781,2.11524 l -3.68164,8.8789 c -1.441674,3.47574 -4.758954,4.84958 -8.316407,4.84958 l -2.574218,0 -2.898438,6.9883 c -0.555803,1.34 -1.346032,1.8906 -2.648437,1.8906 -0.651202,0 -0.893486,-0.149 -0.976563,-0.291 -0.08308,-0.1419 -0.109932,-0.5234 0.167969,-1.1933 l 8.59375,-20.71488 c 1.441672,-3.47572 4.756996,-4.85156 8.314453,-4.85156 z m -1.839844,3.375 c -1.657027,0 -2.961089,0.92937 -3.632812,2.54882 l -2.455078,5.91797 c -0.335862,0.80973 -0.453422,1.53881 -0.103516,2.13672 0.349906,0.59791 1.066018,0.81836 1.894531,0.81836 1.657027,0 2.959137,-0.92742 3.63086,-2.54687 l 2.455078,-5.91993 c 0.335861,-0.80972 0.453421,-1.53881 0.103515,-2.13671 -0.349906,-0.59791 -1.064065,-0.81836 -1.892578,-0.81836 z"
         style="color:#000000;font-style:normal;font-variant:normal;font-weight:normal;font-stretch:normal;font-size:medium;line-height:normal;font-family:sans-serif;text-indent:0;text-align:start;text-decoration:none;text-decoration-line:none;text-decoration-style:solid;text-decoration-color:#000000;letter-spacing:normal;word-spacing:normal;text-transform:none;direction:ltr;block-progression:tb;writing-mode:lr-tb;baseline-shift:baseline;text-anchor:start;white-space:normal;clip-rule:nonzero;display:inline;overflow:visible;visibility:visible;opacity:1;isolation:auto;mix-blend-mode:normal;color-interpolation:sRGB;color-interpolation-filters:linearRGB;solid-color:#000000;solid-opacity:1;fill:#ffffff;fill-opacity:1;fill-rule:nonzero;stroke:none;stroke-width:1.06383789;stroke-linecap:butt;stroke-linejoin:miter;stroke-miterlimit:4;stroke-dasharray:none;stroke-dashoffset:0;stroke-opacity:1;color-rendering:auto;image-rendering:auto;shape-rendering:auto;text-rendering:auto;enable-background:accumulate" />
      <path
         sodipodi:nodetypes="cssccsccccsccsccccsccsccccc"
         inkscape:connector-curvature="0"
         id="path3090"
         d="m 56.044922,982.34766 7.398437,0 c 1.743267,0 2.762271,0.49854 3.236329,1.30859 0.474057,0.81005 0.468756,2.10919 -0.263672,3.875 L 61.8125,998.62891 c -0.555804,1.33998 -1.346032,1.89059 -2.648438,1.89059 -0.651202,0 -0.891531,-0.149 -0.974609,-0.291 -0.08308,-0.1419 -0.111885,-0.5214 0.166016,-1.19139 l 4.603515,-11.09766 c 0.22277,-0.53707 0.271759,-1.09251 0.0059,-1.54687 -0.2659,-0.45436 -0.801161,-0.66992 -1.363282,-0.66992 -1.124241,0 -2.138446,0.73445 -2.583984,1.80859 l -4.603516,11.09766 c -0.555804,1.33998 -1.346033,1.89059 -2.648437,1.89059 -0.651203,0 -0.893484,-0.149 -0.976563,-0.291 -0.08308,-0.1419 -0.109932,-0.5214 0.167969,-1.19139 l 4.603516,-11.0957 c 0.223255,-0.53825 0.271485,-1.09188 0.0059,-1.54688 -0.265625,-0.455 -0.80116,-0.67187 -1.363281,-0.67187 -1.124241,0 -2.139428,0.73406 -2.585937,1.81054 l -4.601563,11.09571 c -0.555804,1.33998 -1.346032,1.89059 -2.648437,1.89059 -0.651203,0 -0.893485,-0.149 -0.976563,-0.291 -0.08308,-0.1419 -0.109932,-0.5214 0.167969,-1.19139 l 4.603515,-11.09766 c 1.464856,-3.53161 4.396279,-5.59179 7.882813,-5.59179 z"
         style="color:#000000;font-style:normal;font-variant:normal;font-weight:normal;font-stretch:normal;font-size:medium;line-height:normal;font-family:sans-serif;text-indent:0;text-align:start;text-decoration:none;text-decoration-line:none;text-decoration-style:solid;text-decoration-color:#000000;letter-spacing:normal;word-spacing:normal;text-transform:none;direction:ltr;block-progression:tb;writing-mode:lr-tb;baseline-shift:baseline;text-anchor:start;white-space:normal;clip-rule:nonzero;display:inline;overflow:visible;visibility:visible;opacity:1;isolation:auto;mix-blend-mode:normal;color-interpolation:sRGB;color-interpolation-filters:linearRGB;solid-color:#000000;solid-opacity:1;fill:#ffffff;fill-opacity:1;fill-rule:nonzero;stroke:none;stroke-width:1.06383789;stroke-linecap:butt;stroke-linejoin:miter;stroke-miterlimit:4;stroke-dasharray:none;stroke-dashoffset:0;stroke-opacity:1;color-rendering:auto;image-rendering:auto;shape-rendering:auto;text-rendering:auto;enable-background:accumulate" />
      <path
         sodipodi:nodetypes="sscsssccscccs"
         inkscape:connector-curvature="0"
         id="path3078-7"
         d="m 121.08008,961.63086 2.95898,0 c 0.65121,0 0.89349,0.15102 0.97656,0.29297 0.0831,0.14195 0.10994,0.52141 -0.16796,1.1914 -0.5558,1.33999 -1.34798,1.89258 -2.65039,1.89258 l -2.95899,0 c -1.65703,0 -2.95914,0.92742 -3.63086,2.54688 l -4.29687,10.35742 c -0.5558,1.33998 -1.34603,1.89258 -2.64844,1.89258 -0.65121,0 -0.89349,-0.15102 -0.97656,-0.29297 -0.0831,-0.14195 -0.10993,-0.52142 0.16797,-1.19141 l 4.29687,-10.35742 c 1.78333,-4.29942 4.66783,-6.33203 8.92969,-6.33203 z"
         style="color:#000000;font-style:normal;font-variant:normal;font-weight:normal;font-stretch:normal;font-size:medium;line-height:normal;font-family:sans-serif;text-indent:0;text-align:start;text-decoration:none;text-decoration-line:none;text-decoration-style:solid;text-decoration-color:#000000;letter-spacing:normal;word-spacing:normal;text-transform:none;direction:ltr;block-progression:tb;writing-mode:lr-tb;baseline-shift:baseline;text-anchor:start;white-space:normal;clip-rule:nonzero;display:inline;overflow:visible;visibility:visible;opacity:1;isolation:auto;mix-blend-mode:normal;color-interpolation:sRGB;color-interpolation-filters:linearRGB;solid-color:#000000;solid-opacity:1;fill:#ffffff;fill-opacity:1;fill-rule:nonzero;stroke:none;stroke-width:1.06383789;stroke-linecap:butt;stroke-linejoin:miter;stroke-miterlimit:4;stroke-dasharray:none;stroke-dashoffset:0;stroke-opacity:1;color-rendering:auto;image-rendering:auto;shape-rendering:auto;text-rendering:auto;enable-background:accumulate" />
      <path
         sodipodi:nodetypes="sscsssccscccs"
         inkscape:connector-curvature="0"
         id="path3078-7-1"
         d="m 98.216797,982.34766 2.958983,0 c 0.65121,0 0.89349,0.14906 0.97656,0.29101 0.0831,0.14195 0.10994,0.52337 -0.16796,1.19336 -0.55581,1.33999 -1.34603,1.89063 -2.648442,1.89063 l -2.960938,0 c -1.657027,0 -2.959136,0.92937 -3.630859,2.54882 l -4.296875,10.35743 c -0.555805,1.33998 -1.346033,1.89059 -2.648438,1.89059 -0.651202,0 -0.891531,-0.149 -0.974609,-0.291 -0.08308,-0.1419 -0.109932,-0.5214 0.167969,-1.19139 l 4.294921,-10.35938 c 1.783329,-4.29942 4.667832,-6.33007 8.929688,-6.33007 z"
         style="color:#000000;font-style:normal;font-variant:normal;font-weight:normal;font-stretch:normal;font-size:medium;line-height:normal;font-family:sans-serif;text-indent:0;text-align:start;text-decoration:none;text-decoration-line:none;text-decoration-style:solid;text-decoration-color:#000000;letter-spacing:normal;word-spacing:normal;text-transform:none;direction:ltr;block-progression:tb;writing-mode:lr-tb;baseline-shift:baseline;text-anchor:start;white-space:normal;clip-rule:nonzero;display:inline;overflow:visible;visibility:visible;opacity:1;isolation:auto;mix-blend-mode:normal;color-interpolation:sRGB;color-interpolation-filters:linearRGB;solid-color:#000000;solid-opacity:1;fill:#ffffff;fill-opacity:1;fill-rule:nonzero;stroke:none;stroke-width:1.06383789;stroke-linecap:butt;stroke-linejoin:miter;stroke-miterlimit:4;stroke-dasharray:none;stroke-dashoffset:0;stroke-opacity:1;color-rendering:auto;image-rendering:auto;shape-rendering:auto;text-rendering:auto;enable-background:accumulate" />
      <path
         sodipodi:nodetypes="ssccsssccsssccssccssccss"
         inkscape:connector-curvature="0"
         id="path3076-9-1"
         d="m 78.150391,952.75391 c 0.651207,0 0.89349,0.14906 0.976562,0.29101 0.08307,0.14195 0.109933,0.52142 -0.167969,1.19141 l -3.066406,7.39453 3.015625,0 c 1.778728,0 3.158309,0.38324 3.847656,1.05273 0.344674,0.33475 0.544502,0.73063 0.595703,1.27539 0.0512,0.54476 -0.06341,1.24631 -0.423828,2.11524 l -3.683593,8.8789 c -1.441672,3.47573 -4.756998,4.85157 -8.314453,4.85157 -1.778728,0 -3.15831,-0.38325 -3.847657,-1.05274 -0.344673,-0.33474 -0.546455,-0.73063 -0.597656,-1.27539 -0.0512,-0.54476 0.06536,-1.2463 0.425781,-2.11523 l 8.591797,-20.7168 c 0.555804,-1.33998 1.346024,-1.89062 2.648438,-1.89062 z m -1.083985,12.2539 c -1.657027,0 -2.959135,0.92742 -3.630859,2.54688 l -2.455078,5.91992 c -0.335862,0.80973 -0.453422,1.53881 -0.103516,2.13672 0.349906,0.59791 1.064065,0.81836 1.892578,0.81836 1.657027,0 2.961089,-0.92937 3.632813,-2.54883 l 2.455078,-5.91797 c 0.335861,-0.80973 0.453422,-1.54076 0.103516,-2.13867 -0.349907,-0.59791 -1.066019,-0.81641 -1.894532,-0.81641 z"
         style="color:#000000;font-style:normal;font-variant:normal;font-weight:normal;font-stretch:normal;font-size:medium;line-height:normal;font-family:sans-serif;text-indent:0;text-align:start;text-decoration:none;text-decoration-line:none;text-decoration-style:solid;text-decoration-color:#000000;letter-spacing:normal;word-spacing:normal;text-transform:none;direction:ltr;block-progression:tb;writing-mode:lr-tb;baseline-shift:baseline;text-anchor:start;white-space:normal;clip-rule:nonzero;display:inline;overflow:visible;visibility:visible;opacity:1;isolation:auto;mix-blend-mode:normal;color-interpolation:sRGB;color-interpolation-filters:linearRGB;solid-color:#000000;solid-opacity:1;fill:#ffffff;fill-opacity:1;fill-rule:nonzero;stroke:none;stroke-width:1.06383789;stroke-linecap:butt;stroke-linejoin:miter;stroke-miterlimit:4;stroke-dasharray:none;stroke-dashoffset:0;stroke-opacity:1;color-rendering:auto;image-rendering:auto;shape-rendering:auto;text-rendering:auto;enable-background:accumulate" />
      <path
         sodipodi:nodetypes="ssssscccsscssssccssssssss"
         inkscape:connector-curvature="0"
         id="path3084-5"
         d="m 93.705078,961.63086 c 2.130927,0 3.354505,0.53247 3.900391,1.33984 0.545885,0.80738 0.544928,2.07794 -0.1875,3.84375 -0.74402,1.79376 -1.671834,3.17427 -3.00586,4.11719 -1.334025,0.94292 -3.103665,1.47461 -5.617187,1.47461 l -2.574219,0 -0.75,1.80664 c -0.2114,0.50967 -0.179046,1.0608 0.07227,1.49023 0.251311,0.42944 0.737919,0.72657 1.285156,0.72657 l 5.177734,0 c 0.651208,0 0.89349,0.14906 0.976563,0.29101 0.08307,0.14195 0.109933,0.52142 -0.167969,1.19141 -0.555803,1.33998 -1.346023,1.89258 -2.648437,1.89258 l -5.179688,0 c -1.743267,0 -2.76227,-0.49854 -3.236328,-1.3086 -0.474058,-0.81005 -0.468756,-2.10919 0.263672,-3.875 l 3.068359,-7.39843 c 1.464857,-3.53162 4.361191,-5.5918 8.623043,-5.5918 z m -1.841797,3.37695 c -1.657027,0 -2.901416,0.78731 -3.324219,1.80664 -0.211401,0.50967 -0.166993,1.1472 0.232422,1.58203 0.399416,0.43484 1.036722,0.63477 1.865235,0.63477 1.657027,0 2.901417,-0.78926 3.324219,-1.80859 0.211401,-0.50967 0.166993,-1.1472 -0.232422,-1.58204 -0.399416,-0.43483 -1.036722,-0.63281 -1.865235,-0.63281 z"
         style="color:#000000;font-style:normal;font-variant:normal;font-weight:normal;font-stretch:normal;font-size:medium;line-height:normal;font-family:sans-serif;text-indent:0;text-align:start;text-decoration:none;text-decoration-line:none;text-decoration-style:solid;text-decoration-color:#000000;letter-spacing:normal;word-spacing:normal;text-transform:none;direction:ltr;block-progression:tb;writing-mode:lr-tb;baseline-shift:baseline;text-anchor:start;white-space:normal;clip-rule:nonzero;display:inline;overflow:visible;visibility:visible;opacity:1;isolation:auto;mix-blend-mode:normal;color-interpolation:sRGB;color-interpolation-filters:linearRGB;solid-color:#000000;solid-opacity:1;fill:#ffffff;fill-opacity:1;fill-rule:nonzero;stroke:none;stroke-width:1.06383789;stroke-linecap:butt;stroke-linejoin:miter;stroke-miterlimit:4;stroke-dasharray:none;stroke-dashoffset:0;stroke-opacity:1;color-rendering:auto;image-rendering:auto;shape-rendering:auto;text-rendering:auto;enable-background:accumulate" />
      <path
         sodipodi:nodetypes="ccssscccsscssssccccsssssss"
         inkscape:connector-curvature="0"
         id="path3084-2"
         d="m 110.79492,982.34766 c 2.13093,0 3.35451,0.53051 3.90039,1.33789 0.54589,0.80737 0.54493,2.07989 -0.1875,3.8457 -0.74402,1.79376 -1.67183,3.17232 -3.00586,4.11523 -1.33402,0.94292 -3.10366,1.47461 -5.61718,1.47461 l -2.57422,0 -0.75,1.8086 c -0.2114,0.50966 -0.17905,1.0608 0.0723,1.49023 0.25131,0.42943 0.73792,0.72461 1.28516,0.72461 l 5.17773,0 c 0.65121,0 0.89349,0.15102 0.97657,0.29297 0.0831,0.14195 0.10993,0.52141 -0.16797,1.19141 -0.55581,1.33999 -1.34799,1.89059 -2.65039,1.89059 l -5.17774,0 c -1.74326,0 -2.762266,-0.4985 -3.236326,-1.30856 -0.47406,-0.81007 -0.468756,-2.10724 0.263672,-3.87305 l 3.068364,-7.39844 c 1.46484,-3.53161 4.36119,-5.59179 8.62304,-5.59179 z m -1.8418,3.375 c -1.65702,0 -2.90141,0.78926 -3.32421,1.80859 -0.2114,0.50966 -0.167,1.14524 0.23242,1.58008 0.39941,0.43483 1.03672,0.63476 1.86523,0.63476 1.65703,0 2.90142,-0.7873 3.32422,-1.80664 0.2114,-0.50966 0.167,-1.1472 -0.23242,-1.58203 -0.39942,-0.43483 -1.03672,-0.63476 -1.86524,-0.63476 z"
         style="color:#000000;font-style:normal;font-variant:normal;font-weight:normal;font-stretch:normal;font-size:medium;line-height:normal;font-family:sans-serif;text-indent:0;text-align:start;text-decoration:none;text-decoration-line:none;text-decoration-style:solid;text-decoration-color:#000000;letter-spacing:normal;word-spacing:normal;text-transform:none;direction:ltr;block-progression:tb;writing-mode:lr-tb;baseline-shift:baseline;text-anchor:start;white-space:normal;clip-rule:nonzero;display:inline;overflow:visible;visibility:visible;opacity:1;isolation:auto;mix-blend-mode:normal;color-interpolation:sRGB;color-interpolation-filters:linearRGB;solid-color:#000000;solid-opacity:1;fill:#ffffff;fill-opacity:1;fill-rule:nonzero;stroke:none;stroke-width:1.06383789;stroke-linecap:butt;stroke-linejoin:miter;stroke-miterlimit:4;stroke-dasharray:none;stroke-dashoffset:0;stroke-opacity:1;color-rendering:auto;image-rendering:auto;shape-rendering:auto;text-rendering:auto;enable-background:accumulate" />
    </g>
  </g>
</svg>
