<?xml version="1.0" encoding="UTF-8" standalone="no"?>
<!-- Created with Inkscape (http://www.inkscape.org/) -->

<svg
   xmlns:dc="http://purl.org/dc/elements/1.1/"
   xmlns:cc="http://creativecommons.org/ns#"
   xmlns:rdf="http://www.w3.org/1999/02/22-rdf-syntax-ns#"
   xmlns:svg="http://www.w3.org/2000/svg"
   xmlns="http://www.w3.org/2000/svg"
   xmlns:sodipodi="http://sodipodi.sourceforge.net/DTD/sodipodi-0.dtd"
   xmlns:inkscape="http://www.inkscape.org/namespaces/inkscape"
   width="17.066668in"
   height="8.4000025in"
   viewBox="0 0 1536.0001 756.00022"
   id="svg2"
   version="1.1"
   inkscape:version="0.91 r"
   sodipodi:docname="Logo.svg">
  <defs
     id="defs4" />
  <sodipodi:namedview
     id="base"
     pagecolor="#ffffff"
     bordercolor="#666666"
     borderopacity="1.0"
     inkscape:pageopacity="0.0"
     inkscape:pageshadow="2"
     inkscape:zoom="0.13906391"
     inkscape:cx="187.05467"
     inkscape:cy="-460.01776"
     inkscape:document-units="px"
     inkscape:current-layer="layer1"
     showgrid="true"
     units="in"
     inkscape:object-nodes="true"
     inkscape:snap-smooth-nodes="true"
     showguides="true"
     inkscape:guide-bbox="true"
     inkscape:window-width="1600"
     inkscape:window-height="848"
     inkscape:window-x="0"
     inkscape:window-y="0"
     inkscape:window-maximized="1"
     fit-margin-top="0"
     fit-margin-left="0"
     fit-margin-right="0"
     fit-margin-bottom="0">
    <inkscape:grid
       type="xygrid"
       id="grid4138"
       empspacing="4"
       originx="208"
       originy="4.0001768" />
  </sodipodi:namedview>
  <metadata
     id="metadata7">
    <rdf:RDF>
      <cc:Work
         rdf:about="">
        <dc:format>image/svg+xml</dc:format>
        <dc:type
           rdf:resource="http://purl.org/dc/dcmitype/StillImage" />
        <dc:title />
      </cc:Work>
    </rdf:RDF>
  </metadata>
  <g
     inkscape:label="Layer 1"
     inkscape:groupmode="layer"
     id="layer1"
     transform="translate(208,-300.3622)">
    <g
       id="g4164"
       transform="translate(54,0)">
      <path
         inkscape:connector-curvature="0"
         id="rect3336-3-5"
         d="m 224,300.3622 0,64 c 0,8 14,8 24,8 l 0,68 c 0,4 -4,8 -8,8 4,0 8,4 8,8 l 0,60 c -12,0 -24,0 -24,8 l 0,64 c 0,-8 12,-8 24,-8 4,0 8,-4 8,-8 0,4 3.94878,8 8,8 12,0 24,0 24,8 l 0,-64 c 0,-8 -14,-8 -24,-8 l 0,-60 c 0,-4 4,-8 8,-8 -4,0 -8,-4 -8,-8 l 0,-68 c 12,0 24,0 24,-8 l 0,-64 c 0,8 -12,8 -24,8 -4,0 -8,4 -8,8 0,-4 -3.94878,-8 -8,-8 -12,0 -24,0 -24,-8 z"
         style="color:#000000;clip-rule:nonzero;display:inline;overflow:visible;visibility:visible;opacity:1;isolation:auto;mix-blend-mode:normal;color-interpolation:sRGB;color-interpolation-filters:linearRGB;solid-color:#000000;solid-opacity:1;fill:#000000;fill-opacity:1;fill-rule:nonzero;stroke:none;stroke-width:0;stroke-miterlimit:4;stroke-dasharray:none;stroke-opacity:1;color-rendering:auto;image-rendering:auto;shape-rendering:auto;text-rendering:auto;enable-background:accumulate" />
      <path
         sodipodi:nodetypes="cscscscscscsccscczcscscscscsc"
         inkscape:connector-curvature="0"
         id="rect3336-3-5-6"
         d="m 304,300.3622 0,63.99999 c 0,8 14,8 24,8 l 0,68 c 0,4 -4,8 -8,8 4,0 8,4 8,8 l 0,60 c -12,0 -24,0 -24,8 l 0,64 c 0,-8 12,-8 24,-8 4,0 8,-4 8,-8 0,4 3.94878,8 8,8 l 48,0 c 4,0 8,-4 8,-8 0,4 4,8 8,8 12,-1e-5 24,10e-6 24,8 l 0,-140 c 0,16 0,76 -44,76 -44,0 -44,-8 -44,-8 l 0,-60 c 0,-4 4,-8 8,-8 -4,0 -8,-4 -8,-8 l 0,-68 c 12,0 24,0 24,-8 l 0,-63.99999 c 0,8 -12,8 -24,8 -4,0 -8,4 -8,8 0,-4 -3.94878,-8 -8,-8 -12,0 -24,0 -24,-8 z"
         style="color:#000000;clip-rule:nonzero;display:inline;overflow:visible;visibility:visible;opacity:1;isolation:auto;mix-blend-mode:normal;color-interpolation:sRGB;color-interpolation-filters:linearRGB;solid-color:#000000;solid-opacity:1;fill:#000000;fill-opacity:1;fill-rule:nonzero;stroke:none;stroke-width:0;stroke-miterlimit:4;stroke-dasharray:none;stroke-opacity:1;color-rendering:auto;image-rendering:auto;shape-rendering:auto;text-rendering:auto;enable-background:accumulate" />
      <path
         sodipodi:nodetypes="cscscscscscsccscczcscscscscsc"
         inkscape:connector-curvature="0"
         id="rect3336-3-5-6-2"
         d="m 448,300.36222 0,63.99998 c 0,8 14,8 24,8 l 0,68 c 0,4 -4,8 -8,8 4,0 8,4 8,8 l 0,60 c -12,0 -24,0 -24,8 l 0,64 c 0,-8 12,-8 24,-8 4,0 8,-4 8,-8 0,4 3.94878,8 8,8 l 48,0 c 4,0 8,-4 8,-8 0,4 4,8 8,8 12,-10e-6 24,10e-6 24,8 l 0,-140 c 0,16 0,76 -44,76 -44,0 -44,-8 -44,-8 l 0,-60 c 0,-4 4,-8 8,-8 -4,0 -8,-4 -8,-8 l 0,-68 c 12,0 24,0 24,-8 l 0,-63.99999 c 0,8 -12,8 -24,8 -4,0 -8,4 -8,8 0,-4 -3.94878,-8 -8,-8 -12,0 -24,0 -24,-8 z"
         style="color:#000000;clip-rule:nonzero;display:inline;overflow:visible;visibility:visible;opacity:1;isolation:auto;mix-blend-mode:normal;color-interpolation:sRGB;color-interpolation-filters:linearRGB;solid-color:#000000;solid-opacity:1;fill:#000000;fill-opacity:1;fill-rule:nonzero;stroke:none;stroke-width:0;stroke-miterlimit:4;stroke-dasharray:none;stroke-opacity:1;color-rendering:auto;image-rendering:auto;shape-rendering:auto;text-rendering:auto;enable-background:accumulate" />
      <path
         inkscape:connector-curvature="0"
         id="rect3336-3-5-67"
         d="m 592,300.36221 0,63.99999 c 0,8 14,8 24,8 l 0,68 c 0,4 -4,8 -8,8 4,0 8,4 8,8 l 0,60 c -12,0 -24,0 -24,8 l 0,64 c 0,-8 12,-8 24,-8 4,0 8,-4 8,-8 0,4 3.94878,8 8,8 12,0 24,0 24,8 l 0,-64 c 0,-8 -14,-8 -24,-8 l 0,-60 c 0,-4 4,-8 8,-8 -4,0 -8,-4 -8,-8 l 0,-68 c 12,0 24,0 24,-8 l 0,-63.99999 c 0,8 -12,8 -24,8 -4,0 -8,4 -8,8 0,-4 -3.94878,-8 -8,-8 -12,0 -24,0 -24,-8 z"
         style="color:#000000;clip-rule:nonzero;display:inline;overflow:visible;visibility:visible;opacity:1;isolation:auto;mix-blend-mode:normal;color-interpolation:sRGB;color-interpolation-filters:linearRGB;solid-color:#000000;solid-opacity:1;fill:#000000;fill-opacity:1;fill-rule:nonzero;stroke:none;stroke-width:0;stroke-miterlimit:4;stroke-dasharray:none;stroke-opacity:1;color-rendering:auto;image-rendering:auto;shape-rendering:auto;text-rendering:auto;enable-background:accumulate" />
      <path
         id="rect3336-3-53"
         transform="translate(-224,300.3622)"
         d="m 958,0 0,64 c 0,8 14,8 24,8 l -6,0 -24,68 c 0,4 -8,8 -12,8 4,0 4,4 4,8 l -24,60 c -12,0 -24,0 -24,8 l 0,64 c 0,-8 12,-8 24,-8 4,0 8,-4 8,-8 0,4 3.94878,8 8,8 12,0 24,0 24,8 l 0,-64 c 0,-8 -14,-8 -24,-8 L 958.40039,160 982,160 c 4,0 8,4 8,8 0,-4 4,-8 8,-8 l 23.5996,0 22.4004,56 2,0 c -12,0 -24,0 -24,8 l 0,64 c 0,-8 12,-8 24,-8 4,0 8,-4 8,-8 0,4 3.9488,8 8,8 12,0 24,0 24,8 l 0,-64 c 0,-8 -14,-8 -24,-8 -0.7246,0 -1.4476,-0.13428 -2.1484,-0.37305 L 1036,156 c 0,-4 0,-8 4,-8 -4,0 -12,-4 -12,-8 l -24,-68 -6,0 c 12,0 24,0 24,-8 l 0,-64 c 0,8 -12,8 -24,8 -4,0 -8,4 -8,8 0,-4 -3.94878,-8 -8,-8 -12,0 -24,0 -24,-8 z m 31.76758,78.326172 C 989.91446,78.877172 990,79.4379 990,80 c 0,-0.562102 0.0855,-1.122826 0.23242,-1.673828 L 1012,140 c 0,1.39308 -0.011,2.77589 -0.1797,4 L 998,144 c -4,0 -8,-4 -8,-8 0,4 -4,8 -8,8 l -13.82031,0 C 968.01072,142.77589 968,141.39308 968,140 l 21.76758,-61.673828 z"
         style="color:#000000;clip-rule:nonzero;display:inline;overflow:visible;visibility:visible;opacity:1;isolation:auto;mix-blend-mode:normal;color-interpolation:sRGB;color-interpolation-filters:linearRGB;solid-color:#000000;solid-opacity:1;fill:#000000;fill-opacity:1;fill-rule:nonzero;stroke:none;stroke-width:0;stroke-miterlimit:4;stroke-dasharray:none;stroke-opacity:1;color-rendering:auto;image-rendering:auto;shape-rendering:auto;text-rendering:auto;enable-background:accumulate"
         inkscape:connector-curvature="0" />
      <path
         inkscape:connector-curvature="0"
         id="rect3336-3-5-67-0"
         d="m 880,300.3622 0,64 c 0,8 14,8 24,8 l 0,68 c 0,4 -4,8 -8,8 4,0 8,4 8,8 l 0,60 c -12,0 -24,0 -24,8 l 0,64 c 0,-8 12,-8 24,-8 4,0 8,-4 8,-8 0,4 3.94878,8 8,8 12,0 24,0 24,8 l 0,-64 c 0,-8 -14,-8 -24,-8 l 0,-60 c 0,-4 4,-8 8,-8 -4,0 -8,-4 -8,-8 l 0,-64 8,20 c 0,4 0,8 -4,8 4,0 12,4 12,8 l 24,68 12,40 12,-40 24,-68 c 0,-4 8,-8 12,-8 -4,0 -4,-4 -4,-8 l 9.6016,-24.00195 c 0.1289,10e-6 0.2708,0.002 0.3984,0.002 l 0,68 c 0,4 -4,8 -8,8 4,0 8,4 8,8 l 0,60 c -12,0 -24,0 -24,8 l 0,64 c 0,-8 12,-8 24,-8 4,0 8,-4 8,-8 0,4 3.9488,8 8,8 12,0 24,0 24,8 l 0,-64 c 0,-8 -14,-8 -24,-8 l 0,-60 c 0,-4 4,-8 8,-8 -4,0 -8,-4 -8,-8 l 0,-68 c 12,0 24,0 24,-8 l 0,-64 c 0,8 -12,8 -24,8 -4,0 -8,4 -8,8 0,-4 -3.9488,-8 -8,-8 -12,0 -24,0 -24,-8 l 0,64 c 0,3.9335 3.3919,5.92702 8.0215,6.94336 L 1000,396.3622 c 0,4 -8,8 -12,8 4,0 4,4 4,8 l -20,56.66602 -20,-56.66602 c 0,-4 0,-8 4,-8 -4,0 -12,-4 -12,-8 l -9.83789,-24.59375 C 939.9246,370.95474 944,369.01757 944,364.3622 l 0,-64 c 0,8 -12,8 -24,8 -4,0 -8,4 -8,8 0,-4 -3.94878,-8 -8,-8 -12,0 -24,0 -24,-8 z"
         style="color:#000000;clip-rule:nonzero;display:inline;overflow:visible;visibility:visible;opacity:1;isolation:auto;mix-blend-mode:normal;color-interpolation:sRGB;color-interpolation-filters:linearRGB;solid-color:#000000;solid-opacity:1;fill:#000000;fill-opacity:1;fill-rule:nonzero;stroke:none;stroke-width:0;stroke-miterlimit:4;stroke-dasharray:none;stroke-opacity:1;color-rendering:auto;image-rendering:auto;shape-rendering:auto;text-rendering:auto;enable-background:accumulate" />
      <path
         sodipodi:nodetypes="csccscscscscccccccccscscscsccscscscsccccccccccccccscscsc"
         inkscape:connector-curvature="0"
         id="rect3336-3-5-67-0-0"
         d="m -32,300.36221 0,64 c 0,8 12,8 24,8 l 30,144 c -10,0 -24,0 -24,8 l 0,64 c 0,-8 12,-8 24,-8 4.0512,0 8,-4 8,-8 0,4 4,8 8,8 12,0 24,0 24,8 l 0,-64 c 0,-4.65537 -4.075396,-6.59254 -9.837891,-7.40625 L 62,492.36221 c 0,-4 8,-8 12,-8 -4,0 -4,-4 -4,-8 l 20,-56.66602 20,56.66602 c 0,4 0,8 -4,8 4,0 12,4 12,8 l 10.02148,25.05664 C 123.39193,518.43519 120,520.42871 120,524.36221 l 0,64 c 0,-8 12,-8 24,-8 4.0512,0 8,-4 8,-8 0,4 4,8 8,8 12,0 24,0 24,8 l 0,-64 c 0,-8 -12,-8 -24,-8 l 24,-144 c 10,0 24,0 24,-8 l 0,-64 c 0,8 -12,8 -24,8 -4.0512,0 -8,4 -8,8 0,-4 -4,-8 -8,-8 -12,0 -24,0 -24,-8 l 0,64 c 0,8 12,8 24,8 l -24,144 -0.39844,0.002 L 134,492.36221 c 0,-4 0,-8 4,-8 -4,0 -12,-4 -12,-8 l -24,-68 -12,-40 -12,40 -24,68 c 0,4 -8,8 -12,8 4,0 4,4 4,8 l -8,20 -30,-140 c 10,0 24,0 24,-8 l 0,-64 c 0,8 -12,8 -24,8 -4.0512,0 -8,4 -8,8 0,-4 -4,-8 -8,-8 -12,0 -24,0 -24,-8 z"
         style="color:#000000;clip-rule:nonzero;display:inline;overflow:visible;visibility:visible;opacity:1;isolation:auto;mix-blend-mode:normal;color-interpolation:sRGB;color-interpolation-filters:linearRGB;solid-color:#000000;solid-opacity:1;fill:#000000;fill-opacity:1;fill-rule:nonzero;stroke:none;stroke-width:0;stroke-miterlimit:4;stroke-dasharray:none;stroke-opacity:1;color-rendering:auto;image-rendering:auto;shape-rendering:auto;text-rendering:auto;enable-background:accumulate" />
    </g>
    <g
       id="g4173"
       transform="translate(38,0)">
      <path
         sodipodi:nodetypes="ccscsccccccccsccccscssccccccccscsccscccscscssccccccssscsccsscccsscc"
         inkscape:connector-curvature="0"
         id="rect3336-3-5-6-1"
         d="m 400,608.36225 0,70 c 0,-8 0,-38 22,-38 22,0 18,4 18,4 l 0,30 c 0,0.125 -0.008,0.24951 -0.0235,0.37402 -4e-5,3.2e-4 4e-5,5e-4 0,10e-4 -0.0303,0.2487 -0.089,0.49543 -0.17383,0.73633 -10e-5,3e-4 1.1e-4,5e-4 0,10e-4 -0.0849,0.24092 -0.19644,0.47585 -0.32812,0.70117 -1.4e-4,2.5e-4 1.4e-4,5e-4 0,10e-4 -0.13175,0.22533 -0.28436,0.44064 -0.45508,0.64258 -1.6e-4,2e-4 1.7e-4,10e-4 0,10e-4 -0.0853,0.10087 -0.17595,0.19841 -0.26953,0.29199 -0.1875,0.1875 -0.39062,0.35937 -0.60547,0.51171 -0.21484,0.15235 -0.4414,0.28516 -0.67578,0.39454 -0.23437,0.10937 -0.47656,0.19531 -0.72266,0.2539 -0.24608,0.0585 -0.49608,0.0898 -0.74608,0.0898 0.25,0 0.5,0.0312 0.74609,0.0898 0.2461,0.0586 0.48828,0.14453 0.72266,0.25391 0.23437,0.10937 0.46094,0.24219 0.67578,0.39453 0.21484,0.15234 0.41797,0.32422 0.60547,0.51172 0.0937,0.0937 0.18408,0.19092 0.26953,0.29199 1.5e-4,1.8e-4 -1.6e-4,0.001 0,0.001 0.1707,0.20197 0.32337,0.41721 0.45508,0.64257 1.3e-4,2.3e-4 -1.4e-4,5e-4 0,10e-4 0.13164,0.22536 0.24326,0.46023 0.32812,0.70117 1.1e-4,2.8e-4 -1e-4,5e-4 0,10e-4 0.0848,0.24093 0.14359,0.48761 0.17383,0.73633 4e-5,3.1e-4 -3e-5,5e-4 0,10e-4 0.015,0.1242 0.0234,0.24935 0.0234,0.37403 l 0,34 c -6,0 -12,0 -12,4 l 0,32 c 0,-0.125 0.006,-0.24597 0.0176,-0.36329 0.35761,-3.63659 6.16992,-3.63671 11.98242,-3.63671 0.125,0 0.25049,-0.008 0.375,-0.0235 1.88746,-0.22494 3.625,-2.10027 3.625,-3.97655 0,1.87628 1.73754,3.75161 3.625,3.97655 0.12445,0.0149 0.2497,0.0235 0.375,0.0235 6,0 12,0 12,4 l 0,-32 c 0,-4 -6,-4 -12,-4 l 0,-34 c 0,-1 0.5,-2 1.25,-2.75 0.1875,-0.1875 0.39062,-0.35938 0.60547,-0.51172 0.21484,-0.15235 0.4414,-0.28516 0.67578,-0.39453 0.23437,-0.10938 0.47656,-0.19532 0.72265,-0.25391 0.24607,-0.0587 0.49607,-0.0899 0.74607,-0.0899 -0.25,0 -0.5,-0.0312 -0.74609,-0.0899 -0.2461,-0.0586 -0.48829,-0.14453 -0.72266,-0.2539 -0.23438,-0.10938 -0.46094,-0.24219 -0.67578,-0.39453 -0.21485,-0.15235 -0.41797,-0.32422 -0.60547,-0.51172 -0.75,-0.75 -1.25,-1.75 -1.25,-2.75 l 0,-30 c 0,0 -4,-4 18,-4 22,0 22,30 22,38 l 0,-70 c 0,3.99999 -6,4 -12,4 l -28,0 c -0.12633,0 -0.25308,0.008 -0.37891,0.0234 -0.02,0.002 -0.0396,0.008 -0.0596,0.0108 -1.86264,0.25901 -3.56152,2.11069 -3.56152,3.96582 0,-2 -1.97439,-4 -4,-4 l -28,0 c -6,0 -12,-10e-6 -12,-4 z"
         style="color:#000000;clip-rule:nonzero;display:inline;overflow:visible;visibility:visible;opacity:1;isolation:auto;mix-blend-mode:normal;color-interpolation:sRGB;color-interpolation-filters:linearRGB;solid-color:#000000;solid-opacity:1;fill:#000000;fill-opacity:1;fill-rule:nonzero;stroke:none;stroke-width:0;stroke-miterlimit:4;stroke-dasharray:none;stroke-opacity:1;color-rendering:auto;image-rendering:auto;shape-rendering:auto;text-rendering:auto;enable-background:accumulate" />
      <path
         inkscape:connector-curvature="0"
         id="rect3336-3-5-3"
         d="m 496,608.36225 0,32 c 0,4 7,4 12,4 l 0,34 c 0,2 -2,4 -4,4 2,0 4,2 4,4 l 0,30 c -6,0 -12,0 -12,4 l 0,32 c 0,-4 6,-4 12,-4 2,0 4,-2 4,-4 0,2 1.97439,4 4,4 6,0 12,0 12,4 l 0,-32 c 0,-4 -7,-4 -12,-4 l 0,-30 20,0 c 2,0 4,2 4,4 0,-2 2,-4 4,-4 l 20,0 0,30 c -6,0 -12,0 -12,4 l 0,32 c 0,-4 6,-4 12,-4 2,0 4,-2 4,-4 0,2 1.97439,4 4,4 6,0 12,0 12,4 l 0,-32 c 0,-4 -7,-4 -12,-4 l 0,-30 c 0,-2 2,-4 4,-4 -2,0 -4,-2 -4,-4 l 0,-34 c 6,0 12,0 12,-4 l 0,-32 c 0,4 -6,4 -12,4 -2,0 -4,2 -4,4 0,-2 -1.97439,-4 -4,-4 -6,0 -12,0 -12,-4 l 0,32 c 0,4 7,4 12,4 l 0,34 -20,0 c -2,0 -4,-2 -4,-4 0,2 -2,4 -4,4 l -20,0 0,-34 c 6,0 12,0 12,-4 l 0,-32 c 0,4 -6,4 -12,4 -2,0 -4,2 -4,4 0,-2 -1.97439,-4 -4,-4 -6,0 -12,0 -12,-4 z"
         style="color:#000000;clip-rule:nonzero;display:inline;overflow:visible;visibility:visible;opacity:1;isolation:auto;mix-blend-mode:normal;color-interpolation:sRGB;color-interpolation-filters:linearRGB;solid-color:#000000;solid-opacity:1;fill:#000000;fill-opacity:1;fill-rule:nonzero;stroke:none;stroke-width:0;stroke-miterlimit:4;stroke-dasharray:none;stroke-opacity:1;color-rendering:auto;image-rendering:auto;shape-rendering:auto;text-rendering:auto;enable-background:accumulate" />
      <path
         inkscape:connector-curvature="0"
         id="rect3336-3-5-6-2-5"
         d="m 592,608.36225 0,32 c 0,4 6,4 12,4 l 0,34 c 0,2 -2,4 -4,4 2,0 4,2 4,4 l 0,30 c -6,0 -12,0 -12,4 l 0,32 c 0,-4 6,-4 12,-4 2,0 4,-2 4,-4 0,2 1.97439,4 4,4 l 24,0 c 2,0 4,-2 4,-4 0,2 2,4 4,4 6,-10e-6 12,0 12,4 l 0,-52 c 0,8 0,20 -22,20 -22,0 -22,-4 -22,-4 l 0,-30 26,0 c 2,0 4,2 4,4 l 0,-16 c 0,2 -2,4 -4,4 l -26,0 0,-34 c 0,0 0,-4 22,-4 22,0 22,16 22,24 l 0,-56 c 0,3.99999 -6,4 -12,4 -2,0 -4,2 -4,4 0,-2 -2,-4 -4,-4 l -24,0 c -2.02561,0 -4,2 -4,4 0,-2 -2,-4 -4,-4 -6,0 -12,0 -12,-4 z"
         style="color:#000000;clip-rule:nonzero;display:inline;overflow:visible;visibility:visible;opacity:1;isolation:auto;mix-blend-mode:normal;color-interpolation:sRGB;color-interpolation-filters:linearRGB;solid-color:#000000;solid-opacity:1;fill:#000000;fill-opacity:1;fill-rule:nonzero;stroke:none;stroke-width:0;stroke-miterlimit:4;stroke-dasharray:none;stroke-opacity:1;color-rendering:auto;image-rendering:auto;shape-rendering:auto;text-rendering:auto;enable-background:accumulate" />
    </g>
    <g
       id="g4178">
      <path
         sodipodi:nodetypes="ccscsccccccccsssccssssccccccccscsccscccscscssssccssssscsccsscccsssc"
         inkscape:connector-curvature="0"
         id="rect3336-3-5-6-1-2"
         d="m -208,768.36221 0,139.99999 c 0,-16 0,-76 44,-76 44,0 36,8 36,8 l 0,60 c 0,0.25 -0.0166,0.49902 -0.0469,0.74805 -7e-5,6.4e-4 8e-5,0.001 0,0.002 -0.0606,0.4974 -0.17795,0.99085 -0.34765,1.47266 -2.1e-4,5.9e-4 2.1e-4,10e-4 0,0.002 -0.16984,0.48183 -0.39289,0.9517 -0.65625,1.40234 -2.9e-4,5e-4 2.9e-4,10e-4 0,0.002 -0.26349,0.45066 -0.56872,0.88128 -0.91016,1.28515 -3.3e-4,4e-4 3.4e-4,0.002 0,0.002 -0.17062,0.20175 -0.3519,0.39682 -0.53906,0.58398 -0.375,0.375 -0.78125,0.71875 -1.21094,1.02344 -0.42968,0.30468 -0.88281,0.57031 -1.35156,0.78906 -0.46875,0.21875 -0.95312,0.39062 -1.44531,0.50781 C -135,908.2997 -135.5,908.3622 -136,908.3622 c 0.5,0 1,0.0625 1.49219,0.17969 0.49219,0.11719 0.97656,0.28906 1.44531,0.50781 0.46875,0.21875 0.92188,0.48438 1.35156,0.78906 0.42969,0.30469 0.83594,0.64844 1.21094,1.02344 0.1875,0.1875 0.36816,0.38184 0.53906,0.58398 3.1e-4,3.7e-4 -3.1e-4,0.002 0,0.002 0.3414,0.40395 0.64674,0.83442 0.91016,1.28515 2.7e-4,4.7e-4 -2.8e-4,10e-4 0,0.002 0.26328,0.45071 0.48651,0.92045 0.65625,1.40234 2e-4,5.6e-4 -2e-4,0.001 0,0.002 0.16959,0.48186 0.28718,0.97522 0.34765,1.47266 8e-5,6.3e-4 -7e-5,10e-4 0,0.002 0.0301,0.24839 0.0469,0.4987 0.0469,0.74805 l 0,68 c -12,0 -24,0 -24,8 l 0,64.00002 c 0,-0.25 0.0121,-0.492 0.0352,-0.7266 0.71521,-7.2732 12.33984,-7.2734 23.96484,-7.2734 0.25,0 0.50098,-0.017 0.75,-0.047 3.77492,-0.4499 7.25,-4.2006 7.25,-7.9531 0,3.7525 3.47508,7.5032 7.25,7.9531 0.24891,0.03 0.4994,0.047 0.75,0.047 12,0 24,0 24,8 l 0,-64.00002 c 0,-8 -12,-8 -24,-8 l 0,-68 c 0,-2 1,-4 2.5,-5.5 0.375,-0.375 0.78125,-0.71875 1.21094,-1.02344 0.42968,-0.30468 0.88281,-0.57031 1.35156,-0.78906 0.46875,-0.21875 0.95312,-0.39062 1.44531,-0.50781 C -105,908.4247 -104.5,908.3622 -104,908.3622 c -0.5,0 -1,-0.0625 -1.49219,-0.17969 -0.49219,-0.11719 -0.97656,-0.28906 -1.44531,-0.50781 -0.46875,-0.21875 -0.92188,-0.48438 -1.35156,-0.78906 -0.42969,-0.30469 -0.83594,-0.64844 -1.21094,-1.02344 -1.5,-1.5 -2.5,-3.5 -2.5,-5.5 l 0,-60 c 0,0 -8,-8 36,-8 44,0 44,60 44,76 l 0,-139.99999 c 0,7.99998 -12,8 -24,8 l -56,0 c -0.25266,0 -0.50616,0.016 -0.75781,0.0469 -0.04,0.005 -0.0792,0.0158 -0.11914,0.0215 -3.72529,0.51802 -7.12305,4.22137 -7.12305,7.93164 0,-4 -3.94878,-8 -8,-8 l -56,0 c -12,0 -16.00001,-7.99984 -24,-8 z"
         style="color:#000000;clip-rule:nonzero;display:inline;overflow:visible;visibility:visible;opacity:1;isolation:auto;mix-blend-mode:normal;color-interpolation:sRGB;color-interpolation-filters:linearRGB;solid-color:#000000;solid-opacity:1;fill:#000000;fill-opacity:1;fill-rule:nonzero;stroke:none;stroke-width:0;stroke-miterlimit:4;stroke-dasharray:none;stroke-opacity:1;color-rendering:auto;image-rendering:auto;shape-rendering:auto;text-rendering:auto;enable-background:accumulate" />
      <path
         inkscape:connector-curvature="0"
         id="rect3336-3-5-3-9"
         d="m -16,768.3622 0,64 c 0,8 14,8 24,8 l 0,68 c 0,4 -4,8 -8,8 4,0 8,4 8,8 l 0,60 c -12,0 -24,0 -24,8 l 0,64 c 0,-8 12,-8 24,-8 4,0 8,-4 8,-8 0,4 3.94878,8 8,8 12,0 24,0 24,8 l 0,-64 c 0,-8 -14,-8 -24,-8 l 0,-60 40,0 c 4,0 8,4 8,8 0,-4 4,-8 8,-8 l 40,0 0,60 c -12,0 -24,0 -24,8 l 0,64 c 0,-8 12,-8 24,-8 4,0 8,-4 8,-8 0,4 3.94878,8 8,8 12,0 24,0 24,8 l 0,-64 c 0,-8 -14,-8 -24,-8 l 0,-60 c 0,-4 4,-8 8,-8 -4,0 -8,-4 -8,-8 l 0,-68 c 12,0 24,0 24,-8 l 0,-64 c 0,8 -12,8 -24,8 -4,0 -8,4 -8,8 0,-4 -3.94878,-8 -8,-8 -12,0 -24,0 -24,-8 l 0,64 c 0,8 14,8 24,8 l 0,68 -40,0 c -4,0 -8,-4 -8,-8 0,4 -4,8 -8,8 l -40,0 0,-68 c 12,0 24,0 24,-8 l 0,-64 c 0,8 -12,8 -24,8 -4,0 -8,4 -8,8 0,-4 -3.94878,-8 -8,-8 -12,0 -24,0 -24,-8 z"
         style="color:#000000;clip-rule:nonzero;display:inline;overflow:visible;visibility:visible;opacity:1;isolation:auto;mix-blend-mode:normal;color-interpolation:sRGB;color-interpolation-filters:linearRGB;solid-color:#000000;solid-opacity:1;fill:#000000;fill-opacity:1;fill-rule:nonzero;stroke:none;stroke-width:0;stroke-miterlimit:4;stroke-dasharray:none;stroke-opacity:1;color-rendering:auto;image-rendering:auto;shape-rendering:auto;text-rendering:auto;enable-background:accumulate" />
      <path
         inkscape:connector-curvature="0"
         id="rect3336-3-5-3-9-0"
         d="m 176,768.3622 0,64 c 0,8 14,8 24,8 l 0,68 c 0,4 -4,8 -8,8 4,0 8,4 8,8 l 0,60 c 0,36 28,64 64,64 36,0 64,-28 64,-64 l 0,-60 c 0,-4 4,-8 8,-8 -4,0 -8,-4 -8,-8 l 0,-68 c 12,0 24,0 24,-8 l 0,-64 c 0,8 -12,8 -24,8 -4,0 -8,4 -8,8 0,-4 -3.94878,-8 -8,-8 -12,0 -24,0 -24,-8 l 0,64 c 0,8 14,8 24,8 l 0,68 c 0,4 -4,8 -8,8 4,0 8,4 8,8 l 0,24 c 0,28 -20,48 -48,48 -28,0 -48,-20 -48,-48 l 0,-24 c 0,-4 4,-8 8,-8 -4,0 -8,-4 -8,-8 l 0,-68 c 12,0 24,0 24,-8 l 0,-64 c 0,8 -12,8 -24,8 -4,0 -8,4 -8,8 0,-4 -3.94878,-8 -8,-8 -12,0 -24,0 -24,-8 z"
         style="color:#000000;clip-rule:nonzero;display:inline;overflow:visible;visibility:visible;opacity:1;isolation:auto;mix-blend-mode:normal;color-interpolation:sRGB;color-interpolation-filters:linearRGB;solid-color:#000000;solid-opacity:1;fill:#000000;fill-opacity:1;fill-rule:nonzero;stroke:none;stroke-width:0;stroke-miterlimit:4;stroke-dasharray:none;stroke-opacity:1;color-rendering:auto;image-rendering:auto;shape-rendering:auto;text-rendering:auto;enable-background:accumulate" />
      <path
         inkscape:connector-curvature="0"
         id="rect3336-3-5-3-3"
         d="m 368,768.3622 0,64 c 0,8 14,8 24,8 l 0,68 c 0,4 -4,8 -8,8 4,0 8,4 8,8 l 0,60 c -12,0 -24,0 -24,8 l 0,64 c 0,-8 12,-8 24,-8 4,0 8,-4 8,-8 0,4 3.94878,8 8,8 12,0 24,0 24,8 l 0,-64 c 0,-8 -14,-8 -24,-8 l 0,-60 c 0,-4 4,-8 8,-8 -4,0 -8,-4 -8,-8 l 0,-44.68359 93.87109,120.6914 C 490.62433,984.3966 480,984.83777 480,992.3622 l 0,64 c 0,-8 12,-8 24,-8 4,0 8,-4 8,-8 0,4 3.94878,8 8,8 12,0 24,0 24,8 l 0,-64 c 0,-8 -14,-8 -24,-8 l 0,-60 c 0,-4 4,-8 8,-8 -4,0 -8,-4 -8,-8 l 0,-68 c 12,0 24,0 24,-8 l 0,-64 c 0,8 -12,8 -24,8 -4,0 -8,4 -8,8 0,-4 -3.94878,-8 -8,-8 -12,0 -24,0 -24,-8 l 0,64 c 0,8 14,8 24,8 l 0,68 c 0,4 -4,8 -8,8 4,0 8,4 8,8 l 0,36.68555 -93.87305,-120.69336 C 421.37444,840.32784 432,839.88707 432,832.3622 l 0,-64 c 0,8 -12,8 -24,8 -4,0 -8,4 -8,8 0,-4 -3.94878,-8 -8,-8 -12,0 -24,0 -24,-8 z"
         style="color:#000000;clip-rule:nonzero;display:inline;overflow:visible;visibility:visible;opacity:1;isolation:auto;mix-blend-mode:normal;color-interpolation:sRGB;color-interpolation-filters:linearRGB;solid-color:#000000;solid-opacity:1;fill:#000000;fill-opacity:1;fill-rule:nonzero;stroke:none;stroke-width:0;stroke-miterlimit:4;stroke-dasharray:none;stroke-opacity:1;color-rendering:auto;image-rendering:auto;shape-rendering:auto;text-rendering:auto;enable-background:accumulate" />
      <path
         sodipodi:nodetypes="cscscscscscscccccsccscscscscscscscscs"
         inkscape:connector-curvature="0"
         id="rect3336-3-5-6-2-5-6"
         d="m 570,768.36221 0,64 c 0,8 12,8 24,8 l 0,68 c 0,4 -4,8 -8,8 4,0 8,4 8,8 l 0,60 c -12,0 -24,0 -24,8 l 0,63.99999 c 0,-8 12,-8 24,-8 4,0 8,-4 8,-8 0,4 3.94878,8 8,8 69.30726,0 84.88161,0.4389 88,-59.99999 l 0,0 0,-48.62305 c 0.004,-3.5487 9.6e-4,-7.5926 0,-11.37695 0,-4 4,-8 8,-8 -4,0 -8,-4 -8,-8 l 0,-68 0,0 c -2.86416,-65.61137 -17.8066,-68 -88,-68 -4.05122,0 -8,4 -8,8 0,-4 -4,-8 -8,-8 -12,0 -24,0 -24,-8 z m 84,64 c 12.59788,0 21.58332,5.57983 28,13.91211 l 0,66.08789 c 0,4 -4,8 -8,8 4,0 8,4 8,8 l 0,51.68164 c -6.41665,7.39594 -15.40237,12.31836 -28,12.31836 -44,0 -44,-8 -44,-8 l 0,-60 c 0,-4 4,-8 8,-8 -4,0 -8,-4 -8,-8 l 0,-68 c 0,0 0,-8 44,-8 z"
         style="color:#000000;clip-rule:nonzero;display:inline;overflow:visible;visibility:visible;opacity:1;isolation:auto;mix-blend-mode:normal;color-interpolation:sRGB;color-interpolation-filters:linearRGB;solid-color:#000000;solid-opacity:1;fill:#000000;fill-opacity:1;fill-rule:nonzero;stroke:none;stroke-width:0;stroke-miterlimit:4;stroke-dasharray:none;stroke-opacity:1;color-rendering:auto;image-rendering:auto;shape-rendering:auto;text-rendering:auto;enable-background:accumulate" />
      <path
         inkscape:connector-curvature="0"
         id="rect3336-3-5-6-2-5-6-9"
         d="m 708,768.3622 0,64 c 0,8 12,8 24,8 l 0,30 0,18 c -12,0 -24,0 -24,8 l 0,64 c 0,-7.92671 11.78282,-7.99738 23.67188,-7.99805 0.20746,0.65404 0.32812,1.32495 0.32812,1.99805 l 0,30 c -12,0 -24,0 -24,8 l 0,64 c 0,-8 12,-8 24,-8 4,0 8,-4 8,-8 0,4 3.94878,8 8,8 12,0 24,0 24,8 l 0,-64 c 0,-8 -14,-8 -24,-8 l 0,-30 c 0,-0.67389 0.12214,-1.34523 0.33008,-2 26.11828,4.9e-4 44.5782,0.0406 57.60156,-3.16992 L 820,984.3622 l 2,0 c -12,0 -24,0 -24,8 l 0,64 c 0,-8 12,-8 24,-8 4,0 8,-4 8,-8 0,4 3.94878,8 8,8 12,0 24,0 24,8 l 0,-64 c 0,-8 -14,-8 -24,-8 -0.72463,0 -1.44759,-0.13428 -2.14844,-0.37305 L 819.55273,943.24306 C 830.43588,935.27513 834.55606,920.34784 836,892.3622 l 0,-48 c -2.86416,-65.61136 -17.8066,-68 -88,-68 -4.05122,0 -8,4 -8,8 0,-4 -4,-8 -8,-8 -12,0 -24,0 -24,-8 z m 84,64 c 12.59788,0 21.58332,5.57983 28,13.91211 l 0,37.76953 c -6.41665,7.39594 -15.40237,12.31836 -28,12.31836 -44,0 -44,-8 -44,-8 l 0,-18 0,-30 c 0,0 0,-8 44,-8 z"
         style="color:#000000;clip-rule:nonzero;display:inline;overflow:visible;visibility:visible;opacity:1;isolation:auto;mix-blend-mode:normal;color-interpolation:sRGB;color-interpolation-filters:linearRGB;solid-color:#000000;solid-opacity:1;fill:#000000;fill-opacity:1;fill-rule:nonzero;stroke:none;stroke-width:0;stroke-miterlimit:4;stroke-dasharray:none;stroke-opacity:1;color-rendering:auto;image-rendering:auto;shape-rendering:auto;text-rendering:auto;enable-background:accumulate" />
      <path
         inkscape:connector-curvature="0"
         id="path4301-5"
         d="m 936,768.3622 c -36,0 -64,28 -64,64 l 0,10 0,2 0,68 c 0,4 -4,8 -8,8 4,0 8,4 8,8 l 0,50 0,10 c 0,36 28,64 64,64 36,0 64,-28 64,-64 l 0,-12 0,-48 c 0,-4 4,-8 8,-8 -4,0 -8,-4 -8,-8 l 0,-68 0,-12 c 0,-36 -28,-64 -64,-64 z m 0,52 c 28,0 48,20 48,48 l 0,44 c 0,4 -4,8 -8,8 4,0 8,4 8,8 l 0,24 c 0,28 -20,48 -48,48 -28,0 -48,-20 -48,-48 l 0,-24 c 0,-4 4,-8 8,-8 -4,0 -8,-4 -8,-8 l 0,-44 c 0,-28 20,-48 48,-48 z"
         style="color:#000000;font-style:normal;font-variant:normal;font-weight:normal;font-stretch:normal;font-size:medium;line-height:normal;font-family:sans-serif;text-indent:0;text-align:start;text-decoration:none;text-decoration-line:none;text-decoration-style:solid;text-decoration-color:#000000;letter-spacing:normal;word-spacing:normal;text-transform:none;direction:ltr;block-progression:tb;writing-mode:lr-tb;baseline-shift:baseline;text-anchor:start;white-space:normal;clip-rule:nonzero;display:inline;overflow:visible;visibility:visible;opacity:1;isolation:auto;mix-blend-mode:normal;color-interpolation:sRGB;color-interpolation-filters:linearRGB;solid-color:#000000;solid-opacity:1;fill:#000000;fill-opacity:1;fill-rule:evenodd;stroke:none;stroke-width:16;stroke-linecap:butt;stroke-linejoin:miter;stroke-miterlimit:4;stroke-dasharray:none;stroke-dashoffset:0;stroke-opacity:1;color-rendering:auto;image-rendering:auto;shape-rendering:auto;text-rendering:auto;enable-background:accumulate" />
      <path
         inkscape:connector-curvature="0"
         id="rect3336-3-5-3-9-0-8"
         d="m 1008,768.3622 0,64 c 0,8 14,8 24,8 l 0,68 c 0,4 -4,8 -8,8 4,0 8,4 8,8 l 0,60 c 0,36 28,64 64,64 36,0 64,-28 64,-64 l 0,-60 c 0,-4 4,-8 8,-8 -4,0 -8,-4 -8,-8 l 0,-68 c 12,0 24,0 24,-8 l 0,-64 c 0,8 -12,8 -24,8 -4,0 -8,4 -8,8 0,-4 -3.9488,-8 -8,-8 -12,0 -24,0 -24,-8 l 0,64 c 0,8 14,8 24,8 l 0,68 c 0,4 -4,8 -8,8 4,0 8,4 8,8 l 0,24 c 0,28 -20,48 -48,48 -28,0 -48,-20 -48,-48 l 0,-24 c 0,-4 4,-8 8,-8 -4,0 -8,-4 -8,-8 l 0,-68 c 12,0 24,0 24,-8 l 0,-64 c 0,8 -12,8 -24,8 -4,0 -8,4 -8,8 0,-4 -3.9488,-8 -8,-8 -12,0 -24,0 -24,-8 z"
         style="color:#000000;clip-rule:nonzero;display:inline;overflow:visible;visibility:visible;opacity:1;isolation:auto;mix-blend-mode:normal;color-interpolation:sRGB;color-interpolation-filters:linearRGB;solid-color:#000000;solid-opacity:1;fill:#000000;fill-opacity:1;fill-rule:nonzero;stroke:none;stroke-width:0;stroke-miterlimit:4;stroke-dasharray:none;stroke-opacity:1;color-rendering:auto;image-rendering:auto;shape-rendering:auto;text-rendering:auto;enable-background:accumulate" />
      <path
         inkscape:connector-curvature="0"
         id="rect3336-3-5-6-2-5-6-6"
         d="m 1320,766.3622 c 0,8.00001 -12,8 -24,8 -4,0 -8,4 -8,8 0,-4 -3.9488,-8 -8,-8 -69.3073,-10e-6 -88,5.48076 -88,66 0,55.99999 0,76 60,76 4,0 8,4 8,8 0,-0.25 0.017,-0.50098 0.047,-0.75 0.4238,-3.48633 3.7168,-6.7793 7.2031,-7.20312 0.249,-0.0303 0.5,-0.0469 0.75,-0.0469 48,0 40,16 40,60 0,9.79153 -11.4024,10 -24,10 -44,0 -44,-8 -44,-8 l -16,0 c -12,0 -24,0 -24,8 l 0,64.00002 c 0,-8 12,-8 24,-8 4,0 8,-4 8,-8 0,4 3.9488,8 8,8 69.3073,0 88,-5.4808 88,-66.00002 0,-56 0,-76 -60,-76 -3.75,0 -7.499,-3.51465 -7.9531,-7.25 -0.03,-0.24902 -0.047,-0.5 -0.047,-0.75 0,4 -4,8 -8,8 -48,0 -40,-16 -40,-60 0,-9.79153 11.4024,-10 24,-10 44,0 44,8 44,8 l 16,0 c 12,0 24,0 24,-8 l 0,-64 z"
         style="color:#000000;clip-rule:nonzero;display:inline;overflow:visible;visibility:visible;opacity:1;isolation:auto;mix-blend-mode:normal;color-interpolation:sRGB;color-interpolation-filters:linearRGB;solid-color:#000000;solid-opacity:1;fill:#000000;fill-opacity:1;fill-rule:nonzero;stroke:none;stroke-width:0;stroke-miterlimit:4;stroke-dasharray:none;stroke-opacity:1;color-rendering:auto;image-rendering:auto;shape-rendering:auto;text-rendering:auto;enable-background:accumulate" />
    </g>
  </g>
</svg>
