<?xml version="1.0" encoding="UTF-8" standalone="no"?>
<!-- Created with Inkscape (http://www.inkscape.org/) -->

<svg
   xmlns:dc="http://purl.org/dc/elements/1.1/"
   xmlns:cc="http://creativecommons.org/ns#"
   xmlns:rdf="http://www.w3.org/1999/02/22-rdf-syntax-ns#"
   xmlns:svg="http://www.w3.org/2000/svg"
   xmlns="http://www.w3.org/2000/svg"
   xmlns:sodipodi="http://sodipodi.sourceforge.net/DTD/sodipodi-0.dtd"
   xmlns:inkscape="http://www.inkscape.org/namespaces/inkscape"
   width="5.1999998in"
   height="0.39956033in"
   viewBox="0 0 467.99998 35.96043"
   id="svg4144"
   version="1.1"
   inkscape:version="0.91 r"
   sodipodi:docname="Logo.svg">
  <defs
     id="defs4146">
    <filter
       style="color-interpolation-filters:sRGB;"
       inkscape:label="Roughen"
       id="filter20313">
      <feTurbulence
         type="fractalNoise"
         numOctaves="5"
         seed="1"
         baseFrequency="0.013 0.013"
         result="turbulence"
         id="feTurbulence20315" />
      <feDisplacementMap
         in="SourceGraphic"
         in2="turbulence"
         scale="2"
         yChannelSelector="G"
         xChannelSelector="R"
         id="feDisplacementMap20317" />
    </filter>
    <filter
       style="color-interpolation-filters:sRGB;"
       inkscape:label="Roughen"
       id="filter20319">
      <feTurbulence
         type="fractalNoise"
         numOctaves="5"
         seed="1"
         baseFrequency="0.013 0.013"
         result="turbulence"
         id="feTurbulence20321" />
      <feDisplacementMap
         in="SourceGraphic"
         in2="turbulence"
         scale="2"
         yChannelSelector="G"
         xChannelSelector="R"
         id="feDisplacementMap20323" />
    </filter>
    <filter
       style="color-interpolation-filters:sRGB;"
       inkscape:label="Roughen"
       id="filter20325">
      <feTurbulence
         type="fractalNoise"
         numOctaves="5"
         seed="1"
         baseFrequency="0.013 0.013"
         result="turbulence"
         id="feTurbulence20327" />
      <feDisplacementMap
         in="SourceGraphic"
         in2="turbulence"
         scale="2"
         yChannelSelector="G"
         xChannelSelector="R"
         id="feDisplacementMap20329" />
    </filter>
    <filter
       style="color-interpolation-filters:sRGB;"
       inkscape:label="Roughen"
       id="filter20331">
      <feTurbulence
         type="fractalNoise"
         numOctaves="5"
         seed="1"
         baseFrequency="0.013 0.013"
         result="turbulence"
         id="feTurbulence20333" />
      <feDisplacementMap
         in="SourceGraphic"
         in2="turbulence"
         scale="2"
         yChannelSelector="G"
         xChannelSelector="R"
         id="feDisplacementMap20335" />
    </filter>
    <filter
       style="color-interpolation-filters:sRGB;"
       inkscape:label="Roughen"
       id="filter20337">
      <feTurbulence
         type="fractalNoise"
         numOctaves="5"
         seed="1"
         baseFrequency="0.013 0.013"
         result="turbulence"
         id="feTurbulence20339" />
      <feDisplacementMap
         in="SourceGraphic"
         in2="turbulence"
         scale="2"
         yChannelSelector="G"
         xChannelSelector="R"
         id="feDisplacementMap20341" />
    </filter>
    <filter
       style="color-interpolation-filters:sRGB;"
       inkscape:label="Roughen"
       id="filter20343">
      <feTurbulence
         type="fractalNoise"
         numOctaves="5"
         seed="1"
         baseFrequency="0.013 0.013"
         result="turbulence"
         id="feTurbulence20345" />
      <feDisplacementMap
         in="SourceGraphic"
         in2="turbulence"
         scale="2"
         yChannelSelector="G"
         xChannelSelector="R"
         id="feDisplacementMap20347" />
    </filter>
    <filter
       style="color-interpolation-filters:sRGB;"
       inkscape:label="Roughen"
       id="filter20349">
      <feTurbulence
         type="fractalNoise"
         numOctaves="5"
         seed="1"
         baseFrequency="0.013 0.013"
         result="turbulence"
         id="feTurbulence20351" />
      <feDisplacementMap
         in="SourceGraphic"
         in2="turbulence"
         scale="2"
         yChannelSelector="G"
         xChannelSelector="R"
         id="feDisplacementMap20353" />
    </filter>
    <filter
       style="color-interpolation-filters:sRGB;"
       inkscape:label="Roughen"
       id="filter20355">
      <feTurbulence
         type="fractalNoise"
         numOctaves="5"
         seed="1"
         baseFrequency="0.013 0.013"
         result="turbulence"
         id="feTurbulence20357" />
      <feDisplacementMap
         in="SourceGraphic"
         in2="turbulence"
         scale="2"
         yChannelSelector="G"
         xChannelSelector="R"
         id="feDisplacementMap20359" />
    </filter>
    <filter
       style="color-interpolation-filters:sRGB;"
       inkscape:label="Roughen"
       id="filter20361">
      <feTurbulence
         type="fractalNoise"
         numOctaves="5"
         seed="1"
         baseFrequency="0.013 0.013"
         result="turbulence"
         id="feTurbulence20363" />
      <feDisplacementMap
         in="SourceGraphic"
         in2="turbulence"
         scale="2"
         yChannelSelector="G"
         xChannelSelector="R"
         id="feDisplacementMap20365" />
    </filter>
    <filter
       style="color-interpolation-filters:sRGB;"
       inkscape:label="Roughen"
       id="filter20367">
      <feTurbulence
         type="fractalNoise"
         numOctaves="5"
         seed="1"
         baseFrequency="0.013 0.013"
         result="turbulence"
         id="feTurbulence20369" />
      <feDisplacementMap
         in="SourceGraphic"
         in2="turbulence"
         scale="2"
         yChannelSelector="G"
         xChannelSelector="R"
         id="feDisplacementMap20371" />
    </filter>
    <filter
       style="color-interpolation-filters:sRGB;"
       inkscape:label="Roughen"
       id="filter20373">
      <feTurbulence
         type="fractalNoise"
         numOctaves="5"
         seed="1"
         baseFrequency="0.013 0.013"
         result="turbulence"
         id="feTurbulence20375" />
      <feDisplacementMap
         in="SourceGraphic"
         in2="turbulence"
         scale="2"
         yChannelSelector="G"
         xChannelSelector="R"
         id="feDisplacementMap20377" />
    </filter>
    <filter
       style="color-interpolation-filters:sRGB;"
       inkscape:label="Roughen"
       id="filter20379">
      <feTurbulence
         type="fractalNoise"
         numOctaves="5"
         seed="1"
         baseFrequency="0.013 0.013"
         result="turbulence"
         id="feTurbulence20381" />
      <feDisplacementMap
         in="SourceGraphic"
         in2="turbulence"
         scale="2"
         yChannelSelector="G"
         xChannelSelector="R"
         id="feDisplacementMap20383" />
    </filter>
    <filter
       style="color-interpolation-filters:sRGB;"
       inkscape:label="Roughen"
       id="filter20385">
      <feTurbulence
         type="fractalNoise"
         numOctaves="5"
         seed="1"
         baseFrequency="0.013 0.013"
         result="turbulence"
         id="feTurbulence20387" />
      <feDisplacementMap
         in="SourceGraphic"
         in2="turbulence"
         scale="2"
         yChannelSelector="G"
         xChannelSelector="R"
         id="feDisplacementMap20389" />
    </filter>
    <filter
       style="color-interpolation-filters:sRGB;"
       inkscape:label="Roughen"
       id="filter20391">
      <feTurbulence
         type="fractalNoise"
         numOctaves="5"
         seed="1"
         baseFrequency="0.013 0.013"
         result="turbulence"
         id="feTurbulence20393" />
      <feDisplacementMap
         in="SourceGraphic"
         in2="turbulence"
         scale="2"
         yChannelSelector="G"
         xChannelSelector="R"
         id="feDisplacementMap20395" />
    </filter>
    <filter
       style="color-interpolation-filters:sRGB;"
       inkscape:label="Roughen"
       id="filter20397">
      <feTurbulence
         type="fractalNoise"
         numOctaves="5"
         seed="1"
         baseFrequency="0.013 0.013"
         result="turbulence"
         id="feTurbulence20399" />
      <feDisplacementMap
         in="SourceGraphic"
         in2="turbulence"
         scale="2"
         yChannelSelector="G"
         xChannelSelector="R"
         id="feDisplacementMap20401" />
    </filter>
    <filter
       style="color-interpolation-filters:sRGB;"
       inkscape:label="Roughen"
       id="filter20403">
      <feTurbulence
         type="fractalNoise"
         numOctaves="5"
         seed="1"
         baseFrequency="0.013 0.013"
         result="turbulence"
         id="feTurbulence20405" />
      <feDisplacementMap
         in="SourceGraphic"
         in2="turbulence"
         scale="2"
         yChannelSelector="G"
         xChannelSelector="R"
         id="feDisplacementMap20407" />
    </filter>
    <filter
       style="color-interpolation-filters:sRGB;"
       inkscape:label="Roughen"
       id="filter20409">
      <feTurbulence
         type="fractalNoise"
         numOctaves="5"
         seed="1"
         baseFrequency="0.013 0.013"
         result="turbulence"
         id="feTurbulence20411" />
      <feDisplacementMap
         in="SourceGraphic"
         in2="turbulence"
         scale="2"
         yChannelSelector="G"
         xChannelSelector="R"
         id="feDisplacementMap20413" />
    </filter>
    <filter
       style="color-interpolation-filters:sRGB;"
       inkscape:label="Roughen"
       id="filter20415">
      <feTurbulence
         type="fractalNoise"
         numOctaves="5"
         seed="1"
         baseFrequency="0.013 0.013"
         result="turbulence"
         id="feTurbulence20417" />
      <feDisplacementMap
         in="SourceGraphic"
         in2="turbulence"
         scale="2"
         yChannelSelector="G"
         xChannelSelector="R"
         id="feDisplacementMap20419" />
    </filter>
    <filter
       style="color-interpolation-filters:sRGB;"
       inkscape:label="Roughen"
       id="filter20421">
      <feTurbulence
         type="fractalNoise"
         numOctaves="5"
         seed="1"
         baseFrequency="0.013 0.013"
         result="turbulence"
         id="feTurbulence20423" />
      <feDisplacementMap
         in="SourceGraphic"
         in2="turbulence"
         scale="2"
         yChannelSelector="G"
         xChannelSelector="R"
         id="feDisplacementMap20425" />
    </filter>
    <filter
       style="color-interpolation-filters:sRGB;"
       inkscape:label="Roughen"
       id="filter20427">
      <feTurbulence
         type="fractalNoise"
         numOctaves="5"
         seed="1"
         baseFrequency="0.013 0.013"
         result="turbulence"
         id="feTurbulence20429" />
      <feDisplacementMap
         in="SourceGraphic"
         in2="turbulence"
         scale="2"
         yChannelSelector="G"
         xChannelSelector="R"
         id="feDisplacementMap20431" />
    </filter>
    <filter
       style="color-interpolation-filters:sRGB;"
       inkscape:label="Roughen"
       id="filter20433">
      <feTurbulence
         type="fractalNoise"
         numOctaves="5"
         seed="1"
         baseFrequency="0.013 0.013"
         result="turbulence"
         id="feTurbulence20435" />
      <feDisplacementMap
         in="SourceGraphic"
         in2="turbulence"
         scale="2"
         yChannelSelector="G"
         xChannelSelector="R"
         id="feDisplacementMap20437" />
    </filter>
    <filter
       style="color-interpolation-filters:sRGB;"
       inkscape:label="Roughen"
       id="filter20439">
      <feTurbulence
         type="fractalNoise"
         numOctaves="5"
         seed="1"
         baseFrequency="0.013 0.013"
         result="turbulence"
         id="feTurbulence20441" />
      <feDisplacementMap
         in="SourceGraphic"
         in2="turbulence"
         scale="2"
         yChannelSelector="G"
         xChannelSelector="R"
         id="feDisplacementMap20443" />
    </filter>
    <filter
       style="color-interpolation-filters:sRGB;"
       inkscape:label="Roughen"
       id="filter20445">
      <feTurbulence
         type="fractalNoise"
         numOctaves="5"
         seed="1"
         baseFrequency="0.013 0.013"
         result="turbulence"
         id="feTurbulence20447" />
      <feDisplacementMap
         in="SourceGraphic"
         in2="turbulence"
         scale="2"
         yChannelSelector="G"
         xChannelSelector="R"
         id="feDisplacementMap20449" />
    </filter>
    <filter
       style="color-interpolation-filters:sRGB;"
       inkscape:label="Roughen"
       id="filter20451">
      <feTurbulence
         type="fractalNoise"
         numOctaves="5"
         seed="1"
         baseFrequency="0.013 0.013"
         result="turbulence"
         id="feTurbulence20453" />
      <feDisplacementMap
         in="SourceGraphic"
         in2="turbulence"
         scale="2"
         yChannelSelector="G"
         xChannelSelector="R"
         id="feDisplacementMap20455" />
    </filter>
  </defs>
  <sodipodi:namedview
     id="base"
     pagecolor="#ffffff"
     bordercolor="#666666"
     borderopacity="1.0"
     inkscape:pageopacity="0.0"
     inkscape:pageshadow="2"
     inkscape:zoom="1.3791645"
     inkscape:cx="17.041478"
     inkscape:cy="63.844355"
     inkscape:document-units="px"
     inkscape:current-layer="layer1"
     showgrid="true"
     units="in"
     inkscape:object-nodes="true"
     inkscape:snap-smooth-nodes="true"
     inkscape:window-width="1600"
     inkscape:window-height="848"
     inkscape:window-x="0"
     inkscape:window-y="0"
     inkscape:window-maximized="1"
     fit-margin-top="0"
     fit-margin-left="0"
     fit-margin-right="0"
     fit-margin-bottom="0">
    <inkscape:grid
       type="xygrid"
       id="grid4702"
       empspacing="4"
       originx="-144"
       originy="-799.5" />
  </sodipodi:namedview>
  <metadata
     id="metadata4149">
    <rdf:RDF>
      <cc:Work
         rdf:about="">
        <dc:format>image/svg+xml</dc:format>
        <dc:type
           rdf:resource="http://purl.org/dc/dcmitype/StillImage" />
        <dc:title />
      </cc:Work>
    </rdf:RDF>
  </metadata>
  <g
     inkscape:label="Layer 1"
     inkscape:groupmode="layer"
     id="layer1"
     transform="translate(-144,-216.90177)">
    <g
       transform="matrix(0.67034176,0,0,1,13.48319,-72.846397)"
       style="font-style:normal;font-variant:normal;font-weight:500;font-stretch:normal;font-size:40px;line-height:125%;font-family:'Century Schoolbook L';-inkscape-font-specification:'Century Schoolbook L Medium';letter-spacing:0px;word-spacing:0px;fill:#000000;fill-opacity:1;stroke:none;stroke-width:1px;stroke-linecap:butt;stroke-linejoin:miter;stroke-opacity:1;"
       id="flowRoot4692">
      <path
         d="m 215.12,289.78817 -1.68,0 -9.2,23.32 c -0.8,2.08 -0.96,2.36 -1.56,3 -0.64,0.76 -1.76,1.24 -2.84,1.24 l -0.16,0 0,1.88 10.6,0 0,-1.88 -0.8,0 c -2.16,0 -3.24,-0.76 -3.24,-2.28 0,-0.48 0.12,-1.04 0.36,-1.68 l 1.32,-3.52 10.6,0 2.16,5.36 c 0.24,0.6 0.32,0.88 0.32,1.08 0,0.64 -1,1.04 -2.48,1.04 l -1.68,0 0,1.88 12.4,0 0,-1.88 -0.56,0 c -2,0 -2.44,-0.32 -3.36,-2.56 l -10.2,-25 z m -1.96,6.56 4.52,11.36 -8.96,0 4.44,-11.36 z"
         style=""
         id="path14889" />
      <path
         d="m 234.38625,314.30817 0,1.16 c 0,1.68 -0.36,1.88 -3.56,1.88 l -0.76,0 0,1.88 13.44,0 c 3.56,0 6.28,-0.56 8.4,-1.76 4.04,-2.28 6.28,-6.84 6.28,-12.84 0,-5.48 -2,-9.84 -5.68,-12.24 -2.2,-1.4 -5.16,-2.04 -9.72,-2.04 l -12.72,0 0,1.88 0.76,0 c 3.2,0 3.56,0.2 3.56,1.88 l 0,1.16 0,19.04 z m 6.76,3.04 c -2,0 -2.28,-0.24 -2.28,-2.2 l 0,-20.68 c 0,-1.96 0.28,-2.24 2.28,-2.24 l 2.08,0 c 6.84,0 9.68,3.72 9.68,12.56 0,8.96 -2.6,12.56 -9.04,12.56 l -2.72,0 z"
         style=""
         id="path14891" />
      <path
         d="m 275.72,313.02817 -7.32,-18.6 c -0.2,-0.48 -0.32,-0.96 -0.32,-1.2 0,-0.72 0.68,-1 2.48,-1 l 1.6,0 0,-1.88 -12.48,0 0,1.88 0.8,0 c 1.8,0 2.32,0.4 3.08,2.24 l 10.12,25.36 1.6,0 9.2,-23.68 c 1.2,-3.12 2.08,-3.92 4.36,-3.92 l 0.4,0 0,-1.88 -10.84,0 0,1.88 0.76,0 c 2.04,0 3.24,0.8 3.24,2.08 0,0.56 -0.2,1.48 -0.48,2.24 l -6.2,16.48 z"
         style=""
         id="path14893" />
      <path
         d="m 304.02625,289.78817 -1.68,0 -9.2,23.32 c -0.8,2.08 -0.96,2.36 -1.56,3 -0.64,0.76 -1.76,1.24 -2.84,1.24 l -0.16,0 0,1.88 10.6,0 0,-1.88 -0.8,0 c -2.16,0 -3.24,-0.76 -3.24,-2.28 0,-0.48 0.12,-1.04 0.36,-1.68 l 1.32,-3.52 10.6,0 2.16,5.36 c 0.24,0.6 0.32,0.88 0.32,1.08 0,0.64 -1,1.04 -2.48,1.04 l -1.68,0 0,1.88 12.4,0 0,-1.88 -0.56,0 c -2,0 -2.44,-0.32 -3.36,-2.56 l -10.2,-25 z m -1.96,6.56 4.52,11.36 -8.96,0 4.44,-11.36 z"
         style=""
         id="path14895" />
      <path
         d="m 326.8125,290.34817 -8.24,0 0,1.88 1,0 c 2.04,0 2.96,0.32 3.68,1.32 l 0,17 c 0,5.48 -0.8,6.64 -4.64,6.8 l 0,1.88 11.4,0 0,-1.88 c -3.8,-0.16 -4.6,-1.32 -4.6,-6.8 l 0,-14.84 17.84,24.08 1.68,0 0,-20.76 c 0,-5.48 0.8,-6.64 4.64,-6.8 l 0,-1.88 -11.4,0 0,1.88 c 3.8,0.16 4.6,1.32 4.6,6.8 l 0,12.56 -15.96,-21.24 z"
         style=""
         id="path14897" />
      <path
         d="m 375.95062,290.06817 -1.51999,0 -1.60001,2.36 c -2.83999,-2.08 -4.39999,-2.68 -7.07999,-2.68 -3.88,0 -7.08001,1.56 -9.80001,4.8 -2.56,3.04 -3.76,6.4 -3.76,10.52 0,8.6 5.64,14.76 13.52,14.76 6.40001,0 10.48,-3.76 11.40001,-10.48 l -1.88001,-0.32 c -0.4,2.12 -0.88,3.56 -1.6,4.76 -1.63999,2.76 -4.19999,4.16 -7.44,4.16 -5.92,0 -8.72,-4.12 -8.72,-12.72 0,-4.52 0.6,-7.56 1.96001,-9.96 1.23999,-2.24 3.71999,-3.64 6.27999,-3.64 2.8,0 5.28001,1.48 6.8,4.04 0.76,1.32 1.36001,2.88 2.28,5.96 l 1.76001,0 -0.60001,-11.56 z"
         style=""
         id="path14899" />
      <path
         d="m 404.49687,290.34817 -24.03999,0 0,1.88 0.71999,0 c 3.24,0 3.60001,0.2 3.60001,1.88 l 0,1.16 0,19.04 0,1.16 c 0,1.68 -0.36001,1.88 -3.60001,1.88 l -0.71999,0 0,1.88 24.56,0 0.79999,-10.68 -1.76,0 c -0.52,2.8 -1.44,5.28 -2.39999,6.44 -1.24001,1.6 -3.52001,2.36 -6.88,2.36 l -2.64001,0 c -1.2,0 -2.2,-0.24 -2.56,-0.6 -0.28,-0.24 -0.32,-0.48 -0.32,-1.32 l 0,-10.2 0.8,0 c 2.44,0 3.44,0.24 4.24,1.08 1.04001,1.04 1.44,2.32 1.52,4.68 l 1.88,0 0,-13.12 -1.88,0 c -0.2,3.92 -1.79999,5.48 -5.59999,5.48 l -0.96001,0 0,-9.12 c 0,-1.72 0.36,-2 2.52001,-2 l 2.07999,0 c 3.52,0 5.24,0.36 6.60001,1.48 1.32,1.04 2.27999,3.28 2.88,6.88 l 1.71999,0 -0.56,-10.24 z"
         style=""
         id="path14901" />
      <path
         d="m 413.68313,314.30817 0,1.16 c 0,1.68 -0.36001,1.88 -3.56,1.88 l -0.76,0 0,1.88 13.44,0 c 3.56,0 6.27999,-0.56 8.39999,-1.76 4.04001,-2.28 6.28,-6.84 6.28,-12.84 0,-5.48 -2,-9.84 -5.67999,-12.24 -2.20001,-1.4 -5.16001,-2.04 -9.72001,-2.04 l -12.71999,0 0,1.88 0.76,0 c 3.19999,0 3.56,0.2 3.56,1.88 l 0,1.16 0,19.04 z m 6.75999,3.04 c -2,0 -2.28,-0.24 -2.28,-2.2 l 0,-20.68 c 0,-1.96 0.28,-2.24 2.28,-2.24 l 2.08,0 c 6.84001,0 9.68,3.72 9.68,12.56 0,8.96 -2.6,12.56 -9.04,12.56 l -2.72,0 z"
         style=""
         id="path14903" />
      <path
         d="m 476.23062,308.26817 -1.76,0 c -0.4,2.72 -1.35999,5.44 -2.4,6.76 -1.24,1.56 -3.56,2.32 -6.92,2.32 l -1.68,0 c -1.2,0 -2.2,-0.24 -2.56,-0.6 -0.28,-0.24 -0.32,-0.48 -0.32,-1.32 l 0,-20.16 0,-1.16 c 0,-1.68 0.36,-1.88 3.6,-1.88 l 0.72,0 0,-1.88 -13.12,0 0,1.88 0.72,0 c 3.24001,0 3.60001,0.2 3.60001,1.88 l 0,1.16 0,19.04 0,1.16 c 0,1.68 -0.36,1.88 -3.60001,1.88 l -0.72,0 0,1.88 23.6,0 0.84,-10.96 z"
         style=""
         id="path14905" />
      <path
         d="m 492.22937,289.78817 -1.68,0 -9.2,23.32 c -0.8,2.08 -0.96,2.36 -1.56,3 -0.63999,0.76 -1.75999,1.24 -2.84,1.24 l -0.16,0 0,1.88 10.6,0 0,-1.88 -0.79999,0 c -2.16001,0 -3.24001,-0.76 -3.24001,-2.28 0,-0.48 0.12001,-1.04 0.36001,-1.68 l 1.32,-3.52 10.59999,0 2.16,5.36 c 0.24001,0.6 0.32,0.88 0.32,1.08 0,0.64 -1,1.04 -2.48,1.04 l -1.68,0 0,1.88 12.4,0 0,-1.88 -0.56,0 c -2,0 -2.44,-0.32 -3.36,-2.56 l -10.2,-25 z m -1.95999,6.56 4.51999,11.36 -8.95999,0 4.44,-11.36 z"
         style=""
         id="path14907" />
      <path
         d="m 527.85563,290.10817 -1.48,0 -1.60001,2.4 c -1.88,-1.8 -4.43999,-2.76 -7.27999,-2.76 -5.24001,0 -8.76,3.36 -8.76,8.36 0,4.36 2.15999,6.52 8.03999,8.04 l 3.8,0.96 c 2.96,0.76 3.24,0.84 4.08,1.48 1.20001,0.92 1.84001,2.24 1.84001,3.8 0,1.6 -0.60001,2.92 -1.80001,4 -1.31999,1.16 -2.64,1.6 -4.83999,1.6 -2.96001,0 -5.08001,-0.92 -6.96001,-3 -1.68,-1.88 -2.51999,-3.76 -3.12,-6.84 l -1.71999,0 0.15999,11.4 1.56,0 1.8,-2.72 c 2.68,2.2 4.92001,3 8.40001,3 5.88,0 9.64,-3.44 9.64,-8.8 0,-2.48 -0.84001,-4.6 -2.4,-6.12 -1.08001,-1.04 -2.64001,-1.72 -5.84,-2.52 l -4.28,-1.08 c -3.56001,-0.92 -5.24001,-2.48 -5.24001,-4.92 0,-2.8 2.28,-4.72 5.68,-4.72 2.80001,0 5.08001,1.2 6.68001,3.48 1.16,1.64 1.88,3.32 2.4,5.36 l 1.72,0 -0.48,-10.4 z"
         style=""
         id="path14909" />
      <path
         d="m 556.45,290.34817 -24.04,0 0,1.88 0.72,0 c 3.24,0 3.6,0.2 3.6,1.88 l 0,1.16 0,19.04 0,1.16 c 0,1.68 -0.36,1.88 -3.6,1.88 l -0.72,0 0,1.88 24.56,0 0.8,-10.68 -1.76,0 c -0.52,2.8 -1.44,5.28 -2.4,6.44 -1.24,1.6 -3.52,2.36 -6.88,2.36 l -2.64,0 c -1.2,0 -2.2,-0.24 -2.56,-0.6 -0.28,-0.24 -0.32,-0.48 -0.32,-1.32 l 0,-10.2 0.8,0 c 2.44,0 3.44,0.24 4.24,1.08 1.04,1.04 1.44,2.32 1.52,4.68 l 1.88,0 0,-13.12 -1.88,0 c -0.2,3.92 -1.8,5.48 -5.6,5.48 l -0.96,0 0,-9.12 c 0,-1.72 0.36,-2 2.52,-2 l 2.08,0 c 3.52,0 5.24,0.36 6.6,1.48 1.32,1.04 2.28,3.28 2.88,6.88 l 1.72,0 -0.56,-10.24 z"
         style=""
         id="path14911" />
      <path
         d="m 569.99625,305.22817 2.32,0 c 1.56,0 3.16,0.48 4.04,1.2 1.16,0.92 1.76,2.36 2.04,5 l 0.2,2.04 c 0.48,4.52 1.96,6.36 5.12,6.36 3.28,0 4.84,-2.2 4.96,-7 l -1.68,0 c -0.16,2.76 -0.64,3.96 -1.72,3.96 -0.92,0 -1.32,-0.68 -2,-3.44 l -0.64,-2.52 c -0.88,-3.68 -2.44,-5.36 -5.56,-6.16 5.76,-0.8 8.52,-3.12 8.52,-7.16 0,-4.56 -3.84,-7.16 -10.56,-7.16 l -13.84,0 0,1.88 0.72,0 c 3.24,0 3.6,0.2 3.6,1.88 l 0,1.16 0,19.08 0,1.12 c 0,1.68 -0.36,1.88 -3.6,1.88 l -0.72,0 0,1.88 13.12,0 0,-1.88 -0.72,0 c -3.24,0 -3.6,-0.2 -3.6,-1.88 l 0,-1.12 0,-9.12 z m 0,-1.88 0,-8.8 c 0,-1.6 0.04,-1.72 0.44,-2.04 0.32,-0.24 0.6,-0.28 2.32,-0.28 l 2.16,0 c 3.96,0 5.76,1.68 5.76,5.32 0,2.04 -0.52,3.6 -1.56,4.44 -1,0.84 -2.8,1.36 -4.72,1.36 l -4.4,0 z"
         style=""
         id="path14913" />
      <path
         d="m 610.07625,306.38817 4.52,0 c 3.6,0 5.48,-0.28 7.08,-1.04 2.84,-1.36 4.44,-3.92 4.44,-7.08 0,-3.04 -1.4,-5.36 -4.04,-6.68 -1.56,-0.8 -4.04,-1.24 -6.8,-1.24 l -14,0 0,1.88 0.72,0 c 3.24,0 3.6,0.2 3.6,1.88 l 0,1.16 0,19.04 0,1.16 c 0,1.68 -0.36,1.88 -3.6,1.88 l -0.72,0 0,1.88 13.44,0 0,-1.88 -1.04,0 c -3.24,0 -3.6,-0.2 -3.6,-1.88 l 0,-1.16 0,-7.92 z m 0,-1.88 0,-10.24 c 0,-1.84 0.24,-2.04 2.44,-2.04 l 2.56,0 c 4.16,0 6.12,1.96 6.12,6.2 0,4.12 -2.04,6.08 -6.28,6.08 l -4.84,0 z"
         style=""
         id="path14915" />
      <path
         d="m 636.715,305.22817 2.32,0 c 1.56,0 3.16,0.48 4.04,1.2 1.16,0.92 1.76,2.36 2.04,5 l 0.2,2.04 c 0.48,4.52 1.96,6.36 5.12,6.36 3.28,0 4.84,-2.2 4.96,-7 l -1.68,0 c -0.16,2.76 -0.64,3.96 -1.72,3.96 -0.92,0 -1.32,-0.68 -2,-3.44 l -0.64,-2.52 c -0.88,-3.68 -2.44,-5.36 -5.56,-6.16 5.76,-0.8 8.52,-3.12 8.52,-7.16 0,-4.56 -3.84,-7.16 -10.56,-7.16 l -13.84,0 0,1.88 0.72,0 c 3.24,0 3.6,0.2 3.6,1.88 l 0,1.16 0,19.08 0,1.12 c 0,1.68 -0.36,1.88 -3.6,1.88 l -0.72,0 0,1.88 13.12,0 0,-1.88 -0.72,0 c -3.24,0 -3.6,-0.2 -3.6,-1.88 l 0,-1.12 0,-9.12 z m 0,-1.88 0,-8.8 c 0,-1.6 0.04,-1.72 0.44,-2.04 0.32,-0.24 0.6,-0.28 2.32,-0.28 l 2.16,0 c 3.96,0 5.76,1.68 5.76,5.32 0,2.04 -0.52,3.6 -1.56,4.44 -1,0.84 -2.8,1.36 -4.72,1.36 l -4.4,0 z"
         style=""
         id="path14917" />
      <path
         d="m 670.90125,289.78817 -1.68,0 -9.2,23.32 c -0.8,2.08 -0.96,2.36 -1.56,3 -0.64,0.76 -1.76,1.24 -2.84,1.24 l -0.16,0 0,1.88 10.6,0 0,-1.88 -0.8,0 c -2.16,0 -3.24,-0.76 -3.24,-2.28 0,-0.48 0.12,-1.04 0.36,-1.68 l 1.32,-3.52 10.6,0 2.16,5.36 c 0.24,0.6 0.32,0.88 0.32,1.08 0,0.64 -1,1.04 -2.48,1.04 l -1.68,0 0,1.88 12.4,0 0,-1.88 -0.56,0 c -2,0 -2.44,-0.32 -3.36,-2.56 l -10.2,-25 z m -1.96,6.56 4.52,11.36 -8.96,0 4.44,-11.36 z"
         style=""
         id="path14919" />
      <path
         d="m 710.6875,290.06817 -1.52,0 -1.56,2.44 c -2.6,-2.08 -4.36,-2.76 -7.28,-2.76 -3.16,0 -5.64,0.88 -8.16,2.92 -3.96,3.2 -5.8,7.24 -5.8,12.64 0,4.08 1.2,7.48 3.52,10.08 2.48,2.8 6.16,4.44 10,4.44 3.36,0 5.72,-1.04 8.32,-3.64 l 1.48,3.6 1.68,0 0,-8.8 c 0,-2.16 0,-2.2 0.24,-2.48 0.36,-0.4 1.2,-0.56 3.36,-0.56 l 0.6,0 0,-1.88 -12.72,0 0,1.88 0.76,0 c 3.36,0 3.64,0.2 3.64,2.4 0,1.72 -0.32,3.32 -0.8,4.28 -1,1.96 -3.56,3.32 -6.16,3.32 -2.56,0 -5.16,-1.32 -6.52,-3.32 -1.48,-2.2 -2.12,-5.04 -2.12,-9.32 0,-8.92 2.96,-13.68 8.52,-13.68 4.56,0 7.72,3.28 9.36,9.68 l 1.72,0 -0.56,-11.24 z"
         style=""
         id="path14921" />
      <path
         d="m 727.26125,290.34817 -10.32,0 0,1.88 0.76,0 c 3.24,0 3.6,0.2 3.6,1.88 l 0,1.16 0,15.32 c 0,5.44 -0.8,6.6 -4.64,6.76 l 0,1.88 11.4,0 0,-1.88 c -3.8,-0.16 -4.6,-1.32 -4.6,-6.76 l 0,-17.68 9.52,26.32 1.6,0 8.92,-26.32 0,21.4 0,1.16 c 0,1.72 -0.36,1.88 -3.6,1.88 l -0.72,0 0,1.88 13.12,0 0,-1.88 -0.72,0 c -3.24,0 -3.6,-0.16 -3.6,-1.88 l 0,-1.16 0,-19.04 0,-1.16 c 0,-1.68 0.36,-1.88 3.6,-1.88 l 0.72,0 0,-1.88 -10.04,0 -7.32,21.32 -7.68,-21.32 z"
         style=""
         id="path14923" />
      <path
         d="m 768.63562,289.78817 -1.67999,0 -9.20001,23.32 c -0.79999,2.08 -0.96,2.36 -1.56,3 -0.64,0.76 -1.76,1.24 -2.83999,1.24 l -0.16001,0 0,1.88 10.6,0 0,-1.88 -0.79999,0 c -2.16,0 -3.24001,-0.76 -3.24001,-2.28 0,-0.48 0.12001,-1.04 0.36001,-1.68 l 1.31999,-3.52 10.6,0 2.16,5.36 c 0.24,0.6 0.32,0.88 0.32,1.08 0,0.64 -1,1.04 -2.48,1.04 l -1.67999,0 0,1.88 12.39999,0 0,-1.88 -0.56,0 c -2,0 -2.44,-0.32 -3.35999,-2.56 l -10.20001,-25 z m -1.96,6.56 4.52,11.36 -8.95999,0 4.43999,-11.36 z"
         style=""
         id="path14925" />
      <path
         d="m 807.74188,290.34817 -23.96,0 -0.60001,11.12 1.72001,0 c 0.27999,-2 0.63999,-3.52 1.07999,-4.8 1.04001,-2.92 2.96,-4.44 5.68,-4.44 1.32,0 1.88,0.44 1.88,1.44 l 0,20.64 0,1.16 c 0,1.68 -0.36,1.88 -3.6,1.88 l -1.03999,0 0,1.88 13.72,0 0,-1.88 -1.04001,0 c -3.19999,0 -3.55999,-0.2 -3.55999,-1.88 l 0,-1.16 0,-20.64 c 0,-1 0.55999,-1.44 1.88,-1.44 2.43999,0 4.39999,1.36 5.39999,3.76 0.60001,1.48 1,3.2 1.32001,5.48 l 1.71999,0 -0.59999,-11.12 z"
         style=""
         id="path14927" />
      <path
         d="m 819.54062,295.26817 0,-1.16 c 0,-1.68 0.36,-1.88 3.56001,-1.88 l 0.79999,0 0,-1.88 -13.24,0 0,1.88 0.80001,0 c 3.23999,0 3.59999,0.2 3.59999,1.88 l 0,1.16 0,19.04 0,1.16 c 0,1.68 -0.36,1.88 -3.59999,1.88 l -0.80001,0 0,1.88 13.24,0 0,-1.88 -0.79999,0 c -3.20001,0 -3.56001,-0.2 -3.56001,-1.88 l 0,-1.16 0,-19.04 z"
         style=""
         id="path14929" />
      <path
         d="m 850.95062,290.06817 -1.52,0 -1.59999,2.36 c -2.84,-2.08 -4.40001,-2.68 -7.08,-2.68 -3.88,0 -7.08001,1.56 -9.80001,4.8 -2.56,3.04 -3.76,6.4 -3.76,10.52 0,8.6 5.64001,14.76 13.52001,14.76 6.4,0 10.47999,-3.76 11.4,-10.48 l -1.88,-0.32 c -0.4,2.12 -0.88,3.56 -1.60001,4.76 -1.63999,2.76 -4.2,4.16 -7.44,4.16 -5.92,0 -8.71999,-4.12 -8.71999,-12.72 0,-4.52 0.59999,-7.56 1.95999,-9.96 1.24,-2.24 3.72,-3.64 6.28001,-3.64 2.79999,0 5.28,1.48 6.79999,4.04 0.76,1.32 1.36001,2.88 2.28,5.96 l 1.76,0 -0.6,-11.56 z"
         style=""
         id="path14931" />
      <path
         d="m 876.13688,290.10817 -1.48,0 -1.60001,2.4 c -1.88,-1.8 -4.43999,-2.76 -7.27999,-2.76 -5.24001,0 -8.76,3.36 -8.76,8.36 0,4.36 2.15999,6.52 8.03999,8.04 l 3.8,0.96 c 2.96,0.76 3.24,0.84 4.08,1.48 1.20001,0.92 1.84001,2.24 1.84001,3.8 0,1.6 -0.60001,2.92 -1.80001,4 -1.31999,1.16 -2.64,1.6 -4.83999,1.6 -2.96001,0 -5.08001,-0.92 -6.96001,-3 -1.67999,-1.88 -2.51999,-3.76 -3.12,-6.84 l -1.72,0 0.16001,11.4 1.55999,0 1.8,-2.72 c 2.68,2.2 4.92001,3 8.40001,3 5.88,0 9.64,-3.44 9.64,-8.8 0,-2.48 -0.84001,-4.6 -2.4,-6.12 -1.08001,-1.04 -2.64001,-1.72 -5.84,-2.52 l -4.28,-1.08 c -3.56001,-0.92 -5.24,-2.48 -5.24,-4.92 0,-2.8 2.27999,-4.72 5.67999,-4.72 2.80001,0 5.08001,1.2 6.68001,3.48 1.16,1.64 1.88,3.32 2.4,5.36 l 1.72,0 -0.48,-10.4 z"
         style=""
         id="path14933" />
      <path
         d="m 885.01125,314.78817 c -1.4,0 -2.52,1.12 -2.52,2.48 0,1.4 1.12,2.52 2.48,2.52 1.4,0 2.52,-1.12 2.52,-2.52 0,-1.36 -1.12,-2.48 -2.48,-2.48 z"
         style=""
         id="path14935" />
    </g>
    <path
       style="fill:none;fill-rule:evenodd;stroke:#000000;stroke-width:1px;stroke-linecap:butt;stroke-linejoin:miter;stroke-opacity:1;"
       d="m 144,252.3622 468,0"
       id="path4700"
       inkscape:connector-curvature="0"
       sodipodi:nodetypes="cc" />
  </g>
</svg>
