<?xml version="1.0" encoding="UTF-8" standalone="no"?>
<!-- Created with Inkscape (http://www.inkscape.org/) -->

<svg
   xmlns:dc="http://purl.org/dc/elements/1.1/"
   xmlns:cc="http://creativecommons.org/ns#"
   xmlns:rdf="http://www.w3.org/1999/02/22-rdf-syntax-ns#"
   xmlns:svg="http://www.w3.org/2000/svg"
   xmlns="http://www.w3.org/2000/svg"
   xmlns:sodipodi="http://sodipodi.sourceforge.net/DTD/sodipodi-0.dtd"
   xmlns:inkscape="http://www.inkscape.org/namespaces/inkscape"
   width="13.329612in"
   height="1.8728395in"
   viewBox="0 0 1199.6651 168.55555"
   id="svg4723"
   version="1.1"
   inkscape:version="0.91 r"
   sodipodi:docname="Logo.svg">
  <defs
     id="defs4725" />
  <sodipodi:namedview
     id="base"
     pagecolor="#ffffff"
     bordercolor="#666666"
     borderopacity="1.0"
     inkscape:pageopacity="0.0"
     inkscape:pageshadow="2"
     inkscape:zoom="0.36746682"
     inkscape:cx="1292.3309"
     inkscape:cy="-110.9794"
     inkscape:document-units="px"
     inkscape:current-layer="g5679"
     showgrid="true"
     units="in"
     inkscape:object-nodes="true"
     inkscape:snap-smooth-nodes="true"
     inkscape:snap-nodes="false"
     inkscape:window-width="1600"
     inkscape:window-height="848"
     inkscape:window-x="0"
     inkscape:window-y="0"
     inkscape:window-maximized="1"
     fit-margin-top="0"
     fit-margin-left="0"
     fit-margin-right="0"
     fit-margin-bottom="0">
    <inkscape:grid
       type="xygrid"
       id="grid5271"
       empspacing="4"
       originx="551.60661"
       originy="-463.50777" />
  </sodipodi:namedview>
  <metadata
     id="metadata4728">
    <rdf:RDF>
      <cc:Work
         rdf:about="">
        <dc:format>image/svg+xml</dc:format>
        <dc:type
           rdf:resource="http://purl.org/dc/dcmitype/StillImage" />
        <dc:title></dc:title>
      </cc:Work>
    </rdf:RDF>
  </metadata>
  <g
     inkscape:label="Layer 1"
     inkscape:groupmode="layer"
     id="layer1"
     transform="translate(551.60658,-420.29886)">
    <g
       transform="translate(-1.7142857,233.21934)"
       style="font-style:normal;font-weight:normal;font-size:160px;line-height:125%;font-family:sans-serif;letter-spacing:0px;word-spacing:0px;fill:#000000;fill-opacity:1;stroke:none;stroke-width:1px;stroke-linecap:butt;stroke-linejoin:miter;stroke-opacity:1"
       id="flowRoot5273-0">
      <g
         id="g5679"
         transform="matrix(0.92038113,0.39102247,-0.39102247,0.92038113,169.35533,34.832053)">
        <path
           d="m -315.85728,467.91486 60.37425,-27.22296 c 5.61018,-2.49967 9.33035,-4.71206 11.16053,-6.63719 1.50719,-1.58541 2.18089,-3.35237 2.02109,-5.30087 -0.19569,-1.91073 -1.79016,-4.50449 -4.78341,-7.78124 l 1.99166,-2.09501 23.66788,22.50028 -1.99165,2.095 c -3.33721,-2.31021 -6.46148,-3.48377 -9.37279,-3.52065 -2.91131,-0.0369 -7.15412,1.17561 -12.72842,3.63752 l -88.90004,39.88061 -2.095,-1.99165"
           style="font-style:normal;font-variant:normal;font-weight:normal;font-stretch:normal;font-size:160px;line-height:125%;font-family:'Times New Roman';-inkscape-font-specification:'Times New Roman, ';letter-spacing:0px;word-spacing:0px;fill:#000000;fill-opacity:1;stroke:none;stroke-width:1px;stroke-linecap:butt;stroke-linejoin:miter;stroke-opacity:1"
           id="path5316"
           inkscape:connector-curvature="0"
           sodipodi:nodetypes="ccscccccsccc" />
        <path
           d="m -380.97458,392.84284 c -3.00935,-5.98085 -5.52901,-9.82512 -7.55891,-11.53282 -2.02687,-1.65569 -5.46261,-2.4206 -10.30723,-2.29472 l -0.16821,-2.88573 43.12992,-2.51401 0.1682,2.88574 c -4.91529,0.70388 -8.03849,1.72068 -9.36963,3.05039 -1.38313,1.33275 -2.0171,2.987 -1.90193,4.96282 0.14246,2.44378 1.57019,6.35168 4.28322,11.72375 l 30.52163,60.43572 -4.21525,24.34905"
           style="font-style:normal;font-variant:normal;font-weight:normal;font-stretch:normal;font-size:160px;line-height:125%;font-family:'Times New Roman';-inkscape-font-specification:'Times New Roman, ';letter-spacing:0px;word-spacing:0px;fill:#000000;fill-opacity:1;stroke:none;stroke-width:1px;stroke-linecap:butt;stroke-linejoin:miter;stroke-opacity:1"
           id="path5316-0"
           inkscape:connector-curvature="0"
           sodipodi:nodetypes="cccccccsscc" />
        <path
           inkscape:connector-curvature="0"
           d="m -529.82815,470.13186 49.15099,-2.58189 -1.59012,-30.27077 q -0.42623,-8.11382 -1.57569,-10.63511 -0.88261,-1.90946 -3.45297,-3.18263 -3.45309,-1.69619 -7.19794,-1.49948 l -3.74483,0.19672 -0.15164,-2.88664 45.25012,-2.37699 0.15162,2.88665 -3.74483,0.19671 q -3.74484,0.19672 -7.00533,2.16734 -2.43099,1.37943 -3.23195,4.00319 -0.72704,2.54163 -0.31721,10.34338 l 3.58596,68.26525 q 0.42212,8.0358 1.57159,10.55709 0.88261,1.90946 3.37494,3.18673 3.53112,1.6921 7.27597,1.49537 l 3.74482,-0.19671 0.15164,2.88665 -45.25012,2.37698 -0.15163,-2.88665 3.74484,-0.1967 q 6.47544,-0.34017 9.23929,-4.31875 1.8193,-2.59903 1.31931,-12.11714 l -1.69258,-32.22121 -49.15097,2.5819 1.69256,32.2212 q 0.42213,8.03581 1.5716,10.5571 0.88261,1.90945 3.45294,3.18262 3.45311,1.69619 7.19797,1.49948 l 3.82283,-0.20081 0.15164,2.88664 -45.32813,2.38108 -0.15162,-2.88665 3.74483,-0.19671 q 6.55346,-0.34426 9.31731,-4.32285 1.74127,-2.59492 1.24129,-12.11305 l -3.58596,-68.26525 q -0.42623,-8.1138 -1.57569,-10.6351 -0.88262,-1.90946 -3.37494,-3.18673 -3.53112,-1.69209 -7.27597,-1.49537 l -3.74483,0.19672 -0.15164,-2.88665 45.32813,-2.38109 0.15164,2.88665 -3.82286,0.20081 q -3.74483,0.19672 -7.00533,2.16733 -2.35294,1.37537 -3.15393,3.99909 -0.80506,2.54574 -0.39524,10.34747 l 1.59012,30.27078 z"
           style="font-style:normal;font-variant:normal;font-weight:normal;font-stretch:normal;font-size:160px;line-height:125%;font-family:'Times New Roman';-inkscape-font-specification:'Times New Roman, ';letter-spacing:0px;word-spacing:0px;fill:#000000;fill-opacity:1;stroke:none;stroke-width:1px;stroke-linecap:butt;stroke-linejoin:miter;stroke-opacity:1"
           id="path5312-1" />
        <path
           inkscape:connector-curvature="0"
           d="m -389.85798,454.10149 -40.75635,4.60455 -5.26516,17.41996 q -1.94659,6.43107 -1.60453,9.45867 0.27189,2.40658 2.73369,4.01538 2.53065,1.5224 10.19991,1.20629 l 0.3245,2.87236 -33.14849,3.74504 -0.32451,-2.87236 q 6.46709,-1.90996 8.19736,-3.99237 3.53821,-4.1736 7.06207,-16.12915 l 27.24206,-90.81992 2.71709,-0.30696 46.53512,83.42819 q 5.61778,10.05791 9.5484,12.83735 3.99949,2.69302 10.48672,2.35321 l 0.32451,2.87236 -41.53265,4.69227 -0.32451,-2.87235 q 6.25304,-1.02095 8.22499,-3.05204 2.04958,-2.03986 1.76015,-4.6017 -0.38591,-3.41577 -4.32436,-10.4399 l -8.07601,-14.41888 z m -2.8227,-5.49913 -22.66144,-40.52462 -13.51467,44.61171 36.17611,-4.08709 z"
           style="font-style:normal;font-variant:normal;font-weight:normal;font-stretch:normal;font-size:160px;line-height:125%;font-family:'Times New Roman';-inkscape-font-specification:'Times New Roman, ';letter-spacing:0px;word-spacing:0px;fill:#000000;fill-opacity:1;stroke:none;stroke-width:1px;stroke-linecap:butt;stroke-linejoin:miter;stroke-opacity:1"
           id="path5314-2" />
        <path
           d="m -285.49727,421.33197 63.0548,-20.25416 c 5.85589,-1.85229 9.80146,-3.63187 11.83669,-5.33876 1.67608,-1.4057 2.54438,-3.08558 2.60492,-5.03968 0.0206,-1.92062 -1.27174,-4.67737 -3.87714,-8.27023 l 2.21483,-1.85751 20.98479,25.02137 -2.2148,1.8575 c -3.05596,-2.67117 -6.02828,-4.18894 -8.91693,-4.55329 -2.88865,-0.36436 -7.24099,0.36287 -13.05697,2.18168 l -92.82408,29.62047 -1.85752,-2.21481"
           style="font-style:normal;font-variant:normal;font-weight:normal;font-stretch:normal;font-size:160px;line-height:125%;font-family:'Times New Roman';-inkscape-font-specification:'Times New Roman, ';letter-spacing:0px;word-spacing:0px;fill:#000000;fill-opacity:1;stroke:none;stroke-width:1px;stroke-linecap:butt;stroke-linejoin:miter;stroke-opacity:1"
           id="path5316-97"
           inkscape:connector-curvature="0"
           sodipodi:nodetypes="ccscccccsccc" />
        <path
           d="m -341.6532,345.64576 c -1.97206,-6.39826 -3.81682,-10.60823 -5.53422,-12.62994 -1.72306,-1.9699 -4.98361,-3.29592 -9.78161,-3.97804 l 0.31437,-2.87348 42.94685,4.69868 -0.31437,2.87349 c -4.96389,-0.12394 -8.21276,0.35894 -9.74662,1.44857 -1.58563,1.08398 -2.48607,2.60967 -2.70132,4.5771 -0.26621,2.43341 0.49126,6.52442 2.27245,12.27307 l 20.03835,64.67233 -8.20861,23.30801"
           style="font-style:normal;font-variant:normal;font-weight:normal;font-stretch:normal;font-size:160px;line-height:125%;font-family:'Times New Roman';-inkscape-font-specification:'Times New Roman, ';letter-spacing:0px;word-spacing:0px;fill:#000000;fill-opacity:1;stroke:none;stroke-width:1px;stroke-linecap:butt;stroke-linejoin:miter;stroke-opacity:1"
           id="path5316-0-3"
           inkscape:connector-curvature="0"
           sodipodi:nodetypes="cccccccsscc" />
        <g
           transform="matrix(0.90956903,-0.41555287,0.41555287,0.90956903,-124.94023,-42.294109)"
           id="g5741">
          <path
             sodipodi:nodetypes="ccssccccccc"
             id="path5320-8"
             style="font-style:normal;font-variant:normal;font-weight:normal;font-stretch:normal;font-size:160px;line-height:125%;font-family:'Times New Roman';-inkscape-font-specification:'Times New Roman, ';letter-spacing:0px;word-spacing:0px;fill:#000000;fill-opacity:1;stroke:none;stroke-width:1px;stroke-linecap:butt;stroke-linejoin:miter;stroke-opacity:1"
             d="m -217.88613,328.5198 46.89828,32.07576 -38.79526,10.66458 c -7.03085,1.93273 -12.71505,2.27995 -17.0526,1.04162 -4.33755,-1.23832 -8.42248,-5.19286 -12.25478,-11.86357 l -2.6762,1.46487 12.85943,29.68448 79.02178,-21.72261 -0.74549,-2.7119 -52.07864,-35.59409 z"
             inkscape:connector-curvature="0" />
          <path
             sodipodi:nodetypes="cccccssccccc"
             id="path5320-8-3"
             style="font-style:normal;font-variant:normal;font-weight:normal;font-stretch:normal;font-size:160px;line-height:125%;font-family:'Times New Roman';-inkscape-font-specification:'Times New Roman, ';letter-spacing:0px;word-spacing:0px;fill:#000000;fill-opacity:1;stroke:none;stroke-width:1px;stroke-linecap:butt;stroke-linejoin:miter;stroke-opacity:1"
             d="m -292.39215,303.98862 71.92036,-33.76773 13.23171,23.2184 -2.68729,1.26172 c -2.5657,-4.60674 -5.07161,-7.86064 -7.51772,-9.76169 -2.46825,-1.94819 -5.07591,-2.96785 -7.823,-3.05898 -2.7471,-0.0911 -6.52506,0.99224 -11.33389,3.25007 l -32.7425,15.37311 46.80433,23.76767 -9.56202,12.1709 -59.09466,-29.90762 z"
             inkscape:connector-curvature="0" />
        </g>
        <g
           id="g5783"
           transform="translate(-30.588027,11.516901)">
          <g
             transform="matrix(0.52193038,-0.29595385,0.29595385,0.52193038,-95.309946,123.74288)"
             id="g5683"
             style="font-style:normal;font-weight:normal;font-size:160px;line-height:125%;font-family:sans-serif;letter-spacing:0px;word-spacing:0px;fill:#000000;fill-opacity:1;stroke:none;stroke-width:1px;stroke-linecap:butt;stroke-linejoin:miter;stroke-opacity:1">
            <path
               inkscape:connector-curvature="0"
               d="m 29.054297,323.04728 c 0.67708,8.02083 5.67708,12.03125 14.999996,12.03125 l 0,2.89062 -44.99999574,0 0,-2.89062 c 9.32291004,0 14.32290974,-4.01042 14.99999974,-12.03125 l 0,-76.09374 c -0.625,-8.02083 -5.6249997,-12.03125 -14.99999974,-12.03125 l 0,-2.89062 44.99999574,0 0,2.89062 c -9.322916,0 -14.322916,4.01042 -14.999996,12.03125 z"
               style="font-style:normal;font-variant:normal;font-weight:normal;font-stretch:normal;font-size:160px;line-height:125%;font-family:'Times New Roman';-inkscape-font-specification:'Times New Roman, ';letter-spacing:0px;word-spacing:0px;fill:#000000;fill-opacity:1;stroke:none;stroke-width:1px;stroke-linecap:butt;stroke-linejoin:miter;stroke-opacity:1"
               id="path5324-1-8"
               sodipodi:nodetypes="ccccccccccccc" />
            <path
               inkscape:connector-curvature="0"
               d="m 36.810367,298.41237 c 3.38539,-14.5136 9.455886,-24.79762 18.211456,-30.85207 8.71474,-6.11575 18.05131,-8.17621 28.00973,-6.18136 10.36696,2.07669 18.368147,7.87579 24.003567,17.39732 5.63543,9.52153 7.09767,21.0489 4.38672,34.58213 m -4.21317,-0.84398 c 1.33047,-8.49796 0.0814,-15.7863 -3.74711,-21.86502 -3.818297,-6.1298 -12.136577,-10.47856 -24.954827,-13.04629 -20.17218,-4.04085 -32.66657,3.1769 -37.48319,21.65325"
               style="font-style:normal;font-variant:normal;font-weight:normal;font-stretch:normal;font-size:160px;line-height:125%;font-family:'Times New Roman';-inkscape-font-specification:'Times New Roman, ';letter-spacing:0px;word-spacing:0px;fill:#000000;fill-opacity:1;stroke:none;stroke-width:1px;stroke-linecap:butt;stroke-linejoin:miter;stroke-opacity:1"
               id="path5324-1-7"
               sodipodi:nodetypes="ccsscccsc" />
            <path
               inkscape:connector-curvature="0"
               d="m 39.202627,275.64756 c -3.28719,-13.3513 -2.32999,-24.93155 2.871606,-34.74077 5.21405,-9.75866 12.95422,-15.90181 23.22055,-18.42944 10.97436,-2.70197 20.72583,-0.78494 29.25444,5.75108 8.579187,6.52357 14.759397,16.26609 18.540627,29.22756 m -4.17229,1.02724 c -2.63492,-8.52348 -7.00907,-14.63412 -13.122447,-18.33192 -6.0628,-3.71025 -15.31469,-4.03384 -27.75566,-0.97078 -19.92579,4.90586 -28.147296,16.71912 -24.66456,35.43979"
               style="font-style:normal;font-variant:normal;font-weight:normal;font-stretch:normal;font-size:160px;line-height:125%;font-family:'Times New Roman';-inkscape-font-specification:'Times New Roman, ';letter-spacing:0px;word-spacing:0px;fill:#000000;fill-opacity:1;stroke:none;stroke-width:1px;stroke-linecap:butt;stroke-linejoin:miter;stroke-opacity:1"
               id="path5324-1-4"
               sodipodi:nodetypes="ccsccccsc" />
          </g>
          <path
             id="path5322-1"
             style="font-style:normal;font-variant:normal;font-weight:normal;font-stretch:normal;font-size:160px;line-height:125%;font-family:'Times New Roman';-inkscape-font-specification:'Times New Roman, ';letter-spacing:0px;word-spacing:0px;fill:#000000;fill-opacity:1;stroke:none;stroke-width:1px;stroke-linecap:butt;stroke-linejoin:miter;stroke-opacity:1"
             d="m -37.705339,250.78551 q 12.320667,-1.15835 22.209747,7.37533 9.9313685,8.48263 11.2476758,22.48338 1.3557988,14.42079 -6.8496078,24.79691 -8.205401,10.37611 -21.132769,11.5915 -13.067374,1.22856 -22.854342,-7.22056 -9.740301,-8.45351 -11.126811,-23.20097 -1.417224,-15.07415 7.954907,-25.55997 8.137192,-9.09849 20.5512,-10.26562 z m -0.566414,3.49022 q -8.493794,0.79856 -13.035065,7.58156 -5.656546,8.44153 -4.234933,23.56235 1.456716,15.49417 8.869139,23.2249 5.683669,5.86876 14.037448,5.08338 8.913816,-0.83805 14.047029,-8.33584 5.179885,-7.50217 3.771432,-22.48298 -1.526919,-16.24088 -8.670893,-23.6202 -5.73034,-5.86437 -14.784164,-5.01315 z"
             inkscape:connector-curvature="0" />
        </g>
        <g
           id="g5770"
           transform="translate(-76.326664,28.081239)">
          <path
             inkscape:connector-curvature="0"
             id="path5326"
             style="font-style:normal;font-variant:normal;font-weight:normal;font-stretch:normal;font-size:160px;line-height:125%;font-family:'Times New Roman';-inkscape-font-specification:'Times New Roman, ';letter-spacing:0px;word-spacing:0px;fill:#000000;fill-opacity:1;stroke:none;stroke-width:1px;stroke-linecap:butt;stroke-linejoin:miter;stroke-opacity:1"
             d="m 197.28569,197.34566 -40.70415,5.04506 -5.07646,17.47588 q -1.87691,6.45175 -1.50214,9.47548 0.2979,2.40349 2.77695,3.98557 2.54697,1.49494 10.21235,1.09591 l 0.35556,2.86867 -33.10605,4.10332 -0.35555,-2.86867 q 6.44604,-1.9798 8.15371,-4.0808 3.49285,-4.21162 6.8872,-16.20457 l 26.25827,-91.10922 2.71361,-0.33634 47.43466,82.92004 q 5.72623,9.99657 9.68668,12.73332 4.02837,2.64962 10.51156,2.23968 l 0.35556,2.86867 -41.47948,5.14116 -0.35557,-2.86867 q 6.24165,-1.0885 8.19151,-3.14081 2.02739,-2.0619 1.71028,-4.62046 -0.42283,-3.4114 -4.43698,-10.39253 l -8.23148,-14.33071 z m -2.882,-5.46828 -23.09839,-40.27717 -13.0314,44.75527 36.12979,-4.4781 z" />
          <path
             inkscape:connector-curvature="0"
             id="path5328"
             style="font-style:normal;font-variant:normal;font-weight:normal;font-stretch:normal;font-size:160px;line-height:125%;font-family:'Times New Roman';-inkscape-font-specification:'Times New Roman, ';letter-spacing:0px;word-spacing:0px;fill:#000000;fill-opacity:1;stroke:none;stroke-width:1px;stroke-linecap:butt;stroke-linejoin:miter;stroke-opacity:1"
             d="m 222.65621,136.37838 19.65481,36.97572 20.5574,-10.92747 q 8.00221,-4.25366 9.40917,-8.09822 1.90041,-5.08009 -1.93934,-13.30232 l 2.55243,-1.35677 17.30797,32.56071 -2.55243,1.35677 q -4.59606,-6.31611 -6.58859,-7.7343 -2.52514,-1.7544 -6.0869,-1.63066 -3.56176,0.12377 -9.42544,3.24066 l -20.5574,10.92749 16.39123,30.83609 q 3.30025,6.20861 4.58551,7.29494 1.2486,1.01737 3.06832,1.11179 1.78305,0.0254 5.64619,-2.02805 l 15.86645,-8.43397 q 7.93322,-4.21698 10.93371,-7.22754 3.00048,-3.01057 4.58828,-8.01297 2.00354,-6.55054 1.90386,-17.55713 l 2.75938,-1.46678 4.39641,27.74507 -72.08886,38.31955 -1.35677,-2.55243 3.31126,-1.76013 q 3.31126,-1.76013 5.43419,-4.92356 1.6208,-2.27718 1.20621,-4.88805 -0.34561,-2.64754 -3.97588,-9.47701 l -32.30576,-60.7754 q -4.73035,-8.899 -7.62404,-10.01513 -3.95021,-1.43928 -9.74491,1.64095 l -3.31126,1.76013 -1.35678,-2.55244 72.08887,-38.31953 11.92559,19.93837 -2.6904,1.43011 q -5.3723,-6.6113 -8.63268,-8.41728 -3.1914,-1.84264 -7.41068,-1.45784 -3.30943,0.432 -10.27686,4.13561 l -25.66226,13.64102 z" />
          <path
             inkscape:connector-curvature="0"
             id="path5330"
             style="font-style:normal;font-variant:normal;font-weight:normal;font-stretch:normal;font-size:160px;line-height:125%;font-family:'Times New Roman';-inkscape-font-specification:'Times New Roman, ';letter-spacing:0px;word-spacing:0px;fill:#000000;fill-opacity:1;stroke:none;stroke-width:1px;stroke-linecap:butt;stroke-linejoin:miter;stroke-opacity:1"
             d="m 331.44858,56.263637 q 20.28568,-3.725824 37.95245,8.99514 17.7295,12.630027 21.96339,35.681933 4.36092,23.74348 -7.74378,42.1708 -12.10469,18.42733 -33.38929,22.33663 -21.51512,3.95163 -38.99999,-8.6439 -17.40801,-12.60963 -21.86772,-36.89097 -4.55849,-24.819233 9.4672,-43.599386 12.17838,-16.296195 32.61774,-20.050247 z m -0.4297,5.877438 q -13.98482,2.568555 -20.53194,14.494354 -8.15606,14.842548 -3.58347,39.738611 4.68552,25.51078 18.12298,37.26104 10.29489,8.91188 24.0492,6.38566 14.67638,-2.69558 22.10167,-15.8947 7.50213,-13.21324 2.97186,-37.87878 -4.91132,-26.740219 -17.85166,-37.94633 -10.37174,-8.897779 -25.27864,-6.159855 z" />
          <path
             sodipodi:nodetypes="ccscccccsccc"
             inkscape:connector-curvature="0"
             id="path5316-97-6"
             style="font-style:normal;font-variant:normal;font-weight:normal;font-stretch:normal;font-size:160px;line-height:125%;font-family:'Times New Roman';-inkscape-font-specification:'Times New Roman, ';letter-spacing:0px;word-spacing:0px;fill:#000000;fill-opacity:1;stroke:none;stroke-width:1px;stroke-linecap:butt;stroke-linejoin:miter;stroke-opacity:1"
             d="m 416.95081,139.97667 63.0548,-20.25416 c 5.85589,-1.85229 9.80146,-3.63188 11.83669,-5.33877 1.67608,-1.40569 2.54438,-3.08558 2.60493,-5.03967 0.0206,-1.92063 -1.27174,-4.67737 -3.87714,-8.27023 l 2.21482,-1.857511 20.98479,25.021371 -2.2148,1.8575 c -3.05596,-2.67117 -6.02827,-4.18894 -8.91692,-4.55329 -2.88866,-0.36436 -7.24099,0.36287 -13.05699,2.18169 l -92.82408,29.62046 -1.85751,-2.21481" />
          <path
             sodipodi:nodetypes="cccccccsscc"
             inkscape:connector-curvature="0"
             id="path5316-0-3-3"
             style="font-style:normal;font-variant:normal;font-weight:normal;font-stretch:normal;font-size:160px;line-height:125%;font-family:'Times New Roman';-inkscape-font-specification:'Times New Roman, ';letter-spacing:0px;word-spacing:0px;fill:#000000;fill-opacity:1;stroke:none;stroke-width:1px;stroke-linecap:butt;stroke-linejoin:miter;stroke-opacity:1"
             d="m 389.22353,43.770177 c -1.97206,-6.398273 -3.81682,-10.608234 -5.53421,-12.629938 -1.72307,-1.969914 -4.98361,-3.295924 -9.78163,-3.978055 l 0.31438,-2.873472 42.94685,4.698672 -0.31437,2.873499 c -4.96389,-0.123944 -8.21276,0.358932 -9.74662,1.448562 -1.58564,1.083984 -2.48607,2.609677 -2.70132,4.577099 -0.26622,2.433413 0.49126,6.524424 2.27245,12.273071 l 20.03835,64.672335 -8.20861,23.30801" />
          <g
             transform="matrix(0.92038113,-0.39102247,0.39102247,0.92038113,404.43063,-396.03063)"
             id="g5688"
             style="font-style:normal;font-weight:normal;font-size:160px;line-height:125%;font-family:sans-serif;letter-spacing:0px;word-spacing:0px;fill:#000000;fill-opacity:1;stroke:none;stroke-width:1px;stroke-linecap:butt;stroke-linejoin:miter;stroke-opacity:1">
            <path
               d="m -79.387141,467.75771 -11.795055,-9.38508 10.065166,-52.08131 c 1.162409,-6.13123 1.748799,-10.09931 1.759174,-11.90425 0.04773,-1.76866 -0.6759,-4.6494 -2.170916,-8.64221 -0.384452,-1.09934 -1.286581,-2.33842 -2.706432,-3.71723 l 2.013795,-2.07373 32.507035,31.56762 -2.013795,2.07374 -1.6814,-1.63281 c -1.756122,-1.70537 -3.780609,-2.87275 -6.073446,-3.50211 -2.255481,-0.59306 -4.181476,-0.0676 -5.777998,1.57642 -1.306252,1.34512 -2.525138,4.88048 -3.656658,10.6061 l -7.923381,39.89519 z"
               style="font-style:normal;font-variant:normal;font-weight:normal;font-stretch:normal;font-size:160px;line-height:125%;font-family:'Times New Roman';-inkscape-font-specification:'Times New Roman, ';letter-spacing:0px;word-spacing:0px;fill:#000000;fill-opacity:1;stroke:none;stroke-width:1px;stroke-linecap:butt;stroke-linejoin:miter;stroke-opacity:1"
               id="path5334-8"
               inkscape:connector-curvature="0"
               sodipodi:nodetypes="cccccccccscsccc" />
            <path
               d="m -151.41078,381.76793 31.5962,-19.16281 1.49899,2.47159 -1.73679,1.05334 c -1.15786,0.70224 -2.53951,2.2407 -4.14496,4.6154 -1.60545,2.37471 -2.74041,5.07321 -3.40488,8.09549 -0.66447,3.02229 -1.02277,7.50355 -1.07489,13.44379 l -0.97909,47.64965 -6.34448,-4.28412 0.83412,-38.69877 c 0.13315,-5.80664 -0.42149,-9.73423 -1.6639,-11.78274 -0.75624,-1.24693 -1.76546,-2.1577 -3.02765,-2.73229 -1.21766,-0.60159 -2.58974,-0.80498 -4.11624,-0.61013 -1.55351,0.15031 -3.53265,0.9547 -5.93744,2.41319 z"
               style="font-style:normal;font-variant:normal;font-weight:normal;font-stretch:normal;font-size:160px;line-height:125%;font-family:'Times New Roman';-inkscape-font-specification:'Times New Roman, ';letter-spacing:0px;word-spacing:0px;fill:#000000;fill-opacity:1;stroke:none;stroke-width:1px;stroke-linecap:butt;stroke-linejoin:miter;stroke-opacity:1"
               id="path5334-8-5"
               inkscape:connector-curvature="0"
               sodipodi:nodetypes="cccsssccccscccc" />
            <path
               d="m -92.483086,471.87415 -26.562414,0.0639 c -6.51039,0.0157 -10.57112,0.75461 -12.1822,2.21682 -2.18274,1.98443 -3.26896,5.11205 -3.25869,9.38286 l 0.008,3.4375 -2.89061,0.007 -0.10828,-44.99987 2.89061,-0.007 0.009,3.74998 c 0.0108,4.47916 1.37259,7.65298 4.08542,9.52146 1.66943,1.14181 5.47287,1.70558 11.41035,1.6913 l 25.078044,-0.0603 z"
               style="font-style:normal;font-variant:normal;font-weight:normal;font-stretch:normal;font-size:160px;line-height:125%;font-family:'Times New Roman';-inkscape-font-specification:'Times New Roman, ';letter-spacing:0px;word-spacing:0px;fill:#000000;fill-opacity:1;stroke:none;stroke-width:1px;stroke-linecap:butt;stroke-linejoin:miter;stroke-opacity:1"
               id="path5334-8-50"
               inkscape:connector-curvature="0"
               sodipodi:nodetypes="cscsccccscscc" />
          </g>
          <path
             inkscape:connector-curvature="0"
             d="m 564.3485,30.501925 50.53985,25.962 -37.15795,15.43026 c -6.73412,2.79641 -12.33034,3.85141 -16.78866,3.16498 -4.45831,-0.68643 -9.00551,-4.09934 -13.64158,-10.2387 l -2.4721,1.78789 16.46905,27.844267 75.68675,-31.429767 -1.07862,-2.59745 -56.11937,-28.80521 z"
             style="font-style:normal;font-variant:normal;font-weight:normal;font-stretch:normal;font-size:160px;line-height:125%;font-family:'Times New Roman';-inkscape-font-specification:'Times New Roman, ';letter-spacing:0px;word-spacing:0px;fill:#000000;fill-opacity:1;stroke:none;stroke-width:1px;stroke-linecap:butt;stroke-linejoin:miter;stroke-opacity:1"
             id="path5320-8-1"
             sodipodi:nodetypes="ccssccccccc" />
          <path
             inkscape:connector-curvature="0"
             d="m 519.5338,-19.528345 79.29497,-5.0105 3.7852,26.4545702 -2.96283,0.18721 c -0.6956,-5.22695 -1.83215,-9.1735402 -3.40969,-11.8397902 -1.58081,-2.71821 -3.63216,-4.62391 -6.15402,-5.71704 -2.52188,-1.09314 -6.43378,-1.47221 -11.73571,-1.13717 l -36.09987,2.28107 34.81258,39.28909 -13.36212,7.81132 -43.99115,-49.51186 z"
             style="font-style:normal;font-variant:normal;font-weight:normal;font-stretch:normal;font-size:160px;line-height:125%;font-family:'Times New Roman';-inkscape-font-specification:'Times New Roman, ';letter-spacing:0px;word-spacing:0px;fill:#000000;fill-opacity:1;stroke:none;stroke-width:1px;stroke-linecap:butt;stroke-linejoin:miter;stroke-opacity:1"
             id="path5320-8-3-2"
             sodipodi:nodetypes="cccccssccccc" />
        </g>
      </g>
    </g>
  </g>
</svg>
