<?xml version="1.0" encoding="UTF-8" standalone="no"?>
<!-- Created with Inkscape (http://www.inkscape.org/) -->

<svg
   xmlns:dc="http://purl.org/dc/elements/1.1/"
   xmlns:cc="http://creativecommons.org/ns#"
   xmlns:rdf="http://www.w3.org/1999/02/22-rdf-syntax-ns#"
   xmlns:svg="http://www.w3.org/2000/svg"
   xmlns="http://www.w3.org/2000/svg"
   xmlns:sodipodi="http://sodipodi.sourceforge.net/DTD/sodipodi-0.dtd"
   xmlns:inkscape="http://www.inkscape.org/namespaces/inkscape"
   width="3.3706391in"
   height="3.7300117in"
   viewBox="0 0 303.35752 335.70105"
   id="svg6196"
   version="1.1"
   inkscape:version="0.91 r"
   sodipodi:docname="StarlinkMap-Transparent.svg"
   inkscape:export-filename="/home/grh/Sites/BlueberryEmpire/BlueberryEmpire/Games/Folddrive/StarlinkMap/StarlinkMap-Transparent.png"
   inkscape:export-xdpi="1000"
   inkscape:export-ydpi="1000">
  <defs
     id="defs6198" />
  <sodipodi:namedview
     id="base"
     pagecolor="#000000"
     bordercolor="#666666"
     borderopacity="1.0"
     inkscape:pageopacity="0"
     inkscape:pageshadow="2"
     inkscape:zoom="0.3643046"
     inkscape:cx="252.57136"
     inkscape:cy="-134.75893"
     inkscape:document-units="px"
     inkscape:current-layer="layer1"
     showgrid="true"
     units="in"
     inkscape:window-width="1600"
     inkscape:window-height="848"
     inkscape:window-x="0"
     inkscape:window-y="0"
     inkscape:window-maximized="1"
     fit-margin-top="0"
     fit-margin-left="0"
     fit-margin-right="0"
     fit-margin-bottom="0">
    <inkscape:grid
       type="xygrid"
       id="grid6744"
       empspacing="4"
       originx="-14.298778"
       originy="-641.9044" />
  </sodipodi:namedview>
  <metadata
     id="metadata6201">
    <rdf:RDF>
      <cc:Work
         rdf:about="">
        <dc:format>image/svg+xml</dc:format>
        <dc:type
           rdf:resource="http://purl.org/dc/dcmitype/StillImage" />
        <dc:title></dc:title>
      </cc:Work>
    </rdf:RDF>
  </metadata>
  <g
     inkscape:label="Layer 1"
     inkscape:groupmode="layer"
     id="layer1"
     transform="translate(-14.298778,-74.756742)">
    <path
       style="color:#000000;font-style:normal;font-variant:normal;font-weight:normal;font-stretch:normal;font-size:medium;line-height:normal;font-family:sans-serif;text-indent:0;text-align:start;text-decoration:none;text-decoration-line:none;text-decoration-style:solid;text-decoration-color:#000000;letter-spacing:normal;word-spacing:normal;text-transform:none;direction:ltr;block-progression:tb;writing-mode:lr-tb;baseline-shift:baseline;text-anchor:start;white-space:normal;clip-rule:nonzero;display:inline;overflow:visible;visibility:visible;opacity:1;isolation:auto;mix-blend-mode:normal;color-interpolation:sRGB;color-interpolation-filters:linearRGB;solid-color:#000000;solid-opacity:1;fill:#ffffff;fill-opacity:1;fill-rule:evenodd;stroke:none;stroke-width:3;stroke-linecap:butt;stroke-linejoin:miter;stroke-miterlimit:4;stroke-dasharray:none;stroke-dashoffset:0;stroke-opacity:1;color-rendering:auto;image-rendering:auto;shape-rendering:auto;text-rendering:auto;enable-background:accumulate"
       d="m 162.59129,74.756742 c -3.98542,0 -7.22953,3.24411 -7.22953,7.22953 0,2.179069 0.97397,4.131697 2.50452,5.458457 l -10.01484,10.014835 c -1.15882,-0.790502 -2.55752,-1.253871 -4.06257,-1.253871 -3.98542,0 -7.22953,3.244113 -7.22953,7.229527 0,0.0957 0.0108,0.18844 0.0145,0.28321 l -2.80145,0 0,-15.904963 a 0.61973598,0.61973598 0 0 0 -0.61967,-0.619674 l -59.488705,0 a 0.61973598,0.61973598 0 0 0 -0.619674,0.619674 l 0,17.557433 -2.923279,0 c -0.315993,-3.69612 -3.42172,-6.609859 -7.198063,-6.609859 -1.37547,0 -2.658365,0.392706 -3.754353,1.062644 L 47.916096,84.478684 c 0.491482,-0.655501 0.786696,-1.465548 0.786696,-2.343949 0,-2.160158 -1.764444,-3.924602 -3.924602,-3.924602 -2.160158,0 -3.924602,1.764444 -3.924602,3.924602 -2e-6,2.160159 1.764443,3.924602 3.924602,3.924602 0.831732,0 1.603589,-0.264203 2.239863,-0.709236 l 11.151711,15.207029 c -1.440747,1.26209 -2.37362,3.08319 -2.460945,5.1228 l -20.64289,1.14656 c -0.645469,-1.28732 -1.974994,-2.17693 -3.507452,-2.17693 -2.160158,0 -3.924602,1.76445 -3.924602,3.9246 0,2.16016 1.764444,3.9246 3.924602,3.9246 2.160158,0 3.924603,-1.76444 3.924603,-3.9246 0,-0.17926 -0.01602,-0.35467 -0.03954,-0.52769 l 20.31611,-1.12881 c 0.181511,1.40682 0.765079,2.68836 1.637133,3.72289 l -8.755316,8.75531 c -0.640805,-0.45534 -1.421012,-0.72618 -2.263263,-0.72618 -2.160158,0 -3.924602,1.76445 -3.924602,3.92461 0,2.16015 1.764444,3.9246 3.924602,3.9246 2.160158,0 3.924603,-1.76445 3.924603,-3.9246 0,-0.87201 -0.291196,-1.67724 -0.776207,-2.33024 l 8.74644,-8.74644 c 1.258281,1.06036 2.880112,1.70249 4.649976,1.70249 3.776115,0 6.881752,-2.91406 7.198063,-6.60985 l 2.923279,0 0,40.69192 a 0.61973598,0.61973598 0 0 0 0.619674,0.61968 l 37.184478,0 1.07071,3.74709 c -2.93759,0.23409 -5.38354,2.22847 -6.28065,4.92834 l -16.027616,0 c -0.955463,-2.87549 -3.666842,-4.95739 -6.85837,-4.95739 -3.547489,0 -6.501599,2.57184 -7.109305,5.94742 -25.977005,1.34932 -41.929994,10.85962 -50.311399,25.76166 -8.54205,15.18765 -9.242092,35.82032 -5.133289,58.95375 -3.35202,0.62691 -5.899813,3.57131 -5.899813,7.10204 0,3.98542 3.244111,7.22953 7.22953,7.22953 3.618388,0 6.617551,-2.67721 7.140775,-6.15236 l 5.934508,0.16944 0,32.49496 a 0.61973598,0.61973598 0 0 0 0.619674,0.61968 l 12.521773,0 c -0.144903,2.2314 -0.293873,4.46274 -0.445392,6.69457 -3.325995,0.6478 -5.846559,3.58176 -5.846559,7.09398 0,3.28573 2.20724,6.06194 5.214783,6.93745 l -0.660018,7.23195 c -2.001031,0.17476 -3.58249,1.8629 -3.58249,3.90766 0,1.7987 1.224803,3.31876 2.881323,3.77855 l -0.91176,9.99386 c -1.444881,0.14142 -2.6642,1.07275 -3.2194,2.35444 l -6.014389,0 c -0.603679,-1.39361 -1.992654,-2.3738 -3.602662,-2.3738 -2.160158,0 -3.924602,1.76445 -3.924602,3.9246 0,2.16016 1.764444,3.9246 3.924602,3.9246 0.547335,0 1.068471,-0.11442 1.542731,-0.31871 l 9.719522,19.43823 c -1.172757,0.6803 -1.967142,1.94777 -1.967142,3.39531 0,2.16015 1.764444,3.9246 3.924602,3.9246 2.160158,0 3.924602,-1.76445 3.924602,-3.9246 0,-1.468 -0.816205,-2.75223 -2.016361,-3.42516 l 9.716295,-19.4334 c 0.488357,0.21906 1.027246,0.34373 1.595177,0.34373 2.160163,0 3.924602,-1.76444 3.924602,-3.9246 0,-2.16015 -1.764435,-3.9246 -3.924602,-3.9246 -2.160154,0 -3.924595,1.76445 -3.924603,3.9246 0,1.14513 0.499157,2.17541 1.286953,2.89423 l -9.8462,19.6924 c -0.238647,-0.0457 -0.484325,-0.0718 -0.735863,-0.0718 -0.272338,0 -0.538555,0.0281 -0.795571,0.0815 l -9.83087,-19.66093 c 0.813887,-0.7202 1.331331,-1.76858 1.331331,-2.93538 0,-0.10507 -0.0071,-0.20842 -0.01533,-0.31145 l 5.401169,0 c -0.0082,0.10303 -0.01533,0.20639 -0.01533,0.31145 0,2.16016 1.764444,3.9246 3.924602,3.9246 2.160158,0 3.924602,-1.76444 3.924602,-3.9246 0,-1.86661 -1.31829,-3.43524 -3.07013,-3.82778 l 0.906112,-9.93496 c 2.072667,-0.0998 3.735795,-1.81845 3.735795,-3.91491 0,-1.85237 -1.298761,-3.40995 -3.030593,-3.8173 l 0.645494,-7.07541 c 0.260671,0.0286 0.525004,0.0452 0.79315,0.0452 3.985419,0 7.229531,-3.24411 7.229531,-7.22953 0,-0.8308 -0.148189,-1.62606 -0.407469,-2.36977 l 8.781942,-1.37651 c 0.68552,2.58976 2.772644,4.61171 5.397137,5.20348 -4.976465,46.82214 2.2524,75.86138 16.836898,92.54041 15.358913,17.56465 38.759633,21.24783 64.070103,17.66717 43.33148,-6.13008 92.53225,-33.44699 118.27059,-49.49727 l 0,2.40043 c 3e-5,0.34222 0.27745,0.61964 0.61967,0.61967 l 23.1345,0 c 0.34222,-3e-5 0.61964,-0.27745 0.61967,-0.61967 l 0,-23.1345 c -3e-5,-0.34222 -0.27745,-0.61964 -0.61967,-0.61967 l -7.18919,0 c 26.38147,-69.48617 38.90626,-125.35235 28.66719,-158.99076 -5.46062,-17.9398 -17.53596,-29.53323 -37.28776,-33.18887 -4.93794,-0.91391 -10.353,-1.33893 -16.26724,-1.25549 -15.79407,0.22284 -35.15676,4.08253 -58.47851,11.92953 -0.87264,-3.01204 -3.65093,-5.22285 -6.93987,-5.22285 -3.98542,0 -7.22953,3.24411 -7.22953,7.22953 0,0.35164 0.0335,0.69441 0.0823,1.03279 l -12.14496,0 c 0.0488,-0.33838 0.0823,-0.68115 0.0823,-1.03279 0,-3.98542 -3.24411,-7.22953 -7.22953,-7.22953 -0.55914,0 -1.10118,0.0696 -1.62423,0.19042 l -4.27074,-62.624191 c 1.9052,-0.05105 3.63017,-0.837309 4.89445,-2.092206 l 7.29247,12.630699 c -2.15248,1.253818 -3.6067,3.581228 -3.6067,6.245958 0,3.98542 3.24411,7.22953 7.22953,7.22953 3.73823,0 6.82399,-2.85476 7.19242,-6.4977 l 14.26299,0.18074 c 0.17776,1.99804 1.86425,3.57684 3.90685,3.57684 2.00862,0 3.67324,-1.52686 3.89717,-3.4776 l 12.05863,0.1525 c 0.29131,1.87676 1.91808,3.3251 3.87377,3.3251 1.92177,0 3.52681,-1.39822 3.85843,-3.22747 l 8.99254,0.11377 0,11.01777 a 0.61973598,0.61973598 0 0 0 0.61967,0.61968 l 52.87885,0 a 0.61973598,0.61973598 0 0 0 0.61968,-0.61968 l 0,-10.33193 9.52829,0.12103 c 0.27357,3.73792 3.39653,6.69942 7.20291,6.69942 3.98542,0 7.22953,-3.24412 7.22953,-7.22953 0,-3.98543 -3.24411,-7.22953 -7.22953,-7.22953 -3.74641,0 -6.83672,2.86673 -7.19403,6.5211 l -9.53717,-0.12023 0,-11.564825 a 0.61973598,0.61973598 0 0 0 -0.61968,-0.619674 l -52.87885,0 a 0.61973598,0.61973598 0 0 0 -0.61967,0.619674 l 0,10.878995 -8.96833,-0.11377 c -0.26559,-1.90574 -1.90625,-3.384 -3.88264,-3.384 -1.94226,0 -3.56058,1.4276 -3.86812,3.28556 l -12.11753,-0.15331 c -0.36853,-1.78323 -1.95494,-3.13225 -3.84392,-3.13225 -1.85387,0 -3.4131,1.30068 -3.8189,3.03462 l -14.33965,-0.18154 c -0.13351,-1.91057 -1.01087,-3.61512 -2.34637,-4.83152 l 17.04265,-15.906582 c 0.71972,0.803509 1.76111,1.313579 2.91925,1.313579 2.16016,0 3.92461,-1.764443 3.9246,-3.924602 0,-2.160158 -1.76444,-3.924602 -3.9246,-3.924602 -2.16015,0 -3.9246,1.764444 -3.9246,3.924602 0,0.551173 0.11654,1.075501 0.32355,1.552413 l -17.35814,16.201086 c -1.11842,-0.710179 -2.44036,-1.127193 -3.86005,-1.127193 -0.87896,0 -1.71804,0.165531 -2.49806,0.454266 L 168.5266,86.102102 c 0.8137,-1.169475 1.29422,-2.586778 1.29422,-4.11583 0,-3.98542 -3.24411,-7.22953 -7.22953,-7.22953 z m 0,1.239348 c 3.31563,0 5.99018,2.674556 5.99018,5.990182 0,3.315629 -2.67455,5.990182 -5.99018,5.990182 -3.31563,0 -5.99018,-2.674553 -5.99018,-5.990182 0,-3.315626 2.67455,-5.990182 5.99018,-5.990182 z m -117.8131,3.453391 c 1.490365,0 2.685254,1.19489 2.685254,2.685254 4e-6,1.490365 -1.194889,2.685254 -2.685254,2.685254 -1.490362,0 -2.685254,-1.194889 -2.685254,-2.685254 0,-1.490364 1.194892,-2.685254 2.685254,-2.685254 z m 158.63655,0 c 1.49036,0 2.68525,1.194893 2.68525,2.685254 1e-5,1.490366 -1.19489,2.685254 -2.68525,2.685254 -1.49036,0 -2.68526,-1.194888 -2.68526,-2.685254 0,-1.490361 1.1949,-2.685254 2.68526,-2.685254 z m -44.531,8.730304 c 0.79857,0.479962 1.69493,0.808595 2.65378,0.949682 l 4.30383,63.092983 c -2.57835,1.10605 -4.39016,3.66905 -4.39016,6.64697 0,0.35164 0.0335,0.69441 0.0823,1.03279 l -8.84004,0 c 0.0488,-0.33838 0.0823,-0.68115 0.0823,-1.03279 0,-3.98542 -3.24411,-7.22953 -7.22953,-7.22953 -3.98542,0 -7.22953,3.24411 -7.22953,7.22953 0,0.13899 0.0132,0.27442 0.021,0.4115 l -18.81614,-2.09059 c -0.70638,-2.95299 -3.22308,-5.21065 -6.31051,-5.51494 l -1.07233,-3.75354 21.01405,0 a 0.61973598,0.61973598 0 0 0 0.61967,-0.61968 l 0,-42.34439 2.95152,0 c 0.70182,3.25654 3.6021,5.70697 7.06494,5.70697 3.98542,0 7.22953,-3.24411 7.22953,-7.22953 0,-2.03334 -0.84787,-3.870694 -2.20437,-5.185733 l 10.06971,-10.069702 z m -84.600031,0.253356 58.249361,0 0,15.285289 -13.17776,0 c -0.95546,-2.87549 -3.66684,-4.957389 -6.85837,-4.957389 -3.38676,0 -6.22984,2.345249 -7.01006,5.494769 l -8.978819,0.69067 c -0.508736,-3.49163 -3.515477,-6.185439 -7.145618,-6.185439 -3.776343,0 -6.882071,2.913739 -7.198063,6.609859 l -7.880671,0 0,-16.937759 z m 163.593941,7.436088 51.6395,0 0,10.929021 -2.68606,-0.0339 c -0.24701,-1.92609 -1.89813,-3.42596 -3.8891,-3.42596 -1.95677,0 -3.5838,1.44922 -3.87377,3.32752 l -10.67727,-0.13555 c -0.15867,-2.01691 -1.85309,-3.61638 -3.90928,-3.61638 -2.02291,0 -3.69884,1.54728 -3.90362,3.51794 l -13.05108,-0.16541 c -0.14935,-2.02596 -1.84736,-3.63574 -3.91007,-3.63574 -2.02924,0 -3.70905,1.55704 -3.90524,3.53649 l -1.83401,-0.0234 0,-10.274651 z m -94.08878,1.575812 c 3.31562,0 5.99018,2.674559 5.99018,5.990179 0,3.31563 -2.67456,5.99018 -5.99018,5.99018 -3.31563,0 -5.99019,-2.67455 -5.99019,-5.99018 0,-3.31562 2.67456,-5.990179 5.99019,-5.990179 z m -80.865851,2.555349 c 3.315627,0 5.990182,2.67455 5.990182,5.99018 0,3.31562 -2.674555,5.99018 -5.990182,5.99018 -3.315628,0 -5.990183,-2.67456 -5.990183,-5.99018 0,-3.31563 2.674555,-5.99018 5.990183,-5.99018 z m 26.439424,0 c 3.315628,0 5.990182,2.67455 5.990182,5.99018 0,3.31562 -2.674554,5.99018 -5.990182,5.99018 -3.315628,0 -5.990182,-2.67456 -5.990182,-5.99018 0,-3.31563 2.674554,-5.99018 5.990182,-5.99018 z m 23.134497,0 c 3.31563,0 5.99018,2.67455 5.99018,5.99018 0,3.31562 -2.67455,5.99018 -5.99018,5.99018 -3.31563,0 -5.99018,-2.67456 -5.99018,-5.99018 0,-3.31563 2.67455,-5.99018 5.99018,-5.99018 z m 66.09856,0 c 3.31563,0 5.99018,2.67455 5.99018,5.99018 0,3.31562 -2.67455,5.99018 -5.99018,5.99018 -3.31563,0 -5.99018,-2.67456 -5.99018,-5.99018 0,-3.31563 2.67455,-5.99018 5.99018,-5.99018 z m 128.8922,1.65246 c 3.31562,0 5.99018,2.67456 5.99018,5.99019 0,3.31562 -2.67456,5.99018 -5.99018,5.99018 -3.31563,0 -5.99019,-2.67456 -5.99019,-5.99018 0,-3.31563 2.67456,-5.99019 5.99019,-5.99019 z m -103.52994,2.21727 c 1.49036,0 2.68525,1.19489 2.68525,2.68526 0,1.49036 -1.19489,2.68525 -2.68525,2.68525 -1.49037,0 -2.68526,-1.19489 -2.68526,-2.68525 0,-1.49037 1.19489,-2.68526 2.68526,-2.68526 z m 19.82957,0 c 1.49036,0 2.68525,1.19489 2.68525,2.68526 0,1.49036 -1.19489,2.68525 -2.68525,2.68525 -1.49037,0 -2.68526,-1.19489 -2.68526,-2.68525 0,-1.49037 1.19489,-2.68526 2.68526,-2.68526 z m 19.82957,0 c 1.49036,0 2.68525,1.19489 2.68525,2.68526 0,1.49036 -1.19489,2.68525 -2.68525,2.68525 -1.49037,0 -2.68526,-1.19489 -2.68526,-2.68525 0,-1.49037 1.19489,-2.68526 2.68526,-2.68526 z m 20.86477,0.28321 c 1.49037,0 2.68526,1.19489 2.68526,2.68526 0,1.49036 -1.19489,2.68525 -2.68526,2.68525 -1.49036,0 -2.68525,-1.19489 -2.68525,-2.68525 0,-1.49037 1.19489,-2.68526 2.68525,-2.68526 z m 18.46032,0.42442 c 1.49037,0 2.68525,1.19489 2.68525,2.68525 0,1.49036 -1.19488,2.68525 -2.68525,2.68525 -1.49036,0 -2.68525,-1.19489 -2.68525,-2.68525 0,-1.49036 1.19489,-2.68525 2.68525,-2.68525 z m -163.29782,0.38003 12.8889,0 0,41.72472 -20.74859,0 -2.01556,-7.05283 c 3.71622,-0.29572 6.65262,-3.4089 6.65262,-7.19967 0,-3.55007 -2.57628,-6.50539 -5.95548,-7.11012 l 1.53466,-12.1256 c 0.16462,0.0113 0.32879,0.0258 0.49622,0.0258 3.98542,0 7.22953,-3.24411 7.22953,-7.22953 0,-0.35136 -0.0336,-0.69466 -0.0823,-1.03279 z m -14.35255,0.55593 c -0.0104,0.15831 -0.0242,0.31597 -0.0242,0.47686 0,3.39144 2.35239,6.23772 5.50848,7.01329 l -1.54353,12.19903 c -0.0136,-8e-5 -0.0267,-0.002 -0.0404,-0.002 -3.98542,0 -7.22953,3.24411 -7.22953,7.22953 0,3.7445 2.86375,6.83331 6.51546,7.19322 l 2.01636,7.05928 -36.210591,0 0,-40.07225 7.880671,0 c 0.316311,3.69579 3.421947,6.60985 7.198063,6.60985 3.920289,0 7.1162,-3.1409 7.219847,-7.03669 l 8.70933,-0.6697 z m -73.733143,0.3752 c 1.490366,0 2.685254,1.19489 2.685254,2.68525 0,1.49037 -1.194888,2.68525 -2.685254,2.68525 -1.490361,0 -2.685254,-1.19488 -2.685254,-2.68525 0,-1.49036 1.194893,-2.68525 2.685254,-2.68525 z m 206.319173,1.49351 1.91066,0.0242 c 0.39156,1.75315 1.96104,3.07336 3.82859,3.07336 1.83277,0 3.37647,-1.2722 3.80357,-2.97653 l 13.22778,0.16783 c 0.38448,1.76251 1.95921,3.09191 3.83342,3.09191 1.83945,0 3.38797,-1.2814 3.80842,-2.99509 l 10.78459,0.13636 c 0.30889,1.85636 1.92619,3.28314 3.86731,3.28314 1.90721,0 3.50372,-1.3767 3.85199,-3.18551 l 2.72317,0.0347 0,9.72759 -51.6395,0 0,-10.38196 z M 46.378207,119.90903 c 1.490366,0 2.685254,1.1949 2.685254,2.68526 0,1.49036 -1.194888,2.68525 -2.685254,2.68525 -1.490365,0 -2.685254,-1.19489 -2.685254,-2.68525 0,-1.49036 1.194889,-2.68526 2.685254,-2.68526 z m 62.813803,6.53078 c 3.31563,0 5.99018,2.67456 5.99018,5.99019 0,3.31562 -2.67455,5.99018 -5.99018,5.99018 -3.31563,0 -5.99018,-2.67456 -5.99018,-5.99018 0,-3.31563 2.67455,-5.99019 5.99018,-5.99019 z m 153.5307,19.72952 c 5.00302,0.0354 9.61784,0.45379 13.85794,1.23854 19.3833,3.58744 30.97069,14.73134 36.32758,32.33036 10.06569,33.0688 -2.36301,89.01617 -28.81,158.6301 l -14.61721,0 c -0.34222,3e-5 -0.61964,0.27745 -0.61967,0.61967 l 0,12.60004 -4.52895,0 c -0.19466,-3.81306 -3.3505,-6.85918 -7.21097,-6.85918 -3.86047,0 -7.01631,3.04612 -7.21097,6.85918 l -8.7303,0 c -0.23394,-2.46221 -1.70587,-4.56885 -3.78744,-5.68599 l 3.42596,-9.13455 c 0.86992,0.37178 1.82645,0.57933 2.83049,0.57933 3.95191,0 7.17076,-3.19092 7.22469,-7.13028 l 12.04734,0.80364 c 0.44695,3.55998 3.4885,6.32664 7.1674,6.32664 3.98541,0 7.22953,-3.24411 7.22953,-7.22953 0,-3.98542 -3.24412,-7.22953 -7.22953,-7.22953 -1.69948,0 -3.26167,0.59331 -4.49748,1.57904 l -5.7328,-12.28455 c 2.07054,-1.27321 3.45905,-3.55251 3.45905,-6.15559 0,-3.98542 -3.24412,-7.22953 -7.22953,-7.22953 -3.55196,0 -6.50838,2.5785 -7.11093,5.96032 l -33.51484,-2.57793 c 0.0656,-0.39076 0.10731,-0.78914 0.10731,-1.1982 0,-3.98542 -3.24411,-7.22953 -7.22953,-7.22953 -3.90129,0 -7.08364,3.11064 -7.21662,6.9802 l -20.74213,0.96744 c -0.97298,-2.52627 -3.3206,-4.37454 -6.12332,-4.61447 l 0,-15.75812 c 3.87974,-0.12165 7.002,-3.30958 7.002,-7.21824 0,-0.0719 -0.008,-0.14164 -0.0105,-0.21301 9.1084,-0.85489 17.40957,-4.4793 24.06562,-10.01645 1.17722,0.8312 2.6092,1.32488 4.15617,1.32488 3.98542,0 7.22953,-3.24411 7.22953,-7.22953 0,-1.91343 -0.7534,-3.65139 -1.97198,-4.9461 2.88707,-4.68587 4.932,-9.94559 5.90465,-15.57415 3.84591,-0.0376 6.97592,-3.09476 7.14239,-6.9092 l 16.38102,0 c -0.0487,0.33813 -0.0823,0.68142 -0.0823,1.03279 0,3.98542 3.24411,7.22953 7.22953,7.22953 0.0667,0 0.13141,-0.009 0.19768,-0.0105 l 11.53013,25.3671 c -3.27205,0.68996 -5.73763,3.59911 -5.73763,7.073 0,3.98541 3.24411,7.22953 7.22953,7.22953 3.98542,0 7.22953,-3.24412 7.22953,-7.22953 0,-3.98543 -3.24411,-7.22954 -7.22953,-7.22954 -0.0667,0 -0.13141,0.008 -0.19768,0.01 L 252.795,238.65033 c 3.20262,-0.67495 5.62492,-3.47698 5.72714,-6.85272 l 18.9396,4.20862 c -0.21857,0.68871 -0.33808,1.42181 -0.33808,2.18176 0,3.98542 3.24411,7.22953 7.22953,7.22953 3.98542,0 7.22953,-3.24411 7.22953,-7.22953 0,-3.98542 -3.24411,-7.22953 -7.22953,-7.22953 -2.77944,0 -5.1947,1.57995 -6.4041,3.88668 l -19.50279,-4.33368 c -0.34636,-2.32552 -1.7989,-4.29211 -3.80922,-5.34227 l 13.86359,-15.84364 c 0.8865,0.38882 1.86368,0.60837 2.89181,0.60837 2.9933,0 5.56812,-1.8309 6.66473,-4.4305 l 14.01931,2.80386 c 0.28512,1.88383 1.91547,3.33962 3.87619,3.33963 2.16016,0 3.92461,-1.76445 3.92461,-3.92461 0,-2.16015 -1.76445,-3.9246 -3.92461,-3.9246 -1.92931,0 -3.53883,1.40861 -3.86166,3.24845 l -13.65623,-2.73125 c 0.11874,-0.51881 0.18719,-1.05629 0.18719,-1.61051 0,-1.48263 -0.4501,-2.86234 -1.21918,-4.01093 l 16.45203,-14.10162 c 0.60797,0.38737 1.32682,0.61564 2.09785,0.61564 2.16016,0 3.92461,-1.76445 3.92461,-3.9246 0,-2.16016 -1.76445,-3.9246 -3.92461,-3.9246 -2.16015,0 -3.9246,1.76444 -3.9246,3.9246 0,0.9389 0.33408,1.8025 0.88836,2.4795 l -16.29307,13.96607 c -1.318,-1.38505 -3.17328,-2.25359 -5.23092,-2.25359 -0.004,0 -0.008,8.1e-4 -0.0121,8.1e-4 l -0.9989,-16.97891 c 1.74495,-0.39768 3.05644,-1.96204 3.05641,-3.82374 0,-2.16015 -1.76444,-3.9246 -3.9246,-3.9246 -2.16015,0 -3.9246,1.76445 -3.9246,3.9246 0,2.03576 1.56733,3.71801 3.55586,3.90524 l 1.00051,17.01199 c -3.39219,0.59397 -5.98211,3.55483 -5.98211,7.11414 0,2.50473 1.28202,4.71493 3.22344,6.01278 l -13.95719,15.95096 c -0.6724,-0.20739 -1.38587,-0.31952 -2.12529,-0.31952 -0.91554,0 -1.78874,0.17771 -2.59569,0.48977 l -7.3546,-39.22666 c 2.20544,-1.23973 3.7011,-3.59894 3.7011,-6.30325 0,-3.98542 -3.24411,-7.22953 -7.22953,-7.22953 -3.98542,0 -7.22953,3.24411 -7.22953,7.22953 0,3.98542 3.24411,7.22953 7.22953,7.22953 0.82898,0 1.62262,-0.14766 2.36493,-0.40585 l 7.36428,39.27668 c -1.44929,0.88442 -2.5646,2.25921 -3.10886,3.89717 l -16.7191,0 c -0.4478,-3.48948 -3.38982,-6.20425 -6.97698,-6.29679 -1.78931,-11.45868 -7.98233,-21.46021 -16.79252,-28.2218 0.16778,-0.61 0.26465,-1.249 0.26465,-1.91146 0,-3.98542 -3.24411,-7.22953 -7.22953,-7.22953 -2.1574,0 -4.09217,0.95508 -5.41811,2.45933 -4.54428,-1.57853 -9.42374,-2.43916 -14.50425,-2.43916 -4.03217,0 -7.93733,0.54273 -11.64954,1.55483 -1.23901,-2.20805 -3.60023,-3.70594 -6.30648,-3.70594 -0.86655,0 -1.69424,0.16115 -2.46498,0.44216 l -7.14238,-19.0469 c 1.3477,-0.88655 2.3794,-2.21053 2.89745,-3.76888 l 9.41937,0 c 0.95576,2.87498 3.66641,4.95739 6.85757,4.95739 3.19116,0 5.9018,-2.08241 6.85756,-4.95739 l 12.7243,0 c 0.95576,2.87498 3.6664,4.95739 6.85756,4.95739 3.98542,0 7.22953,-3.24411 7.22953,-7.22953 0,-0.26507 -0.0164,-0.5265 -0.0444,-0.78428 24.39887,-8.21805 44.39987,-12.02927 60.41742,-11.91581 z m -179.970123,6.70991 c 3.315628,0 5.990182,2.67455 5.990182,5.99018 0,3.31562 -2.674554,5.99018 -5.990182,5.99018 -3.315628,0 -5.990182,-2.67456 -5.990182,-5.99018 0,-3.31563 2.674554,-5.99018 5.990182,-5.99018 z m 29.744353,0 c 3.31563,0 5.99018,2.67455 5.99018,5.99018 0,3.31562 -2.67455,5.99018 -5.99018,5.99018 -3.31563,0 -5.99018,-2.67456 -5.99018,-5.99018 0,-3.31563 2.67455,-5.99018 5.99018,-5.99018 z m 33.04928,0 c 3.31563,0 5.99018,2.67455 5.99018,5.99018 0,3.31562 -2.67455,5.99018 -5.99018,5.99018 -3.31563,0 -5.99018,-2.67456 -5.99018,-5.99018 0,-3.31563 2.67455,-5.99018 5.99018,-5.99018 z m 23.1345,0 c 3.31562,0 5.99018,2.67455 5.99018,5.99018 0,3.31562 -2.67456,5.99018 -5.99018,5.99018 -3.31563,0 -5.99019,-2.67456 -5.99019,-5.99018 0,-3.31563 2.67456,-5.99018 5.99019,-5.99018 z m 26.43942,0 c 3.31563,0 5.99018,2.67455 5.99018,5.99018 0,3.31562 -2.67455,5.99018 -5.99018,5.99018 -3.31563,0 -5.99018,-2.67456 -5.99018,-5.99018 0,-3.31563 2.67455,-5.99018 5.99018,-5.99018 z m -105.220324,4.95739 15.449894,0 c -0.0487,0.33813 -0.0823,0.68143 -0.0823,1.03279 0,3.98542 3.24411,7.22953 7.22953,7.22953 3.98542,0 7.22953,-3.24411 7.22953,-7.22953 0,-0.13857 -0.0132,-0.27402 -0.021,-0.41069 l 18.81615,2.09059 c 0.76068,3.17693 3.61832,5.54963 7.02458,5.54963 1.01545,0 1.98174,-0.21324 2.85954,-0.59305 l 7.11576,18.97429 c -2.16956,1.2494 -3.63736,3.58699 -3.63736,6.26452 0,0.87483 0.16408,1.70985 0.45023,2.48676 -6.34805,4.29407 -11.51953,10.19532 -14.93511,17.11689 -0.73329,-0.25122 -1.51625,-0.39376 -2.33346,-0.39376 -2.90411,0 -5.40811,1.72623 -6.5566,4.20297 l -15.80572,-5.47136 c 0.0399,-0.30703 0.067,-0.61744 0.067,-0.93516 0,-3.98542 -3.24411,-7.22953 -7.22953,-7.22953 -2.6361,0 -4.9408,1.42379 -6.204005,3.53811 l -15.181204,-5.25512 c 0.199742,-0.66102 0.309837,-1.36058 0.309837,-2.08576 0,-3.98542 -3.244109,-7.22953 -7.22953,-7.22953 -3.054237,0 -5.667385,1.90782 -6.724434,4.59188 l -18.111747,-6.26935 c 0.120304,-0.52204 0.189614,-1.06304 0.189614,-1.621 0,-3.98542 -3.244111,-7.22953 -7.22953,-7.22953 -3.985419,0 -7.22953,3.24411 -7.22953,7.22953 0,3.98542 3.244111,7.22953 7.22953,7.22953 0.445982,0 0.880795,-0.0465 1.304704,-0.12426 l 5.899813,14.4397 c -1.07858,0.70102 -1.796078,1.91485 -1.796086,3.29121 0,2.16016 1.764451,3.9246 3.924602,3.9246 2.160164,0 3.924616,-1.76444 3.924603,-3.9246 0,-0.56678 -0.124703,-1.10518 -0.342919,-1.59275 l 12.650872,-9.1991 c 1.237985,2.2117 3.601541,3.7132 6.310508,3.7132 2.821471,0 5.265383,-1.63019 6.455743,-3.99399 l 15.099713,5.22689 c -0.305706,0.79975 -0.480086,1.66417 -0.480086,2.56987 0,3.98542 3.244112,7.22953 7.229532,7.22953 3.23509,0 5.98079,-2.13789 6.90033,-5.07439 l 15.64677,5.4165 c -0.15895,0.59489 -0.25175,1.21725 -0.25175,1.86144 0,3.3476 2.2922,6.16348 5.38665,6.98182 -0.2415,1.87032 -0.36632,3.77757 -0.36632,5.71343 0,6.5066 1.40746,12.68571 3.93348,18.24972 -1.72873,0.81241 -3.08226,2.28596 -3.7358,4.09647 l -23.41367,-0.66889 c 0.008,-0.13867 0.021,-0.27573 0.021,-0.41635 0,-3.98542 -3.24411,-7.22953 -7.22953,-7.22953 -3.985422,0 -7.229532,3.24411 -7.229532,7.22953 l 0,0.004 -10.83219,-0.30984 c -0.371747,-3.63953 -3.456633,-6.48963 -7.192416,-6.48963 -3.593709,0 -6.576258,2.64004 -7.129478,6.08055 l -4.461169,-0.12749 0,-13.41981 a 0.61973598,0.61973598 0 0 0 -0.619674,-0.61967 l -29.744353,0 a 0.61973598,0.61973598 0 0 0 -0.619674,0.61967 l 0,12.53387 -5.853821,-0.16702 c -0.08611,-3.91128 -3.289944,-7.06977 -7.221462,-7.06977 -0.03076,0 -0.0605,0.004 -0.09118,0.005 -4.096189,-23.01776 -3.356487,-43.41 4.975143,-58.22354 8.144341,-14.48053 23.534535,-23.76882 49.112394,-25.12342 -6.2e-5,0.0122 -0.0016,0.024 -0.0016,0.0363 0,3.98542 3.244109,7.22953 7.22953,7.22953 3.985421,0 7.22953,-3.24411 7.22953,-7.22953 0,-0.35136 -0.03359,-0.69466 -0.0823,-1.03279 z M 269.5133,171.98747 c 1.49037,0 2.68525,1.19489 2.68525,2.68525 0,1.49036 -1.19488,2.68526 -2.68525,2.68526 -1.49036,0 -2.68525,-1.1949 -2.68525,-2.68526 0,-1.49036 1.19489,-2.68525 2.68525,-2.68525 z m -31.6881,1.33052 c 3.31563,0 5.99019,2.67456 5.99019,5.99018 0,3.31563 -2.67456,5.99019 -5.99019,5.99019 -3.31562,0 -5.99018,-2.67456 -5.99018,-5.99019 0,-3.31562 2.67456,-5.99018 5.99018,-5.99018 z m 58.12752,5.27934 c 1.49037,0 2.68527,1.19488 2.68526,2.68525 0,1.49036 -1.19489,2.68525 -2.68526,2.68525 -1.49036,0 -2.68525,-1.19489 -2.68525,-2.68525 0,-1.49037 1.19489,-2.68525 2.68525,-2.68525 z m -250.592779,1.60324 c 3.315626,0 5.990182,2.67456 5.990182,5.99018 0,3.31563 -2.674556,5.99018 -5.990182,5.99018 -3.315626,0 -5.990182,-2.67455 -5.990182,-5.99018 0,-3.31562 2.674556,-5.99018 5.990182,-5.99018 z m 113.753749,4.55396 c 3.31563,0 5.99019,2.67455 5.99019,5.99018 0,3.31563 -2.67456,5.99018 -5.99019,5.99018 -3.31562,0 -5.99018,-2.67455 -5.99018,-5.99018 0,-3.31563 2.67456,-5.99018 5.99018,-5.99018 z m 37.87838,2.13094 c 3.31563,0 5.99019,2.67455 5.99019,5.99018 0,3.31562 -2.67456,5.99018 -5.99019,5.99018 -3.31562,0 -5.99018,-2.67456 -5.99018,-5.99018 0,-3.31563 2.67456,-5.99018 5.99018,-5.99018 z m -19.92236,0.0202 c 4.80547,0 9.42621,0.78846 13.74015,2.24229 -0.66005,1.09023 -1.04732,2.36329 -1.04732,3.72773 0,3.98542 3.24411,7.22953 7.22953,7.22953 2.86811,0 5.34477,-1.68518 6.51223,-4.11261 8.37713,6.54311 14.26258,16.12538 16.00341,27.09219 -3.48636,0.51337 -6.17496,3.51761 -6.17496,7.14399 0,3.58708 2.63079,6.56428 6.06199,7.12545 -0.93862,5.35539 -2.87683,10.36324 -5.60127,14.83909 -1.20742,-0.90519 -2.70114,-1.44832 -4.32239,-1.44832 -3.98542,0 -7.22953,3.24411 -7.22953,7.22953 0,1.98841 0.80815,3.79168 2.11238,5.10021 -6.44386,5.30247 -14.45393,8.77007 -23.23939,9.58961 -0.67114,-3.29637 -3.59314,-5.78524 -7.08429,-5.78524 -3.14697,0 -5.82444,2.02559 -6.8148,4.83879 -8.45847,-1.9832 -15.95098,-6.46526 -21.66197,-12.62344 0.95242,-1.22461 1.52579,-2.75745 1.52579,-4.42486 0,-3.98542 -3.24411,-7.22953 -7.22953,-7.22953 -0.65726,0 -1.29124,0.0954 -1.89695,0.26062 -2.47625,-5.4288 -3.85682,-11.46283 -3.85682,-17.82128 0,-1.86259 0.11892,-3.698 0.34856,-5.49799 0.20516,0.0176 0.41167,0.0323 0.62129,0.0323 3.98542,0 7.22953,-3.24411 7.22953,-7.22953 0,-2.73014 -1.52306,-5.11133 -3.76322,-6.34117 3.29012,-6.65062 8.24954,-12.32628 14.33318,-16.47945 1.25331,2.15445 3.58217,3.61073 6.24838,3.61073 3.98542,0 7.22953,-3.24411 7.22953,-7.22953 0,-0.83449 -0.14921,-1.63374 -0.41069,-2.38026 3.55204,-0.94989 7.28481,-1.45882 11.13718,-1.45882 z m -125.045853,2.08656 18.128692,6.27582 c -0.09586,0.46864 -0.146041,0.95425 -0.146041,1.45074 0,0.82667 0.146615,1.61794 0.403433,2.35848 l -12.815474,9.31931 c -0.719103,-0.79232 -1.752567,-1.29421 -2.901493,-1.29421 -0.343795,0 -0.67587,0.0493 -0.99406,0.13313 l -5.832037,-14.27348 c 1.871388,-0.69554 3.383309,-2.13754 4.15698,-3.96979 z m 25.212181,1.73638 c 3.315628,0 5.990182,2.67456 5.990182,5.99018 0,3.31563 -2.674554,5.99019 -5.990182,5.99019 -3.315623,0 -5.990182,-2.67456 -5.990182,-5.99019 0,-3.31562 2.674559,-5.99018 5.990182,-5.99018 z m 194.156452,5.98534 c 3.31563,0 5.99018,2.67456 5.99018,5.99018 0,3.31563 -2.67455,5.99019 -5.99018,5.99019 -3.31562,0 -5.99018,-2.67456 -5.99018,-5.99019 0,-3.31562 2.67456,-5.99018 5.99018,-5.99018 z m -165.85155,5.04696 c 3.31563,0 5.99018,2.67455 5.99018,5.99018 0,3.31562 -2.67455,5.99018 -5.99018,5.99018 -3.31563,0 -5.990184,-2.67456 -5.990184,-5.99018 0,-3.31563 2.674554,-5.99018 5.990184,-5.99018 z m 190.41178,3.27588 c 1.49037,0 2.68527,1.19489 2.68526,2.68525 0,1.49037 -1.19489,2.68526 -2.68526,2.68526 -1.49036,0 -2.68525,-1.19489 -2.68525,-2.68526 0,-1.49036 1.19489,-2.68525 2.68525,-2.68525 z m -241.259746,3.30493 c 1.490367,0 2.685255,1.19489 2.685255,2.68525 0,1.49036 -1.194888,2.68526 -2.685255,2.68526 -1.490357,0 -2.685246,-1.1949 -2.685254,-2.68526 0,-1.49036 1.194901,-2.68525 2.685254,-2.68525 z m 80.372846,2.85227 c 3.31563,0 5.99018,2.67456 5.99018,5.99018 0,3.31563 -2.67455,5.99019 -5.99018,5.99019 -3.31563,0 -5.99018,-2.67456 -5.99018,-5.99019 0,-3.31562 2.67455,-5.99018 5.99018,-5.99018 z m 85.49646,13.04462 c 3.31562,0 5.99018,2.67454 5.99018,5.99018 0,3.31563 -2.67456,5.99019 -5.99018,5.99019 -3.31563,0 -5.99018,-2.67457 -5.99018,-5.99019 0,-3.31562 2.67455,-5.99018 5.99018,-5.99018 z m 30.74164,1.34909 c 3.31563,0 5.99018,2.67455 5.99018,5.99018 0,3.31562 -2.67455,5.99018 -5.99018,5.99018 -3.31563,0 -5.99018,-2.67456 -5.99018,-5.99018 0,-3.31563 2.67455,-5.99018 5.99018,-5.99018 z m 33.04928,6.60985 c 3.31563,0 5.99018,2.67456 5.99018,5.99018 0,3.31563 -2.67455,5.99019 -5.99018,5.99019 -3.31563,0 -5.99018,-2.67456 -5.99018,-5.99019 0,-3.31562 2.67455,-5.99018 5.99018,-5.99018 z m -248.510258,5.30031 28.505005,0 0,12.76464 -7.448193,-0.21301 c -0.333773,-3.67839 -3.432894,-6.57193 -7.196447,-6.57193 -3.62203,0 -6.623649,2.68178 -7.142389,6.16204 l -6.717976,-0.19203 0,-11.94971 z m -14.314631,5.91676 c 3.315624,0 5.990182,2.67456 5.990182,5.99018 0,3.31563 -2.674558,5.99018 -5.990182,5.99018 -3.315628,0 -5.990182,-2.67455 -5.990182,-5.99018 0,-3.31562 2.674554,-5.99018 5.990182,-5.99018 z m 28.174996,1.30228 c 3.315628,0 5.990181,2.67456 5.990181,5.99019 0,3.31562 -2.674553,5.99018 -5.990181,5.99018 -3.315628,0 -5.990182,-2.67456 -5.990182,-5.99018 0,-3.31563 2.674554,-5.99019 5.990182,-5.99019 z m 52.728773,0.43329 c 3.31562,0 5.99018,2.67456 5.99018,5.99018 0,3.31563 -2.67456,5.99018 -5.99018,5.99018 -3.315629,0 -5.990183,-2.67455 -5.990183,-5.99018 0,-3.31562 2.674554,-5.99018 5.990183,-5.99018 z m -25.254138,0.4341 c 3.315628,0 5.990182,2.67456 5.990182,5.99018 0,3.31563 -2.674554,5.99018 -5.990182,5.99018 -3.315628,0 -5.990182,-2.67455 -5.990182,-5.99018 0,-3.31562 2.674554,-5.99018 5.990182,-5.99018 z m 62.671798,3.09514 c 3.31562,0 5.99018,2.67456 5.99018,5.99018 0,3.31563 -2.67456,5.99018 -5.99018,5.99018 -3.31563,0 -5.99018,-2.67455 -5.99018,-5.99018 0,-3.31562 2.67455,-5.99018 5.99018,-5.99018 z m -104.006798,2.00748 6.63971,0.18962 c 0.08566,3.66383 2.905555,6.66419 6.496895,7.02297 -0.05068,2.24894 -0.12,4.49683 -0.205751,6.7446 -3.652464,0.35916 -6.517066,3.44898 -6.517066,7.19403 0,3.49399 2.493762,6.41707 5.794113,7.0851 -0.07265,1.20084 -0.150679,2.40233 -0.227536,3.60347 l -11.980365,0 0,-31.83979 z m 21.060848,0.60193 7.444157,0.21301 0,31.02485 -15.287713,0 c 0.07408,-1.15645 0.150055,-2.31286 0.220275,-3.46953 0.06895,0.002 0.136334,0.0105 0.205751,0.0105 3.985417,0 7.229529,-3.24411 7.229529,-7.22953 0,-3.80738 -2.962502,-6.93078 -6.701838,-7.2029 0.08549,-2.24061 0.153494,-4.48216 0.204138,-6.72524 3.552326,-0.25218 6.401052,-3.07773 6.685701,-6.62115 z m 8.683505,0.24771 4.365153,0.12506 c 0.04742,3.94499 3.269499,7.14239 7.225494,7.14239 3.816729,0 6.945806,-2.97774 7.204516,-6.73008 l 10.934664,0.31226 c 0.593379,3.39291 3.555128,5.98372 7.114958,5.98372 3.41696,0 6.28206,-2.38749 7.03185,-5.57949 l 23.26601,0.66487 c -0.0673,0.39554 -0.10973,0.79994 -0.10973,1.21433 0,2.08332 0.89141,3.95864 2.30683,5.27933 l -57.950815,27.59567 c -1.323834,-1.70584 -3.387055,-2.81035 -5.70778,-2.81032 -3.985417,0 -7.22953,3.24411 -7.22953,7.22953 0,0.21066 0.01371,0.41755 0.03147,0.62371 l -9.091781,1.42573 c -1.241728,-2.19818 -3.597088,-3.68819 -6.295985,-3.68819 -0.04628,0 -0.09109,0.006 -0.137167,0.007 0.148614,-2.18848 0.294214,-4.37723 0.436515,-6.56628 l 15.985653,0 a 0.61973598,0.61973598 0 0 0 0.619674,-0.61968 l 0,-31.60982 z m 143.883785,0.4478 c 3.31563,0 5.99018,2.67456 5.99018,5.99019 0,3.31562 -2.67455,5.99018 -5.99018,5.99018 -3.31562,0 -5.99018,-2.67456 -5.99018,-5.99018 0,-3.31563 2.67456,-5.99019 5.99018,-5.99019 z m -64.75674,8.01704 c 5.86249,6.29402 13.53716,10.87714 22.19288,12.91471 -0.0649,0.38873 -0.1065,0.78573 -0.1065,1.19255 0,3.64124 2.71051,6.65477 6.21771,7.14965 l 0,15.82993 c -3.69612,0.316 -6.60985,3.42172 -6.60985,7.19807 0,3.77633 2.91373,6.88207 6.60985,7.19806 l 0,8.73837 c -3.69612,0.31599 -6.60985,3.42172 -6.60985,7.19806 0,3.77634 2.91373,6.88207 6.60985,7.19807 l 0,10.26012 c -3.53305,0.36656 -6.31083,3.29188 -6.463,6.88338 l -2.21243,0.0549 0,-8.69803 a 0.61973598,0.61973598 0 0 0 -0.61968,-0.61967 l -69.403485,0 a 0.61973598,0.61973598 0 0 0 -0.619674,0.61967 l 0,46.26899 a 0.61973598,0.61973598 0 0 0 0.619674,0.61968 l 69.403485,0 a 0.61973598,0.61973598 0 0 0 0.61968,-0.61968 l 0,-36.33161 2.26407,-0.0557 c 0.45935,3.5465 3.49328,6.29841 7.16256,6.29841 3.72959,0 6.80908,-2.84101 7.18919,-6.47188 l 13.87085,0 c 0.12543,3.87633 3.31123,6.99473 7.21743,6.99473 3.90619,0 7.09198,-3.1184 7.21742,-6.99473 l 17.52032,0 c 0.28376,3.72798 3.40288,6.67763 7.20209,6.67763 3.79923,0 6.91836,-2.94965 7.2021,-6.67763 l 8.76016,0 c 0.43141,3.57675 3.48136,6.36053 7.17224,6.36053 3.69088,0 6.74084,-2.78378 7.17224,-6.36053 l 4.56768,0 0,5.4286 c -25.49579,15.9404 -75.12141,43.60716 -118.44488,49.7361 -25.08968,3.54942 -47.95796,-0.0956 -62.963073,-17.25566 -14.244934,-16.29069 -21.488014,-44.9454 -16.540777,-91.55845 0.118383,0.006 0.236018,0.0153 0.355825,0.0153 3.985421,0 7.22953,-3.24412 7.22953,-7.22953 0,-1.21739 -0.305086,-2.36419 -0.839141,-3.3719 l 58.372006,-27.79577 c 0.62624,0.39185 1.31567,0.68878 2.05025,0.87465 l -2.35848,25.47602 c -0.0307,-3.8e-4 -0.0604,-0.005 -0.0912,-0.005 -3.98542,0 -7.22953,3.24411 -7.22953,7.22953 0,3.98542 3.24411,7.22953 7.22953,7.22953 3.98542,0 7.22953,-3.24411 7.22953,-7.22953 0,-3.53242 -2.55026,-6.47786 -5.90466,-7.10285 l 2.35121,-25.39776 c 0.17958,0.0134 0.35927,0.0282 0.54222,0.0282 1.874,0 3.57861,-0.72339 4.8646,-1.89775 z m 119.80929,5.24544 c 3.31563,0 5.99018,2.67456 5.99018,5.99019 0,3.31562 -2.67455,5.99018 -5.99018,5.99018 -3.31563,0 -5.99018,-2.67456 -5.99018,-5.99018 0,-3.31563 2.67455,-5.99019 5.99018,-5.99019 z m -215.03737,0.60112 c 3.315624,0 5.990182,2.67455 5.990182,5.99018 0,3.31563 -2.674558,5.99018 -5.990182,5.99018 -3.315628,0 -5.990182,-2.67455 -5.990182,-5.99018 0,-3.31563 2.674554,-5.99018 5.990182,-5.99018 z m 124.54399,2.27052 c 3.31562,0 5.99018,2.67456 5.99018,5.99018 0,3.31563 -2.67456,5.99019 -5.99018,5.99019 -3.31563,0 -5.99019,-2.67456 -5.99019,-5.99019 0,-3.31562 2.67456,-5.99018 5.99019,-5.99018 z M 71.268445,285.9736 c 3.315628,0 5.990182,2.67455 5.990182,5.99018 0,3.31562 -2.674554,5.99018 -5.990182,5.99018 -3.315623,0 -5.990182,-2.67456 -5.990182,-5.99018 0,-3.31563 2.674559,-5.99018 5.990182,-5.99018 z m 64.362995,2.40769 c 3.31562,0 5.99018,2.67455 5.99018,5.99018 0,3.31563 -2.67456,5.99018 -5.99018,5.99018 -3.31563,0 -5.99019,-2.67455 -5.99019,-5.99018 0,-3.31563 2.67456,-5.99018 5.99019,-5.99018 z m -86.94882,3.18309 c 3.315625,0 5.990182,2.67456 5.990182,5.99018 0,3.31563 -2.674557,5.99019 -5.990182,5.99019 -3.315628,0 -5.990182,-2.67456 -5.990182,-5.99019 0,-3.31562 2.674554,-5.99018 5.990182,-5.99018 z m 159.65723,3.42677 c 3.31563,0 5.99019,2.67455 5.99019,5.99018 0,3.31562 -2.67456,5.99018 -5.99019,5.99018 -3.31562,0 -5.99018,-2.67456 -5.99018,-5.99018 0,-3.31563 2.67456,-5.99018 5.99018,-5.99018 z m -34.70174,3.30492 c 3.31563,0 5.99018,2.67456 5.99018,5.99019 0,3.31562 -2.67455,5.99018 -5.99018,5.99018 -3.31563,0 -5.99018,-2.67456 -5.99018,-5.99018 0,-3.31563 2.67455,-5.99019 5.99018,-5.99019 z m 82.44973,1.74042 c 3.31562,0 5.99018,2.67455 5.99018,5.99018 0,3.31562 -2.67456,5.99018 -5.99018,5.99018 -3.31563,0 -5.99019,-2.67456 -5.99019,-5.99018 0,-3.31563 2.67456,-5.99018 5.99019,-5.99018 z m -54.90167,1.93325 c 0.48491,3.51833 3.50451,6.24112 7.15368,6.24112 3.13698,0 5.8072,-2.01371 6.80512,-4.81296 l 33.71495,2.59326 c -6e-5,0.012 -0.002,0.0236 -0.002,0.0355 0,3.98542 3.24411,7.22953 7.22954,7.22953 0.94098,0 1.83808,-0.18684 2.66347,-0.51559 l 5.89577,12.63231 c -1.03927,1.19044 -1.69181,2.72138 -1.77107,4.40227 l -12.09736,-0.80687 c -0.55322,-3.4405 -3.53577,-6.08055 -7.12948,-6.08055 -3.98541,0 -7.22953,3.24411 -7.22953,7.22953 0,2.53535 1.31545,4.76616 3.29686,6.05715 l -3.46469,9.24025 c -0.71341,-0.2363 -1.47338,-0.36874 -2.26488,-0.36874 -3.75347,0 -6.84719,2.87784 -7.19483,6.54208 l -17.59374,0 c -0.49173,-3.51072 -3.50752,-6.22498 -7.15126,-6.22498 -3.64375,0 -6.65953,2.71426 -7.15127,6.22498 l -13.92088,0 c -0.23895,-3.59886 -3.11912,-6.48144 -6.71717,-6.72363 l 0,-10.24559 c 3.69612,-0.316 6.60986,-3.42173 6.60986,-7.19807 0,-3.77634 -2.91374,-6.88207 -6.60986,-7.19806 l 0,-8.73837 c 3.69612,-0.31599 6.60986,-3.42173 6.60986,-7.19806 0,-0.46594 -0.0477,-0.92113 -0.13233,-1.3628 l 20.45086,-0.95372 z M 46.349967,312.94636 c 1.490365,0 2.685254,1.19489 2.685254,2.68526 0,1.49036 -1.194889,2.68525 -2.685254,2.68525 -1.490365,0 -2.685254,-1.19489 -2.685254,-2.68525 0,-1.49037 1.194889,-2.68526 2.685254,-2.68526 z m 127.288143,8.48421 c 3.31563,0 5.99018,2.67455 5.99018,5.99018 0,3.31563 -2.67455,5.99018 -5.99018,5.99018 -3.31563,0 -5.99018,-2.67455 -5.99018,-5.99018 0,-3.31563 2.67455,-5.99018 5.99018,-5.99018 z m 70.01106,2.69655 c 3.31563,0 5.99018,2.67456 5.99018,5.99018 0,3.31563 -2.67455,5.99018 -5.99018,5.99018 -3.31563,0 -5.99018,-2.67455 -5.99018,-5.99018 0,-3.31562 2.67456,-5.99018 5.99018,-5.99018 z m 26.43943,0 c 3.31562,0 5.99018,2.67456 5.99018,5.99018 0,3.31563 -2.67456,5.99018 -5.99018,5.99018 -3.31563,0 -5.99019,-2.67455 -5.99019,-5.99018 0,-3.31562 2.67456,-5.99018 5.99019,-5.99018 z m -238.530123,6.4969 c 1.490365,0 2.685254,1.19489 2.685254,2.68525 0,1.49036 -1.194889,2.68525 -2.685254,2.68525 -1.490364,0 -2.685254,-1.19489 -2.685254,-2.68525 0,-1.49036 1.19489,-2.68525 2.685254,-2.68525 z m 13.219713,0 c 1.490364,0 2.685254,1.19489 2.685254,2.68525 0,1.49036 -1.19489,2.68525 -2.685254,2.68525 -1.490365,0 -2.685254,-1.19489 -2.685254,-2.68525 0,-1.49036 1.194889,-2.68525 2.685254,-2.68525 z m 13.219713,0 c 1.490366,0 2.685267,1.19489 2.685254,2.68525 0,1.49036 -1.194888,2.68525 -2.685254,2.68525 -1.490357,0 -2.685247,-1.19489 -2.685255,-2.68525 0,-1.49036 1.194902,-2.68525 2.685255,-2.68525 z m 212.102797,8.98365 13.52228,0 c -0.48215,1.26419 -0.97573,2.53952 -1.46607,3.81164 -0.36237,-0.0562 -0.73081,-0.0936 -1.10864,-0.0936 -3.98542,0 -7.22953,3.24411 -7.22953,7.22953 0,1.41158 0.41317,2.72549 1.1159,3.83988 -1.48255,0.96037 -3.09358,1.99073 -4.83394,3.08626 l 0,-17.87372 z m 14.85039,0 7.04476,0 0,21.89515 -21.89515,0 0,-2.55535 c 2.03316,-1.27643 3.88033,-2.45913 5.58352,-3.56312 1.32435,1.46941 3.23554,2.40043 5.36405,2.40043 3.98542,0 7.22953,-3.24411 7.22953,-7.22953 0,-3.17217 -2.05813,-5.86897 -4.90656,-6.83981 0.52863,-1.37139 1.06075,-2.7458 1.57985,-4.10777 z m -190.011581,4.13116 68.164141,0 0,8.10821 -3.9835,0.0984 c -0.84238,-3.05858 -3.642,-5.31483 -6.96407,-5.31483 -3.44628,0 -6.33344,2.42694 -7.05283,5.66017 l -6.51142,0.16057 c -0.79506,-3.12833 -3.62788,-5.45281 -6.99957,-5.45281 -3.49622,0 -6.42114,2.49628 -7.08672,5.79976 l -8.13967,0.2001 c -0.42801,-3.58038 -3.48038,-6.36779 -7.17386,-6.36779 -3.98542,0 -7.22953,3.24411 -7.22953,7.22953 0,3.98541 3.24411,7.22953 7.22953,7.22953 3.85815,0 7.01206,-3.04289 7.21017,-6.85273 l 7.97023,-0.19606 c -0.002,0.0628 -0.01,0.12405 -0.01,0.18719 0,3.98542 3.24411,7.22954 7.22953,7.22953 0.0283,0 0.0557,-0.004 0.0839,-0.004 l 0.29451,8.32929 c -3.81987,0.18746 -6.8737,3.34641 -6.8737,7.21178 0,3.98542 3.24411,7.22953 7.22953,7.22953 3.98542,0 7.22953,-3.24411 7.22953,-7.22953 0,-3.68527 -2.7755,-6.73111 -6.3444,-7.16982 l -0.29935,-8.49389 c 3.35677,-0.62307 5.9095,-3.56873 5.9095,-7.10285 0,-0.18294 -0.014,-0.36263 -0.0274,-0.54222 l 6.14832,-0.15169 c -0.005,0.1088 -0.0161,0.216 -0.0161,0.32598 0,3.98541 3.24411,7.22953 7.22953,7.22953 3.98542,0 7.22953,-3.24412 7.22953,-7.22953 0,-0.22976 -0.0128,-0.45665 -0.0339,-0.681 l 3.75193,-0.092 0,35.68128 -68.164141,0 0,-45.02965 z m 186.108761,0.82624 c 3.31563,0 5.99018,2.67455 5.99018,5.99018 0,3.31562 -2.67455,5.99018 -5.99018,5.99018 -3.31563,0 -5.99018,-2.67456 -5.99018,-5.99018 0,-3.31563 2.67455,-5.99018 5.99018,-5.99018 z m -23.92684,1.40314 c 3.31563,0 5.99018,2.67456 5.99018,5.99018 0,3.31563 -2.67455,5.99018 -5.99018,5.99018 -3.31562,0 -5.99018,-2.67455 -5.99018,-5.99018 0,-3.31562 2.67456,-5.99018 5.99018,-5.99018 z m -83.3518,0.11134 c 3.31563,0 5.99018,2.67456 5.99018,5.99019 0,3.31562 -2.67455,5.99018 -5.99018,5.99018 -3.31563,0 -5.99018,-2.67456 -5.99018,-5.99018 0,-3.31563 2.67455,-5.99019 5.99018,-5.99019 z m 60.2173,0.20576 c 3.31563,0 5.99019,2.67455 5.99019,5.99018 0,3.31563 -2.67456,5.99018 -5.99019,5.99018 -3.31562,0 -5.99018,-2.67455 -5.99018,-5.99018 0,-3.31563 2.67456,-5.99018 5.99018,-5.99018 z m -31.93983,0.3171 c 3.31562,0 5.99018,2.67455 5.99018,5.99018 0,3.31562 -2.67456,5.99018 -5.99018,5.99018 -3.31563,0 -5.99019,-2.67456 -5.99019,-5.99018 0,-3.31563 2.67456,-5.99018 5.99019,-5.99018 z m -92.85509,1.26758 c 3.31563,0 5.99018,2.67456 5.99018,5.99019 0,3.31562 -2.67455,5.99018 -5.99018,5.99018 -3.31563,0 -5.99018,-2.67456 -5.99018,-5.99018 0,-3.31563 2.67455,-5.99019 5.99018,-5.99019 z m 42.96407,0 c 3.31562,0 5.99018,2.67456 5.99018,5.99019 0,3.31562 -2.67456,5.99018 -5.99018,5.99018 -3.31563,0 -5.99019,-2.67456 -5.99019,-5.99018 0,-3.31563 2.67456,-5.99019 5.99019,-5.99019 z m -20.56382,0.36793 c 3.31562,0 5.99018,2.67458 5.99018,5.99019 0,3.31562 -2.67456,5.99018 -5.99018,5.99018 -3.31563,0 -5.99018,-2.67455 -5.99018,-5.99018 0,-3.31563 2.67455,-5.99018 5.99018,-5.99019 z m -86.81407,8.82552 c 1.490364,0 2.685254,1.19489 2.685254,2.68526 0,1.49036 -1.19489,2.68525 -2.685254,2.68525 -1.490365,0 -2.685254,-1.19489 -2.685254,-2.68525 0,-1.49037 1.194889,-2.68526 2.685254,-2.68526 z m 87.54832,13.94105 c 3.31563,0 5.99018,2.67456 5.99018,5.99018 0,3.31563 -2.67455,5.99019 -5.99018,5.99019 -3.31563,0 -5.99018,-2.67456 -5.99018,-5.99019 0,-3.31562 2.67455,-5.99018 5.99018,-5.99018 z"
       id="path7405"
       inkscape:connector-curvature="0" />
  </g>
</svg>
