<?xml version="1.0" encoding="UTF-8" standalone="no"?>
<!-- Created with Inkscape (http://www.inkscape.org/) -->

<svg
   xmlns:dc="http://purl.org/dc/elements/1.1/"
   xmlns:cc="http://creativecommons.org/ns#"
   xmlns:rdf="http://www.w3.org/1999/02/22-rdf-syntax-ns#"
   xmlns:svg="http://www.w3.org/2000/svg"
   xmlns="http://www.w3.org/2000/svg"
   xmlns:sodipodi="http://sodipodi.sourceforge.net/DTD/sodipodi-0.dtd"
   xmlns:inkscape="http://www.inkscape.org/namespaces/inkscape"
   width="210mm"
   height="297mm"
   viewBox="0 0 744.09448819 1052.3622047"
   id="svg2"
   version="1.1"
   inkscape:version="0.91 r"
   sodipodi:docname="BingBangAndTheBrickbats-Poster.svg">
  <defs
     id="defs4" />
  <sodipodi:namedview
     id="base"
     pagecolor="#ffffff"
     bordercolor="#666666"
     borderopacity="1.0"
     inkscape:pageopacity="0.0"
     inkscape:pageshadow="2"
     inkscape:zoom="0.47978313"
     inkscape:cx="542.95299"
     inkscape:cy="482.03493"
     inkscape:document-units="px"
     inkscape:current-layer="layer1"
     showgrid="false"
     inkscape:window-width="1078"
     inkscape:window-height="696"
     inkscape:window-x="406"
     inkscape:window-y="122"
     inkscape:window-maximized="0" />
  <metadata
     id="metadata7">
    <rdf:RDF>
      <cc:Work
         rdf:about="">
        <dc:format>image/svg+xml</dc:format>
        <dc:type
           rdf:resource="http://purl.org/dc/dcmitype/StillImage" />
        <dc:title></dc:title>
      </cc:Work>
    </rdf:RDF>
  </metadata>
  <g
     inkscape:label="Layer 1"
     inkscape:groupmode="layer"
     id="layer1">
    <text
       xml:space="preserve"
       style="font-style:normal;font-weight:normal;font-size:80.67777252px;line-height:125%;font-family:sans-serif;letter-spacing:0px;word-spacing:0px;fill:#000000;fill-opacity:1;stroke:none;stroke-width:1px;stroke-linecap:butt;stroke-linejoin:miter;stroke-opacity:1"
       x="53.270569"
       y="140.14227"
       id="text4136"
       sodipodi:linespacing="125%"
       transform="scale(0.55674916,1.796141)"><tspan
         sodipodi:role="line"
         id="tspan4138"
         x="53.270569"
         y="140.14227"
         style="font-style:normal;font-variant:normal;font-weight:normal;font-stretch:normal;font-size:181.52497864px;font-family:'Saved By Zero';-inkscape-font-specification:'Saved By Zero'">Kugelblitz</tspan></text>
    <text
       xml:space="preserve"
       style="font-style:normal;font-weight:normal;font-size:40px;line-height:125%;font-family:sans-serif;letter-spacing:0px;word-spacing:0px;fill:#000000;fill-opacity:1;stroke:none;stroke-width:1px;stroke-linecap:butt;stroke-linejoin:miter;stroke-opacity:1"
       x="82.837036"
       y="614.73102"
       id="text4140"
       sodipodi:linespacing="125%"><tspan
         sodipodi:role="line"
         id="tspan4142"
         x="82.837036"
         y="614.73102"
         style="font-style:normal;font-variant:normal;font-weight:normal;font-stretch:normal;font-family:'Romande ADF Std';-inkscape-font-specification:'Romande ADF Std'">with</tspan></text>
    <g
       transform="matrix(1.9975031,0,0,2.135735,15.300681,-1347.3763)"
       id="layer1-8"
       inkscape:label="Layer 1">
      <path
         inkscape:connector-curvature="0"
         id="path4154"
         transform="translate(6.4182207,929.58091)"
         d="m 37.548828,10.078125 -17.0625,5.058594 3.134766,4.751953 4.917968,-1.673828 5.683594,12.853515 -3.101562,1.320313 1.238281,3.597656 10.166016,-4.232422 -0.826172,-2.914062 -3.324219,1.404297 -4.753906,-12.855469 5.248047,-1.814453 -1.320313,-5.496094 z"
         style="fill:#000000;fill-opacity:1;fill-rule:evenodd;stroke:#000000;stroke-width:1px;stroke-linecap:butt;stroke-linejoin:round;stroke-opacity:1" />
      <path
         transform="translate(6.4182207,929.58091)"
         sodipodi:nodetypes="ccccscscssccsssccs"
         inkscape:connector-curvature="0"
         id="path4297"
         d="m 10.275391,18.232422 -8.7617191,3.076172 7.5,27.5 13.5781251,-5.617188 c 3.356388,-1.38861 8.958585,-7.511902 6.421875,-11.882812 -2.502858,-4.31258 -8.951452,-4.01552 -12.5,-2.5 2.883716,-2.15827 4.069023,-4.20046 2.5,-7.5 -1.452758,-3.055043 -3.772178,-3.723882 -8.738281,-3.076172 z m 1.708984,4.308594 c 0.922077,0.05082 1.652323,0.402205 2.029297,1.267578 1.765436,4.05269 -2.87241,3.74003 -5.0000001,5 l -2.5,-5 c 1.8632675,-0.601538 3.9339071,-1.352279 5.4707031,-1.267578 z m 7.072266,9.949218 c 1.049596,6.21e-4 1.928008,0.384003 2.457031,1.31836 1.741953,3.07662 -4.181865,6.47264 -7.5,7.5 l -2.5,-5 c 2.093175,-1.962359 5.233858,-3.819725 7.542969,-3.81836 z"
         style="fill:#000000;fill-opacity:1;fill-rule:evenodd;stroke:#000000;stroke-width:1px;stroke-linecap:butt;stroke-linejoin:round;stroke-opacity:1" />
      <path
         sodipodi:nodetypes="ccccccccccc"
         inkscape:connector-curvature="0"
         id="path4162"
         d="m 52.930979,963.39037 -5,-25 5,0 12.5,12.5 -5,-15 5,0 7.5,22.5 -7.5,2.5 -12.5,-15 c 0,0 7.5,12.5 7.5,15 z"
         style="fill:#000000;fill-opacity:1;fill-rule:evenodd;stroke:#000000;stroke-width:1px;stroke-linecap:butt;stroke-linejoin:round;stroke-opacity:1" />
      <path
         sodipodi:nodetypes="csssccccssscc"
         inkscape:connector-curvature="0"
         id="path4164"
         d="m 88.451154,938.14412 c -2.829122,-5.84393 -8.469332,-5.86231 -12.901272,-4.53873 -6.434202,1.92155 -6.461814,8.89947 -5,12.5 2.233348,5.50087 6.851105,11.32048 12.5,10 7.646989,-1.78755 10.977217,-8.62773 6.715872,-14.14667 l -9.215872,1.64667 0.555741,2.76276 4.737704,10e-4 c 0.01654,2.43321 -0.534493,4.05239 -2.793445,4.31266 -3.440737,0.39643 -7.001961,-2.37834 -8.074094,-5.05032 -1.462187,-3.64407 -1.089732,-8.67101 2.217604,-10.11681 2.459685,-1.07525 5.539469,0.96444 7.434713,3.91143 z"
         style="fill:#000000;fill-opacity:1;fill-rule:evenodd;stroke:#000000;stroke-width:1px;stroke-linecap:butt;stroke-linejoin:round;stroke-opacity:1" />
      <path
         inkscape:connector-curvature="0"
         id="path4170"
         transform="translate(6.4182207,929.58091)"
         d="m 102.62695,19.191406 -7.499997,2.5 4.999997,12.5 -12.499997,-10 -7.5,2.5 10.302735,17.185547 4.230468,-0.919922 -2.033203,-6.265625 7.267578,4.34961 7.499999,0 -4.76758,-21.84961 z"
         style="fill:#000000;fill-opacity:1;fill-rule:evenodd;stroke:#000000;stroke-width:1px;stroke-linecap:butt;stroke-linejoin:round;stroke-opacity:1" />
      <path
         inkscape:connector-curvature="0"
         id="path4290"
         transform="translate(6.4182207,929.58091)"
         d="m 52.064453,35.878906 c -0.844571,0.0062 -1.817492,0.200045 -2.933594,0.646485 l -12.5,5 5.28711,10.572265 5.742187,10.710938 L 60.398438,58.375 c 6.714316,-3.57028 6.953286,-8.836419 3.732421,-11.849609 -2.237635,-2.09336 -5.863692,-1.80669 -10,0 2.019079,-2.3922 3.695265,-4.73491 2.5,-7.5 -0.651102,-1.50624 -2.032693,-3.165182 -4.566406,-3.146485 z m -4.984375,5.810547 c 1.30012,0.04903 2.365284,0.48976 2.59375,1.462891 0.474354,2.02047 -0.761106,4.3743 -5,5 l -2.5,-5 c 1.174272,-0.940765 3.234667,-1.525923 4.90625,-1.462891 z m 7.910156,8.625 c 0.945353,-0.02178 1.787475,0.431515 2.466797,1.623047 1.417714,2.48668 -2.734884,4.214296 -6.517578,4.416016 l -1.265625,-3.201172 c 1.877282,-1.448063 3.740818,-2.801586 5.316406,-2.837891 z"
         style="fill:#000000;fill-opacity:1;fill-rule:evenodd;stroke:#000000;stroke-width:1px;stroke-linecap:butt;stroke-linejoin:round;stroke-opacity:1" />
      <g
         transform="matrix(0.81568027,0.15525832,-0.20914654,1.0987927,226.42521,-122.17593)"
         id="g5885">
        <path
           style="fill:none;fill-rule:evenodd;stroke:#000000;stroke-width:1px;stroke-linecap:butt;stroke-linejoin:round;stroke-opacity:1"
           d="m 103.78366,990.24808 1.72556,7.2988"
           id="path4180"
           inkscape:connector-curvature="0" />
        <path
           style="fill:none;fill-rule:evenodd;stroke:#000000;stroke-width:1px;stroke-linecap:butt;stroke-linejoin:round;stroke-opacity:1"
           d="m 101.46577,991.30985 4.86586,-1.15037"
           id="path4182"
           inkscape:connector-curvature="0"
           sodipodi:nodetypes="cc" />
        <path
           style="fill:none;fill-rule:evenodd;stroke:#000000;stroke-width:1px;stroke-linecap:butt;stroke-linejoin:round;stroke-opacity:1"
           d="m 107.67636,989.32779 1.72555,7.2988"
           id="path4184"
           inkscape:connector-curvature="0" />
        <path
           style="fill:none;fill-rule:evenodd;stroke:#000000;stroke-width:1px;stroke-linecap:butt;stroke-linejoin:round;stroke-opacity:1"
           d="m 108.9682,992.61886 4.86587,-1.15037"
           id="path4186"
           inkscape:connector-curvature="0" />
        <path
           style="fill:none;fill-rule:evenodd;stroke:#000000;stroke-width:1px;stroke-linecap:butt;stroke-linejoin:round;stroke-opacity:1"
           d="m 112.54222,988.17742 1.72555,7.2988"
           id="path4188"
           inkscape:connector-curvature="0" />
        <path
           style="fill:none;fill-rule:evenodd;stroke:#000000;stroke-width:1px;stroke-linecap:butt;stroke-linejoin:round;stroke-opacity:1"
           d="m 119.92324,986.48527 -4.96956,1.41244 1.77347,4.94194 4.86586,-1.15037"
           id="path4198"
           inkscape:connector-curvature="0"
           sodipodi:nodetypes="cccc" />
        <path
           style="fill:none;fill-rule:evenodd;stroke:#000000;stroke-width:1px;stroke-linecap:butt;stroke-linejoin:round;stroke-opacity:1"
           d="m 120.90279,988.76976 -4.86586,1.15037"
           id="path4202"
           inkscape:connector-curvature="0" />
        <path
           style="fill:none;fill-rule:evenodd;stroke:#000000;stroke-width:1px;stroke-linecap:butt;stroke-linejoin:round;stroke-opacity:1"
           d="m 86.757023,1002.3102 -2.246198,-5.96172 6.016233,3.71552 -2.34582,-5.56323"
           id="path4206"
           inkscape:connector-curvature="0"
           sodipodi:nodetypes="cccc" />
        <path
           style="fill:none;fill-rule:evenodd;stroke:#000000;stroke-width:1px;stroke-linecap:butt;stroke-linejoin:round;stroke-opacity:1"
           d="m 91.809624,994.62293 1.150368,4.86587 c 2.42068,-0.62846 5.517348,-0.95638 4.290682,-3.5833 -0.979203,-2.09698 -2.786225,-2.67752 -5.44105,-1.28257 z"
           id="path4210"
           inkscape:connector-curvature="0"
           sodipodi:nodetypes="ccsc" />
        <path
           id="path4212"
           style="fill:none;fill-rule:evenodd;stroke:#000000;stroke-width:1px;stroke-linecap:butt;stroke-linejoin:round;stroke-opacity:1"
           d="m 80.508034,1000.1136 1.946346,-0.46011 m -2.750711,3.43511 1.225512,-6.04505 3.423903,4.76695"
           inkscape:connector-curvature="0" />
      </g>
      <path
         inkscape:connector-curvature="0"
         id="path5792"
         transform="translate(6.4182207,929.58091)"
         d="m 69.960938,29.025391 -5,2.5 2.49414,21.662109 4.435547,-2.144531 -1.099609,-7.292969 5.941406,-2.238281 6.353516,5.095703 4.375,-2.582031 -17.5,-15 z m -0.119141,7.283203 5,2.5 -5,2.335937 0,-4.835937 z"
         style="fill:#000000;fill-opacity:1;fill-rule:evenodd;stroke:#000000;stroke-width:1px;stroke-linecap:butt;stroke-linejoin:round;stroke-opacity:1" />
      <path
         sodipodi:nodetypes="csssccccssscc"
         inkscape:connector-curvature="0"
         d="m 130.90377,948.74856 c -2.67433,-5.9076 -6.5645,-8.10275 -13.9496,-3.36604 -5.32888,3.41788 -4.34011,8.86982 -3.03449,14.18302 2.78216,11.32194 10.29735,11.29053 16.83904,10.65644 5.2558,-0.50945 6.93497,-12.45155 3.83289,-17.05174 l -8.83289,2.05174 0,5 6.40054,-2.33423 c 1.53234,1.66667 -0.96614,6.74281 -3.90054,7.33423 -4.31239,0.86915 -8.04665,-0.96879 -10,-7.5 -0.72089,-2.41037 -1.7211,-5.54616 1.98409,-8.31698 2.32443,-1.73826 5.0051,-1.68407 6.96551,1.09946 z"
         style="fill:#000000;fill-opacity:1;fill-rule:evenodd;stroke:#000000;stroke-width:1px;stroke-linecap:butt;stroke-linejoin:round;stroke-opacity:1"
         id="path4218" />
      <g
         transform="matrix(0.99149364,0.13015517,-0.13015517,0.99149364,126.56955,-7.1547279)"
         id="g5897">
        <path
           style="fill:none;fill-rule:evenodd;stroke:#000000;stroke-width:1.65528738px;stroke-linecap:butt;stroke-linejoin:round;stroke-opacity:1"
           d="m 72.450651,1003.6894 0.47724,17.6485 c 2.507821,-0.3521 5.206983,-0.6061 5.654026,-3.884 0.478571,-3.509 -0.700171,-5.9255 -5.402175,-4.5372 3.138563,-0.7088 4.937908,-3.5452 4.667385,-5.2547 -0.901465,-5.6971 -5.396476,-3.9726 -5.396476,-3.9726 z"
           id="path4224"
           inkscape:connector-curvature="0"
           sodipodi:nodetypes="ccsccc" />
        <path
           style="fill:none;fill-rule:evenodd;stroke:#000000;stroke-width:1.65528738px;stroke-linecap:butt;stroke-linejoin:round;stroke-opacity:1"
           d="m 82.294739,1019.6348 -1.138033,-16.6716 c 1.538373,-2.2969 5.369116,-1.5543 5.506608,3.1258 0.05171,1.7602 0.03123,3.7358 -4.15579,5.4724 l 6.68883,7.7478"
           id="path4226"
           inkscape:connector-curvature="0"
           sodipodi:nodetypes="ccscc" />
        <path
           style="fill:none;fill-rule:evenodd;stroke:#000000;stroke-width:1.65528738px;stroke-linecap:butt;stroke-linejoin:round;stroke-opacity:1"
           d="m 91.288865,1002.3769 1.174742,15.695"
           id="path4228"
           inkscape:connector-curvature="0" />
        <path
           style="fill:none;fill-rule:evenodd;stroke:#000000;stroke-width:1.65528738px;stroke-linecap:butt;stroke-linejoin:round;stroke-opacity:1"
           d="m 100.14536,1007.0802 c -0.642794,-3.7041 -1.241284,-6.7622 -2.904034,-6.3665 -1.717655,0.409 -2.63858,3.0802 -2.473208,6.85 0.367277,8.3732 1.396341,9.679 3.138248,9.5192 1.71144,-0.1566 2.119304,-2.0341 2.05922,-5.3072"
           id="path4230"
           inkscape:connector-curvature="0"
           sodipodi:nodetypes="csssc" />
        <path
           id="path4234"
           style="fill:none;fill-rule:evenodd;stroke:#000000;stroke-width:1.65528738px;stroke-linecap:butt;stroke-linejoin:round;stroke-opacity:1"
           d="m 106.92763,998.20895 -4.07086,10.35785 6.12666,4.2299 m -8.00753,-13.81125 2.31736,17.00235"
           inkscape:connector-curvature="0" />
        <path
           style="fill:none;fill-rule:evenodd;stroke:#000000;stroke-width:1.65528738px;stroke-linecap:butt;stroke-linejoin:round;stroke-opacity:1"
           d="m 111.14936,1012.0154 -1.6887,-15.56475 c 2.62754,-2.0206 4.54124,-0.8949 5.24964,2.2792 0.4626,2.07295 -1.77629,4.49615 -3.77245,5.98555 2.53316,-1.6976 5.08647,-1.5066 5.68141,2.0248 0.79342,4.7099 -3.30741,4.72 -5.4699,5.2752 z"
           id="path4236"
           inkscape:connector-curvature="0"
           sodipodi:nodetypes="ccscsc" />
        <path
           style="fill:none;fill-rule:evenodd;stroke:#000000;stroke-width:1.65528738px;stroke-linecap:butt;stroke-linejoin:round;stroke-opacity:1"
           d="m 119.37256,1009.4103 0.18355,-18.23475 8.44347,12.89455"
           id="path4238"
           inkscape:connector-curvature="0" />
        <path
           style="fill:none;fill-rule:evenodd;stroke:#000000;stroke-width:1.65528738px;stroke-linecap:butt;stroke-linejoin:round;stroke-opacity:1"
           d="m 119.70296,1001.9863 4.44199,-3.90765"
           id="path4240"
           inkscape:connector-curvature="0" />
        <path
           style="fill:none;fill-rule:evenodd;stroke:#000000;stroke-width:1.65528738px;stroke-linecap:butt;stroke-linejoin:round;stroke-opacity:1"
           d="m 124.79817,991.77145 6.02057,-2.8003"
           id="path4242"
           inkscape:connector-curvature="0" />
        <path
           style="fill:none;fill-rule:evenodd;stroke:#000000;stroke-width:1.65528738px;stroke-linecap:butt;stroke-linejoin:round;stroke-opacity:1"
           d="m 127.88187,989.94805 3.23055,14.78325"
           id="path4244"
           inkscape:connector-curvature="0" />
        <path
           style="fill:none;fill-rule:evenodd;stroke:#000000;stroke-width:1.65528738px;stroke-linecap:butt;stroke-linejoin:round;stroke-opacity:1"
           d="m 137.50009,988.84095 c -1.08072,-1.14729 -1.24622,-3.88092 -3.92805,-2.1491 -1.83433,1.18454 -2.70843,6.359 -0.84435,7.6194 1.85178,1.2523 4.21289,-1.9836 5.35977,0.2606 1.46737,2.8714 0.30905,7.13195 -0.25698,7.48935 -2.14195,1.3517 -3.56613,0.4769 -5.06607,-2.80045"
           id="path4246"
           inkscape:connector-curvature="0"
           sodipodi:nodetypes="cssssc" />
      </g>
      <path
         sodipodi:nodetypes="cscccccccccccccccccccccccccccsccsccccsc"
         inkscape:connector-curvature="0"
         id="path5869"
         d="m 80.142222,929.12159 c -1.960503,0.0199 -3.926129,0.40383 -5.738344,0.96335 -2.976783,0.91908 -4.889681,2.69982 -6.054847,4.82483 l -1.067462,-3.31072 -6.54238,0 -9.813571,3.38185 -6.54238,0 0.233937,1.20926 -20.950163,6.42229 -8.551489,0.94911 -11.4648927,4.16025 9.8135707,37.20043 17.765472,-7.59698 c 2.418903,-1.03461 5.721676,-4.01666 7.653091,-7.47097 l 0.05897,0.17884 -0.151371,0.063 6.91786,14.30176 7.513514,14.48874 16.666557,-5.99751 c 3.757705,-2.06572 5.955399,-4.55097 6.921791,-7.0381 l 0.619246,-0.30891 -0.180859,-1.23365 14.830443,-4.7659 3.485469,-2.12585 0.823695,1.42062 5.535861,-1.24584 6.84905,-2.59127 9.81357,0 -0.34205,-1.61979 c 4.43949,3.21079 10.03029,2.99399 15.16463,2.47948 6.87709,-0.68916 9.07588,-16.84449 5.01688,-23.06736 l -4.82618,-5.98124 c -3.49931,-7.99147 -8.58979,-10.96005 -18.25301,-4.5525 -1.49208,0.98938 -2.58702,2.11035 -3.39897,3.32292 l -9.41253,3.24364 -8.070902,1.70671 -3.17972,-14.30737 c -2.545014,-5.43493 -6.829384,-7.14684 -11.142491,-7.10313 z"
         style="fill:none;fill-opacity:1;fill-rule:evenodd;stroke:#000000;stroke-width:1.33042538px;stroke-linecap:butt;stroke-linejoin:round;stroke-opacity:1" />
    </g>
    <flowRoot
       xml:space="preserve"
       id="flowRoot4361"
       style="font-style:normal;font-weight:normal;font-size:40px;line-height:125%;font-family:sans-serif;letter-spacing:0px;word-spacing:0px;fill:#000000;fill-opacity:1;stroke:none;stroke-width:1px;stroke-linecap:butt;stroke-linejoin:miter;stroke-opacity:1"
       transform="translate(-6.2528257,25.011302)"><flowRegion
         id="flowRegion4363"><rect
           id="rect4365"
           width="513.04346"
           height="128.26086"
           x="95.279503"
           y="880.12616" /></flowRegion><flowPara
         id="flowPara4367"
         style="font-style:normal;font-variant:normal;font-weight:normal;font-stretch:normal;font-size:80px;font-family:Highbush;-inkscape-font-specification:Highbush">Rex's Berry Patch</flowPara></flowRoot>    <rect
       style="color:#000000;clip-rule:nonzero;display:inline;overflow:visible;visibility:visible;opacity:1;isolation:auto;mix-blend-mode:normal;color-interpolation:sRGB;color-interpolation-filters:linearRGB;solid-color:#000000;solid-opacity:1;fill:none;fill-opacity:1;fill-rule:nonzero;stroke:#000000;stroke-width:1.14752245;stroke-linecap:butt;stroke-linejoin:round;stroke-miterlimit:4;stroke-dasharray:none;stroke-dashoffset:0;stroke-opacity:1;color-rendering:auto;image-rendering:auto;shape-rendering:auto;text-rendering:auto;enable-background:accumulate"
       id="rect4371"
       width="675.15759"
       height="293.73526"
       x="35.506435"
       y="270.83282" />
    <text
       xml:space="preserve"
       style="font-style:normal;font-weight:normal;font-size:40px;line-height:125%;font-family:sans-serif;letter-spacing:0px;word-spacing:0px;fill:#000000;fill-opacity:1;stroke:none;stroke-width:1px;stroke-linecap:butt;stroke-linejoin:miter;stroke-opacity:1"
       x="64.635315"
       y="883.646"
       id="text4140-5"
       sodipodi:linespacing="125%"><tspan
         sodipodi:role="line"
         id="tspan4142-0"
         x="64.635315"
         y="883.646"
         style="font-style:normal;font-variant:normal;font-weight:normal;font-stretch:normal;font-family:'Romande ADF Std';-inkscape-font-specification:'Romande ADF Std'">at</tspan><tspan
         sodipodi:role="line"
         x="64.635315"
         y="933.646"
         style="font-style:normal;font-variant:normal;font-weight:normal;font-stretch:normal;font-family:'Romande ADF Std';-inkscape-font-specification:'Romande ADF Std'"
         id="tspan4393" /></text>
  </g>
</svg>
