<?xml version="1.0" encoding="UTF-8" standalone="no"?>
<!-- Created with Inkscape (http://www.inkscape.org/) -->

<svg
   xmlns:dc="http://purl.org/dc/elements/1.1/"
   xmlns:cc="http://creativecommons.org/ns#"
   xmlns:rdf="http://www.w3.org/1999/02/22-rdf-syntax-ns#"
   xmlns:svg="http://www.w3.org/2000/svg"
   xmlns="http://www.w3.org/2000/svg"
   xmlns:sodipodi="http://sodipodi.sourceforge.net/DTD/sodipodi-0.dtd"
   xmlns:inkscape="http://www.inkscape.org/namespaces/inkscape"
   width="8.5in"
   height="11in"
   id="svg2"
   version="1.1"
   inkscape:version="0.91 r"
   sodipodi:docname="BingBangAndTheBrickbats-Poster-Solo.svg"
   inkscape:export-filename="/home/grh/Sites/BlueberryEmpire/BlueberryEmpire/Games/BingBangAndTheBrickbats/BingBangAndTheBrickbats-Poster-Solo.png"
   inkscape:export-xdpi="1000"
   inkscape:export-ydpi="1000">
  <defs
     id="defs4" />
  <sodipodi:namedview
     id="base"
     pagecolor="#ffffff"
     bordercolor="#666666"
     borderopacity="1.0"
     inkscape:pageopacity="0"
     inkscape:pageshadow="2"
     inkscape:zoom="0.48473837"
     inkscape:cx="593.00942"
     inkscape:cy="503.78545"
     inkscape:document-units="px"
     inkscape:current-layer="layer1"
     showgrid="true"
     width="800px"
     inkscape:window-width="1600"
     inkscape:window-height="848"
     inkscape:window-x="0"
     inkscape:window-y="0"
     inkscape:window-maximized="1"
     showguides="true"
     inkscape:guide-bbox="true"
     units="in"
     fit-margin-top="0"
     fit-margin-left="0"
     fit-margin-right="0"
     fit-margin-bottom="0"
     inkscape:object-paths="true"
     inkscape:snap-intersection-paths="true"
     inkscape:object-nodes="true"
     inkscape:snap-smooth-nodes="true"
     inkscape:snap-nodes="true"
     inkscape:snap-global="false">
    <inkscape:grid
       type="xygrid"
       id="grid2984"
       empspacing="5"
       visible="true"
       enabled="true"
       snapvisiblegridlinesonly="true"
       spacingx="0.5px"
       spacingy="0.5px"
       originx="-3.9022017"
       originy="-36.547091" />
  </sodipodi:namedview>
  <metadata
     id="metadata7">
    <rdf:RDF>
      <cc:Work
         rdf:about="">
        <dc:format>image/svg+xml</dc:format>
        <dc:type
           rdf:resource="http://purl.org/dc/dcmitype/StillImage" />
        <dc:title />
      </cc:Work>
    </rdf:RDF>
  </metadata>
  <g
     inkscape:label="Layer 1"
     inkscape:groupmode="layer"
     id="layer1"
     transform="translate(-3.9022017,-25.814884)">
    <g
       id="g4235"
       transform="matrix(5.2296375,0,0,5.2296375,10.849385,-4797.0608)">
      <path
         transform="translate(6.4182207,929.58091)"
         inkscape:connector-curvature="0"
         id="path4154"
         d="m 37.548828,10.078125 -17.0625,5.058594 3.134766,4.751953 4.917968,-1.673828 5.683594,12.853515 -3.101562,1.320313 1.238281,3.597656 10.166016,-4.232422 -0.826172,-2.914062 -3.324219,1.404297 -4.753906,-12.855469 5.248047,-1.814453 -1.320313,-5.496094 z"
         style="fill:#000000;fill-opacity:1;fill-rule:evenodd;stroke:#000000;stroke-width:1px;stroke-linecap:butt;stroke-linejoin:round;stroke-opacity:1" />
      <path
         transform="translate(6.4182207,929.58091)"
         sodipodi:nodetypes="ccccscscssccsssccs"
         inkscape:connector-curvature="0"
         id="path4297"
         d="m 10.275391,18.232422 -8.7617191,3.076172 7.5,27.5 13.5781251,-5.617188 c 3.356388,-1.38861 8.958585,-7.511902 6.421875,-11.882812 -2.502858,-4.31258 -8.951452,-4.01552 -12.5,-2.5 2.883716,-2.15827 4.069023,-4.20046 2.5,-7.5 -1.452758,-3.055043 -3.772178,-3.723882 -8.738281,-3.076172 z m 1.708984,4.308594 c 0.922077,0.05082 1.652323,0.402205 2.029297,1.267578 1.765436,4.05269 -2.87241,3.74003 -5.0000001,5 l -2.5,-5 c 1.8632675,-0.601538 3.9339071,-1.352279 5.4707031,-1.267578 z m 7.072266,9.949218 c 1.049596,6.21e-4 1.928008,0.384003 2.457031,1.31836 1.741953,3.07662 -4.181865,6.47264 -7.5,7.5 l -2.5,-5 c 2.093175,-1.962359 5.233858,-3.819725 7.542969,-3.81836 z"
         style="fill:#000000;fill-opacity:1;fill-rule:evenodd;stroke:#000000;stroke-width:1px;stroke-linecap:butt;stroke-linejoin:round;stroke-opacity:1" />
      <path
         sodipodi:nodetypes="ccccccccccc"
         inkscape:connector-curvature="0"
         id="path4162"
         d="m 52.930979,963.39037 -5,-25 5,0 12.5,12.5 -5,-15 5,0 7.5,22.5 -7.5,2.5 -12.5,-15 c 0,0 7.5,12.5 7.5,15 z"
         style="fill:#000000;fill-opacity:1;fill-rule:evenodd;stroke:#000000;stroke-width:1px;stroke-linecap:butt;stroke-linejoin:round;stroke-opacity:1" />
      <path
         sodipodi:nodetypes="csssccccssscc"
         inkscape:connector-curvature="0"
         id="path4164"
         d="m 88.451154,938.14412 c -2.829122,-5.84393 -8.469332,-5.86231 -12.901272,-4.53873 -6.434202,1.92155 -6.461814,8.89947 -5,12.5 2.233348,5.50087 6.851105,11.32048 12.5,10 7.646989,-1.78755 10.977217,-8.62773 6.715872,-14.14667 l -9.215872,1.64667 0.555741,2.76276 4.737704,10e-4 c 0.01654,2.43321 -0.534493,4.05239 -2.793445,4.31266 -3.440737,0.39643 -7.001961,-2.37834 -8.074094,-5.05032 -1.462187,-3.64407 -1.089732,-8.67101 2.217604,-10.11681 2.459685,-1.07525 5.539469,0.96444 7.434713,3.91143 z"
         style="fill:#000000;fill-opacity:1;fill-rule:evenodd;stroke:#000000;stroke-width:1px;stroke-linecap:butt;stroke-linejoin:round;stroke-opacity:1" />
      <path
         transform="translate(6.4182207,929.58091)"
         inkscape:connector-curvature="0"
         id="path4170"
         d="m 102.62695,19.191406 -7.499997,2.5 4.999997,12.5 -12.499997,-10 -7.5,2.5 10.302735,17.185547 4.230468,-0.919922 -2.033203,-6.265625 7.267578,4.34961 7.499999,0 -4.76758,-21.84961 z"
         style="fill:#000000;fill-opacity:1;fill-rule:evenodd;stroke:#000000;stroke-width:1px;stroke-linecap:butt;stroke-linejoin:round;stroke-opacity:1" />
      <path
         transform="translate(6.4182207,929.58091)"
         inkscape:connector-curvature="0"
         id="path4290"
         d="m 52.064453,35.878906 c -0.844571,0.0062 -1.817492,0.200045 -2.933594,0.646485 l -12.5,5 5.28711,10.572265 5.742187,10.710938 L 60.398438,58.375 c 6.714316,-3.57028 6.953286,-8.836419 3.732421,-11.849609 -2.237635,-2.09336 -5.863692,-1.80669 -10,0 2.019079,-2.3922 3.695265,-4.73491 2.5,-7.5 -0.651102,-1.50624 -2.032693,-3.165182 -4.566406,-3.146485 z m -4.984375,5.810547 c 1.30012,0.04903 2.365284,0.48976 2.59375,1.462891 0.474354,2.02047 -0.761106,4.3743 -5,5 l -2.5,-5 c 1.174272,-0.940765 3.234667,-1.525923 4.90625,-1.462891 z m 7.910156,8.625 c 0.945353,-0.02178 1.787475,0.431515 2.466797,1.623047 1.417714,2.48668 -2.734884,4.214296 -6.517578,4.416016 l -1.265625,-3.201172 c 1.877282,-1.448063 3.740818,-2.801586 5.316406,-2.837891 z"
         style="fill:#000000;fill-opacity:1;fill-rule:evenodd;stroke:#000000;stroke-width:1px;stroke-linecap:butt;stroke-linejoin:round;stroke-opacity:1" />
      <g
         transform="matrix(0.81568027,0.15525832,-0.20914654,1.0987927,226.42521,-122.17593)"
         id="g5885">
        <path
           style="fill:none;fill-rule:evenodd;stroke:#000000;stroke-width:1px;stroke-linecap:butt;stroke-linejoin:round;stroke-opacity:1"
           d="m 103.78366,990.24808 1.72556,7.2988"
           id="path4180"
           inkscape:connector-curvature="0" />
        <path
           style="fill:none;fill-rule:evenodd;stroke:#000000;stroke-width:1px;stroke-linecap:butt;stroke-linejoin:round;stroke-opacity:1"
           d="m 101.46577,991.30985 4.86586,-1.15037"
           id="path4182"
           inkscape:connector-curvature="0"
           sodipodi:nodetypes="cc" />
        <path
           style="fill:none;fill-rule:evenodd;stroke:#000000;stroke-width:1px;stroke-linecap:butt;stroke-linejoin:round;stroke-opacity:1"
           d="m 107.67636,989.32779 1.72555,7.2988"
           id="path4184"
           inkscape:connector-curvature="0" />
        <path
           style="fill:none;fill-rule:evenodd;stroke:#000000;stroke-width:1px;stroke-linecap:butt;stroke-linejoin:round;stroke-opacity:1"
           d="m 108.9682,992.61886 4.86587,-1.15037"
           id="path4186"
           inkscape:connector-curvature="0" />
        <path
           style="fill:none;fill-rule:evenodd;stroke:#000000;stroke-width:1px;stroke-linecap:butt;stroke-linejoin:round;stroke-opacity:1"
           d="m 112.54222,988.17742 1.72555,7.2988"
           id="path4188"
           inkscape:connector-curvature="0" />
        <path
           style="fill:none;fill-rule:evenodd;stroke:#000000;stroke-width:1px;stroke-linecap:butt;stroke-linejoin:round;stroke-opacity:1"
           d="m 119.92324,986.48527 -4.96956,1.41244 1.77347,4.94194 4.86586,-1.15037"
           id="path4198"
           inkscape:connector-curvature="0"
           sodipodi:nodetypes="cccc" />
        <path
           style="fill:none;fill-rule:evenodd;stroke:#000000;stroke-width:1px;stroke-linecap:butt;stroke-linejoin:round;stroke-opacity:1"
           d="m 120.90279,988.76976 -4.86586,1.15037"
           id="path4202"
           inkscape:connector-curvature="0" />
        <path
           style="fill:none;fill-rule:evenodd;stroke:#000000;stroke-width:1px;stroke-linecap:butt;stroke-linejoin:round;stroke-opacity:1"
           d="m 86.757023,1002.3102 -2.246198,-5.96172 6.016233,3.71552 -2.34582,-5.56323"
           id="path4206"
           inkscape:connector-curvature="0"
           sodipodi:nodetypes="cccc" />
        <path
           style="fill:none;fill-rule:evenodd;stroke:#000000;stroke-width:1px;stroke-linecap:butt;stroke-linejoin:round;stroke-opacity:1"
           d="m 91.809624,994.62293 1.150368,4.86587 c 2.42068,-0.62846 5.517348,-0.95638 4.290682,-3.5833 -0.979203,-2.09698 -2.786225,-2.67752 -5.44105,-1.28257 z"
           id="path4210"
           inkscape:connector-curvature="0"
           sodipodi:nodetypes="ccsc" />
        <path
           id="path4212"
           style="fill:none;fill-rule:evenodd;stroke:#000000;stroke-width:1px;stroke-linecap:butt;stroke-linejoin:round;stroke-opacity:1"
           d="m 80.508034,1000.1136 1.946346,-0.46011 m -2.750711,3.43511 1.225512,-6.04505 3.423903,4.76695"
           inkscape:connector-curvature="0" />
      </g>
      <path
         transform="translate(6.4182207,929.58091)"
         inkscape:connector-curvature="0"
         id="path5792"
         d="m 69.960938,29.025391 -5,2.5 2.49414,21.662109 4.435547,-2.144531 -1.099609,-7.292969 5.941406,-2.238281 6.353516,5.095703 4.375,-2.582031 -17.5,-15 z m -0.119141,7.283203 5,2.5 -5,2.335937 0,-4.835937 z"
         style="fill:#000000;fill-opacity:1;fill-rule:evenodd;stroke:#000000;stroke-width:1px;stroke-linecap:butt;stroke-linejoin:round;stroke-opacity:1" />
      <path
         sodipodi:nodetypes="csssccccssscc"
         inkscape:connector-curvature="0"
         d="m 130.90377,948.74856 c -2.67433,-5.9076 -6.5645,-8.10275 -13.9496,-3.36604 -5.32888,3.41788 -4.34011,8.86982 -3.03449,14.18302 2.78216,11.32194 10.29735,11.29053 16.83904,10.65644 5.2558,-0.50945 6.93497,-12.45155 3.83289,-17.05174 l -8.83289,2.05174 0,5 6.40054,-2.33423 c 1.53234,1.66667 -0.96614,6.74281 -3.90054,7.33423 -4.31239,0.86915 -8.04665,-0.96879 -10,-7.5 -0.72089,-2.41037 -1.7211,-5.54616 1.98409,-8.31698 2.32443,-1.73826 5.0051,-1.68407 6.96551,1.09946 z"
         style="fill:#000000;fill-opacity:1;fill-rule:evenodd;stroke:#000000;stroke-width:1px;stroke-linecap:butt;stroke-linejoin:round;stroke-opacity:1"
         id="path4218" />
      <g
         transform="matrix(0.99149364,0.13015517,-0.13015517,0.99149364,126.56955,-7.1547279)"
         id="g5897">
        <path
           style="fill:none;fill-rule:evenodd;stroke:#000000;stroke-width:1.65528738px;stroke-linecap:butt;stroke-linejoin:round;stroke-opacity:1"
           d="m 72.450651,1003.6894 0.47724,17.6485 c 2.507821,-0.3521 5.206983,-0.6061 5.654026,-3.884 0.478571,-3.509 -0.700171,-5.9255 -5.402175,-4.5372 3.138563,-0.7088 4.937908,-3.5452 4.667385,-5.2547 -0.901465,-5.6971 -5.396476,-3.9726 -5.396476,-3.9726 z"
           id="path4224"
           inkscape:connector-curvature="0"
           sodipodi:nodetypes="ccsccc" />
        <path
           style="fill:none;fill-rule:evenodd;stroke:#000000;stroke-width:1.65528738px;stroke-linecap:butt;stroke-linejoin:round;stroke-opacity:1"
           d="m 82.294739,1019.6348 -1.138033,-16.6716 c 1.538373,-2.2969 5.369116,-1.5543 5.506608,3.1258 0.05171,1.7602 0.03123,3.7358 -4.15579,5.4724 l 6.68883,7.7478"
           id="path4226"
           inkscape:connector-curvature="0"
           sodipodi:nodetypes="ccscc" />
        <path
           style="fill:none;fill-rule:evenodd;stroke:#000000;stroke-width:1.65528738px;stroke-linecap:butt;stroke-linejoin:round;stroke-opacity:1"
           d="m 91.288865,1002.3769 1.174742,15.695"
           id="path4228"
           inkscape:connector-curvature="0" />
        <path
           style="fill:none;fill-rule:evenodd;stroke:#000000;stroke-width:1.65528738px;stroke-linecap:butt;stroke-linejoin:round;stroke-opacity:1"
           d="m 100.14536,1007.0802 c -0.642794,-3.7041 -1.241284,-6.7622 -2.904034,-6.3665 -1.717655,0.409 -2.63858,3.0802 -2.473208,6.85 0.367277,8.3732 1.396341,9.679 3.138248,9.5192 1.71144,-0.1566 2.119304,-2.0341 2.05922,-5.3072"
           id="path4230"
           inkscape:connector-curvature="0"
           sodipodi:nodetypes="csssc" />
        <path
           id="path4234"
           style="fill:none;fill-rule:evenodd;stroke:#000000;stroke-width:1.65528738px;stroke-linecap:butt;stroke-linejoin:round;stroke-opacity:1"
           d="m 106.92763,998.20895 -4.07086,10.35785 6.12666,4.2299 m -8.00753,-13.81125 2.31736,17.00235"
           inkscape:connector-curvature="0" />
        <path
           style="fill:none;fill-rule:evenodd;stroke:#000000;stroke-width:1.65528738px;stroke-linecap:butt;stroke-linejoin:round;stroke-opacity:1"
           d="m 111.14936,1012.0154 -1.6887,-15.56475 c 2.62754,-2.0206 4.54124,-0.8949 5.24964,2.2792 0.4626,2.07295 -1.77629,4.49615 -3.77245,5.98555 2.53316,-1.6976 5.08647,-1.5066 5.68141,2.0248 0.79342,4.7099 -3.30741,4.72 -5.4699,5.2752 z"
           id="path4236"
           inkscape:connector-curvature="0"
           sodipodi:nodetypes="ccscsc" />
        <path
           style="fill:none;fill-rule:evenodd;stroke:#000000;stroke-width:1.65528738px;stroke-linecap:butt;stroke-linejoin:round;stroke-opacity:1"
           d="m 119.37256,1009.4103 0.18355,-18.23475 8.44347,12.89455"
           id="path4238"
           inkscape:connector-curvature="0" />
        <path
           style="fill:none;fill-rule:evenodd;stroke:#000000;stroke-width:1.65528738px;stroke-linecap:butt;stroke-linejoin:round;stroke-opacity:1"
           d="m 119.70296,1001.9863 4.44199,-3.90765"
           id="path4240"
           inkscape:connector-curvature="0" />
        <path
           style="fill:none;fill-rule:evenodd;stroke:#000000;stroke-width:1.65528738px;stroke-linecap:butt;stroke-linejoin:round;stroke-opacity:1"
           d="m 124.79817,991.77145 6.02057,-2.8003"
           id="path4242"
           inkscape:connector-curvature="0" />
        <path
           style="fill:none;fill-rule:evenodd;stroke:#000000;stroke-width:1.65528738px;stroke-linecap:butt;stroke-linejoin:round;stroke-opacity:1"
           d="m 127.88187,989.94805 3.23055,14.78325"
           id="path4244"
           inkscape:connector-curvature="0" />
        <path
           style="fill:none;fill-rule:evenodd;stroke:#000000;stroke-width:1.65528738px;stroke-linecap:butt;stroke-linejoin:round;stroke-opacity:1"
           d="m 137.50009,988.84095 c -1.08072,-1.14729 -1.24622,-3.88092 -3.92805,-2.1491 -1.83433,1.18454 -2.70843,6.359 -0.84435,7.6194 1.85178,1.2523 4.21289,-1.9836 5.35977,0.2606 1.46737,2.8714 0.30905,7.13195 -0.25698,7.48935 -2.14195,1.3517 -3.56613,0.4769 -5.06607,-2.80045"
           id="path4246"
           inkscape:connector-curvature="0"
           sodipodi:nodetypes="cssssc" />
      </g>
      <path
         sodipodi:nodetypes="cscccccccccccccccccccccccccccsccsccccsc"
         inkscape:connector-curvature="0"
         id="path5869"
         d="m 80.142222,929.12159 c -1.960503,0.0199 -3.926129,0.40383 -5.738344,0.96335 -2.976783,0.91908 -4.889681,2.69982 -6.054847,4.82483 l -1.067462,-3.31072 -6.54238,0 -9.813571,3.38185 -6.54238,0 0.233937,1.20926 -20.950163,6.42229 -8.551489,0.94911 -11.4648927,4.16025 9.8135707,37.20043 17.765472,-7.59698 c 2.418903,-1.03461 5.721676,-4.01666 7.653091,-7.47097 l 0.05897,0.17884 -0.151371,0.063 6.91786,14.30176 7.513514,14.48874 16.666557,-5.99751 c 3.757705,-2.06572 5.955399,-4.55097 6.921791,-7.0381 l 0.619246,-0.30891 -0.180859,-1.23365 14.830443,-4.7659 3.485469,-2.12585 0.823695,1.42062 5.535861,-1.24584 6.84905,-2.59127 9.81357,0 -0.34205,-1.61979 c 4.43949,3.21079 10.03029,2.99399 15.16463,2.47948 6.87709,-0.68916 9.07588,-16.84449 5.01688,-23.06736 l -4.82618,-5.98124 c -3.49931,-7.99147 -8.58979,-10.96005 -18.25301,-4.5525 -1.49208,0.98938 -2.58702,2.11035 -3.39897,3.32292 l -9.41253,3.24364 -8.070902,1.70671 -3.17972,-14.30737 c -2.545014,-5.43493 -6.829384,-7.14684 -11.142491,-7.10313 z"
         style="fill:none;fill-opacity:1;fill-rule:evenodd;stroke:#000000;stroke-width:1.33042538px;stroke-linecap:butt;stroke-linejoin:round;stroke-opacity:1" />
    </g>
    <path
       style="color:#000000;font-style:normal;font-variant:normal;font-weight:normal;font-stretch:normal;font-size:medium;line-height:normal;font-family:sans-serif;text-indent:0;text-align:start;text-decoration:none;text-decoration-line:none;text-decoration-style:solid;text-decoration-color:#000000;letter-spacing:normal;word-spacing:normal;text-transform:none;direction:ltr;block-progression:tb;writing-mode:lr-tb;baseline-shift:baseline;text-anchor:start;white-space:normal;clip-rule:nonzero;display:inline;overflow:visible;visibility:visible;opacity:1;isolation:auto;mix-blend-mode:normal;color-interpolation:sRGB;color-interpolation-filters:linearRGB;solid-color:#000000;solid-opacity:1;fill:#000000;fill-opacity:1;fill-rule:nonzero;stroke:none;stroke-width:7.24451923;stroke-linecap:round;stroke-linejoin:round;stroke-miterlimit:4;stroke-dasharray:none;stroke-dashoffset:0;stroke-opacity:1;color-rendering:auto;image-rendering:auto;shape-rendering:auto;text-rendering:auto;enable-background:accumulate"
       d="m 222.57666,375.03195 c -0.006,-0.0133 -0.0112,-0.0266 -0.0171,-0.0398 -0.004,-0.0104 -0.008,-0.0208 -0.0122,-0.0312 -0.0101,-0.022 -0.0209,-0.0437 -0.0317,-0.0654 -0.0217,-0.048 -0.0442,-0.0956 -0.069,-0.14212 -0.0159,-0.0289 -0.0327,-0.0571 -0.0498,-0.0853 -0.0256,-0.0442 -0.0525,-0.0875 -0.0807,-0.13003 -0.0222,-0.0324 -0.0452,-0.0644 -0.0688,-0.0958 -0.0267,-0.0369 -0.0542,-0.073 -0.0827,-0.10834 -0.0346,-0.0419 -0.0704,-0.0828 -0.10767,-0.12251 -0.0163,-0.0183 -0.0328,-0.0363 -0.0495,-0.054 -0.0424,-0.0422 -0.0862,-0.083 -0.13148,-0.12219 -0.0236,-0.021 -0.0475,-0.0415 -0.0719,-0.0616 -0.0356,-0.0288 -0.0718,-0.0564 -0.10877,-0.0832 -0.034,-0.0256 -0.0687,-0.0506 -0.10395,-0.0746 -0.0385,-0.0246 -0.0777,-0.0482 -0.11742,-0.0709 -0.0317,-0.019 -0.0637,-0.0374 -0.0964,-0.0551 -0.05,-0.0261 -0.1011,-0.0506 -0.15283,-0.0734 -0.0247,-0.0116 -0.0495,-0.0229 -0.0745,-0.0337 -0.0488,-0.0196 -0.0984,-0.0377 -0.14835,-0.0543 -0.0358,-0.0127 -0.0718,-0.0245 -0.10813,-0.0356 -0.0727,-0.0218 -0.14639,-0.0405 -0.22077,-0.056 l -70.95098,-14.10135 c -0.48799,-0.0967 -0.9935,-0.0504 -1.45585,0.13316 l -101.193581,40.0722 c -1.970984,0.78102 -2.215057,3.47218 -0.416717,4.59502 l 87.814128,220.80005 55.84648,62.63493 131.47571,-51.33684 c 1.3299,-0.5191 1.98703,-2.01814 1.46761,-3.34792 z m -3.87408,4.28756 L 317.50571,632.3582 190.84424,681.81528 92.041109,428.77657 Z M 210.99092,376.78242 88.96197,424.43065 53.73834,402.4596 149.4607,364.55368 Z m 54.50123,222.17265 c -6.20815,-15.89933 -24.22334,-23.79657 -40.12267,-17.58843 -15.89935,6.20816 -23.79658,24.22335 -17.58842,40.12268 6.20816,15.89935 24.22333,23.79659 40.12266,17.58843 15.89935,-6.20816 23.7966,-24.22334 17.58843,-40.12268 z M 205.13492,447.45032 c -6.20816,-15.89934 -24.22334,-23.79659 -40.12267,-17.58843 -15.89935,6.20816 -23.79659,24.22334 -17.58843,40.12269 6.20817,15.89932 24.22334,23.79657 40.12268,17.58842 15.89934,-6.20816 23.79658,-24.22334 17.58842,-40.12268 z m 29.19955,76.11822 c -6.20816,-15.89935 -24.22334,-23.79659 -40.12267,-17.58843 -15.89935,6.20815 -23.79659,24.22334 -17.58843,40.12267 6.20817,15.89935 24.22334,23.79659 40.12268,17.58843 15.89934,-6.20816 23.79658,-24.22334 17.58842,-40.12267 z m 24.8923,77.83295 c 4.88612,12.5135 -1.25597,26.52477 -13.76947,31.41088 -8.33926,3.2562 -17.34087,1.60962 -23.86682,-3.55139 0.7024,-0.21192 1.40278,-0.44303 2.09797,-0.71447 14.20642,-5.54713 21.22517,-21.56076 15.67804,-35.76719 -0.97518,-2.49747 -2.27827,-4.76772 -3.8337,-6.79175 10.10896,-0.47859 19.79978,5.44071 23.69398,15.41392 z M 198.86954,449.89674 c 4.8861,12.5135 -1.25597,26.52477 -13.76947,31.41087 -8.52624,3.32921 -17.74489,1.5353 -24.30149,-3.90222 0.84982,-0.2412 1.69708,-0.51158 2.53683,-0.83947 14.20641,-5.54713 21.22697,-21.55996 15.67984,-35.76638 -0.90199,-2.31001 -2.08496,-4.42766 -3.48762,-6.33452 9.98131,-0.3259 19.49295,5.5744 23.34191,15.43172 z m 29.19955,76.11822 c 4.8861,12.5135 -1.25597,26.52476 -13.76946,31.41087 -8.2986,3.24033 -17.25348,1.62675 -23.77121,-3.47504 0.76975,-0.22588 1.53722,-0.47458 2.29848,-0.77182 14.20642,-5.54713 21.22568,-21.55946 15.67855,-35.76588 -0.98024,-2.51042 -2.29341,-4.79164 -3.85958,-6.82354 10.01096,-0.36125 19.56376,5.54117 23.42322,15.42541 z"
       id="rect4271"
       inkscape:connector-curvature="0"
       sodipodi:nodetypes="cccccccccccccccccccccccccccccccccccccccccssssssssssssssssscsscssscsscssscsscs" />
    <path
       style="fill:none;fill-rule:evenodd;stroke:#000000;stroke-width:12.04647827;stroke-linecap:round;stroke-linejoin:round;stroke-miterlimit:4;stroke-dasharray:none;stroke-opacity:1"
       d="m 453.04625,551.88698 -71.14515,2.90387 2.90393,111.79953"
       id="path4408"
       inkscape:connector-curvature="0"
       sodipodi:nodetypes="ccc" />
    <path
       style="fill:none;fill-rule:evenodd;stroke:#000000;stroke-width:12.04647827;stroke-linecap:round;stroke-linejoin:round;stroke-miterlimit:4;stroke-dasharray:none;stroke-opacity:1"
       d="m 384.80503,605.60881 52.26985,-1.45194"
       id="path4410"
       inkscape:connector-curvature="0"
       sodipodi:nodetypes="cc" />
    <path
       style="fill:none;fill-rule:evenodd;stroke:#000000;stroke-width:12.04647827;stroke-linecap:round;stroke-linejoin:round;stroke-miterlimit:4;stroke-dasharray:none;stroke-opacity:1"
       d="m 454.49818,657.87872 -1.45193,-62.4335"
       id="path4412"
       inkscape:connector-curvature="0"
       sodipodi:nodetypes="cc" />
    <path
       style="fill:none;fill-rule:evenodd;stroke:#000000;stroke-width:12.04647827;stroke-linecap:round;stroke-linejoin:round;stroke-miterlimit:4;stroke-dasharray:none;stroke-opacity:1"
       d="m 453.83047,607.4218 c 13.42916,-12.11322 25.79295,-9.3121 37.76989,-1.09478"
       id="path4416"
       inkscape:connector-curvature="0"
       sodipodi:nodetypes="cc" />
    <path
       style="fill:none;fill-rule:evenodd;stroke:#000000;stroke-width:12.04647827;stroke-linecap:round;stroke-linejoin:round;stroke-miterlimit:4;stroke-dasharray:none;stroke-opacity:1"
       d="m 517.32767,601.94791 2.73696,54.73898"
       id="path4418"
       inkscape:connector-curvature="0"
       sodipodi:nodetypes="cc" />
    <path
       style="fill:none;fill-rule:evenodd;stroke:#000000;stroke-width:12.04647827;stroke-linecap:round;stroke-linejoin:round;stroke-miterlimit:4;stroke-dasharray:none;stroke-opacity:1"
       d="m 584.1092,609.61136 c -4.37784,-6.3887 -9.6913,-12.18416 -16.96909,-11.49519 -16.29129,1.54227 -23.88659,15.29983 -22.99039,31.20122 0.68837,12.21252 4.63375,22.207 26.82215,21.89558 10.85364,-0.15233 15.1928,-11.04558 19.1586,-20.25341"
       id="path4420"
       inkscape:connector-curvature="0"
       sodipodi:nodetypes="csssc" />
    <path
       style="fill:none;fill-rule:evenodd;stroke:#000000;stroke-width:12.04647827;stroke-linecap:round;stroke-linejoin:round;stroke-miterlimit:4;stroke-dasharray:none;stroke-opacity:1"
       d="M 592.32006,650.1182 578.08794,552.68284"
       id="path4422"
       inkscape:connector-curvature="0"
       sodipodi:nodetypes="cc" />
    <path
       style="fill:none;fill-rule:evenodd;stroke:#000000;stroke-width:12.04647827;stroke-linecap:round;stroke-linejoin:round;stroke-miterlimit:4;stroke-dasharray:none;stroke-opacity:1"
       d="m 607.64699,605.77963 c 5.09328,-11.4381 10.97763,-15.93112 17.51647,-16.42169 16.48038,-1.23641 19.25524,6.92931 21.34822,16.42169 l 3.28432,43.24379"
       id="path4424"
       inkscape:connector-curvature="0"
       sodipodi:nodetypes="cscc" />
    <path
       style="fill:none;fill-rule:evenodd;stroke:#000000;stroke-width:12.04647827;stroke-linecap:round;stroke-linejoin:round;stroke-miterlimit:4;stroke-dasharray:none;stroke-opacity:1"
       d="m 648.15383,632.05435 c 0.41005,8.78079 -6.77307,18.86961 -20.25342,17.51649 -9.53648,-0.95725 -21.84561,-2.11961 -20.25342,-18.61128 1.12006,-11.60153 7.56914,-18.2265 19.70599,-20.25343 13.32467,-2.22527 14.94074,7.91383 20.25344,12.58996"
       id="path4426"
       inkscape:connector-curvature="0"
       sodipodi:nodetypes="csssc" />
    <path
       style="fill:none;fill-rule:evenodd;stroke:#000000;stroke-width:12.04647827;stroke-linecap:round;stroke-linejoin:round;stroke-miterlimit:4;stroke-dasharray:none;stroke-opacity:1"
       d="m 656.91205,594.83183 27.36947,44.33859"
       id="path4428"
       inkscape:connector-curvature="0"
       sodipodi:nodetypes="cc" />
    <path
       style="fill:none;fill-rule:evenodd;stroke:#000000;stroke-width:12.04647827;stroke-linecap:round;stroke-linejoin:round;stroke-miterlimit:4;stroke-dasharray:none;stroke-opacity:1"
       d="M 701.25062,594.83183 661.29114,714.71021"
       id="path4430"
       inkscape:connector-curvature="0"
       sodipodi:nodetypes="cc" />
    <flowRoot
       xml:space="preserve"
       id="flowRoot4432"
       style="font-style:normal;font-variant:normal;font-weight:normal;font-stretch:normal;font-size:160px;line-height:125%;font-family:Highbush;-inkscape-font-specification:Highbush;letter-spacing:0px;word-spacing:0px;fill:#000000;fill-opacity:1;stroke:none;stroke-width:1px;stroke-linecap:butt;stroke-linejoin:miter;stroke-opacity:1"
       transform="matrix(0.70838029,0,0,0.70838029,1888.0585,-202.77604)"><flowRegion
         id="flowRegion4434"><rect
           id="rect4436"
           width="1440.5435"
           height="257.23993"
           x="-2524.3809"
           y="1442.7422"
           style="font-style:normal;font-variant:normal;font-weight:normal;font-stretch:normal;font-size:160px;font-family:Highbush;-inkscape-font-specification:Highbush" /></flowRegion><flowPara
         id="flowPara4438">Rex's Berry Patch</flowPara></flowRoot>    <path
       style="fill:none;fill-rule:evenodd;stroke:#000000;stroke-width:12.04647827;stroke-linecap:round;stroke-linejoin:round;stroke-miterlimit:4;stroke-dasharray:none;stroke-opacity:1"
       d="m 102.82294,824.29271 0.2746,-109.31399 30.53056,41.10116 26.02496,-45.58595 3.4332,113.75704"
       id="path4185"
       inkscape:connector-curvature="0"
       sodipodi:nodetypes="ccccc" />
    <path
       style="fill:none;fill-rule:evenodd;stroke:#000000;stroke-width:12.04647827;stroke-linecap:round;stroke-linejoin:round;stroke-miterlimit:4;stroke-dasharray:none;stroke-opacity:1"
       d="m 185.05696,777.17382 c 1.54949,-14.7116 5.40135,-24.33447 20.45762,-23.15016 14.24345,1.12037 19.47137,8.03677 23.10459,17.82143 l 4.11715,54.58046"
       id="path4187"
       inkscape:connector-curvature="0"
       sodipodi:nodetypes="cscc" />
    <path
       style="fill:none;fill-rule:evenodd;stroke:#000000;stroke-width:12.04647827;stroke-linecap:round;stroke-linejoin:round;stroke-miterlimit:4;stroke-dasharray:none;stroke-opacity:1"
       d="m 229.03215,802.65742 c -1.55386,9.51973 -7.49726,21.37019 -24.5733,20.04771 -14.48152,-1.12155 -20.40247,-4.60201 -20.27469,-20.63233 0.11095,-13.91973 7.40225,-20.00812 22.02364,-19.69244 15.36907,0.33181 24.65507,9.06163 22.82435,20.27706 z"
       id="path4189"
       inkscape:connector-curvature="0"
       sodipodi:nodetypes="sssss" />
    <path
       style="fill:none;fill-rule:evenodd;stroke:#000000;stroke-width:12.04647827;stroke-linecap:round;stroke-linejoin:round;stroke-miterlimit:4;stroke-dasharray:none;stroke-opacity:1"
       d="m 248.11054,752.69087 30.52348,54.17917"
       id="path4201"
       inkscape:connector-curvature="0"
       sodipodi:nodetypes="cc" />
    <path
       style="fill:none;fill-rule:evenodd;stroke:#000000;stroke-width:12.04647827;stroke-linecap:round;stroke-linejoin:round;stroke-miterlimit:4;stroke-dasharray:none;stroke-opacity:1"
       d="M 308.12466,748.17978 254.70859,874.08913"
       id="path4203"
       inkscape:connector-curvature="0"
       sodipodi:nodetypes="cc" />
    <path
       style="fill:none;fill-rule:evenodd;stroke:#000000;stroke-width:12.04647827;stroke-linecap:round;stroke-linejoin:round;stroke-miterlimit:4;stroke-dasharray:none;stroke-opacity:1"
       d="m 340.74625,722.16547 12.2769,-12.92304 2.58461,119.53832"
       id="path4205"
       inkscape:connector-curvature="0"
       sodipodi:nodetypes="ccc" />
    <path
       style="fill:none;fill-rule:evenodd;stroke:#000000;stroke-width:12.04647827;stroke-linecap:round;stroke-linejoin:round;stroke-miterlimit:4;stroke-dasharray:none;stroke-opacity:1"
       d="m 336.22314,829.54521 39.41535,-1.29229"
       id="path4207"
       inkscape:connector-curvature="0"
       sodipodi:nodetypes="cc" />
    <path
       style="fill:none;fill-rule:evenodd;stroke:#000000;stroke-width:12.04647827;stroke-linecap:round;stroke-linejoin:round;stroke-miterlimit:4;stroke-dasharray:none;stroke-opacity:1"
       d="m 390.50003,727.33471 c 1.00026,-11.71819 15.21422,-17.96712 23.90767,-18.09228 16.44913,0.58822 27.36933,13.91116 27.1384,30.36917 -0.18738,13.35671 -17.5702,25.92576 -34.24612,26.49232 21.65162,-0.87613 41.15972,7.77718 38.76922,27.1384 -2.03636,16.49292 -20.27454,35.03348 -36.83076,33.59996 -13.02897,-1.1281 -32.14685,-15.41134 -29.72303,-26.49225"
       id="path4209"
       inkscape:connector-curvature="0"
       sodipodi:nodetypes="ccscssc" />
    <flowRoot
       xml:space="preserve"
       id="flowRoot4211"
       style="font-style:normal;font-variant:normal;font-weight:bold;font-stretch:normal;font-size:99.45947266px;line-height:125%;font-family:sans-serif;-inkscape-font-specification:'sans-serif Bold';letter-spacing:0px;word-spacing:0px;fill:#000000;fill-opacity:1;stroke:none;stroke-width:1px;stroke-linecap:butt;stroke-linejoin:miter;stroke-opacity:1"
       transform="matrix(0.57708723,0,0,0.57708723,1578.6019,-5.7146359)"><flowRegion
         id="flowRegion4213"><rect
           id="rect4215"
           width="957.26971"
           height="184.42812"
           x="-2489.6956"
           y="1660.9834"
           style="font-style:normal;font-variant:normal;font-weight:bold;font-stretch:normal;font-family:sans-serif;-inkscape-font-specification:'sans-serif Bold'" /></flowRegion><flowPara
         id="flowPara4219"
         style="font-style:normal;font-variant:normal;font-weight:bold;font-stretch:normal;font-size:60px;font-family:sans-serif;-inkscape-font-specification:'sans-serif Bold'">1960 Imperial     Highbush</flowPara></flowRoot>    <path
       style="fill:none;fill-rule:evenodd;stroke:#000000;stroke-width:12.04647827;stroke-linecap:round;stroke-linejoin:round;stroke-miterlimit:4;stroke-dasharray:none;stroke-opacity:1"
       d="m 530.4371,804.67942 c -0.0819,-28.58583 3.98557,-49.71508 -17.54438,-48.09766 -8.68112,0.65215 -11.92316,5.80464 -12.28106,22.70208 -0.3207,15.14068 17.64397,18.0538 23.3925,17.69995 19.12765,-1.17744 19.22345,-12.58329 19.0064,-30.78248 -0.30411,-25.4995 -7.7929,-36.83215 -30.99505,-36.93902 -17.1739,-0.079 -30.84544,15.01626 -31.40618,38.69913 -0.84701,35.77441 26.20056,51.92608 42.79665,50.53578"
       id="path4223"
       inkscape:connector-curvature="0"
       sodipodi:nodetypes="cssssssc" />
    <path
       style="fill:none;fill-rule:evenodd;stroke:#000000;stroke-width:12.04647827;stroke-linecap:round;stroke-linejoin:round;stroke-miterlimit:4;stroke-dasharray:none;stroke-opacity:1"
       d="m 636.6995,749.54466 c -1.40898,20.03626 -6.51409,23.88945 -34.44212,22.43556 -8.53512,-0.44433 -18.66188,-6.4451 -20.54558,-26.41576 -2.22506,-23.58951 9.52476,-35.53288 34.39811,-35.79967 14.97369,-0.1606 22.27919,12.15192 20.74581,48.18467 -1.33669,31.41122 -17.53904,55.17874 -31.86129,82.18234"
       id="path4225"
       inkscape:connector-curvature="0"
       sodipodi:nodetypes="cssssc" />
  </g>
</svg>
