<?xml version="1.0" encoding="UTF-8" standalone="no"?>
<!-- Created with Inkscape (http://www.inkscape.org/) -->

<svg
   xmlns:dc="http://purl.org/dc/elements/1.1/"
   xmlns:cc="http://creativecommons.org/ns#"
   xmlns:rdf="http://www.w3.org/1999/02/22-rdf-syntax-ns#"
   xmlns:svg="http://www.w3.org/2000/svg"
   xmlns="http://www.w3.org/2000/svg"
   xmlns:sodipodi="http://sodipodi.sourceforge.net/DTD/sodipodi-0.dtd"
   xmlns:inkscape="http://www.inkscape.org/namespaces/inkscape"
   width="8.4358473in"
   height="3.7589483in"
   id="svg2"
   sodipodi:version="0.32"
   inkscape:version="0.91 r"
   sodipodi:docname="GnomeFarm-Logo.svg"
   inkscape:output_extension="org.inkscape.output.svg.inkscape"
   version="1.1">
  <defs
     id="defs4">
    <inkscape:perspective
       sodipodi:type="inkscape:persp3d"
       inkscape:vp_x="0 : 526.18109 : 1"
       inkscape:vp_y="0 : 1000 : 0"
       inkscape:vp_z="744.09448 : 526.18109 : 1"
       inkscape:persp3d-origin="372.04724 : 350.78739 : 1"
       id="perspective10" />
    <inkscape:perspective
       id="perspective2833"
       inkscape:persp3d-origin="0.5 : 0.33333333 : 1"
       inkscape:vp_z="1 : 0.5 : 1"
       inkscape:vp_y="0 : 1000 : 0"
       inkscape:vp_x="0 : 0.5 : 1"
       sodipodi:type="inkscape:persp3d" />
  </defs>
  <sodipodi:namedview
     id="base"
     pagecolor="#ffffff"
     bordercolor="#666666"
     borderopacity="1.0"
     gridtolerance="10000"
     guidetolerance="10"
     objecttolerance="10"
     inkscape:pageopacity="0.0"
     inkscape:pageshadow="2"
     inkscape:zoom="0.16"
     inkscape:cx="1269.9"
     inkscape:cy="-635.27366"
     inkscape:document-units="px"
     inkscape:current-layer="GnomeFarmLogo"
     showgrid="false"
     showborder="true"
     inkscape:window-width="1162"
     inkscape:window-height="675"
     inkscape:window-x="110"
     inkscape:window-y="110"
     inkscape:window-maximized="0"
     units="in"
     height="6in"
     fit-margin-top="0"
     fit-margin-left="0"
     fit-margin-right="0"
     fit-margin-bottom="0">
    <inkscape:grid
       type="xygrid"
       id="grid2385"
       visible="true"
       enabled="true"
       originx="-93.979409"
       originy="-74.671878" />
  </sodipodi:namedview>
  <metadata
     id="metadata7">
    <rdf:RDF>
      <cc:Work
         rdf:about="">
        <dc:format>image/svg+xml</dc:format>
        <dc:type
           rdf:resource="http://purl.org/dc/dcmitype/StillImage" />
        <dc:title></dc:title>
      </cc:Work>
    </rdf:RDF>
  </metadata>
  <g
     inkscape:label="Layer 1"
     inkscape:groupmode="layer"
     id="layer1"
     transform="translate(-93.979409,-639.38492)">
    <g
       id="GnomeFarmLogo"
       transform="matrix(1.05625,0,0,1.05625,22.55283,-1005.8512)"
       inkscape:export-xdpi="90"
       inkscape:export-ydpi="90"
       inkscape:label="#g3668">
      <rect
         y="1411.2753"
         x="31.39686"
         height="600"
         width="800"
         id="rect2880"
         style="fill:none" />
      <g
         transform="matrix(0.52048814,0,0,0.52048814,-634.20591,810.48368)"
         id="g2882">
        <path
           style="fill:#000000;fill-opacity:1;fill-rule:nonzero;stroke:#000000;stroke-opacity:1"
           d="m 1588.9048,1556.6674 c 0,-66.24 -53.76,-120 -120,-120 -66.24,0 -120,53.76 -120,120 0,66.24 53.76,120 120,120 66.24,0 120,-53.76 120,-120 z m -29.9872,0 c 0,55.2041 -44.8,100 -100,100 -55.2,0 -100,-44.7959 -100,-100 0,-55.204 44.8,-100 100,-100 55.2,0 100,44.796 100,100 z"
           id="path2389-1"
           sodipodi:nodetypes="csssccsssc"
           inkscape:connector-curvature="0" />
        <path
           style="fill:#000000;fill-opacity:1;fill-rule:nonzero;stroke:#000000;stroke-opacity:1"
           d="m 1779.6176,1627.3561 c -18.1,18.0995 2.4072,35.8585 24.1272,14.1385 21.72,-21.72 35.16,-51.72 35.16,-84.84 0,-66.24 -53.76,-120 -120,-120 -66.24,0 -120,53.76 -120,120 0,33.12 13.44,63.12 35.16,84.84 21.72,21.72 22.2528,3.961 4.1528,-14.1385 -18.1,-18.0995 -29.3,-43.0995 -29.3,-70.7015 0,-55.204 44.8,-100 100,-100 55.2,0 100,44.796 100,100 0,27.602 -11.2,52.602 -29.3,70.7015 z"
           id="path2407-7"
           sodipodi:nodetypes="cscssscsscs"
           inkscape:connector-curvature="0" />
        <path
           style="fill:#000000;fill-opacity:1;fill-rule:nonzero;stroke:#000000;stroke-width:0.66652411;stroke-opacity:1"
           d="m 1543.9048,1766.6546 c 0,-44.1506 -35.8323,-79.9829 -79.9829,-79.9829 -44.1505,0 -79.9829,35.8323 -79.9829,79.9829 0,44.1505 35.8324,79.9829 79.9829,79.9829 44.1506,0 79.9829,-35.8324 79.9829,-79.9829 z m -19.9872,0 c 0,36.7948 -29.8602,66.6524 -66.6524,66.6524 -36.7921,0 -66.6524,-29.8576 -66.6524,-66.6524 0,-36.7948 29.8603,-66.6525 66.6524,-66.6525 36.7922,0 66.6524,29.8577 66.6524,66.6525 z"
           id="path3179-4"
           sodipodi:nodetypes="csssccsssc"
           inkscape:connector-curvature="0" />
        <path
           style="fill:#000000;fill-opacity:1;fill-rule:nonzero;stroke:#000000;stroke-opacity:1"
           d="m 2088.76,1556.6546 c 0,-66.24 -53.76,-120 -120,-120 -66.24,0 -120,53.76 -120,120 0,66.24 53.76,120 120,120 66.24,0 120,-53.76 120,-120 z m -29.9872,0 c 0,55.2041 -44.8,100 -100,100 -55.2,0 -100,-44.7959 -100,-100 0,-55.204 44.8,-100 100,-100 55.2,0 100,44.796 100,100 z"
           id="path3181-0"
           sodipodi:nodetypes="csssccsssc"
           inkscape:connector-curvature="0" />
        <path
           style="fill:#000000;fill-opacity:1;fill-rule:nonzero;stroke:#000000;stroke-opacity:1"
           d="m 2287.6408,1626.6546 c -18.1,18.0994 2.4071,35.8584 24.1271,14.1385 21.72,-21.72 35.16,-51.72 35.16,-84.84 0,-66.24 -53.76,-120 -120,-120 -66.24,0 -119.9999,53.76 -119.9999,120 0,33.12 13.44,63.12 35.1599,84.84 21.72,21.7199 22.2529,3.9609 4.1529,-14.1385 -18.1,-18.0995 -29.3,-43.0995 -29.3,-70.7015 0,-55.204 44.8,-100 100,-100 55.2,0 100,44.796 100,100 0,27.602 -11.2,52.602 -29.3,70.7015 z"
           id="path3183-9"
           sodipodi:nodetypes="cscssscsscs"
           inkscape:connector-curvature="0" />
        <path
           style="fill:#000000;fill-opacity:1;fill-rule:nonzero;stroke:#000000;stroke-opacity:1"
           d="m 2418.9048,1626.6546 c -18.1,18.0994 2.4072,35.8584 24.1272,14.1385 21.72,-21.72 35.16,-51.72 35.16,-84.84 0,-66.24 -53.76,-120 -120,-120 -16.56,0 -32.34,3.36 -46.695,9.435 -7.1775,3.0375 -13.9988,6.7537 -20.3831,11.0681 -6.3844,4.3144 -4.1278,20.1769 1.1925,16.5818 5.3203,-3.5952 11.0047,-6.6919 16.9859,-9.223 11.9625,-5.0622 25.1125,-7.8619 38.9125,-7.8619 55.2,0 100,44.796 100,100 0,27.602 -11.2,52.602 -29.3,70.7015 z"
           id="path3185-4"
           sodipodi:nodetypes="cscsssssscs"
           inkscape:connector-curvature="0" />
        <path
           style="fill:#000000;fill-opacity:1;fill-rule:nonzero;stroke:#000000;stroke-opacity:1"
           d="m 2728.9048,1556.6546 c 0,33.12 -135,5 -135,0 0,-5 105,25 105,-20 0,-35 -44.7872,-80 -99.9872,-80 -55.2,0 -100,44.796 -100,100 0,55.2041 44.8,100 100,100 27.6,0 52.6,-11.199 70.7,-29.2984 18.1,-18.0995 45.8472,-7.5816 24.1272,14.1384 -21.72,21.72 -51.72,35.16 -84.84,35.16 -66.24,0 -120,-53.76 -120,-120 0,-66.24 53.76,-120 120,-120 66.24,0 120,53.76 120,120 z"
           id="path3187-8"
           sodipodi:nodetypes="czcsssscsssc"
           inkscape:connector-curvature="0" />
        <path
           style="fill:#000000;fill-opacity:1;fill-rule:nonzero;stroke:#000000;stroke-opacity:1"
           d="m 1588.0956,1835.316 c 0,33.12 0.1926,215 5.1926,215 5,0 9.9225,-194.1806 10,-200 40,25 150,-10 150,-15 0,-5 -150,30 -150,-20 0.1798,-20 39.6203,-80 94.8202,-80 55.2,0 100,44.796 100,100 0,55.204 29.9872,66.24 29.9872,0 0,-66.24 -53.76,-120 -120,-120 -66.24,0 -120,53.76 -120,120 z"
           id="path3189-8"
           sodipodi:nodetypes="czczcsccss"
           inkscape:connector-curvature="0" />
        <path
           style="fill:#000000;fill-opacity:1;fill-rule:nonzero;stroke:#000000;stroke-opacity:1"
           d="m 2060.4761,1835.316 c 2.8121,40 5.1894,120 12.8121,120 10,0 20,-70 17.1751,-120 0,-66.2399 -53.76,-119.9999 -120,-119.9999 -66.24,0 -120,53.76 -120,119.9999 0,66.24 53.76,120.0001 120,120.0001 16.56,0 32.34,-3.36 46.695,-9.435 14.355,-6.075 -5.8072,-23.489 -17.7697,-18.4269 -11.9625,5.0621 -25.1125,7.8619 -38.9125,7.8619 -55.2,0 -100,-44.796 -100,-100.0001 0,-55.2039 44.8,-99.9999 100,-99.9999 55.2,0 100,44.796 100,99.9999 z"
           id="path3191-2"
           sodipodi:nodetypes="cscsssscsssc"
           inkscape:connector-curvature="0" />
        <path
           style="fill:#000000;fill-opacity:1;fill-rule:nonzero;stroke:#000000;stroke-opacity:1"
           d="m 2321.3485,1749.7745 c -21.72,-21.72 -51.72,-35.16 -84.84,-35.16 -66.24,0 -120,53.76 -120,120 0,33.12 13.44,63.12 35.16,84.84 21.72,21.72 22.2528,3.961 4.1528,-14.1385 -18.1,-18.0995 -29.3,-43.0995 -29.3,-70.7015 0,-55.2041 44.8,-100 100,-100 27.6,0 52.6,11.199 70.7,29.2985 18.1,18.0995 45.8472,7.5815 24.1272,-14.1385 z"
           id="path3193-4"
           sodipodi:nodetypes="cssscssss"
           inkscape:connector-curvature="0" />
        <path
           style="fill:#000000;fill-opacity:1;fill-rule:nonzero;stroke:#000000;stroke-opacity:1"
           d="m 2522.7945,1905.316 c -18.1,18.0994 2.4072,35.8584 24.1272,14.1384 21.72,-21.72 35.16,-51.72 35.16,-84.84 0,-66.24 -53.76,-119.9999 -120,-119.9999 -66.24,0 -120,53.7599 -120,119.9999 0,33.12 13.44,63.12 35.16,84.84 21.72,21.72 22.2528,3.961 4.1528,-14.1384 -18.1,-18.0995 -29.3,-43.0995 -29.3,-70.7016 0,-55.204 44.8,-99.9999 100,-99.9999 55.2,0 100,44.7959 100,99.9999 0,27.6021 -11.2,52.6021 -29.3,70.7016 z"
           id="path3195-5"
           sodipodi:nodetypes="cscssscsscs"
           inkscape:connector-curvature="0" />
        <path
           style="fill:#000000;fill-opacity:1;fill-rule:nonzero;stroke:#000000;stroke-opacity:1"
           d="m 2654.0585,1905.316 c -18.1,18.0994 2.4072,35.8584 24.1272,14.1384 21.72,-21.72 35.16,-51.72 35.16,-84.84 0,-66.24 -53.76,-119.9999 -120,-119.9999 -16.56,0 -32.34,3.36 -46.695,9.435 -7.1775,3.0375 -13.9987,6.7537 -20.3831,11.0681 -6.3844,4.3144 -4.1278,20.1769 1.1925,16.5817 5.3203,-3.5951 11.0047,-6.6918 16.9859,-9.2229 11.9625,-5.0622 25.1125,-7.8619 38.9125,-7.8619 55.2,0 100,44.7959 100,99.9999 0,27.6021 -11.2,52.6021 -29.3,70.7016 z"
           id="path3197-5"
           sodipodi:nodetypes="cscsssssscs"
           inkscape:connector-curvature="0" />
      </g>
    </g>
  </g>
</svg>
