<?xml version="1.0" encoding="UTF-8" standalone="no"?>
<!-- Created with Inkscape (http://www.inkscape.org/) -->

<svg
   xmlns:dc="http://purl.org/dc/elements/1.1/"
   xmlns:cc="http://creativecommons.org/ns#"
   xmlns:rdf="http://www.w3.org/1999/02/22-rdf-syntax-ns#"
   xmlns:svg="http://www.w3.org/2000/svg"
   xmlns="http://www.w3.org/2000/svg"
   xmlns:sodipodi="http://sodipodi.sourceforge.net/DTD/sodipodi-0.dtd"
   xmlns:inkscape="http://www.inkscape.org/namespaces/inkscape"
   width="10.381577in"
   height="1.7452255in"
   id="svg2"
   sodipodi:version="0.32"
   inkscape:version="0.91 r"
   sodipodi:docname="WyvernsRoost-Logo.svg"
   inkscape:output_extension="org.inkscape.output.svg.inkscape"
   version="1.1">
  <defs
     id="defs4">
    <inkscape:perspective
       sodipodi:type="inkscape:persp3d"
       inkscape:vp_x="0 : 526.18109 : 1"
       inkscape:vp_y="0 : 1000 : 0"
       inkscape:vp_z="744.09448 : 526.18109 : 1"
       inkscape:persp3d-origin="372.04724 : 350.78739 : 1"
       id="perspective10" />
  </defs>
  <sodipodi:namedview
     id="base"
     pagecolor="#ffffff"
     bordercolor="#666666"
     borderopacity="1.0"
     gridtolerance="10000"
     guidetolerance="10"
     objecttolerance="10"
     inkscape:pageopacity="0.0"
     inkscape:pageshadow="2"
     inkscape:zoom="0.32117571"
     inkscape:cx="2212.1968"
     inkscape:cy="-235.2059"
     inkscape:document-units="px"
     inkscape:current-layer="layer1"
     showgrid="true"
     showborder="true"
     inkscape:window-width="1553"
     inkscape:window-height="675"
     inkscape:window-x="45"
     inkscape:window-y="173"
     units="in"
     height="4in"
     inkscape:window-maximized="0"
     fit-margin-top="0"
     fit-margin-left="0"
     fit-margin-right="0"
     fit-margin-bottom="0">
    <inkscape:grid
       type="xygrid"
       id="grid2383"
       visible="true"
       enabled="true"
       originx="-44.81796"
       originy="-49.715488" />
  </sodipodi:namedview>
  <metadata
     id="metadata7">
    <rdf:RDF>
      <cc:Work
         rdf:about="">
        <dc:format>image/svg+xml</dc:format>
        <dc:type
           rdf:resource="http://purl.org/dc/dcmitype/StillImage" />
        <dc:title></dc:title>
      </cc:Work>
    </rdf:RDF>
  </metadata>
  <g
     inkscape:label="Layer 1"
     inkscape:groupmode="layer"
     id="layer1"
     transform="translate(-44.81796,-845.57639)">
    <g
       id="g4143"
       transform="matrix(0.18248393,0,0,0.18248393,147.03109,828.77058)">
      <path
         sodipodi:nodetypes="cssccsssccccccccccccccccccccssssssc"
         id="path2385"
         d="m -200,172.375 c 160,40 160,360 320,360 160,0 200,-319.98718 320,-320 120,-0.0128 160,319.98718 320,319.98718 0,80 -200,320 -320,320 320,0 520,-639.98718 640,-639.98718 120,0 160,320 320,320 160,0 200,-319.99634 320,-320 420,-0.0128 480,-0.0128 480,99.98718 -200,0 -320,0 -440,0 0,240 160,220.01282 600,220.01282 0,-38.63283 0,-260.01282 0,-320.01282 380,0 440,0 440,100 -120,0 -220,0 -380,0 0,220 200,220 540,220.01282 0,-120 0,-240 0,-320 310.1487,0 440,139.98718 440,319.98718 7.5183,0 200,0 380,0 0,-40 0,-20 0,-40 -180,0 -323.152,0 -340,0 0,-320 -420,-320 -520,-319.98718 0,45 0,260 0,320 -280,-0.0128 -460,-0.0128 -460,-160.01282 71.4101,0 335.1139,0.0128 380,0.0128 0,-160 -80,-160.01282 -520,-160 0,106.66667 0,213.33334 0,320 -360,1e-5 -520,1e-5 -520,-160 80,0 360,-0.0128 440,-0.0128 0,-160 -80,-160 -520,-159.98718 -160,0.005 -200,320 -320,320 -120,0 -160,-320 -320,-320 -160,0 -200,320 -320,320 -120,0 -160,-320 -320,-320 -160,0 -200,320 -320,320 -120,0 -160,-320 -320,-320 z"
         style="fill:#000000;fill-opacity:1;fill-rule:evenodd;stroke:#000000;stroke-width:1px;stroke-linecap:butt;stroke-linejoin:miter;stroke-opacity:1"
         inkscape:connector-curvature="0" />
      <path
         sodipodi:nodetypes="cccsc"
         id="path3182"
         d="m -560,172.36218 c 160,40.00002 160,360.00002 320,360.00002 160,0 160,-320 320,-360.00002 -160,0 -200,320.00002 -320,320.00002 -120,0 -160,-320.00002 -320,-320.00002 z"
         style="fill:#000000;fill-opacity:1;fill-rule:evenodd;stroke:#000000;stroke-width:1px;stroke-linecap:butt;stroke-linejoin:miter;stroke-opacity:1"
         inkscape:connector-curvature="0" />
      <path
         sodipodi:nodetypes="cccszsccscc"
         id="path3186"
         d="m 1815.4613,733.27538 c -110.01,0 -255.4613,-0.9132 -395.4613,-0.9132 0,220 200,220.00001 560,220.00001 6.5087,0 401.8545,0 460,0 55.0049,0 55.0049,-40 0,-40 -55.0051,0 -470.9583,0 -500,0 -220,0 -480,-1e-5 -480,-160.00001 160,0 350.9821,0 392.1314,0 7.8686,-160 -72.1314,-160 -492.1314,-160 -125.7638,0 -196.4345,0 -380,0 840,20 840,40 835.4613,140.9132 z"
         style="fill:#000000;fill-opacity:1;fill-rule:evenodd;stroke:#000000;stroke-width:0.9350574px;stroke-linecap:butt;stroke-linejoin:miter;stroke-opacity:1"
         inkscape:connector-curvature="0" />
      <path
         sodipodi:nodetypes="cccszsccssccscczsc"
         id="path3188"
         d="m 3056.6699,733.27538 c 110.0102,0 214.6572,0.0123 340.0001,0.0123 0,209.83262 -174.985,219.0745 -376.67,219.0745 -6.5087,0 -561.8546,0 -620,0 -55.0052,0 -55.0052,-40 0,-40 55.005,0 590.9582,0 620,0 183.35,0 340,-7.39098 340,-160 -65.4653,0 -298.8507,0 -340,0 0,-120 60,-160 260,-160 38.2925,0 324.5433,0 500,0 162.4436,0 440,0 580,0 -400,20 -540,20 -720,40 0,0 -100,160 -100,160 0,0 -120,160 -200,160 80,-20 120,-100 160,-160 0,1e-5 80,-159.99999 80,-160 0,0 -280,0 -300,0 -160,-10e-6 -220,0 -223.3301,100.9132 z"
         style="fill:#000000;fill-opacity:1;fill-rule:evenodd;stroke:#000000;stroke-width:0.9350574px;stroke-linecap:butt;stroke-linejoin:miter;stroke-opacity:1"
         inkscape:connector-curvature="0" />
      <path
         sodipodi:nodetypes="csssccscsc"
         id="path3192"
         d="m 2150,592.36218 c -140,0 -270,51.66991 -270,120 0,80 130,140 270,140 140,0 270,-60 270,-140 0,-80 -130,-120 -270,-120 z m 0,20 c 101.19,0 209.9999,37.88152 210,90 0,52.11841 -108.81,89.9999 -210,90 -101.1898,0 -210,-37.88159 -210,-90 0,-52.11848 108.8102,-90 210,-90 z"
         style="fill:#000000;fill-opacity:1;fill-rule:nonzero;stroke:#000000;stroke-width:1.32679212;stroke-opacity:1"
         inkscape:connector-curvature="0" />
      <path
         sodipodi:nodetypes="csssccscsc"
         id="path3205"
         d="m 2690,592.36218 c -140,0 -250,51.66975 -250,120 0,80 110,140 250,140 140,0 270,-60 270,-140 0,-80 -110,-120 -270,-120 z m 0,20 c 101.19,0 210,37.88154 210,90 0,52.11851 -108.81,89.9998 -210,90 -101.19,0 -190,-37.88149 -190,-90 0,-52.11846 88.81,-90 190,-90 z"
         style="fill:#000000;fill-opacity:1;fill-rule:nonzero;stroke:#000000;stroke-width:1.32679212;stroke-opacity:1"
         inkscape:connector-curvature="0" />
      <path
         sodipodi:nodetypes="cccszsccscc"
         id="path2386"
         d="m 3760,312.36218 c 110.0102,0 234.6571,0 360,0 0,209.83262 -200.4986,220 -402.1836,220 -6.5087,0 -79.671,0 -137.8164,0 -55.0052,0 -55.0052,-40 0,-40 55.005,0 108.7746,0 137.8164,0 183.35,0 362.1836,-7.39098 362.1836,-160 -65.4653,0 -318.8507,0 -360,0 1.9274,-122.97514 60,-160 260,-160 61.9988,0 480,0 580,0 -800,20 -800,40 -800,140 z"
         style="fill:#000000;fill-opacity:1;fill-rule:evenodd;stroke:#000000;stroke-width:0.9350574px;stroke-linecap:butt;stroke-linejoin:miter;stroke-opacity:1"
         inkscape:connector-curvature="0" />
      <path
         sodipodi:nodetypes="cscsc"
         id="path2388"
         d="m 3480,332.36218 c 78.7923,0 140,-60 180,-100 40,-40 56.377,-126.36776 135.1693,-139.859877 -78.7923,0 -135.1693,59.859877 -175.1693,99.859877 -40,40 -61.2077,123.80945 -140,140 z"
         style="fill:#000000;fill-opacity:1;fill-rule:evenodd;stroke:#000000;stroke-width:0.81512088px;stroke-linecap:butt;stroke-linejoin:miter;stroke-opacity:1"
         inkscape:connector-curvature="0" />
    </g>
  </g>
</svg>
