<?xml version="1.0" encoding="UTF-8" standalone="no"?>
<!-- Created with Inkscape (http://www.inkscape.org/) -->

<svg
   xmlns:dc="http://purl.org/dc/elements/1.1/"
   xmlns:cc="http://creativecommons.org/ns#"
   xmlns:rdf="http://www.w3.org/1999/02/22-rdf-syntax-ns#"
   xmlns:svg="http://www.w3.org/2000/svg"
   xmlns="http://www.w3.org/2000/svg"
   xmlns:sodipodi="http://sodipodi.sourceforge.net/DTD/sodipodi-0.dtd"
   xmlns:inkscape="http://www.inkscape.org/namespaces/inkscape"
   width="760.39868"
   height="138.54147"
   id="svg2"
   sodipodi:version="0.32"
   inkscape:version="0.91 r"
   sodipodi:docname="Logo.svg"
   inkscape:output_extension="org.inkscape.output.svg.inkscape"
   version="1.1">
  <defs
     id="defs4">
    <inkscape:perspective
       sodipodi:type="inkscape:persp3d"
       inkscape:vp_x="0 : 526.18109 : 1"
       inkscape:vp_y="0 : 1000 : 0"
       inkscape:vp_z="744.09448 : 526.18109 : 1"
       inkscape:persp3d-origin="372.04724 : 350.78739 : 1"
       id="perspective10" />
    <inkscape:perspective
       id="perspective2960"
       inkscape:persp3d-origin="0.5 : 0.33333333 : 1"
       inkscape:vp_z="1 : 0.5 : 1"
       inkscape:vp_y="0 : 1000 : 0"
       inkscape:vp_x="0 : 0.5 : 1"
       sodipodi:type="inkscape:persp3d" />
    <inkscape:perspective
       id="perspective3139"
       inkscape:persp3d-origin="0.5 : 0.33333333 : 1"
       inkscape:vp_z="1 : 0.5 : 1"
       inkscape:vp_y="0 : 1000 : 0"
       inkscape:vp_x="0 : 0.5 : 1"
       sodipodi:type="inkscape:persp3d" />
  </defs>
  <sodipodi:namedview
     id="base"
     pagecolor="#ffffff"
     bordercolor="#666666"
     borderopacity="1.0"
     gridtolerance="10000"
     guidetolerance="10"
     objecttolerance="10"
     inkscape:pageopacity="0.0"
     inkscape:pageshadow="2"
     inkscape:zoom="0.13005135"
     inkscape:cx="1908.504"
     inkscape:cy="-267.97464"
     inkscape:document-units="px"
     inkscape:current-layer="layer1"
     showgrid="false"
     inkscape:window-width="1600"
     inkscape:window-height="848"
     inkscape:window-x="0"
     inkscape:window-y="0"
     showguides="true"
     inkscape:guide-bbox="true"
     showborder="true"
     inkscape:window-maximized="1"
     units="px"
     height="4in"
     fit-margin-top="0"
     fit-margin-left="0"
     fit-margin-right="0"
     fit-margin-bottom="0">
    <inkscape:grid
       type="xygrid"
       id="grid2383"
       visible="true"
       enabled="true"
       units="mm"
       originx="-109.92184"
       originy="-59.892233" />
  </sodipodi:namedview>
  <metadata
     id="metadata7">
    <rdf:RDF>
      <cc:Work
         rdf:about="">
        <dc:format>image/svg+xml</dc:format>
        <dc:type
           rdf:resource="http://purl.org/dc/dcmitype/StillImage" />
        <dc:title></dc:title>
      </cc:Work>
    </rdf:RDF>
  </metadata>
  <g
     inkscape:label="Layer 1"
     inkscape:groupmode="layer"
     id="layer1"
     transform="translate(-109.92184,-853.92847)">
    <g
       transform="translate(9.5316166,713.78804)"
       id="SpanOfTheBow-Stacked" />
    <g
       transform="matrix(0.43130486,0,0,0.43130486,103.66792,797.05896)"
       id="SpanOfTheBow">
      <path
         sodipodi:nodetypes="ccccccccccc"
         id="path3199-8"
         d="m 255,247.36218 c 5,-5 10,-10 15,-15 8.33333,8.33334 16.66667,16.66667 25,25 0,31.66667 0,133.33334 0,165 10,10 20,10 25,5 5,-5 -5,5 -10,10 -5,5 -10,10 -15,15 -8.33333,-8.33333 -16.66667,-16.66666 -25,-25 0,-31.66666 0,-133.33333 0,-165 -10,-10 -20,-10 -25,-5 5,-5 5,-5 10,-10 z"
         style="fill:#000000;fill-opacity:1;fill-rule:evenodd;stroke:#000000;stroke-width:1px;stroke-linecap:butt;stroke-linejoin:miter;stroke-opacity:1"
         inkscape:connector-curvature="0" />
      <path
         sodipodi:nodetypes="ccccccccccc"
         id="path3161-9"
         d="m 475,247.36218 c 5,-5 10,-10 15,-15 8.33333,8.33334 16.66667,16.66667 25,25 0,31.66667 0,63.33334 0,95 10,10 20,10 25,5 5,-5 -5,5 -10,10 -5,5 -10,10 -15,15 -8.33333,-8.33333 -16.66667,-16.66666 -25,-25 0,-31.66666 0,-63.33333 0,-95 -10,-10 -20,-10 -25,-5 5,-5 5,-5 10,-10 z"
         style="fill:#000000;fill-opacity:1;fill-rule:evenodd;stroke:#000000;stroke-width:1px;stroke-linecap:butt;stroke-linejoin:miter;stroke-opacity:1"
         inkscape:connector-curvature="0" />
      <path
         sodipodi:nodetypes="ccccccccccc"
         id="path3187-2"
         d="m 530,247.36218 c 5,-5 15,-10 25,-15 8.33333,8.33334 16.66667,16.66667 25,25 0,31.66667 0,63.33334 0,95 10,10 20,10 25,5 5,-5 -5,5 -10,10 -5,5 -10,10 -15,15 -8.33333,-8.33333 -16.66667,-16.66666 -25,-25 0,-31.66666 0,-63.33333 0,-95 -10,-10 -30,-10 -35,-5 5,-5 5,-5 10,-10 z"
         style="fill:#000000;fill-opacity:1;fill-rule:evenodd;stroke:#000000;stroke-width:1px;stroke-linecap:butt;stroke-linejoin:miter;stroke-opacity:1"
         inkscape:connector-curvature="0" />
      <path
         sodipodi:nodetypes="ccscccccsccc"
         id="path3193-7"
         d="m 395,297.36218 c 5,0 20,0 20,0 0,0 -20,5 -20,5 0,19.12303 0,28.4441 0,50 10,10 20,10 25,5 5,-5 -5,5 -10,10 -5,5 -10,10 -15,15 -8.33333,-8.33333 -16.66667,-16.66666 -25,-25 0,-23.91188 0,-35 0,-55 0,0 -5,-5 -5,-5 5,0 0,0 5,0 10,0 20,0 25,0 z"
         style="fill:#000000;fill-opacity:1;fill-rule:evenodd;stroke:#000000;stroke-width:1px;stroke-linecap:butt;stroke-linejoin:miter;stroke-opacity:1"
         inkscape:connector-curvature="0" />
      <path
         sodipodi:nodetypes="ccccccccccc"
         id="path3195-9"
         d="m 405,247.36218 c 5,-5 10,-10 15,-15 8.33333,8.33334 16.66667,16.66667 25,25 0,31.66667 0,63.33334 0,95 10,10 20,10 25,5 5,-5 -5,5 -10,10 -5,5 -10,10 -15,15 -8.33333,-8.33333 -16.66667,-16.66666 -25,-25 0,-31.66666 0,-63.33333 0,-95 -10,-10 -20,-10 -25,-5 5,-5 5,-5 10,-10 z"
         style="fill:#000000;fill-opacity:1;fill-rule:evenodd;stroke:#000000;stroke-width:1px;stroke-linecap:butt;stroke-linejoin:miter;stroke-opacity:1"
         inkscape:connector-curvature="0" />
      <path
         sodipodi:nodetypes="ccccccc"
         id="path3197-5"
         d="m 375,247.36218 c 5,-5 10,-10 15,-15 8.33333,8.33334 6.66667,6.66667 15,15 5,5 5,5 10,10 -5,-5 -15,-5 -25,5 -10,-10 -20,-10 -25,-5 5,-5 5,-5 10,-10 z"
         style="fill:#000000;fill-opacity:1;fill-rule:evenodd;stroke:#000000;stroke-width:1px;stroke-linecap:butt;stroke-linejoin:miter;stroke-opacity:1"
         inkscape:connector-curvature="0" />
      <path
         sodipodi:nodetypes="ccccccccc"
         id="path3201-4"
         d="m 310,247.36218 c 5,-5 10,-10 15,-15 8.33333,8.33334 16.66667,16.66667 25,25 0,31.66667 0,63.33334 0,95 -15,10 -45,25 -50,30 5,-5 25,-30 25,-30 0,-31.66666 0,-58.33333 0,-90 -10,-10 -20,-10 -25,-5 5,-5 5,-5 10,-10 z"
         style="fill:#000000;fill-opacity:1;fill-rule:evenodd;stroke:#000000;stroke-width:1px;stroke-linecap:butt;stroke-linejoin:miter;stroke-opacity:1"
         inkscape:connector-curvature="0" />
      <path
         sodipodi:nodetypes="ccscccccccc"
         id="path3203-3"
         d="m 707.72531,357.36218 c -5,0 -6.36271,0 -6.36271,0 0,0 6.36271,-5 6.36271,-5 0,-19.12303 0,-68.4441 0,-90 -10,-10 -26.36271,-10 -31.36271,-5 -5,5 5,-5 10,-10 5,-5 10,-10 21.36271,-15 8.33333,8.33333 16.66667,16.66666 25,25 0,23.91188 0,75 0,95 0,5 0,0 0,5 -10,0 -20,0 -25,0 z"
         style="fill:#000000;fill-opacity:1;fill-rule:evenodd;stroke:#000000;stroke-width:1px;stroke-linecap:butt;stroke-linejoin:miter;stroke-opacity:1"
         inkscape:connector-curvature="0" />
      <path
         sodipodi:nodetypes="ccscccccccc"
         id="path3209-1"
         d="m 671.3626,257.36218 c 5,0 5,0 5,0 0,0 -5,5 -5,5 0,19.12303 0,68.4441 0,90 10,10 25,10 30,5 5,-5 -5,5 -10,10 -5,5 -8.63729,10 -20,15 -8.33333,-8.33333 -16.66667,-16.66666 -25,-25 0,-23.91188 0,-75 0,-95 0,-5 0,0 0,-5 10,0 20,0 25,0 z"
         style="fill:#000000;fill-opacity:1;fill-rule:evenodd;stroke:#000000;stroke-width:1px;stroke-linecap:butt;stroke-linejoin:miter;stroke-opacity:1"
         inkscape:connector-curvature="0" />
      <path
         sodipodi:nodetypes="cccccscccccccccc"
         id="path2401-2"
         d="m 948.42616,367.36218 c -5,5 -9.99997,10 -14.99997,15 -8.33333,-8.33334 -16.66667,-16.66667 -25,-25 0,-14.1067 0,-50.30173 0,-90 -5,0 -20,0 -25,0 0,-20 25,-18.29485 25,-20 0,-40.60521 0.84687,-64.25483 0.84687,-80 -10.8469,-10 -25.8469,-5 -25.8469,-5 5.06833,-5.06832 15,-15 25,-25 5,5 25.00003,25 25.00003,25 0,15.94998 0,55 0,85 5,0 29.99997,0 39.99998,0 0,20 -25.00001,20 -39.99998,20 0,25 0,75.41202 0,85 9.99997,10 19.99997,10 24.99997,5 -5,5 -5,5 -10,10 z"
         style="fill:#000000;fill-opacity:1;fill-rule:evenodd;stroke:#000000;stroke-width:1px;stroke-linecap:butt;stroke-linejoin:miter;stroke-opacity:1"
         inkscape:connector-curvature="0" />
      <path
         sodipodi:nodetypes="cccccccccc"
         id="path2403-3"
         d="m 1043.4262,367.36218 c -5,5 -10,10 -15,15 -8.3333,-8.33334 -16.6666,-16.66667 -25,-25 0,-65 0,-140 0.8469,-190 -10.84689,-10 -25.84693,-5 -25.84693,-5 5.0683,-5.06832 15.00004,-15 25.00003,-25 5,5 25,25 25,25 0,60 0,125 0,190 10,10 20,10 25,5 -5,5 -5,5 -10,10 z"
         style="fill:#000000;fill-opacity:1;fill-rule:evenodd;stroke:#000000;stroke-width:1px;stroke-linecap:butt;stroke-linejoin:miter;stroke-opacity:1"
         inkscape:connector-curvature="0" />
      <path
         sodipodi:nodetypes="ccccccccccc"
         id="path2405-3"
         d="m 1043.4262,247.36218 c 5,-5 15,-10 25,-15 8.3333,8.33334 16.6667,16.66667 25,25 0,31.66667 0,63.33334 0,95 10,10 20,10 25,5 5,-5 -5,5 -10,10 -5,5 -10,10 -15,15 -8.3333,-8.33333 -16.6667,-16.66666 -25,-25 0,-31.66666 0,-63.33333 0,-95 -10,-10 -30,-10 -35,-5 5,-5 5,-5 10,-10 z"
         style="fill:#000000;fill-opacity:1;fill-rule:evenodd;stroke:#000000;stroke-width:1px;stroke-linecap:butt;stroke-linejoin:miter;stroke-opacity:1"
         inkscape:connector-curvature="0" />
      <path
         sodipodi:nodetypes="ccscccccccc"
         id="path2409-4"
         d="m 1148.4262,257.36218 c 5,0 5,0 5,0 0,0 -5,5 -5,5 0,19.12303 0,68.4441 0,90 10,10 25,5 30,5 5,0 20,-5 30,-10 -5,5 -43.6373,30 -55,35 -8.3333,-8.33333 -21.6667,-16.66666 -30,-25 0,-23.91188 0,-75 0,-95 0,-5 0,0 0,-5 10,0 20,0 25,0 z"
         style="fill:#000000;fill-opacity:1;fill-rule:evenodd;stroke:#000000;stroke-width:1px;stroke-linecap:butt;stroke-linejoin:miter;stroke-opacity:1"
         inkscape:connector-curvature="0" />
      <path
         sodipodi:nodetypes="ccscccccsccc"
         id="path2411-1"
         d="m 1183.4262,317.36218 c -5,0 -20,0 -20,0 0,0 20,-5 20,-5 0,-19.12303 0,-28.4441 0,-50 -10,-10 -25,-10 -30,-5 -5,5 5,-5 10,-10 5,-5 10,-10 20,-15 8.3333,8.33333 16.6667,16.66666 25,25 0,23.91188 0,35 0,55 0,0 5,5 5,5 -5,0 0,0 -5,0 -10,0 -20,0 -25,0 z"
         style="fill:#000000;fill-opacity:1;fill-rule:evenodd;stroke:#000000;stroke-width:1px;stroke-linecap:butt;stroke-linejoin:miter;stroke-opacity:1"
         inkscape:connector-curvature="0" />
      <path
         sodipodi:nodetypes="ccscccccccc"
         id="path2419-1"
         d="m 1573.3817,357.36218 c -5,0 -6.3627,0 -6.3627,0 0,0 6.3627,-5 6.3627,-5 0,-19.12303 0,-68.4441 0,-90 -10,-10 -26.3627,-10 -31.3627,-5 -5,5 5,-5 10,-10 5,-5 10,-10 21.3627,-15 8.3334,8.33333 16.6667,16.66666 25,25 0,23.91188 0,75 0,95 0,5 0,0 0,5 -10,0 -20,0 -25,0 z"
         style="fill:#000000;fill-opacity:1;fill-rule:evenodd;stroke:#000000;stroke-width:1px;stroke-linecap:butt;stroke-linejoin:miter;stroke-opacity:1"
         inkscape:connector-curvature="0" />
      <path
         sodipodi:nodetypes="ccscccccccc"
         id="path2421-3"
         d="m 1537.019,257.36218 c 5,0 5,0 5,0 0,0 -5,5 -5,5 0,19.12303 0,68.4441 0,90 10,10 25,10 30,5 5,-5 -5,5 -10,10 -5,5 -8.6373,10 -20,15 -8.3333,-8.33333 -16.6666,-16.66666 -25,-25 0,-23.91188 0,-75 0,-95 0,-5 0,0 0,-5 10,0 20,0 25,0 z"
         style="fill:#000000;fill-opacity:1;fill-rule:evenodd;stroke:#000000;stroke-width:1px;stroke-linecap:butt;stroke-linejoin:miter;stroke-opacity:1"
         inkscape:connector-curvature="0" />
      <path
         sodipodi:nodetypes="ccccccccccc"
         id="path2423-8"
         d="m 1682.019,367.36218 c -5,5 -13.6373,10 -23.6373,15 -8.3333,-8.33334 -18.0294,-16.66667 -26.3627,-25 0,-31.66667 0,-63.33334 0,-95 -10,-10 -20,-10 -25,-5 -5,5 5,-5 10,-10 5,-5 10,-10 15,-15 8.3333,8.33333 16.6667,16.66666 25,25 0,31.66666 0,63.33333 0,95 10,10 30,10 35,5 -5,5 -5,5 -10,10 z"
         style="fill:#000000;fill-opacity:1;fill-rule:evenodd;stroke:#000000;stroke-width:1px;stroke-linecap:butt;stroke-linejoin:miter;stroke-opacity:1"
         inkscape:connector-curvature="0" />
      <path
         sodipodi:nodetypes="ccccccccccc"
         id="path2425-7"
         d="m 1742.019,367.36218 c -5,5 -15,10 -25,15 -8.3333,-8.33334 -16.6667,-16.66667 -25,-25 0,-31.66667 0,-63.33334 0,-95 -10,-10 -20,-10 -25,-5 -5,5 5,-5 10,-10 5,-5 10,-10 15,-15 8.3333,8.33333 16.6667,16.66666 25,25 0,31.66666 0,63.33333 0,95 10,10 30,10 35,5 -5,5 -5,5 -10,10 z"
         style="fill:#000000;fill-opacity:1;fill-rule:evenodd;stroke:#000000;stroke-width:1px;stroke-linecap:butt;stroke-linejoin:miter;stroke-opacity:1"
         inkscape:connector-curvature="0" />
      <path
         sodipodi:nodetypes="cccccccc"
         id="path2427-4"
         d="m 1752.019,357.36218 c 0,-31.66667 0,-63.33334 0,-95 -10,-10 -20,-10 -25,-5 -5,5 5,-5 10,-10 5,-5 10,-10 15,-15 8.3333,8.33333 16.6667,16.66666 25,25 0,31.66666 0,68.33333 0,100 -10,0 -20,0 -25,0 z"
         style="fill:#000000;fill-opacity:1;fill-rule:evenodd;stroke:#000000;stroke-width:1px;stroke-linecap:butt;stroke-linejoin:miter;stroke-opacity:1"
         inkscape:connector-curvature="0" />
      <path
         sodipodi:nodetypes="cccccscscccccccsc"
         d="m 806.81593,367.36218 c -5,5 -10,10 -15,15 -8.33333,-8.33334 -16.66667,-16.66667 -25,-25 0,-14.1067 0,-50.30173 0,-90 -5,0 -20,0 -25,0 0,-20 25,-18.29485 25,-20 0,-40.60521 0,-69.25483 0,-85 15,-10 48.05063,-28.05063 50,-30 0.55179,-0.55179 25,30 25,30 -5,-5 -35,-10 -40,-10 -5,5 -10,10 -10,10 0,15.94998 0,55 0,85 5,0 30,0 40,0 0,20 -25,20 -40,20 0,25 0,75.41202 0,85 10,10 20,10 25,5 -5,5 -5,5 -10,10 z"
         style="fill:#000000;fill-opacity:1;fill-rule:evenodd;stroke:#000000;stroke-width:1px;stroke-linecap:butt;stroke-linejoin:miter;stroke-opacity:1"
         id="path3213-2"
         inkscape:connector-curvature="0" />
      <g
         id="S-7"
         transform="matrix(1,0,0,1.0788551,0,-30.65217)">
        <path
           style="fill:#000000;fill-opacity:1;fill-rule:nonzero;stroke:#000000;stroke-width:0.35325548;stroke-opacity:1"
           d="m 70,212.36218 c -10,15 -15,35 0,40 20,0 85,-0.22282 120,0 15,0 60,15 60,55 0,35.00001 -50,60 -80,75 20,-15 55,-30 55,-75 0,-15 -15,-25 -35,-25 -25,0 -100,0 -120,0 -20,0 -30,-10 -30,-30 0,-20 15,-30 30,-40 z"
           id="rect2434-7"
           sodipodi:nodetypes="cccscscccc"
           inkscape:connector-curvature="0" />
        <path
           style="fill:#000000;fill-opacity:1;fill-rule:nonzero;stroke:#000000;stroke-width:0.32339266;stroke-opacity:1"
           d="m 40,259.44613 c -10.12935,12.41058 -10.19402,28.77918 5,32.91605 20.25871,0 99.54728,-0.18436 135,0 20,0 35.82141,12.41289 35.58208,24.82116 C 215,347.36218 195.32338,362.68881 164.93532,379.23625 175.06469,370.96253 195,354.77277 195,342.36218 c 0,-20 -5,-25 -40.19402,-25.17884 -25.32337,0 -89.54727,0.17884 -109.80598,0.17884 -20,0 -25,-20 -25,-25 0,-16.54745 4.80598,-24.64233 20,-32.91605 z"
           id="path2437-9"
           sodipodi:nodetypes="cccscscccc"
           inkscape:connector-curvature="0" />
        <path
           style="fill:#000000;fill-opacity:1;fill-rule:nonzero;stroke:#000000;stroke-opacity:1"
           d="m 100,182.36218 85,25 10,-10 0,0 -100,160 -5,0 85,-135 -75,-20 c -20,0 -25,5 -30,10 5,-10 15,-20 30,-30 z"
           id="rect2439-3"
           sodipodi:nodetypes="cccccccccc"
           inkscape:connector-curvature="0" />
        <path
           style="fill:#000000;fill-opacity:1;fill-rule:nonzero;stroke:#000000;stroke-opacity:1"
           d="m 15,367.36218 c 0,-15 10,-30 45,-30 10,0 25.92385,5 40,5 l 100,20 -30,20 -100,-20 c -5.26569,0 -10,-5 -25,-5 -10,0 -15,5 -15,10 0,5 10,15 20,15 3.18629,0 10.11099,1.04765 15,0 l 70,-15 5,5 -70,15 c -8.95497,1.91892 -20.71397,0 -25,0 -15,10e-6 -30,-10 -30,-20 z"
           id="rect2441-1"
           sodipodi:nodetypes="csccccsscsccscc"
           inkscape:connector-curvature="0" />
      </g>
      <path
         sodipodi:nodetypes="ccccccczccccscccc"
         id="path3253-9"
         d="m 1307.019,202.36218 c 0,-9.99492 46.8786,-29.98478 85.7876,-29.98478 -12.9697,0 -55.7876,19.98986 -55.7876,29.98478 l 0,125 c 0,24.98732 -35,54.90868 -73.909,54.90868 12.9696,0 43.909,-19.98986 44.2235,-29.98478 l -0.3145,-44.97717 c 0,-4.99746 -17.9697,-9.99493 -24.4545,-9.99493 -6.4849,0 -19.4545,0 -19.4545,4.99747 0,-4.99747 6.4848,-14.99239 25.9393,-14.99239 0,0 17.9697,0 17.9697,4.99746 l 0,-19.95434 c -0.052,-10.67321 -30.9394,-15.0279 -37.4242,-15.0279 -6.4848,0 -19.4545,4.99746 -19.4545,9.99492 0,-14.99239 19.4545,-24.98731 32.4242,-24.98731 12.4513,0 24.4545,5.0203 24.4545,4.99746 l 0,-44.97717 z"
         style="fill:#000000;fill-opacity:1;fill-rule:nonzero;stroke:#000000;stroke-width:0.4770264;stroke-opacity:1"
         inkscape:connector-curvature="0" />
      <path
         sodipodi:nodetypes="ccscccccccc"
         id="path3255-8"
         d="m 1352.019,202.36218 c 0,-9.99492 34.3028,-29.9848 73.2117,-29.98478 25.9394,0 64.8483,4.99747 64.8483,34.98225 0,24.98731 -58.3634,44.97716 -84.3028,44.97716 0,0 58.3635,-19.98985 58.3635,-44.97716 0,-19.98986 -25.9393,-29.98478 -38.909,-29.98478 -6.4848,0 -43.2117,19.98731 -43.2117,24.98731 l 0,105 c 0,9.99493 -30.5455,40 -50,40 12.9697,0 20,-20.01015 20,-40 l 0,-105 z"
         style="fill:#000000;fill-opacity:1;fill-rule:nonzero;stroke:#000000;stroke-width:0.4770264;stroke-opacity:1"
         inkscape:connector-curvature="0" />
      <path
         sodipodi:nodetypes="ccccccc"
         id="path3257-6"
         d="m 1308.5038,347.28861 c 45.3938,0 84.3028,4.99747 129.6966,14.99239 1.3247,1.02087 25.2549,-10.52233 25.9393,-9.99492 l 32.4242,0 c -32.4242,4.99746 -51.8787,9.99492 -84.3028,34.98224 -25.9393,-19.98985 -71.3332,-19.98985 -103.7573,-19.98985 l 0,-19.98986 z"
         style="fill:#000000;fill-opacity:1;fill-rule:nonzero;stroke:#000000;stroke-width:1.13855529;stroke-opacity:1"
         inkscape:connector-curvature="0" />
      <path
         sodipodi:nodetypes="ccccccccccccc"
         id="path3259-5"
         d="m 1405.7762,237.34442 6.4849,0 c -0.5489,17.80956 -0.7688,23.03709 -0.2421,40.01776 19.4545,4.99746 35.5455,4.99746 55,0 l 0,5 c -19.4545,4.99747 -35.5455,4.99747 -55,0 0.9162,4.55435 0.041,20.44565 0,25 19.4545,-4.99746 35.5455,-4.99746 55,0 l 0,5 c -19.4545,-4.99746 -35.5455,-4.99746 -55,0 l 0.2421,44.92136 -6.4849,0 0,-119.93912 z"
         style="fill:#000000;fill-opacity:1;fill-rule:nonzero;stroke:#000000;stroke-width:1.13855529;stroke-opacity:1"
         inkscape:connector-curvature="0" />
      <path
         sodipodi:nodetypes="cccccc"
         d="m 1492.019,352.36218 c 0,-14.99239 0,-75.00507 0,-85 -19.4545,-9.99492 -51.2903,-23.07191 -53.8186,-25.02029 l 28.8186,25.02029 c 0,9.99493 0,70 0,85 l 25,0 z"
         style="fill:#000000;fill-opacity:1;fill-rule:evenodd;stroke:#000000;stroke-width:1.13855529px;stroke-linecap:butt;stroke-linejoin:miter;stroke-opacity:1"
         id="path3261-0"
         inkscape:connector-curvature="0" />
      <path
         sodipodi:nodetypes="cccccccc"
         id="path3263-2"
         d="m 1292.019,167.36218 c 30,0 29.4001,9.97085 61.8786,10.01269 l 13.1214,-0.0127 -6.6366,0.0127 c -8.3811,0.3218 -26.8786,19.98731 -33.3634,19.98731 -10,-5 -19.4955,-13.2349 -35,-15 -6.4848,0 -28.909,5.00761 -28.909,5.00761 6.4848,-9.99492 18.909,-20.0076 28.909,-20.00761 z"
         style="fill:#000000;fill-opacity:1;fill-rule:nonzero;stroke:#000000;stroke-width:1.13855529;stroke-opacity:1"
         inkscape:connector-curvature="0" />
    </g>
  </g>
</svg>
