<?xml version="1.0" encoding="UTF-8" standalone="no"?>
<!-- Created with Inkscape (http://www.inkscape.org/) -->

<svg
   xmlns:dc="http://purl.org/dc/elements/1.1/"
   xmlns:cc="http://creativecommons.org/ns#"
   xmlns:rdf="http://www.w3.org/1999/02/22-rdf-syntax-ns#"
   xmlns:svg="http://www.w3.org/2000/svg"
   xmlns="http://www.w3.org/2000/svg"
   xmlns:sodipodi="http://sodipodi.sourceforge.net/DTD/sodipodi-0.dtd"
   xmlns:inkscape="http://www.inkscape.org/namespaces/inkscape"
   width="780.4447pt"
   height="49.455849pt"
   id="svg2"
   sodipodi:version="0.32"
   inkscape:version="0.91 r"
   sodipodi:docname="Tranquillitatis-Logo.svg"
   inkscape:output_extension="org.inkscape.output.svg.inkscape"
   version="1.1">
  <defs
     id="defs4">
    <inkscape:perspective
       sodipodi:type="inkscape:persp3d"
       inkscape:vp_x="0 : 526.18109 : 1"
       inkscape:vp_y="0 : 1000 : 0"
       inkscape:vp_z="744.09448 : 526.18109 : 1"
       inkscape:persp3d-origin="372.04724 : 350.78739 : 1"
       id="perspective10" />
  </defs>
  <sodipodi:namedview
     id="base"
     pagecolor="#ffffff"
     bordercolor="#666666"
     borderopacity="1.0"
     gridtolerance="10000"
     guidetolerance="10"
     objecttolerance="10"
     inkscape:pageopacity="0.0"
     inkscape:pageshadow="2"
     inkscape:zoom="0.27319913"
     inkscape:cx="354.99794"
     inkscape:cy="-95.720753"
     inkscape:document-units="px"
     inkscape:current-layer="layer1"
     showgrid="true"
     showborder="true"
     inkscape:snap-global="true"
     inkscape:window-width="1598"
     inkscape:window-height="717"
     inkscape:window-x="0"
     inkscape:window-y="131"
     inkscape:window-maximized="0"
     units="pt"
     height="2in"
     fit-margin-top="0"
     fit-margin-left="0"
     fit-margin-right="0"
     fit-margin-bottom="0">
    <inkscape:grid
       type="xygrid"
       id="grid2383"
       visible="true"
       enabled="true"
       dotted="false"
       originx="-8.1918493"
       originy="-55.584403" />
  </sodipodi:namedview>
  <metadata
     id="metadata7">
    <rdf:RDF>
      <cc:Work
         rdf:about="">
        <dc:format>image/svg+xml</dc:format>
        <dc:type
           rdf:resource="http://purl.org/dc/dcmitype/StillImage" />
        <dc:title></dc:title>
      </cc:Work>
    </rdf:RDF>
  </metadata>
  <g
     inkscape:label="Layer 1"
     inkscape:groupmode="layer"
     id="layer1"
     transform="translate(-8.1918493,-934.95797)">
    <g
       id="Tranquillitatis"
       transform="matrix(0.25,0,0,0.25,-19.192811,938.38266)"
       inkscape:export-xdpi="90"
       inkscape:export-ydpi="90">
      <path
         sodipodi:nodetypes="ccccccc"
         id="path2387"
         d="m 280,-7.6378174 c 51.06477,0 165,19.9768144 165,80.0000004 0,0 0,-40.000001 -140,-40 -5,0 -25,169.999997 -25,169.999997 0,0 -15,-169.999997 -25,-169.999997 -145,-1e-6 -145,40 -145,40 -0.002,-60.023186 118.93525,-80.0000004 170,-80.0000004 z"
         style="fill:#000000;fill-opacity:1;fill-rule:evenodd;stroke:#000000;stroke-width:0.92271787px;stroke-linecap:butt;stroke-linejoin:miter;stroke-opacity:1"
         inkscape:connector-curvature="0" />
      <path
         sodipodi:nodetypes="ccsccccscc"
         d="m 940,-7.6378174 c 58.51242,4e-7 160,39.8844364 160,199.9999974 0,0 -42.9752,-80 -160,-80 -117.02485,0 -150,80 -150,80 C 790,32.246616 881.48757,-7.637817 940,-7.6378174 Z m 0,40.0000004 c 120,0 130,90.000007 130,90.000007 0,0 -30,-40.000006 -130,-40.000006 -90,-10e-7 -120,40.000006 -120,40.000006 0,0 0,-90.000007 120,-90.000007 z"
         style="fill:#000000;fill-opacity:1;fill-rule:evenodd;stroke:#000000;stroke-width:0.85553122px;stroke-linecap:butt;stroke-linejoin:miter;stroke-opacity:1"
         id="path2391"
         inkscape:connector-curvature="0" />
      <path
         sodipodi:nodetypes="csccc"
         d="m 1430,192.36218 c 0,0 -40,-159.999997 -160,-159.999997 -110,0 -150,159.999997 -150,159.999997 0,-160.115568 91.4876,-199.9999974 150,-199.9999974 58.5125,0 160,39.8844324 160,199.9999974 z"
         style="fill:#000000;fill-opacity:1;fill-rule:evenodd;stroke:#000000;stroke-width:0.85553122px;stroke-linecap:butt;stroke-linejoin:miter;stroke-opacity:1"
         id="path3186"
         inkscape:connector-curvature="0" />
      <path
         sodipodi:nodetypes="cccccsccscsc"
         d="m 1750,92.362186 c 0,0 0,99.999994 -130,99.999994 -15,0 -30,40.00001 -30,40.00001 0,0 -15,-40.00001 -30,-40.00001 -120,0 -120,-99.999997 -120,-99.999997 0,0 0,-100.0000004 150,-100.0000004 160,0 160,100.0000034 160,100.0000034 z m 0,-3e-6 c 0,0 0,59.999997 -160,59.999997 -150,0 -150,-59.999997 -150,-59.999997 0,0 0,-60 150,-60 160,0 160,60 160,60 z"
         style="fill:#000000;fill-opacity:1;fill-rule:evenodd;stroke:#000000;stroke-width:0.85553122px;stroke-linecap:butt;stroke-linejoin:miter;stroke-opacity:1"
         id="path3188"
         inkscape:connector-curvature="0" />
      <path
         sodipodi:nodetypes="csccc"
         d="m 1760,-7.6378174 c 0,0 40,159.9999974 160,159.9999974 110,0 150,-159.9999974 150,-159.9999974 0,160.1155674 -91.4876,199.9999974 -150,199.9999974 -58.5125,0 -160,-39.88443 -160,-199.9999974 z"
         style="fill:#000000;fill-opacity:1;fill-rule:evenodd;stroke:#000000;stroke-width:0.85553122px;stroke-linecap:butt;stroke-linejoin:miter;stroke-opacity:1"
         id="path3195"
         inkscape:connector-curvature="0" />
      <path
         sodipodi:nodetypes="czccc"
         d="m 2135,-7.6378174 c 0,0 20,0 20,100.0000004 0,99.999997 -20,99.999997 -20,99.999997 0,0 -20,0 -20,-99.999997 0,-100.0000004 20,-100.0000004 20,-100.0000004 z"
         style="fill:#000000;fill-opacity:1;fill-rule:evenodd;stroke:#000000;stroke-width:0.85553122px;stroke-linecap:butt;stroke-linejoin:miter;stroke-opacity:1"
         id="path3197"
         inkscape:connector-curvature="0" />
      <path
         sodipodi:nodetypes="csccc"
         d="m 2268.1098,-13.384898 c 0,0 -79.1301,102.595716 11.2102,166.005038 82.8121,58.12523 234.4315,-5.2841 234.4315,-5.2841 -121.594,84.60683 -233.0204,60.42564 -277.0708,29.50704 -44.0501,-30.91864 -90.1649,-105.621141 31.4291,-190.227978 z"
         style="fill:#000000;fill-opacity:1;fill-rule:evenodd;stroke:#000000;stroke-width:0.7647745px;stroke-linecap:butt;stroke-linejoin:miter;stroke-opacity:1"
         id="path3201"
         inkscape:connector-curvature="0" />
      <path
         sodipodi:nodetypes="csccc"
         d="m 2327.8241,-12.582492 c 0,0 -61.9067,80.264949 8.7702,129.872732 64.7873,45.4738 183.4057,-4.13397 183.4057,-4.13397 -95.1281,66.19149 -182.3018,47.27353 -216.7643,23.0846 -34.4621,-24.18896 -70.5396,-82.631871 24.5884,-148.823362 z"
         style="fill:#000000;fill-opacity:1;fill-rule:evenodd;stroke:#000000;stroke-width:0.59831536px;stroke-linecap:butt;stroke-linejoin:miter;stroke-opacity:1"
         id="path3203"
         inkscape:connector-curvature="0" />
      <path
         sodipodi:nodetypes="czccc"
         d="m 2581.3439,-2.6378174 c 0,0 20,0 20,100.0000074 0,99.99999 -20,99.99999 -20,99.99999 0,0 -20,0 -20,-99.99999 0,-100.0000074 20,-100.0000074 20,-100.0000074 z"
         style="fill:#000000;fill-opacity:1;fill-rule:evenodd;stroke:#000000;stroke-width:0.85553122px;stroke-linecap:butt;stroke-linejoin:miter;stroke-opacity:1"
         id="path3205"
         inkscape:connector-curvature="0" />
      <path
         sodipodi:nodetypes="ccccccc"
         id="path3207"
         d="m 2797.5348,-7.6378174 c 51.0647,0 165,19.9768204 165,80.0000004 0,0 0,-40 -140,-40 -5,0 -25,169.999997 -25,169.999997 0,0 -15,-169.999997 -25,-169.999997 -145,0 -145,40 -145,40 0,-60.02318 118.9352,-80.0000004 170,-80.0000004 z"
         style="fill:#000000;fill-opacity:1;fill-rule:evenodd;stroke:#000000;stroke-width:0.92271787px;stroke-linecap:butt;stroke-linejoin:miter;stroke-opacity:1"
         inkscape:connector-curvature="0" />
      <path
         sodipodi:nodetypes="ccsccccscc"
         d="m 3112.5348,-7.6378088 c 58.5124,0 160,39.8844348 160,199.9999888 0,0 -42.9752,-80 -160,-80 -117.0248,0 -150,80 -150,80 0,-160.115554 91.4876,-199.9999888 150,-199.9999888 z m 0,40.0000048 c 120,0 130,89.999994 130,89.999994 0,0 -30,-39.999994 -130,-39.999994 -90,0 -120,39.999994 -120,39.999994 0,0 0,-89.999994 120,-89.999994 z"
         style="fill:#000000;fill-opacity:1;fill-rule:evenodd;stroke:#000000;stroke-width:0.85553122px;stroke-linecap:butt;stroke-linejoin:miter;stroke-opacity:1"
         id="path3209"
         inkscape:connector-curvature="0" />
      <path
         sodipodi:nodetypes="ccccccc"
         id="path3211"
         d="m 3450.9349,-7.6378184 c 51.0647,0 165,19.9768214 165,80.0000014 0,0 0,-40 -140,-40 -5,0 -25,169.999997 -25,169.999997 0,0 -15,-169.999997 -25,-169.999997 -145,0 -145,40 -145,40 0,-60.02318 118.9352,-80.0000014 170,-80.0000014 z"
         style="fill:#000000;fill-opacity:1;fill-rule:evenodd;stroke:#000000;stroke-width:0.92271787px;stroke-linecap:butt;stroke-linejoin:miter;stroke-opacity:1"
         inkscape:connector-curvature="0" />
      <path
         sodipodi:nodetypes="czccc"
         d="m 3667.5348,-7.6378174 c 0,0 20,0 20,100.0000094 0,99.999988 -20,99.999988 -20,99.999988 0,0 -20,0 -20,-99.999988 0,-100.0000094 20,-100.0000094 20,-100.0000094 z"
         style="fill:#000000;fill-opacity:1;fill-rule:evenodd;stroke:#000000;stroke-width:0.85553122px;stroke-linecap:butt;stroke-linejoin:miter;stroke-opacity:1"
         id="path3213"
         inkscape:connector-curvature="0" />
      <path
         sodipodi:nodetypes="csccsscc"
         d="m 4011.738,-12.632173 c 0,0 -188.6703,15.4802526 -193.5722,61.596366 -2.2467,21.13656 46.3816,36.052847 95.5715,45.684981 72.3507,11.513426 18.7975,7.713006 30.0982,11.645196 -16.3007,1.06781 -39.6488,-3.00055 -56.5548,-5.08977 -33.812,-4.178459 -60.0461,-9.794459 -79.9309,-16.049996 -39.7697,-12.511072 -54.1425,-27.580279 -52.9474,-38.823501 2.3901,-22.486363 56.5507,-60.984644 257.3356,-58.963276 z"
         style="fill:#000000;fill-opacity:1;fill-rule:evenodd;stroke:#000000;stroke-width:0.59422725px;stroke-linecap:butt;stroke-linejoin:miter;stroke-opacity:1"
         id="path3215"
         inkscape:connector-curvature="0" />
      <path
         sodipodi:nodetypes="csccsscc"
         d="m 3747.5348,197.30443 c 0,0 189.3532,-13.54005 196.4226,-59.59474 3.2401,-21.10838 -44.675,-36.52019 -93.4,-46.654865 -72.22,-12.304847 -33.0226,-13.692642 -29.5434,-11.951296 20.7837,1.484374 39.4982,3.406756 56.3018,5.668995 33.6073,4.524477 59.5709,10.40838 79.1568,16.866496 39.1718,12.91623 52.8325,28.12932 51.109,39.35757 -3.4471,22.4564 -59.4053,60.38951 -260.0468,56.30784 z"
         style="fill:#000000;fill-opacity:1;fill-rule:evenodd;stroke:#000000;stroke-width:0.59422725px;stroke-linecap:butt;stroke-linejoin:miter;stroke-opacity:1"
         id="path3217"
         inkscape:connector-curvature="0" />
      <path
         sodipodi:nodetypes="csccc"
         d="m 538.42897,212.36218 c 0,0 -79.1301,-102.59571 11.2102,-166.005032 82.8121,-58.12523 234.4315,5.2841 234.4315,5.2841 -121.594,-84.60683 -233.0204,-60.4256404 -277.0708,-29.50704 -44.0501,30.91864 -90.1649,105.621142 31.4291,190.227972 z"
         style="fill:#000000;fill-opacity:1;fill-rule:evenodd;stroke:#000000;stroke-width:0.7647745px;stroke-linecap:butt;stroke-linejoin:miter;stroke-opacity:1"
         id="path3219"
         inkscape:connector-curvature="0" />
    </g>
  </g>
</svg>
